<mxfile host="app.diagrams.net" modified="2022-05-19T06:59:14.696Z" agent="5.0 (Macintosh; Intel Mac OS X 10_15_7) AppleWebKit/537.36 (KHTML, like Gecko) Chrome/101.0.4951.64 Safari/537.36" etag="ftiOOKRhtw8NEAdY0XQu" version="18.0.1" type="github">
  <diagram id="W8clFchtDaEeQmTD1pCi" name="Page-1">
    <mxGraphModel dx="1073" dy="690" grid="1" gridSize="10" guides="1" tooltips="1" connect="1" arrows="1" fold="1" page="1" pageScale="1" pageWidth="827" pageHeight="1169" background="#DAD2D8" math="0" shadow="0">
      <root>
        <mxCell id="0" />
        <mxCell id="1" parent="0" />
        <mxCell id="0MRZYaeRPUGzEPdsHiaZ-33" value="" style="shape=image;verticalLabelPosition=bottom;labelBackgroundColor=default;verticalAlign=top;aspect=fixed;imageAspect=0;image=data:image/png,iVBORw0KGgoAAAANSUhEUgAAAZwAAAIICAYAAABaXljxAAAAAXNSR0IArs4c6QAAIABJREFUeF7svQeYHVd5P/ybcuv21aqtitXlLsuWbVwAY0zHNh/EAZuSPxACARJCSCAJSSAJJJB8+SCBAA8QnhC6+ccmgGnuVe5Vtnovq7LS9tumfc/vnTl3R1d3d+/u3ruWxBk9enb33pkzM+855/29/TWGhoYC6ENTQFNAU0BTQFOgwRQwNOA0mMJ6eE0BTQFNAU0BoYAGHL0QNAU0BTQFNAVmhAIacGaEzPommgKaApoCmgIacPQa0BTQFNAU0BSYEQpowJkRMuubaApoCmgKaApowNFrQFNAU0BTQFNgRiigAWdGyKxvoimgKaApoCmgAUevAU0BTQFNAU2BGaGABpwZIbO+iaaApoCmgKaABhy9BjQFNAU0BTQFZoQCGnBmgMyGYczAXfQtNAU0BaZCgSDQ1b2mQrepXKMBZypUm+Q1GnAmSTB9uqbADFJAA87MEVsDzgzQWgPODBBZ30JTYIoU0IAzRcJN4TINOFMg2mQv0YAzWYrp8zUFZo4CGnBmjtYacGaA1hpwZoDI+haaAlOkgAacKRJuCpdpwJkC0aZ7iV7g06Wgvl5TYHoU0ELg9Og31as14EyVclO8ToPNFAmnL9MUqDMFNOjUmaA1DKcBpwYi1eOUONCo3zX41IOyegxNgdopoEAmDjYaeGqn33TP1IAzXQrWcL0GmxqIpE/RFJgBClQDGg04M0D46BYacGaA1tU0Gt/3Z+DO+haaApoCcQoQXCq1HA04M7dGNOA0iNaVIMNF7Xke+Dl/d123QXfWw2oKaAqMRwHuP9M0qwJPHJA0FetPAQ049aepjEhgiYMOFzhBRi10/q59OA0ivh5WU2AcCliWJWBDK0OlxlPNx6OJWT8KaMCpHy3LI1WCTRyAUqkUEolEebE34PZ6SE0BTYFxKKCEv0KhIFYHBUC8RAGQNrM1ZglpwKkzXeNajfqdkpQCoWw2C4IOF7o+NAU0BWaWAtyLBBhaGHK5nOxLZXWIazv8TB/1p4AGnDrTtBJw1N8EGC52Ak4ymZTf9aKuM/H1cJoCE1CA+1EBzsjIyHGAE9dw9N5szFLSgFNHulaCjQoUUMEC/J6Ak8lkBHD0oSmgKTCzFFBBO9x/BJy4X1VpOvypAacx86IBp450HcucprQbft/U1KQBp44010NpCkyFAgSc4eFhMW2rqDUNOFOh5OSu0YAzOXqNe3YccJQGwwWtNBxerAGnjgTXQ51WFKgWtVnNeV/reeMRh/tzaGiorOHQzMb/PLSG07hlpQGnjrStBBz+zYWtNBzeqrm5WWs4daS5Hur0oUCtQFLreeNRhnuSgMOfBBiCjW3b5UsU+Jw+1D053kQDTh3noRrgKA1HaTwEHPpxtA+njoTXQ50eFPADBAbkv2+EbZ9NGDCjDtAGwlbtfpWW0JMNY1aAo3w4BBsNOI1fRhpwpkFj5YCMD6FCoPkZv+eC5n/1eVtbmwBOtbBobhoVPk0Ji9coYFJ2ZqU1KdXfcRyJeiuVShJuzXtx4yjbtAr7zOfzIsXxPyU6lX/A33mOkvTUc/On2sT8jmOqRLlpkExfeppRgOsnvkbVnohX1VBrNZ5UGXfe83PLMBF4AQITKMCFY3owDQM2QabkImUmBYkEa0wgwqAyNeOJnLVGgB49erS8prm+mR+nDhU0EK9IoBO1p794NeBMg4ZTAZzW1lbx41QDnMoFHS/BoTY1gYOAVSwW5cn5O/MJ+FMBHDcPv+dPAhJBKH5PjkWQYuIbAYjXKbDid7yO9yaI8XduOp6bTqd1SZ5prJfT7VKVt6IEElU9g+tJJTfznZWQw++5LrnW1LX8m2uRCGK4PpCwUDRclOAICKUCEwGFKDOBwKd2YwjgVB5co1yvHEsJZdW0HiVg8Zze3t4y4PB5NeA0foVqwJkGjWsFnLhZjYCjTGqVG0JpI0rLUJoIJbEtW7Zg1qxZWLFihTD9hx9+GFu3bsWCBQtwxRVXiF+IG4bXEJR4Pr/nBuT/devWgdrVs88+iw0bNshnL33pSzFv3jy5jsCkpETFLI4dO4bDhw9j+fLl5dyhyZoupkFefelJToG4xqIEKLVmn3/+eezcuROXX365rDsBFUDW2caNG2Ud7t27VwSaZcuW4eKLL8aiBYsA28BIMYembAZOsYADu/YgARMDg8Ow0xm4Bm1ufmRcGyUQgYv3mT17tghXY2k5ynLAvXbkyJGyZs/nU4JWZQKoek+t4Ux/QWrAmQYN6w04fJS4OYybePfu3fjyl7+MX/7yl3jHO96BP/mTP8HPfvYz/Pd//zeWLl2Kp556Sj679tprcdddd+Gss85CV1cXPvaxj2Hz5s0444wz0NLSgg9/+MOy2fn5ueeeK5uNYaFf+9rX0N3dLRuU33NDHjhwAI8++ih++MMfyib+/Oc/L2DHQ/ueprFgTrNLVZ4ZX4tCysDAgOS2UKj69Kc/jVtuuQXf/e53BUy4rglA3//+9+VzClHt7e0iPPX392PJ0qV457vehbfd+DZksmnYRoADu3aj7+ARtDQ1I9veAaSSKFADN4DIxXMcRXlvrukzzzxTtKhqAKFMgApwFDApDUeZ0hTIaJNafRetBpxp0HMqgEPmr8xf1bQFlQXNn5TannzySTz44IMCLNQ0/vAP/xAf+tCH8N73vlcAh2YBnkug4We/93u/h1e96lX4gz/4A7z5zW+WzceNPXfuXNx222341Kc+JRv+4MGDePvb3y6frVy5UhjCrl27cOutt+IXv/gFnn76aQGgj370owJSfGat3UxjsZyml3Ld0NxKhs11Q+Ho4x//OH7yk5/gO9/5Dn79618L4PCgcPO5z30Ov//7vy+fMUpMAcPPfv5z3HXPPfj6N76Ol11xOdLJBDY89jhakxn0HunF2pe9DCNOEWYmDZsV1yudOJH29Nhjj2HJkiWy3qtFmiktns9Doasa4MTXuQac+i5cDTjToKdy8isVXDn5leM/HjSgfCIdHR1iXoir7fFHqJTKyPQ5Lhn/woULcf3114u2smrVKjGf7dmzB3/xF3+BK6+8Ej09PQIuHPutb32raDqqnA5Bg6YGMgPauml248b8zGc+I5/TD0RmcM899wjQ0eRBgPuv//ovXHjhhfLMSjpUARDxQIZpkFFfegpQgHPNtUiAUUEm/IzaMEFl9erVILP/7Gc/K9r3HXfcIYDDnxdccIGsKWo1TzzxBHbs2CFCDzUirimuwxtvugkds2bJuR1tzfDyeezcuBnNdhIHDx7CxQQcI4DVlEUiApx4kI3S0Dk+hTCai7kXeFQCiFq/KmiAz6Ci1OKFPHmtBpz6Lk4NONOg53QBp9qtK7UI5Qz94Ac/KIDz+te/Hu973/vk/5ve9CYxez3wwAO4+eabxZxAQKMp7je/+Y2YwWgf/8hHPiJ+nkWLFgmo8FqaMf73f/8X//Iv/yL+Hd6HPhuaOKjd8D7vfve78cUvflEkRQYMKHNaJeBoM9s0FtEpdKnSDiicPPTQQwIy+/fvF035hhtukPXG9fWVr3wF69evx7e//W3cf//9OP/882VdUZuhoMO1zPVGTYfg8KUvfQlXX301/uSjf4pkOoVSMQfb9/HMo4+hyU4iny/ioqtfgaGRYRiZNAxWeI68OEq44/okqBH0Dh06JAIYBS51xPeVWr+8t/Kbqig1JUSp6zTg1HeBasCZBj0bAThjPQ5BgoDx/ve/XzScN77xjaLFfO973xNw+epXvyomtD/+4z/Gq1/9ajFfvOENb8DixYtFO2KwATckwYSMgOaMa665Bn/zN38j43DDUfPhBnvhhRdw1VVX4Zvf/KaMqaLV4nlGlZLjNMioLz0FKKAYM39SQ6GmTUHlXe96l5hxb7zxRhF26O/7+te/jnvvvVeEIZrZLrroIjG5cf0pXw+DXr7xjW9I0ArXM7WcVCot3w/nh5C0TezashUoOrBgYsmq1TAzGTjiv/ElP4eHWpNcowQ1mp7POeccSbBWJrU42CjQ5HVKw+F5vK8OGmj8QtSAMw0aTxdwqjk1q4VGczN94hOfEImN5jOCDDcrNziDCj75yU8KaFDTOe+880Qb+du//VuJZGP0Go9//ud/FhPGH/3RHwn4cExqNAQfms5oLlFFRTdt2iSazT/8wz/IPVQoaa35DdMgqb70JKWAChCgaZURkNddd51ozfQbUlPh3wxQ4Tr7whe+gMcff1wCBujLYZCKAgdeT2GHzJ5mXmrgf/mXf4mmbJOEQTPh00gw89/A9s2bMdzXj+55C5BMpVHyfBR9DxaLazJaLdbokGBGzYsa1Nlnny2Ao1IH4sJRPGhAaThxwKk0o2kNp74LUgPONOjZCMCpNKkpPxBt5dxEdIZyUzG0tK+vTyREblqCBU1qPCipcfMxCICgQoDp7OwUXw1NIPT70OzGgAJ+rhI6VYkPjs/vyRxUAqlK/IxH8Shzhg4mmMYiOkUuVZoBmTOjwfbt2yfrg2H5jD5jZBq1BDJxRj1y/TGkngEpFIAo4PAn15bK5yLwcF1xXRI+LMOSxM+S78DxHKRsGwO9R+EUSmBxdZeVCKQMzfGJOEpI4/NQQFL+UbUuK9dn3IfDa5X/RlUaiJvVNODUd4FqwJkGPScDOLwNN108aGAyt45vHsXo4xJefJMop64yg4wVoBC/fzwhrhqQjDeGzk+YzEye2ufGzaoqgCAeJKM0IZXsSc2ZQBRfI3HznNI+ZH2zLXu5dE0gwOE6rmgzhmnAMi1GABzXvr1yD8S1GUXpakEDBB1qWXwWVUctblJTmo4SsPQar8+61YAzDTrOJOBUbqRKf0ocJLhJlGSmEjrVpqsWyj0WCeLBALWA1jRIqS89RSgQZ7yKGat1oph3vEySKr1UCTjxBEz1nQKmynMVqCgSKeFI/V3NDF1JTrX+45GWGnBmftFpwJkGzacLOLVKTdVMVtU2mTJ7xKXGeP2zie5XaYKIa1IKcGrxO02DpPrSU4gCcSFmLAbP9afKJ8UBIl5/LW4Cq9Su4+u3UssfC3DizxLfO8oKoNIXNODM/GLTgDMNms804IwFGNUAqRoziG/ysV47rsnECzCOZQ+vlD6nQU596SlCgfGARmnQSvupBgrKpKZ8KWpdK2CKr/M4WKn1Ww3AxnumuHUgXhRXA87MLzgNONOg+XQAp1ZGHQeAuMYR30RxMFC/x3Nl1CtW+yxupqgkRXzjq+eolnMzkeY0DRLrS08iClQKHWMJMHFTWzXNuNp6iftK1PfVNHa17ivNbpWAEx9DA87Js4g04NR5LuIOVG5I1Z6At6kMGqg3o66m6VR7vfHuGx+j3s9XZ1Lr4V4ECky0PuqxBmt5rbHAb6JrlXbEvcnSNjwqqwzEI9N0lNpEFJ3c9xpwJkevCc+uBjjKNKUAR1V1rjdDn85mjwcTTGSemJAI+oTTjgKVwSZKu6980emswckSbSLwqzZeHHAYwq0AR/WKUn4eNbYGnMnOyvjna8CpLz3LIZvcoErDUaXbmYjGsGgCTq0bs86PN+ZwlSaImbqvvs+pQYGTdX1MVjiKh/8TcHi9AhtVR01rOI1bkxpw6kzbsTQcLmxW1WVBwckCzkyAUzwaiCSZzD3rralNZ0om89zTuc9MXHsy0bWahlNvGlR732rzOR3w04BT71mb3HgacCZHrwnPfjEBp1YGVW0TV3MA18q8a73vhMSrwwm1PnMdbtXwIU4mulZj8uOBwUTEqfXaic6b7HzHTYFaw5lolur/vQacOtO0GuDETWuqH85kKizXuqlqZVATbWJFknrft86kHnM4ZRKJR+XxXVT+hSrZo2rDjeWP4A14TjyjPh6BFa/LxTGU/b8y2ZbjxBl2tQgq9XxxTaLW+ZwJuta6FqbzLGrvxNcfP4v3iKqkSfy5Kn068XmN01x9zqAB/q58qnE/TuUemIn3nw7tTpVrNeDUeaY04NSZoJMcTjFsxSD4kz40VR5fmQ55HoGHgRwKKMZi8PxcNRpj3S/WA1OfKdBRgKMqIvNz/q6YWGXOiTq/Enx+mwFHAXOl+U7RuLLCQBzI4/NeTRur9pkGnElurjqcrgGnDkSMD/FiAc5kpOHTXcNR2oJiUAQcVTBSZb4rAFAl7OPlWeLzSaBiYVT+VJI2x49HO8W1E9UiXEnmlUw0ntyogE49C89VxVKrMdc6L9VJDTdTEn58HSu6Vt67UpNRNK78PJ58Wk3DZGFbHpwzVbi2sgFbXHCZFMH0yVUpoAGnzgujEYBT50ec1nC1gtW0bjKNi8mwFVNnwy9VPHJwcLDcfoHMRTUDi5tOKrPj+Z3SUFghmdewCjLbbfNc3kvdT1XT5t/qd16vzHjqc64PFbXI70lP1fyLoEatSJl5qgkRkxEspkHGEy6tdd6nA0zK1BXXVkgT/q0AuHKO1P2U5ho3o8VfolLj5XdsQhjXVLVJrZ4rpvpYGnDqTGMNOHUm6CSHU5oFgYYMhABBZkRTGD/jT5bTJ2NnHyBl2lLgUckwyZRoemFPF5rSeD3NcLwPx6X9n9GHmzdvxpw5c6SFBMdSfYj4fbxQpQIxMk6OwxL9vAdBZ/bs2QJqiuH+tgJOXAhQ80I6Kp+b0gKVhqg0IQXgca0yPpb6niDGa9gfSvnotIYzyY02xdM14EyRcGNdVg1wuEG4sPmTDIv/XyxJtc6ve9INV2kCufPOO/GjH/0If/7nfy69hNhXiP//9V//VZqFcV6YG8VgDnZNJWB84AMfECAhY/r1r38tHVDZuI6fESQIJqzDpUCFc/mnf/qnAhxK++G4H//4x6UZ2NatWwXs+BkB5T/+4z9kLRBsqHkRbNgunE30FEjSv3Q6H2qfxP1nymxJUxf766hgG9KIdGdKAelHuqvmaWpvKeCggLF06VIRDjgXSjAgLVUwidIwOV8KhOK5OHEtSpvU6rsKNeDUl55jJn5qwKkzoccYTplIyLwUQPzqV7+SzqjsSPmd73xHms6xXTc1l7179wowXHjhhSLx8nsyrFe+8pUCOLfffrs0rWNXS45NJsa5ZPO7z33uc8IAyaweffRRrF69WoQJHmSIHON1r3sd7rvvPtxyyy1y7u/+7u8K4LFpHrUitgPnT57/lre8pdwWOV7if2YoN/N3qfSrkK4E2rvvvhs//elP8dd//dd47LHHpHMt52zbtm34p3/6J5kDdhJ97rnnZE4ITocOHRINk3N4ww034PzzzxfQUZqL0nr4U/nrlEktrt2oPj7VNKOZp9Dpd0cNOHWeU63h1JmgkxwuHgxAsxlBhcDDoAEyKjL+np4e0WL4O5nSO9/5znLXU0rIlGrJ0J5++mkBKs4pAYJjfPCDH5Quq2RWH/nIR/Dud79btJT/+Z//EW1m1qxZAjr8ftWqVXj9618v5rsf/OAH0h3zVa96Fb785S+LOY8dMQlSZKr8edVVV8nbKt/TdPwhkyTbjJ9eaQZTPhjSikBPzfTKK68UAYA0JE0/+9nP4jOf+YxooXfccYfQjedTIyJAU4igJklNkSbQuOlNaTL8qT6n0KA0H63hzMwS0IBTZzprwKkzQSc5nHLik6E9+eST+MpXvoIdO3bg85//PO69916RimkOY3ttmsoICmyDfN111+Guu+4SBvbyl78c8+fPFxCilH3ppZeKyYtgREmbJjAyqw996EP4+7//ezH3EFDI+MjoyPSosbznPe8RvwzBh2Y9mu2o8fB6SvCvfe1rpS042zW/9KUvFe2G5iLeZyyT2ukCQmMBDufshz/8oYAvAZ7a4V/91V8JvTmHBGoCEOeKNKZZknPKNuqkL+m2cOFCvP3tbxdBQ1kWlK8ufl+l4cTBRms4k9xwkzxdA84kCTbR6RpwJqJQ478nkyEIkOFQm/nUpz6F97///WhraxPmRFCi6YUMisyfzIqMjGYxMrLLLrtMmBpNX5So6Tug1LxmzZrywxO0PvnJTwozvPnmm8tBCWSAPMgsqUXRP0SzHP1D9CG9+c1vxm233SaMkWMQkKgVUfOhlkPAIWDFJfI4xU4XwKnmw+G8EWxpQvvZz34mfrHvfe97QlvltyFIX3LJJTKv3/rWt2RuCPQUBFQkIc2fKtxd+YjiNKzUcDTgNH5Plk2UQ0NDbCOujzpRoBbAUX6AOt1SDxOjgIpSU45h/k0G9LGPfUxMWh/+8IfF9KIix5555hl88YtfFGbPc2nCoU/g2muvFYZG8w6/+/a3vy2+HmpEBCn6DBhIQDMPAxCoodDUQwZHjYVMkN/zIFP8+te/jvPOO0/8Qz/+8Y9lfDJVjsfP6Ucg01QS9unuw1GReHFgVSHj9Gl9//vfx9/93d/h5z//uZgsL7/8cvz7v/873ve+9+Gcc84RgeEf//EfxS+nahMShEg3aqWcIzV2JUiraDdqTUojVtGEKrCgMljgdAH6F5tZaA2nzjOgAafOBJ3kcHGTGi+lxPxnf/ZneNvb3iYaCrUOOudVsh+BhM5/ajlk9jSN8ScZEP0E9NPQ5EZzHJkfNaUlS5YIqHzhC1/Ae9/7Xtx6661iuqGETc2G11N74j2p1fCgj4efdXd3i0ZEbeupp54ShkmAownv+uuvl/Np1quWEzRJUpzUp8cDBtSD8p35f8OGDfjP//xPMXMymIOAToZPsL7ppptECKB2yChDgjW1WdKcQgBNlJ/+9KfL+VPKlBYnhsrr0YAz80tEA06daT4R4FC70RpOnYkeG44MhgxJAQqDAj760Y+K2eqKK64QEw2jx3jwPPpWvva1rwmIEDDI3OgD4PU03Zx11lnlXB2CBrUdaiUEi4ceeggXXHAB1q9fL+fwb17LAAP+TWZJXwTNeNRq6DOgD4eSOH/StMZzCUTM5aHviIcKfDjdQUdNm9IelHZKwKE2yYg+ajMM4CDA0JfGqD6aITdt2oTvfve74oujcMBAC/rqCDgUCqjFcn7jWo4COQU4nA+t4TRuL1YbWQNOnek9HuBwA2jAqTPBK4ZT9KemQV8ITS9kXtRSaI4hMyLTopmG51A7+bd/+zeRnr/xjW8I6HCeaAbr6uoSMCBDo8+FoEDgolT9pS99Cddcc40ACyPh7r//fvlJkKCWQrChCY/nMiyb1zKKjcDGsF1GYNFHRDMar1u7dq1oSypXR9V4ayy1XvzR46Yr0o6059xs3LhRAgW2bNkidCaAMCqNgQIE5gceeEDymxgKzes4R/SfUaOlP+6Nb3xjWVCoNIfFAUf9rk1qM7MWNODUmc61AA4doCoXoM63/60fThV6pIZC5kUJdvv27WLKotmFfpnFixcLoycIUPsgADDUmeCj8m/I3AhWBC2auHhwLErXNPXQ90NAYZABGRrNYpTA+Tsl9D179oizm8EAfBZ+z/vxGWiKI1Pk9/yb51JSp5+C91NFRU9nDScOAup3zpcyq3EfEXgI+Oqg9kJNhvSkYKDq1sV/8jrV6FBVFFBaTlzDId3jeTgacGaGdWjAaQCdVf0slSmt/lYajgacBhA9GlI5hFXtLZWBHi9doxhU3NwSD5eNP12lBM7vqH0ogUE5mRU4xM1DvKdKRI0XElVStQrZjScnNo4yp+bI1UBXAUf8jap9Nt4bK8CJ18JTARvxyDY1vxxrsvc4NSne2KfWgNMA+mrAaQBRaxxSRT8pxq8ASGmeHEZpQXHAmYihVDqf405vNV488oq/V4KS+kyNpaKyqoXu1vi6p/1p1aLDpsv4la+IGg7niEBDIUQDTuOXkwacBtBYA04DiFrjkHHAGY8xxQEjrpVU3qYymkppQgrA4ppNHJTiABcHv8pwWwVKOuy2+gTXG3DU/FWa1DTg1LjBpnmaBpxpErDa5RpwGkDUaQxZKwjVegsyrTiYxf8eD7xqHV+f1zgKKG2U86SKd/IzDTiNo3l8ZA04DaCzBpwGELXGIRXzF0Bg2+fYdcxwjv9dy5BxCTuu7Zygwaj7EYxC+5z85P3ipjZ1z0rNqZZn0eeEFKimudaqIcbNqQwKUeZMVW2g0ienfTj1XXUacOpLTxltqoBDBhUYJxZ+INPix4pZ8gy/Zs5Z84l1pUTEdus6Zi2DTbVsRiWVRqehNvqZ0Y0DA/DV/AjahPPG8czwT/Cc0+Golda1v25tI8bXfpXtUt4nPn+LzQFpbpkmfM+HGWk4/Nq0rHKiqAacxq5MDTgNoO9UAUekt4rdqZgVv1ObS5hazbu45hPrSolTGXDiTKw2FggQcCLeBs8I55H/laAg3wenGeDUuLSqgULVxSYnTkxxrn2lPY4FOKFQZpbPU8Av0YK+DxOhSU0EAQKOHYKOBpy6soETBtOA0wD6ThVw4uAy0WPVDDgB5eoZPmpkHI14qrgmON74J2gZMQ0yfl2tdDb9UINRzDB+ncwAGVtMC2rEu8/kmPIqEeMf776CSWPQ9sTrJgYbsSDEwHy8e3tGdQ0n8HwxpQngaA1nJpcNNOA0gNyNAJzKDV6z1ChscKaPoKppcCaeQjH1et1LNJUaBjMDA0ZghJpNhaaqQLCsodYw3kl/So10iXCpNiLW8tI13zeAF1sMShkzqfX4o4DDW1b2wtF5OLVMxNTO0YAzNbqNe9VUASe+OSud3cpEQ/+ASGW1cEGRLl8EwDFeRMDxJx8YoCazum+lVkLTiBiacNSh5lABTY0WqAasyPoPWZvxa3Qu6vXuir5VZ6USjAz/BNNbtSg1DTj1Xx9jjagBpwG0nirgyPYwIueyH4TAYoaAQaAhQ/TMEGwsfnASH+FWP/6oNZKo1teqlsNi1RiHFveHqfv5jDQ7QTuh4yUo1+UaK7eH/gKZkti5Y5n36k2HWuk1E+fVGkF24nmMKBSj8sSPGc1TfK5czwujEs3R0Bormg+JKOTIhlFO+o2HRWvAmZjk9TpDA069KBkbZ6qAI9Yvmp2p8vuUl8MtqDaMb4bAw8+sWgXvmgxC9SVCGBZcjXFUeehy6HJob+cb15pJfkJosdAuBOqJjlG2NGrtIeCIo98IS3CrAAAgAElEQVQ0hTmppzUihjXemPQr8L+Y1kRCCKKAgdF3Lv9W89xN9BYn3/e1zt2JT14b2IgQZnBnRIEZKvLPDNeOzCFnjkIZhbVo7pRJWms4L+6a0YDTAPpPFXDI4gzDF+2F/w3XE3szN03cGS2AU4uGU3bezzSH49YX+bLmo7J0TC0XVubaCEiQXjUccR+YckILmJsGDMsSwBEtzeTPMNSdR2XSZ/lWUUSaCAmUwBl6S/CJod8o4Mz0fNRAkCmeMpEvUUzBMY1E3aZqBYHapq7slVRmvTAUPcy74n9GnXEeHY+fCRKFfjUJEDDhVfhweL4dhUbrKLUpLoQaL9OAUyOhJnPaVAEnAR+278AvuTBKLtyRAtxiqcy0RIqelA8nisWdcS3HgCm+o+N1japMJnq20RRNFfA6McUrEyrHBIMqQ8VNasrRT6YlzCeVlHL3pm3DSdpwrVDj4TGWBG8z1NZ14RZK8Er87xKlREuNBxHUJsdP/O4nwxnVTYbHz3ntgEPNtra3qgxbl3tYBHcTpm0hkUzASiRRsm0EBB8rMkvT3Mk8nIDSXBilxmstUwNObZSf/lkacKZPwxNGmCzgqC2a8BwgN4TScA6m48NyfRiuDysy76j8m0kFDYSehRk+woit44+4aWn0O5o9lMlQzB+1cp3Y4PH6ZLVeLyaZaAwVwkzAEWqZBiwWc0wmUGrOwkslYScSwqTKmk78/rwkXwBG8nALRfhFB4bni0knfNPR6LVKqsSfY4YnaVq3E+CsEu5cKVQosK0NSyYOQYuv/fjYcS2HoGPYNszODngUHLjGqKlG/jU3GI1SCwHHhG3p4p3TWhA1XqwBp0ZCTea0sQDHc11kMk1IZzPw4MO0DASlEhKej5RhwhkcQGloCFYQIBEYoZ/G9UNJ2TQQ2GGueiB+CkP6s0j/EMuC57nCDHkeD9f1kEzYx/XdIRPlM0RVWMpSO68TDUNM3xFriDZnWB6G0qcvYMAxyEA5Ds0TvJtPf5NpiKmCpgnJ5IYtpsAwCUNCHiIwYdSDBRg0uUV2KEqcylel7luhHxmBF55T5tjK1xNKtpXgIQyxnHhZGVNFX40YMMMxI1BQqqRQl/QG4GRTQHMT7HQGjmnBJePyA1imAdP3kAh8eIUiigPDsEoeEq4v82kG7DZZggcPhkVaJOD7FswggCkZoCZ8l7+T45FGdHqT+mIwFVMQ6S3tFRIJ+V3mO26jixalvAlNSKUS7FQKvsyNJfRX/XX4zCLdEwgtS97NdZxyMIQKTuE6sjk/shjCOZeDTFuCV0I/F+fOjOYtPjH0r1QepLUv/8N54OtafmxOOBcyV2Prf+FTRM8S86+pe3kEEZpDpc4d4JEmra0wsxnYmSxKYJi0JXuIdOSjDA4w8TOQ+REBQyd+TobNTelcDThTItv4F1UFHM8XJp3NNiGVzcIJXDEv276LDBlUjkxrAEHJEY2Gm1JCn30vBBKCCs1tnifmHmHYZCA035ARkflzwwlDDBk4mZPkHcSYCxmIYi6qR4vkJQiTCaOs1FHe/sLkQhu5gJ1sal5DpumFTnbe1w0BMASgZDQWzRcEi8jGLqHD/E+mSgZBsBvVbHh7GbtCJC4zN3mWEAxCiZXmrhjglKGHzDzilcIYjwedOOCEZ6m3DQFMfDhs5mUbCLJpWM3N8FJpuHYSAs++B9tzkAmA4uAACsM5JHwTaS+AzYgpAo7lIjBceAHHy8AI0uF8ekXAZ2Z7KnwuvwDDLEXATIZtg+6HkD6hYEGzD01DnP8TDpbYj4QJK5mETyCJHOZcI+IDJJON3qscbKGy7iMtU9aZmlu5dwjMIosEvJ7AYIi2EH7IeVIm0PCzUHCp1OMABry4MlQg69oOHWPhqxAbeT8BobEP9dzh/Y8/xLwq0xh+x5E5X1ZTFnZLCxzLFIHBty0woo1UHurvCytEEGjshAacBvDCyiE14DSAyLUCDrdFMgiQ9jw4xwbgDg0hyY0X1d2iNCxhtqKScGMacD0XzJS2DDpGTRhJMnY/dJb7nux11eODDd+UnyNs8kWpOexcKfucUnDkELdikqna2Bwnfj3vRyk63NeGSN6i6UTOWnVuyIPsUGpFBDZk02WwiKR4ARoyZ6l6VT5OMIsJ+KqYPbLoCHCIZVFEmbAyoZMCl0jDEdPP6GdKSg5OkMQVEw0BR8A1CFCwfJQSFuzmFqCpBX4iiYD39HwkfBdmsYR8f59oqimYSHqR9B74cH0HZjqFwEoin+M8JqOgBD6mAc9xkUwYsCwH8EaEViLlBzYC0xbeqbpgCgBGzu74klWBEpxfaiycU9Xpkt8RiPi5bVPDogYcSvgy/4mEaENqPkVQoeZm089BTTpcPxQA7CQ120pACMFFmQ3Lc1CeTUEqES88gxpGOIJF7V3kkBCsCEZM0rQnqEhQXheqgkCMEIo+Zb+eaaJIIE2lkWlvg5dKCeB4iRBweAxLpQFqq7b467SG0wBmWDGkBpwG0LgWwPGYlOa7sH0PVr4It28AVrGIZBTlpOTtIAIRARWRdl0M9A+glMuLptPe3i6+Bm4YSoxilIlyd1QUF52k3EwCINQ+BHiUphKIZiIhpGUFJzIyCVMOmQJNZqHUHDrO+Rximok0Ev4sj0vmRzYTmVAieIhqWIV5RmSs8rkf137GngzDp1lKmWuU1B1pARxRRSJFprcwxDo8RgOcRxmmSO7HHScCDl/OTRgocuxMBnZbO9xEUrSPhGUh6fso9fWhNDiABAIRHmyxjIVj+VYCjpFAziXt0nCKAYZGRkRDSCZTyGaSsIwizGAEKasEi+tBJAab0x2+Lp9TmRlJ/8ooPK6JUikEXmq10TpQ4FQ2y6XT8EuRCS3UKcO3FzObJ+ADMmLTQNF3Iu1KgTbBh1oBNaBIcAjjx2OGz0jzlOeLaKsAhOOZjLQMTWumHwWV0HnGz6gd02+mtJQxlsF4gBOu3RggGiZcCkiWiXRbO8zmZhRtC55toSRrDhjsH5B7hlFqGnAawApPGFIDTgOoXBPgUPIPqOH48AYG4fUPIi1Sc2j6ke1L04FtInAcOK6DPXv34p5778HObdtw+EAPMpkslixdiiuuvAIXXrQuhAbTQCKVQrFQgJ1MiKQq0i8jqFxXesLTri/Sb2SzFqYc7dX4plVMK+J5sqHz+Tyy2WxZ2g5BJ/Q1cEyRrsX8Y0VlXsKBhVlRk4miuWiSgucCBIjIJ1AOx6tM7JNgO7G7HM/gIj+HgCzNRTQLJlKhGUg+G3tyT7T6VAccP2EgR60ynUZq1my4qZQADtl7yvXhsGvkyDASgQeLICwIbMI3EnCsDIJUGw73jWDX7v3YvXMPDh7pFbNOa2sbzliyAGeftQSdrRZQ7EPSd5D0ApheaG50PEdom+Q9PU80FTGnxg5+X8wXkEiGkXU8qHVyXpSPj3MzMjKCRCIp86+Ys/h5Iory3EKhgKbmJtE4SFOPwo5oOB6SBk1hnLNSNG/KRKpGUOYsVVlTgQ5V6qJontQqBXBEW6UAQcCxJJLMt01YNMOOk0U1HuCEJrVRKUP+TiSQ93wkW1tht7ejKBGHNkps/W0oHw63mCUChNZwGsAMK8W6oaGh8Q2njX+G0+4OYwYNOKM+HI82/sBHihtjJIfS0T4kSg7SkeQpkxJVfaQJ5/HHHsFtt92Gw4cPw/R9kVbJ/MkYiFFvueEGvP6GG2AUiyLluo4LO2Gj6JSEadx3333Ytm0b3vSmN2HWrFnCnKxMBoXBQdx7773YvXOXNKEiaPC7a6+9Fi0tLQJWCqAGBgex/qGH8OpXv1oYIpkczWniHzBNDA0Oyn3WrVuHOfPmiWTu+ZHjm6YazxHzSu5QD7zcMJxCTjQnXxhbCJamZYdmwyh0leaPBJ/Lh/xU44U+llAD473JPNPZJiQ65sFKZ0LwicY4UZMRllu5FWLMLjSpyfNbAYrwUbQSaJ4/H14iBSdKvE15gQgL7uCQmNfswIm0KQOcSS/VgUODLh578nls3rIFnW1t6OyaBSOVwsHDvTjadxRz5rXjlS9fh64WGykvL/48FF1s3rwFBw4ewM6dO7F69WoUikVs37YNl1xyCbq6ujBv3jwks1n07N2LR9Y/jLPPPhsrV64U0MhkMgI2Tz/9tMx9sVjEo48+ihUrVqKzs1OEgjPOOAOtbW0yZi6Xk3O2b9+OZUuXIpVOiga26szVmD1nNrxSnnIP/OIIcr2H4QwPMuIAvhlp1NQmPBfJVBpO5Cvy6JeUoJIAtlsQl6NDesKEaXA+LViGLRWdzXQaLV1dsLKdMKzEcblOZV9UTIOpGl4fCzYpz65pokQTdSaDZFcXipYJ106gKOHRwEBULdo2TQ04M8SFtYbTAEJXAg4jaBgd5EeAk85m4fqhdE/AsfIFlHr7YBeLSJWtEWEODa89fOQwfnzzj7Br505hNAO9R9F78CA6CRzpFA4dPoyhkRz+5lOfxqpzzpGgA9ej/8VHySnh/vvvx57du7Fw0SJhMASMpStWiP2ebPfvPvUpXHrJpWilJGjb2LRpE65+xStEeyKoEajIuAYHBnDX3XfjyiuvFFNeNpPBOeecIw7afC4Hx/WwdctmPPnEE3jn225CU1t7GNFGyZ/46ZaAkUH0bNsEy8mLViAhrJEfhlFufF/+ZLl48Rm5LhIJG16xWJZASyUnDHwwwiQ+CSDwA6SyzWhffh7MTIuExYr5Sak5SosqS9CV4eIx7SlWfy6gD8cARkwTLd0L4CZTcOj0DgykKfD3D8AdGAo1HLjih6EU7xgZDPtZPPrsDjz7/BYMD/XD9IsYHu6XIIKmti4kss3wrQArlnfjZZetQWcyQNZ34A0N44nHH8O27dtw6NBhmXNqKLt27cTChYvw2te/HktWLMevfvpTPPjgQ0glUgIkR48exbnnnivCR+B5eOKJJ3DXXXcJABFUWlpa5RyO9+rXvAazOjtx991347nnnkNzc7Pco7WlBcWREZx59lm44uUvR3t7q5jDjNwwcod7cGzfTiScIjIp5riEJjjRbD36rHxZA6IBS5CICcN3YRRHRPhhhJ8jte4smD6LaBoocRoSNtrmLUB23nIgkQ4DNlTgS2TqjZvMai0NxHmgWU20064uFJj0yfwcsf8aYlKjf9Q2DZ342QA+WG1IDTgNIPSEgJPJghoO7eLUaMxcAe7RPpgCOJF13QirC1BSveP2X2P9Aw9i8aLF6J4/T8Jx77z9N7j40ksxODgkJoI77rwLay68EB//y78S6d5KpbFjy2b85Ce3ioZy0003gR0ODx06hFtuuQWvec1rRIuhNvSlL34RhXxBwIVhzWQY73nPewRUeP4PfvgDLFu2DC3NLaINXXbZZRjJ5bBhw3P4xMc/gVQ6jQP79+OOO+7AK65+BbZs2oxZbe2YPWeeaDppOtxLRcApAiMD6Nu2EYnSCIxSAZnWFrhRJB59GzRrlDxXQsfp8BbtybKQHxwUemVpiyf4JJJI2AkUCkUxNzIMnKHLLcsvALKtMOyElJcJASf0FRx/HB+1NhqlRlF6NLQ3BJwgApyFcMqAYyITBxyGStNMapakH07JyKCn38Pt9z2JwaE8Du3fjj07n8e8WS2U8dE75CPbuRBnrlkLxyvgda+6ArOzQDbIozVh4oVnn8Wdd92JwcFBDA8Pl0PYL7roIlx//fWyLggmw0MjyI/kceGFF4qwsGXLFlz/lreIP+bAgQP46le+IpoPtZdFCxfLax47dgx/9olPIHBdARuOQ22WgsXaCy7Avp27cM1rXiXrSUKu0wmg/yiKh/Zj8MBuZLwiMkmawQKZK2ILtctCqYgSQ/+zWSSTDJAwUSrkUBo4JmvEYAAFzVeJNLy8A7fkoeB6cAwDbfO6kVx4FmCnywEbCmTieVaT2a4Mw3YZCp2JAEeCBpKiaVHlGhQNJ4BlEXAYVKP74UyGvlM5VwPOVKg2wTW1Ag4d5gQcoww4BSSjMtAqGXFkZBj/98c3Y+NzG7Bi6VIsIANPJvHIww/h3DXn49DhIxgcGsajTzyJjlld+Ny//AtaOjolOIBSMnMNaIras2evMBUy6wULugWorrzyChw50os777wT2XRagIlmMvoAOjo68IY3vAF79uwRIPndt75VTGa/uf123HjjjRgaGsK3vvUtfPjDH8bBgwfxk1tvRVt7uwBZ9/z5GOjrwzf/81t4241vx8JFi5FgtncxDwz1on/bRqRKI0Aph3RbG9i3RPmfaFYbGBpCKpMWplXOMSq5KJVKSMtzuuLkTmeaMDI8LJ9Tw7HTWbStvBBBEwGHGk5U2uQ4wFHJhfHINeWHUKAUBxwvBBzLQnN3N5xkGk5gwA4iwOkbgEcNxyeMeAjMgkRcOUYam3b14d6HnsH8efPx+MN3YtOGh3D5BavRnM5g045+GM0Lcd5LXoGe3sO4+qpLsPqMTjRhBCk/h6Fjx3DzD2/GK6+5RkD+ta99LZ7fsAGLFi/G8uXLkWppwc9vuQXJRBLLl67A3r178fzzz+OKK67AqlWrQC16/969+P73vy+Cw759+9DVNVuYKjXZ3/md3xHwfuyRR2R8frZ161acddZZ6Dt2FFdf80qct+Z80Uw8t4hEYRi5nr3I9+xBxi8hk7Dgc61w/Vq2RCwODw/BJIM3IP5FM5lAbmAAtluSAJKAUY1BgEymGX7RhZMvwfEDlAIfbQsXIbnobCCRicLvT0xYLms2NToBaPJj0ECQziJNDScCHFfMbxYG+vrDvCiL0XwacBrACk8YUgNOA6hcC+D49OH4oUnNyBfgHe2DUQwBR4ENdR0y9h9877vYunEj1p5zHrrnzJUsg0ceXY9zzjtPggIGh3P46c9vQyKTwf/7/30RCxYtQqFYEvPUvbffLjZ7SsoEER50HNOEQl/Lxo0b8ctf/AJ//Ed/hO3btot/YPuOHXju2Wfxjne8Q0wx3/zPbwojKhVL2LFjh5jRaKrbuHET/vKTn8T6Bx7AkSNHsHffPjHnzJk7G8OD/Vj/6ONIpprwymteBb9URMJwgd6DOLr9eTT7BVhuEUY6E2aB09lNcxqj8STayhKp2Kb5MZeHm3cFEKmpWFZCtB+a0IYG+gVweA0Bp33FGiDbBhBwQsfQ8RpOWXtR4dpqAcQDEioBxxfAaepeIIBTCkxJzKWG4/cNwh0YRMJnnWpmNBbgGR4cM4XtewfxwCPPYeXyFTiw5zn86qf/jazXj2Y7hbwxG5e/+h1YuPoSvLB9O1avXoxzV81GJhhAe8rH0Z4e3HPXvTJH9MWQ5s8++yyo4dAkls5kcO899+ChBx/CksVLBZwPHTqI5uYWzJ07Fy992cvw8Pr1ovH09vair68Pc+fOC5NIfR/XXXcdZs+eLWDz+OOPl6soE5zcwMPCxYvwildfgzmzZyGZSgADxzCybyfyB3ajKXCQSdrw7bSEGNvUGlwXRccRjTmZTiORTDGFH6WRYbgjw6I0JpnwTG2ouRXu4AiKuaL8zaix9sVnILFodQg4VDKrhICX84fGCSyIb2fPGgWczKwQcHw7CQU4g31Rx0+b600DTgNYoQacmSBqdcDxEDihfVsqDUjujIcUw5Sp4Rzrg1nIC+CIABeZgGjm+tEPv49NG17AS9ZdjJ59+5FJJ+D5RTS3teGRRx7F2ovWiUmtubUN//pv/yYMmb6d/r5+7NuzG/fdf58w3UsvvRRPPPE4lixZIgDS3b0ATz75BNY/tB5/8L4/wFe++lW8613vEubEAIUPfOADYtd/8MEHhYlRO3rkkYdx1VVXSQTTzh07cd111+KnP/0ZLrjgAtxzzz140//zJszrXoDHHnkY+UIJ+/b34Kab3o7AKcH2SvD7j+DQjk1IuTmkDV+YGZkWnczUbmjSI/PiQW2GDIz0LBVc8Q/QbKTySVKZLHLDw/I3TUzJphY0rVyDINsK02bEEw+GXKnOj+Vg8+PydcLzqoe0kVE6JjBsGAI4LisOsLgqGafjIxgYgj84jIRXEg2HuSaOaaNoprHzYD8eevQ5nLdmLRYtnIv9+7bB7z+AJsNHCa2Ytegc7OsdwdPPPYeL156Nc5Z3oQmD8EeO4N677sbRo0PiT6PfhcEZZ59zjggNF69bh1ldXdi4aRP6jh6DU6KfKyGCRbapSTSd3/s//wfrH3wQu/fskTkkSDU3Ncub9vT0yHxRW/rNb36D3EhO6Ld48SJkshkc6Nkn5rFrr7te5j1JpXBkEEM9u5E7tA/NBgMkfCRSGeTyBQlcoQCQTmcwks+jqakpLJLJeWWEZW5IAFGi1MT81ixBLfkIcPhZ+6IzYC1ejcBmYkC1+WC0nEDROLMVTXm0d1zOBTXrdBqZWbNRYAh4Igk3Sl6mD0fyhGhOK7eYjmqyRcmtqpin3HkKZZdmgt+cSvfQGk4DZutEwGF2uV8VcJK0/efycPr6YBFw1PPEsqkffvhh/O//vQUrli7D7Fld8Lwitm7biPnzu5HKZLB3/37cd/8DePNbfgdvf+c7xQxFls1kvxeef04AgwyG0utjjz0mkUw33HCDMPcjx47hgfvuF3ML7fk8j89P0GFEG00zpUJBJGCC3803/wg3vu2tyDQ3iw2cpphf/vKXEkjw7W9/G2vWrMGSJUtx7733Ye3aC+EHBs5afaaYZsxSHu5ALw7v3Aq/MIy0FaAlmy5XN1CVEYR+Eei4LmPCDNjJjPgHhHFF5V4IyqViETwnn8sj2dSMtrPWwU83y7uX/TcqBjoeVh1LEB1vCVD7ckwDI4aBbPd8eAI4gWTKJxwPGBxGMDSCpDsMAy48I4GSlRHAOZZ3cfdDj6HgGTjn/LVo6+xEq83SNyUUHAMHewexZfsueE4B11x5CbqafARDPWi2i9izaw+efm6rmMA2bNggwgLNYtR0VqxcKT4zajxk3K4bJnSSbgQImtdufNvbJMCDv3O+KSTs2rUbmzdvxvnnn4+1a9cKSFC7pZ+uu3s+Fi1ajN27d6Hv2CFceeXLcP6aC4SODPdmZtXgvl3oP7gHWdNHin4POxFWZo4i+sIQ6jAqkT41ChBphuYzyo2FNKV0kgEzlY2i51zk80U4no85i5fCWrwKgRGGdo8ViRZWrBjfpqaulSAFBh0QcLoIOIb4cBjpyHPCKLWwioelKw00gBOeOKQGnAaQecqAk89LlFoYEh2V6PA8DA0P42e3/gTPPPkU0jRVIEDvsSOwLFtCW7ds2yoRaH/7938nf9OJzu+oHdzxm9+IWYWmMmoMZNgMraatf/HixeIwJlNiBNPlL32pSJcbnn0W+/fvx+te9zosWLBAfDo2AwP27sV9992Lt771rWWqybsyq95xBcyef36DMKK21ja84Q3XIpXOIEm/B8GUZWKGB3B0/26UhvthSIJhGDGkJEniAE1nUi1BSs3T1GFLBBQBhyVeeD/eQzLrI8mUjK61vRPp+csQJDJyzXGBAOWSK5EmU2fASbj5UMNh5JzJhM8kHDOJbfsO44HHnoJvpdExex7mzJmDQj6HkuOj93AvnEIBa85aiTWrz4BVPIr2lIuRo/vxwP0Por2rG+dddBH+5wc/wNXXXCPawpNPPilBAAyVpkYTAqslvqxbb7lFhAL6cF521VXYt2ePBA5QqyWYXHbZ5eKTe+aZZ0QwIHjR//bAAw+gWChi5aqVOPvss7B+/X0YGs7hta97PebM74YzPISECQwd3IdjPXtguQVkUgmJ1gvTapXWEUaXKdCRZUytNQjzecK2AWGdOJrSogJMYuabtWARrPYFCAzOmwacBrClk2JIDTgNmIZ6AY7EUTGKJpXC7i1bcd9dd2PDc8+Jw7/ouqI10d6+cuUKXPXKq3HFVS+H55SECZMJEASK+WK5dhqlTAIO/TL8naa9A/sPiKls3ty54tthZBFNIQwQYDgtk0ipbdA/xHBZ+gPmL1hQznhXddk4Bn0uzNVhcqckIlpsuBD6XOgVYQ6O4RbhjgzAL+YR+A4CW8r1lp+RnKjcZkBqvIW10iS0PGJEoi1KYqchAMSDIJRKZ4FEMww7VS6jE683UK7xVe4TNPHk16rhWG5oUpNDfFIWigHrd6WwYftebN5zEH1DRQTpJqnCwH45bZkkzlp+BpbM7cC8liSCfB8sZwgJyxcASLV2wC0UcPjIEXR0diIVmc2Yl0Wgau3shJPLh1UNAqD3yBFh3nPnzw/zYVxXzGk0UTY3NcFOhgmkxXw+9LVIDTEbR3t7JYAgaduwM2kUcgNg6HkylRE6ZlIZgGH8hRGURgYBpwDLZnUAgn+YJBomKoelk+L5T9RGWR9QOiQlbBhcm1H1WMnVoe+EOWEMh060hoXVxsi5CU1aWsOZeNWevGdowGnA3NQTcMhIpSSiYWKorw8bNzyPrdt3ovfYoOSnLFuxHBdfchG6FnajODwEwzKE8VOKZuHOJBPdikUBGCkCGTEZqShsmsKQmltbUcjlkG5qkugyMq0mOuuZkR1VpOY7SWKobSM/PCzaEhkMpWxqQAQyhu9mm7JwS07YaTEAUk3N8FyayLywKKkwe9Z9c6OikMxAjyYhqh3n0VcTleKRkiuR7V6VoxGTSYUZJ8zLYRIqwUsxrWqScvlmNc18rYBj0oQklZBdKXopD00HtZFEDins789jX++A/DcSSbRmk+juaMWy7lnIGh4sJwfbL8JmNJdbEjNh0XXQ3NIi+U/0i7AMDbUcM5GQREXmPqVTaUmWdEsl+ZtVCZKZjBTwNJNJjAwMiODA5EqiA2nIZF8WkCXoEQT4tAQwSfqlf9GhBuaIGZMgNdTXj0w6BUPKGTG3hpopJNmTmqRKzhTfGs25sUoWkodVDDVTChZhT4PQ7MafYcO7UByBN1q+qBwgEAtn14BT05I9qU/SgNOA6Zkc4PiwcgXx4dh5RqmFDxRvCiZlSlg5wLKlcGep5KJQCp3sUoqE/5iRLw54FtcMbem00QfS3oC5BqGNXyLAolV22EMAACAASURBVMKUkqHPIoes4ZZOCdNS7Q5YGkfCkiNQUUUhpRKACp92QtCi2UtCqtl7hM8aFfg0EzYK+aI4iT2HfizmmYfFHKU2l22FZhVGkoXqXFjDS6xsYffOsrbDdgGxcvn8XH0nIdWq5li56nNk51d1eY6b57D0TS0HGTQbsI2Y4/twTJakkUKVLgxpTcCSPSYcz4TR1I6CmUHOt5Fn3TPDQ9Y2kDY9MU8xaTSgGVRK9TCFJpAgO88thNn6qjhqLBlSJUZKGwOpzh22I5DaaCwvFDFqasfMt6Gvi9UDZP4ZzlwogJWlOVcq34kCiWgrFrGIfqGwajXXAbVKyVkhQLAsEUFDBjNF4AgLhSqwGY3yE2GJbRlEG2JOFeda1c9jYjPvyXYWJixV7qYsf4Ra7PHHxBqOOj/04TBGO4sMw6JZd077cGpZ9g07RwNOA0g7ZcAhk1eVBljDUQT5qEQ9JWipi0YnLXMdEuKrIeOUyC2anKg1sOWBbaNYLAgDY1XpsMSML4xDeoFUdK8kIzeZV6EYFSPFWIstqqAr/hSpmUbAsgT0CDQMRxbAiX5XeTPUiijl8z5kWGSgZF6CLRwhmURheEiYH/sDcbzRkNdwQk7wC6uE2HjPnoq5G2VNlUmd8RMV0IxTaC12OueAgJMzTTQt6IbL8i1VggZMagtSep+JkCHg8L1App3IYrDIEjk2WtIJWEEeCalN5koSLzGSgEz/RWAwmsuGabLuXC6cf9I+1pagDLTSW4dFWaM+RRHgUAtS51AAkPkTwSFsHyH0jereqRYVKvqP9ccYxEAqUXsRCI166IRljGjKZUUFHiEYqiKu1MrCquSRn8blc1AjCrVO6bQpIkZYWka666gCr6rqdJXWBidsUfG/TXwQcKS0TZaAMxsF0lkDzsSEa+AZGnAaQNypAk6iUIDE6EQtRSQfh2VSHEfMZCyNEzKOkJGFVfTDfilhcU5Hys3QTEL7uFMsSja+Yi6qHYE4cGMlQyh1OqXQpKLyNOLZ3RxfOYNtaxS0RPpnWf6ouCT/5vX04QhTEsk8LE8jkUCWjUKB1Qz47OFLhnmuIahKVeSwBOMYRwQWE4SnlnWXE3w1cSCK592MvQhqBRyL5kp6rER6DyV4amiMiKLPxko1AXxvpwDbdKUWWSA0omBBLZECBEmShMkWCF4RFnvpRJWc6bdBBCTCqqNWAwQcSYRVwBK1I5D5pfk0RBfRcMj0aaqkoMBcGfpyGOVIgCLg8POwAGhYuJPPLpFo1GJUFWjJzDcFTMW3Jr2YVMM2xi+E1aflGgZ5JFKAGxYA5XnUbAmgYlKt5o/RgNMAjnTyDKkBpwFzUU/A4f6jPZ0Z5dRw6N9Iso8Jw0+FQQfC0PmbbbGcC0vIhwwiQZASKXO0kZf6XQEVf5ZKRdiJMLyVzIAMiH4AggnNZ/TtUOMJtZnEaBMw00SB5XDo9I3MdOw4SROOlPYXhhOWfS8V2WSMhRvDKsb0FZTyBdjU1iLTmTBJVdL+BItXTKodF3AkNCFSkyr74KhBxRY0bmVitSxqBRzJwxGwGTXXOeyemWYYdyA0pWZHR77huCLtiwM96r5JLUVJGjyfme9sThd9Cp8O+cj8FQccartcE8rkKWZUAn5kPmWFaJrJCC5M0CTgcG1II7doznhtKMiEQgLJa6eScAlSXBM0o3Gl0T/DskK8Bw1h9N1xvvm7aL2hcMTxlF+HYMgoRfHrsNlrZCoVn84JAkH15m1aw2kAk3qRhtSA0wDC1xNwxIglJrIiEpaNgz096OxoF4CgpkDmfexon0SuMQdjqH8IxWJJssjpl0lm0hIyy8g0aiKsp8bzGEVGpkPQ2rd3D+Z3zxMJl/k3CxcuFBA5dvSoBBXMnz9fckDIkNrbOiX5UFWRprbEREKGT/NQ7QpyuTwGBvrR3taKwcEBkaDJkJgLRKZ0tK9PtLauztk4eOigaGJds+fALVGyj/sAOKrSTCbScMgsVTg0+bcCqShQoTzX9QecJCsiM/tJuo+yDH/YaXP7jm0wPAdN2RQG+o6ie8FStDbPkuCLgZFhHB3oQ7a5SQC5rSmLtrZW+LlhYe579x/AfM6FYeBAT48U25RgjQgoSHun5KC/f1DyoTgnYb5LIMmi1FY4V5w7hs0z8o3zTqFg944d6GAB1my2bGZlRCITSam9MEoxnx+R63lPzmtzRwcO7dsn89cxqxNHjh2RueG9WdZIWiDY1GILUtmCa1D8j66HJr5XFPAgplslNEQabqTnVu0WqgGnAUzqRRpSA04DCD9VwLHpw4lqqamulgwHppSay+dl42/euBHtbW3o6polm5kSJAszMiT2jDOWYP++/Zg7vxvHenuxdt06cczv3L5dwGTBwoVSLZoAQkZCDYiZ+qxCHUZWAcMjI7hgzQUitW7dsgU9Bw+iu7tbmAjDrDs6OqW0vbL9E4SY5yP1u6hRMV+mVJKy+kePHUNHe5uYczo7OySkmtWMc8WS1HljJFxLS5vkghCIWJKHddhoklPHcX6ZiEmFCYZV6nHKRXHNJa4mVf5eX5NawmMjNQKONFEWLatYKuLZZ55GazNrvg3iUE8PzliyHLadkTDno/192LNvn7QAONp7BE2ZFDraWpFNJTFvfjf29hyQcOXmbFaSPEl3VoVuam4OO7yCJfYHsHv3XsnLkaRYBoHkclKuhuWLmG/DagL8nlrIsuXLsGf3Huzdtxezu2YLSCRTSZmz1atWy7xveJa5VJZEHXKOKKSwpA7BiaWNjvX1oWv2LAwMDkikGnO8WC+OpY3Cencp8Rfx59DQsAS2rD7rLBFw+NySj8PkSzXJx5nRavCtaR9OA7jWzAypAacBdJ4q4FispSabaZQZSgSSncCO7dslNJZMm/1sWLuMWgVzMe6+/XZJ1GQ2OrUYajBSNWDtWgEMMhVqLQQJAgfrp5Hx82/meFCaJXgxfJbaCkvfMCmUZVEYksuDmk9/f7/c+yUveYlUFt61axfa2trkJ8+XXJxUSpgbEwwJJOsuvhiHDh6UZ6WkvWz5cjHrcDzel9Ix80DISMkgeb1qEiZSr/h2okk6DnCqRTDVfzInZ1I73plN7fOpp54SGpEeBIw57C/j+UJL0ov05vf8ne8vJXqSSSxbuUw0RPrFWIRz9+7dwtgZJn3mmWeGhrsgkHyZp596BhdffLFoHtQ0jrBdxdBQWWNdunSpzO+uHTulbw7L5fA+BHmuAc4p52bpsmViruUzU5DguuE5FGhYmYJJpS+88IJoTlxvBCA+MwWNpUuXSBQcAYnn83q+19z58zB/QTdaW1pDU1v03NKWvLZAwRMnVQNO/Rf6DI2oAacBhK4r4EipEMhGJ2hwo8+ZO1eYS25kRNoGsFyJlJZfu1Yq/hJwKJ2uPvNM0YzIfAgKZAxkEgQuMi6aaPb39Ih5g2CjgIVVpakF0YyzbetWYXS8huMoBtW9YAGCZBIDhw7hkUceEQDrmj07jJjzPGE8rOnFVgY075DB0cSiSq+w2gG1mfaODtGyyJCZhb9o+XIkYj6aUxlw6Le4/4EHpI4Z/XCpZFLmjcDD+SGtSAfSl4IAhQkyaTLr7gXz8fymF7Bo4UL5nhoOmTs1SYIQo9ZoAtu5bTt6eg6BoMJWEGTkNIWS6asoQwI4r3v80cew9sIL5XuWsyHQsLwLq1NQAFi6bKloQRRI+Ax8Hs4Xn3nNBReIiZDPy+oFHJPriRoN1xQFCgIK78vvOOdcQ3zvJcuXCrhk0umwtTl9ecpSOpX9pwFnKlQ7Ka7RgNOAaagn4HAsMhSaNc45/3w8/+yzYo4hs2BF50WLFon5igyCki+ZBBkA/16yejVKIyPyhpRq586bJw22yGzISMgghkZGxNRD6ZVMkEyfDI6SLQGDkjj/Zg8VmshYkYDAQZ8AGRCbfJHZkUmxGyWTSPkMlMrJ8Pgd78fvWW+NTJP3Wb9+vVzPscgA+T4s2cLik9SAyia1U1jDodZCAUCFjZOp8/1pzqQWQ02BddKo5fE/mXFLa6skcK5YuRw7d+3E8MiwXCOOfcsSTWjJypXSypqa4f59B7Bg4SKprUbNkjQ/0tsr33ENkKbUXni/A/v24+JLLkF/X5/cl0AovYWiCLflK1diJBJO+Dmfm+uAa2Nedze6582T9cDafpxXnsP1Se2Wa4TzTKGEa5XrhULK4jPOwNzueeLHSTPAgGHtLC6hAacBnOfkH1IDTgPmqJ6AQ/Mauz6SkVD6JQMjE5i/eDH6j9BpC2EINLnQ16IqA1MT4mZnMywCEpkAizbSFMfzCTgt7e3o6+0VMKCpheeQcRAQeA8yD45DUKPph5IuwYzMhpFOO3fsEOfw+evWwS8URNPiODY1n74+0aqogVEq5nlkQGSArGDA0vkM4SajpaOZQQ3UkhzfR1pCc8PjVNZwSC/SgIyZ707JnxoBadHW1i5+OM6NYup8X2Vem9XVKUAxODQkn5GO1BKpXXCO+Lu6dvHSZdi7a5eMy7ni/JL5E3AIQlwDNF/SJ7fuonXla3kuDz4T55odZA8fOiSmUIIhNV2uJ65nglP34sU4uH+/mHepEROoqEFTU13Q3S2BINSYKHDQh3PWWWdi89YtOP+CNRJlyUAUqXjBSLYoInFK209rOFMi28lwkQacBsxCPQGHEiGjzrhRyUQIGPPmz8ec2bPD2mIMlfY8MUnxvpSQyZB6DhyQnimMQiPDp8mDEjYZO7WYWWxb3N8vY5Kpr1i1Cls3by5LrfTjUEoVxzHLzZsmFi9Zgh3btgnjJDMlY1uxYoUwJ45BRsXPaEohk+X9ePCe9N0QoMi4yNxYMJRSN81MNA0SyAg+BEkyo3gekAyiKhFEPgAxzZyQhV7/yZyOD4eMnIKAat9M0ODfpCmZvfKZ0TRFkxoP0o20aO/sELDnnPI9aaZkCDK/5/zRZEVA4LzyPmTmpC/nggDFuSAgUCNlqDs1IIZGn33ueaLF0OTJ51LRhgQnCiGsHNB39KiAhgoO4e/0sdGUS5/eFgo9bW0yPjUeXsc553xz/jmvvb1HpP0F83KGcyMSVKDKFUnQQFg6emqHBpyp0e0kuEoDTgMmoZ6AI6VeaPE2DLDcDMdmywA6dlQuBQEnXyyGhRYzGbHvU8twmEfDnBiW1o+ijcp2/aYmeMWiMDoCiCT8sc5WPl92XKuS98qRzfBsSTKNci0YcZTgOBGzlOtzOWToBB8eFhORRE5F4MBnUX1bZEw2A2NP+cikI7+zWCgbrUXaTQgqYVJo1BBFrjkVAIfPyHeW3BOpAsPSNeGzS74Snf65XJQUa8m5zKkiCDP3JSwvM5ofE0YlOsi0tGC4vx/Z1lYYUVKuJFpGv9O3I+sj+k9aUvvp7OgU8GF+lVQAj+ZT0Vpq5bE0TpTMKSVr6G+hgMGQ56Ym+KVSWHePtdmY4ioN2BJhNQQ3LI3DdUEhg8IP843YWyeVTAkdRrVWDTgNYD0n/ZAacBowRXUFHDIp1jkMd6owe1U+RGpfkXmxHAkjCyKmrByzvESyuyWaiTW8Ym0AxKQRakdSdy3ym6gMdoILAUuSNJloWi5vE16jyuTwHgJEbCkQAYv6nterem2qsoGijTxLLPFQStpHGeryqtH7lrWYU1DDUVUiqLFxfigEMAeF76neS+aPhdPU+3JeWKEgKuev5lvAikm6rEYRmRxZhsZndXACdjSmqrEWT/CVzwh0UR8YmYuoQoWYtqKjDOQx0JGCqFGh13L9NjXnUTHYsFAroyltqc0mZZRYfUIAy5ASTUxGVgHPkhQqzzTFzac1nCkS7sW/TANOA+agnoCjBHspHxKX7KNEFAGICFSkPLxUGgjL3QizEEbjCygIABFIIoewKnGjwEUBknRqjEw4Up040kCk7A3LqkTSsTCoKKNdVS5QNbnKlakjhiZmH5ZdkZ42YUl61dU0NK9E//kOFXXDTtWwaEnMpAYQgQXfUzQdVR+NIBsrtFnW6qLzT2izHBXmJN0EgHiBmNzCRayEhbBqtleec6WR8gJVhUBClJPJkPFzDqO8HlXTjgU+EQkjTFINpFJAdM9IOJCKA+UEznD+eK6AH4UGrsuosLcU/4z3udEmtQZwnpN/SA04DZijegKOyPos2Kl6hMRyUeJScli3LKywHGdcZPBhIcbQHCPZ6JHGImVIouKbkr0utb9CcGIJfId9U6JxVWdHZW7h86j6asr0xvuWta6IGSltR54rAk0lcfN8gotqmSAPHtPSRkXv0WrQ4SmnhklNQDeTQWl4GMnmZmkLIObQCChG04sioUBaMYS/Syn/qMacgHo07wL+ZOhKMxGTa0gPJtgKkEQFNdVclLVLMX+x1I0CKhZyC6K2AdHakbYBUaVuzhfvEwkvAkzUZPicCqAiH5O6RvmcZD0BUt+P7c6l/E7kmxNg1Hk4DeA8J/+QGnAaMEf1BhzymuM2cmS6UhqKegXxF7BgY6z0iWhGyoQRK/lPZiQaTaT5iCYT8zEoEJHSJDGtKW56U9eL1BxJ1Io5lhtykSFJ0cbR1gg0FwnDUg3UohI7yuSiGGTc4iLfyQfhp5Py4VQ13URVylTpszHyEKcTNECAZe0x+mvkZ1MTAvadiZmxBGAU0EYTGZpEQ+2UR1h3jGV7ws/ZqiJsdsZq0WE/GUV3NW/KJKlaFkghTSNsUaEEEv6Mz7kywyn6xreGBC6oayM/kAK34wQApV3Rr8Pnj4p5qmcV7asCcMatLVAtMESb1BrAtWZmSA04DaBzfQFH2EKZYY/5uFExzzgziTOQBrzm9IeM+WXGG0yBTQ1FT6oPU4VpSQuFiPGXwYs9dxTTj24mUnoN7QnC4p3HVxoom5uOMyWFHTIrD3VutWumEo1XbbxqxKk2drXP4s+lxqn2mfpuss98nLkt/qDxGkZqHgk4sQZ8Y91LtyeY/hat9wgacOpN0cjUpEBHOmIGbD7mI3A8iRZja2fWSGOp9iRNWFEDtmqlbfh4oc836pI4Tr/3SmZVlnIb8I51GVJVhq5hMGkUWcN5NZ8SZbwraV5aWTcAcKox/rEY9XH+kBhITpZ5VwOEavecjEAyGcAph7SH0k9NU1IOKBjn7NBMFzVgi/V0opZWjUYacGoi/YyepAGnAeSut4YTBKEZQpku1M+xpOQTclga8I51GXKGNJxqzLKc66NMVTQvRk5uAaE6aDiVc6bAbTzajQUMU6X3eFrIWGPWCnDjajgxsKllPLFsxoq2jqUpSdg1M9BiQKaqZFe+jwacqa6axl2nAacBtK0n4IgP3Q9730i1XRU8MIEk2IDXqv+QMwQ4VRlepYZDf1LCLjOyegBOvHHdRIEOIr3HashVNcdNYgbiASXVNJ7xhqoFIMYCz/i1tY4j2KTyrioerFJDFDoqk1p0Ln1J5dDy2PUacCaxYGboVA04DSB0fQGHeS+hOU1JzKHwOLapYjIbvQGvX/uQkwCcE1pO136XqmeWfQYxDUdCx9mJVIUmRIEEU/XhCOBEARFxwBnPb1INdKYyn9UApxoh6q1Rxe9R6zMowIn/rNRwjgMetvBQSaTcC1EfIK3hTHNTzMDlGnAaQOR6Aw5bSqsIIbXxpsKEGvCq0xuyRr/MtIMGqjylguu4+569g1T4N31s5dDeKQQNcJ6UhhNPmDwt5m16sz6mAFANcE48mRpO1O026mRLmqpk2Pj5WsNpwERNc0gNONMkYLXL6wk4bD0suTTMl4g22FTs8g14zekP+VsCODJfY3eMmz4dT4MRagkaCF9TA86pPN0acBowe/UFHB+OE5afUdE4YwUNNOBVGjvkbwHgxKMLlQQ/1YoujZ2MF3d0DTgvLv1n6u4acBpA6XoDjjKpqTBWreFMf9JmwqQW97txzsScphI9p/8Kp9UIGnBOq+kc82U04DRgnusJOGRU1HBUpYEGPO7khqyzeF5Llsap4MOxvRIsaRgRRhwozSZelib8rlra54lTMFUy10LP8SZ8qvcdfxGpcg7Vcqkq7zjRG4QmNQXgSgjTPpzJbeMX62wNOA2gfL0BhxqOKkXTgMetfcgaTWC1D1jbmacK4JgR4DCiTsyeUVFMFTTAeslhHsnEhwTwTXzacWdI5F30SbWoPhXqPRHgTPa+Ez9mWJGab6+eK6zpUK7rIHlPQXjGBMOFiZ8acCam+sl4hgacBsyKBpz6ElUDTm30PHkBJwQReT4pYaeAZxR0NODUNsen+lkacBowgxpw6ktUDTi10fOUABx5FQU4o7XnNODUNsen+lkacBowgxpw6ktUDTi10fPkBpzQWKbSakPTWqTh0EQm5jT229Emtdpm+9Q8SwNOA+atEYATTx5swCPXNqT24cBNpeH4AWwfSDgeMDiMYGgEDBqo6sOJKg2QwL+9PpwwaCAEnNBvIz8lNylqN/FiAo5tw7L43yqnHqgWGfHCoKdNdGhtu70hZ2nAaQBZ6wo4TPz0RisNNOBxax9SA05tgBMJ77IO2FI6alKmHOaNct6fvBrOqN+mrOEcFzSgAgZeHA1HGg5WAA6j3wg25d5MsTp3tW8YfWYlBTTgNGBNaMCpL1FPOZOaBpzjF0CEtGzIdjzgKLOaMq5ZYlYb/6h/lJoGnPru1/FG04DTAFprwKkvUTXg1EbPk1LDKcdnh4ECKhxaAU/4ZsqHowGntpk+dc/SgNOAudOAU1+iasCpjZ4nL+BEfpuqgBP34WjAqW2mT92zNOA0YO5OacCJZf1Vlhs5PiHweBn1+L/GIupoBNJoYuKoY2ishMPQwWxMGL80malUT1KvatHHBQ3Uy6RWrsKvOl2OtqdWOS00UvlSqn80vks0CSmjYwC+AcOgbySAb7rlHBg5R2hKE5YBDx58i5cEMPiLb8PgSaYLAyUhreEnJfQB8BEYrpyLwIQpTilDisv6/Bc+jgRJyL+yKS1MiA07C8SCB8oaTq0+HI4TVvMO/5tIsJdRxVFrtWhtUpvMzpneuRpwpke/qlefyoCjWjmrsFVWqRYHquobY5nwfJYXMdmIBCxiTSZisY8MmUDgwzQNeBKBFLbH5mFFDDBkOKYwo9Ca4sK0TQlYYnBE2UkbS5Unw5p02v0E83rSA460UzZgkU5CGw+BbcBnLxj44A9GynEeigHbYwMW58ZzZb58j3+n4XukLefJQTLtwYeDwHVh+yYSvg0rSCAwDRSNEpykh1LgIYkmmF4LAp8A1Q8rMQROtOW2wwjSAIrwrWE4ZgAzSCDpJ+V+LoEjacI3OekmDM+EKf99aZAmTQQDDuVLOwHHKcKUqgGerJn4Ua2Nw3G9goQ6EeCYBmyLACmwGC4rBPAsAyXiYDaLTNdsFAzASyRl/XL8gf5+Wa8acBrABMcYUgNOA2h9egBOuCm5IaWNvDS6Cltds+GVS8bB700LnuvBtsJzDYnIAjyCjQBFyBQIWAQa1/VgmZaEoLJcDwGH5/siJQcwzEhSjUqdCAsRUPN/qzQc3/BgkBSeCfiMlrLgBj4VCvGDWAR5Etkw4IYqjdDbIa9PJOD5QK7owgsMJNMZJAwg4RcAOLBMHwnfp/ICy7cFtLy0hRwcOKaPUt5EYdhER3sbrMQwbHtQyvRYXjsMLwXDKMEz8ygFBizfQiJIwncNmMkk8l4JrgGYVgImbASOAafkwHEcdMyahWKphGTShuuWgMBDwmQnW0eAxwiKog3JnFdpMFjZnG5UwzEE0OLXSD8iWwNOA9jbtIbUgDMt8lW/+NQHHG7+sBZYwraE4fu+F1YCCzwBGbJ/PzLHiLnGc5FM2NIw0ykVEJiWABSBhTzEc1yYph21WVCAQ3ONL2AiFU8MSxVAiZIAQxOLQBHvW0c152TXcDzDgW/5CLwEDJDJE6xdJGwawXxYvgHTp57oITBduD61Shu+nYJnJZD3fDz46CPYuX8vXv2616Aj24QWh5qEC8tyYQUOLM+F5VP7MeAmknA4f5k23HPfBhw9nMM1r7wa2awLxz2GBIUEvxlGwOdx4Rs5BJYLSh6mQ43KwHCxCI8CiJ2A60K0HttKY/f+g3h+4yZc8dIr0NzcBM8pAb6DpO3D8Ph7EbM6WmF7Q6GAowGnAVzp5BhSA04D5uGUA5wKv01YZJGQQpNJgFKxgGKxICYznwmOlo1MthmJZFrME5ZtwSuVBHRKxRzy+TyMhA3DMpHNZJFKpXhpCDaWDcd1USgU4DqUfIvIpFPheMKoPFh2kjK8/FeghsD5rQIcx/BRomZoNWNwyMXQ0BBam1Joa0rACggYnJvQn2KYHvwgCVhNcIwUBvMO1j/xJI6NDKBjbid6+4/gFZddgQXpVgRBCY47BNsoImMHMFlgFBYcIw3XzqJ3CPjZL55AS8tsnHP2mfC8YZhGHr7jwAxSMAIa+TwAebR0AHNndSAJark+nt24Bdv3HoRjpWCYaRhmAr5vIucacDyarkwkbBO2CSToG3JySFku5nS24Jwzl6M15cIMOLbWcBrAlk6KITXgNGAaTjnAEaN3KPOXC4wIQrgYHhjAoYM9GBrsF00EnisAMnf+AsyaPUdMPWzL7LklHDxwAIcPHkCpWIRhmzATNmZ1dmHevHnINDfDdegTMNDb24uDBw8hX8iL5pJKJtDR1o7587uRaW5F4BsIKK0jAd8g8NCsFmpD9TpOdg2naCSQQxojRQuPPvE8Nm/ejPPOXoKXXXouEkGOLF4c9nTe0AdBwDGMFvQPOdi6Yx82b9uBiy5bh7kLunD7Xb9GaTiH1155Ndo7W+EjB98dgG0USGEESAB2G4adJB55agee3LAb7e2z4JTyMODALeWQsOh347/Q3+97ecydl8YbX3s1/EIeyUQSgzkHRmYWtu49gqJnIpHMwvMC5FwLrh8gm82IGc2Cg5TpIW2VMKspgYztyd9JM68Bp14L/CQdRwNOAybmVAOc0JxllvMkxFgWeCgWcjiwZzcKuSHMmTMbLS3NgOugt/cYjvb1YeEZS9DZOUsA3gkmxAAAIABJREFU4eiRwzjUcwBzurrQ1tYCWCaGh4fQc+AgZnXNxtz58+H5Po4eO4aegwfR0dmJlpYWWHTsFgo4fOggOto7MG/+QthWCoFBsEnCM2wxq5kg4EQhtHXI+j6ZAYea4IifwpNbD2Pj9sPw7BYMDw9g2aJ2vPySFciaw0hYgWgNsNPwqN0EKeRHgA0btmH3rh5cdNHFWLZ8CTwvj+GRfjzyyCMM3cDZ55+LufM7YVsF+KV+JC2CuAXfaMOGLYdxz4NP4rKXX4H5C2ajVMohaVkwfAOWBAg4ErkWuAE2bHgBpfwAXnXVZUgERbiuAyvdhv3HSvjJrx/A3IXL0NzaDtejuTWNTZu3YtnypcimU2JKG+47iMJAD656yRrMa8vARglmUJDxq/lvBOdi885z1N+qIgDNtxRoaArm964FHTTQAP42nSE14EyHemNce+oBDh36jIllnjd9JT6swEMuN4StLzyPObM7sWDBfMA0Ac+D5/nYtHET2jo60b1ggTidt23eKGa4VatWiZlHzg2A7Zu3iAbUvXChAMfmLVuQyWawYuUqmDS1OSX4roODPQdwqKcHq1atRnNLB3wzhcBMwrdS4i8y/d8uwDnYV8Rt9z6DzoXn4owzL8Qdd92BZQua8YpLlqLZHpZIMY+zZWaRcxPIDRXx6PqnMNSfw9o16/D/s3cmcJJlVZn/4sUekXtWZmVVdVVX9b6wNE0D0ggIouICsomjqKMzOqMzo86i4+zuCC6jMLjNjDijjgiISIsggqggstob3U1v1d1VXVtm5b7E+l68+f3PfTfyVVZWVVR1ZndVdwRUR2bGi/fuu/e+853lO+dcdeBKc4cuL8xrbGxItVZDn/7SFzS/uKL9V+7XjTdcoSBeUbnQUTbI67HHl/X3X3hI5eFdeu4Lnq1SGeZhR+1mZEy2TCZSId9SqZgTYZe777xPK4vT+tqX3aJyrg27QS0VNLOS1Xs+9EldecNNGh4ft72ythDp7rvv0fNuvlnFYl75oK3VxWktTz+i17zqVg3mI1WytFKvGYGkDzjbIJQuklP2AWcbFuKSBBwRsPeAg5CJzLI5+OD9GqgUdeDKAxbDge4aNlu6/4EHNTY+YYBDzObokccVR5H2X75X+WLRaLQwCA49/LCddc/ey4z2fPDRRzUxMaGdl12msNVWlvyJONLq4oLuv+ceXXnVVRrbMak4KKqTKynM5BVnsgqgWyca7lYUUbzYLZzVRkuzq7EGdj1bK52q3v+BD+rqvcN61YuuVFlLCrIdteJAS42M7n3wMT384EEND47o2Tc+R1MTO1XI5XXwwYd1+LHH9JKX3KpsPqtm3NL9Dx/W/Q8e1NBQWc+54YD2TA2p2Wjq8196UKv1sjrZUc2uLCubbyiXi9VuxCoGg4qihq66ckI33XS9Mp28PveZ29Wqz+nVr3qhcvGysd+IAy1Hg/r9P/mk9l77LA2Pj6lYLGhtPtS999yv6264QWPjI1LU0Pz0IT3+4J160ze9XDsGsirCfGvjwusDzjaIpIvmlH3A2YaleLoATidsaObY41qYP6nJHeOqVitqhx0tLi5rrVbXnr37zMrBhbGytKiZ6eMqFfIaHhwSnprVlRWtrtXMfTa6c1LNMNQ9d91tv19x3XXqtEOjWGNRzc+c0MGH7tdley7Trn2XS0FBUVBQmC0Ir38O/ErIDc8EwInjpnLlsuajHVrujOq2P/uYpkbyevWt16ncWVaQzagRF3Rsdll33nOfRsdGdO2116hUKtg/oi133fVl3XvPfXr9696gOIZFmFGjndPSSlv33HO3qqVYz3/u1cpnszpxsiHlJvXXn7lbxdFRXXvDLmO0xWFenWZRX7n3Lo2MdfTir3qe8kFVd37pAa0uzuvrX3mzMtGcgiBSUwXN1cr64Me/qIGdexSUC0Y2iet5Pf74cV22d6+yBViPLWWjNRXjFb3iRc/WQNBUKWirEGCz9QFnG0TSRXPKPuBsw1JcaoBjhIEM7COcVzz0LobTadcVtxs6dvSQZqaPqVQoqRV2VCyVtfuyvRqb2mWgYVGAONbxo0c0e3JarXpdlUJJzWbbLKCd+/aZey0KQx06dEi1el179+3VEPGfKDIq9WMPP6ATx45o79692rP/CinIGeC0ieUoq3wSY9roy7/Q5bvYLZxcpm7ss3ntUL2wW+95723aPzmiV7/oRg0GTYVRU2G2qBq05FzO6NKdOFS+lNdKfU1Bvqj7vvKg7rjzbgOcSiGrIKyrUh3XwmLTYilL88e0a3JY9VpN2dK4Ftfy+vin71BhfFRf/bKbtLo6q3JhUO1GTp/+24+rOhDpZS97sTrtrD736bsVRNLLXvxs5bSsYjGr5UasmZWcZptFRfmqVttNo0HPnljRZ//+s7rlhbdoeHjIwGmwHKi+cFw7B3MaKXY0UsqomCER1MVf0gz47lqdIYaD0kIcx2I4QSqGE/RjOBf6fGzX9/qAsw0ze+kBjuOnudx2qgWEynRCtWrLOnH0sJqNNU1Af83nLQhcazS1Wm9o567dqlQHjCU1O3NCi7OzGhkeUrEARTenWq2hlZU1lUpVXbZvn7lLyCV59NGH1WjUTBh1othydMrFgpaXF7VjYlK79+2XjDSQM9IAGZDpbvdns3DOVB5n4zJfzIDDWLOdllVgWMgOajau6gO3fUJ7x3fo1S98vobVUBCvKcy0FVnwnBTLjgF3BO08m1cjU9Bd9z2oO+++S296/etUzWeUD+tdJiJ5OLm4bcoF7suGyqpxnY9+WuOXXavrrr9ayrQckHXa+tIXPmfxlVe8/JVW9uZTf/O3KmZb+uoX3ayBfEbNelOHjs3q4PEV1VWRCoNaWF7T8sqKrXGjtqq9e3YqCDqqYCm3mlLY0mA21k1X79feHQPKas5yfFyhHF+JwpXscf3afKdQM4OMX8fLkwaIFTIJvh0EObP9SgPbIOCewCn7gPMEJu9MX71UAcdK0+DAypCZEWlhYVaP3H+vLt+7RxMT4/aQK180q+bhBx80quu1116vVrutL999p3ZNTWrvnsukQt6OwWo6cXxa8/MLuura61UqldRpNw1slpeXtLi0oIFyRZVy2cDs0GOPGdV66rJ9Egw1JYBDEqnV43pmsNQc4FDyJ6uF3IBmOxV94La/1GVjE3r1i56vITWEBRRmGooBHMrHZFi3jKIgpxYAkinq7vsf1p133aU3vv61qmZjFa3SACwwYnQu+ROihwOcATWCAf3JRz6tk4uRyqxJQWq1VhXAiGs0dPm+/Xr+zbeoUW/r4x//mK65ZqduuvEaFV1mrmrtQMthQbOrHR2dWdT0yQUNDQ3q6gMH9JlP/bW+4VWvMBr83V++V8MjI9q3Z0pDhYyqmZZGS+y5ZbsPU3+69eDWa8RZWSSvUVjpn6QqQWLh9AFnG4TZFp+yDzhbPKGc7lIEHOetIM0yNsDJZTp69OCDWlqY1XVXX6FSpSTlclKzrThf0JHHHtXCwpKuuPJqq0Lw0IMP6IoD+zUyPOyAAWmVK2p5bl6HHz2sqaldGhkdsdnO5QPL20H4UIONygULc3N69NFHddV1N2hoBKp13qybyFxqElVefNmTp3sMxwQupWfyeS0FVc11ivrgbR/TnrFxfd2Lnm8uNRI3O5mW0/IpfYPj0UoKZdUKympkSrrHAOduveF1AE6kclxzQjoDxRnQAXBic13W44oawaA+9JG/1cjILh04sN9IA2FYV84IjB2VS2Xdd+/9OnZsWiury3rNG75eUzuGlM90tLa8pk9//nbNLIdScVQ7916pqak9Wllc0MzRx3T91VdodWlZV1xxpY4dP6nltTUtL85qZe6oJgYyuuU5V2lypOQsbCup5Kuirb/3AWcbhNWTfMo+4GzDhF+KgGMpn0aLxjXjYjhzs9M6fuSQdk9NasfEDgOSThQplPTIgw+r2Wrr2utvsDpZD3zlK0af3k1gOJtRpx0Zu+zxw49rcX5J1113vQXBDz/ysGWc7927xwLfuFDCRlNHj59QvdHS5QeuUnlwxIGN2VkkNYrUxGcMS822JPXjckWtZspaigr609s+ot07xvSqr7pF1SztrBvqWLlMZw0YgGDhkNGSKRno3P2Vg7r7rrv1xtd/qwZIruysuArP5rJijTtWAy+M86rHZTWyA7rto3+ty3bt1gtecLMRDcKwoU6nZcU2sWKOH5u2hNPq0JAaHWcljY8MKJsJdPjYrFQaUWFwUkeOz+uxQ4e1cHJaL7zpGl02tVOf/MQnNbFjl5793Ft0+NhxLSye1J7JinLRkq64bFRlLK/kefQWTlKH2k1J38LZBmn15J6yDzjbMN+XJuAETrMkg70TKu60FUdtHXrkYS0vLVhCJ8KJqr64yOrNtrGOdk7tssrQ08eOGgV3dGRIY2OjaoeRFpdWVKvVNT4+ocsPXGGlo5eWFvXIIw+rUMxrcnJchSDWzPS0llbWtP/KqzW5a4/l33jAgTBAxWoApxcL59Saw2de3Is9hmOFhXIlNVTSajurD932YU1NjuuVtz5fpYxrGQBJAPiA2QU0I6w7yqmdKasdVFwM54679eY3vF6DxUj5aMVV8LZ1dtXwIG1Q0aGZqaqdG9SHP/ZXmto5phufdb3KJdoRhOrE5F45NxvM+FaLenp5ffYLdyps1PTKl71Etdqqjp9c1H0Hj+rwiUW1o0A7dkzqNd/4NWaNZaK2Vpdquu1Df6FOpqigWNLLX3mrxkbyKuXWVMk0VApJ/vRFY5OCsTZW9+oDzjYIqyf5lH3A2YYJv9QAx7zklLj3pIGErUbWd9hsaPrEMS0tzNvneRhRhaLFWgaHR6y0CrRoVPL52RnNz540Npr1cMwEGh+fNMChPpoJjkBamp/V9MkTVsmANJx8vqDxiZ0aGt2hNlntxIksDE5ZGydurHaY99qfrdJAyhVztqW92AEHSClUh7S8FinOlvW5z35OE+PDuurAHqsOkM1SSNWV4SdZN5vkKTFvYVBSMy7q7nsf0gP3P6Bv+aZXa7iUUT5esfmEaODq5FHIM6t2GKulilpBVbd99K+0c2pKz3veTeYqjaK2WaTWFAE3X5CzckbQ4j/zd5/Xgb17dP3V+7WysqhPf/aLGhzfo9Gd+zQ3t6QTx47ra1/xEh05+qDmT07risuv0MT4bv3t331eJ+YXtP/KfTqwf1K7JksaLITKN2pGfzcLzNK4kvYDfcDZBin11JyyDzjbMO+XKuC4Jl4OPCwmQGX8yAWWKczZpnxJNlCpVHGQRHOvgH4rCMCsWT9xu6na2qr9nssXlaMQZ4cK0jjiABdAhKzypgmzHKXyC0VjtYUdSqxQnsR1fnT97RNtfEMTrzMtW9r3fykDTgTbKptXq5VRIV9R2GyrUIC+TnkZLFCWiXkCYdtGAsA6MLpHpqROrqJ/uPMe3XvPvfq2N7xOpWykQobqBPTUcUU/+Q410tqtjiVt1uOi7vjyI/ryPY8qmwVYAgOdYqloblOqBkBSCDKBGvU1lUtZfeOrXqY9U1QUaJmN1VRRQWFAH/nzj+nQI4c0NTmm8lBGz3nW9ZocG1cuW1C7E+jRo8d19333qNlY1PhIQS994XM0WSl13aaueZvLyelbONsgpJ6iU/YBZxsm/pIEHBPuCeCYcKd4JyQC198GAeXoprQdCKwcPp/CpLKGXyECj8C1C0q7FyX1XXUCGmRxIoAG10i+kHVB7rBllhDWDBlAMTRoWGnWKdJp4lYqJ5WYcSbSgAmop4uFE8RqZ6Qi4NGS1TRrtuvKl2iAFymOmb+i+Z0iNSyWYhTnOFCUoSRQWcen5zU7O6Mbr7lKmaipXLZjYMM8u1yrtoJO2wq3xlZpuqSltVhLy5G1FsCNxlo3mk2rGEAszRULzVoLiomRskYHCypkQ4v3MIJGnFOhNKzDjz2uQpDT4EBF5cG8VamGeUeSaTOMFBSrqrfaOnHiiIYqOU0MVx0zL+mD04/hbINgughO2QecbViESxFwnDXhqMeOggzAuB43/Nx1k1HfzApeuZ44FORE6tE3BykVRwgNOjvG5nqh8rNvxGY++IC8CVwlsWnPTisHuIjbZNVuO2up23nUxxp8F7gNRRw3Lh/NJnuJ41z0LrUslIBI+U5e2XZggjqKW4qzsTUHgEYRqGQuylD1BHCixDYtKAyIv+TMSrXiZ1HTgRMuUJJozQ3XhgtoZYg6KporDoo0rQawTFutlnKFgpptrCrr/GZKQy6fUyfqiCvE7TXlgrYi8oYKRTUiOn5iqQTKRlZWWp1srHIB67fmytfkIITkFcVZo8NnO5HCVkMZ9lC3I9K6ZdO3cLZBSD1Fp+wDzjZM/PkBTqRsralwYUFBs67CeqKBaxbQoSpwZO/dFATG3GuGY4/35wDHtSdwL9hqNGGjEoBLvbMWwUHO3C3WtAs1mMKaNFnjOGwZwkFJv3k6gZpFZALOAQ+fWTO3gHhQ3iwjPofRRndKKNJmGyV5NwZ+GZfi50d2Nlo05W+eDoAT0Xwt6CgbZlXIlRTXG8oUmKeOzRNgEneoM8eaNI2lZhYOK5fJS9miWu2OCsRf6GGkyIDKVAlbD1xqbbMq2HIR7sxs0dYyDOnymbOfARsUB7cjXHtoPsOll+0UFDZJ4M1bbhW0+ZC2EpmcAU6GXkmsBy2gMXA7JHvWXfvxIG/li6wjbOS6uUa48BIXmlm4yU68UMAJA5mVaC2mJyZUgzCBYmPxwIyWkxbT9GiiWoNzCyfkGVyHSX6PPW5bUKG8x0fxaX3YRQ04my2y73mfXhUEvAlLb44n72cqZ75xRTde50zVanvdCacBDhpk1FEnjKwnSKlcNuYP/WYKuBFqDUULi8oAOM7QSPQ8fOgdK3rZMcBxjx7/9YUsex3TuY6zALQJdzeP/mf3jkVC0DhWTJzGgtUuumLHpjK+LbCcnMMAJ3mAcc/wQPu18uOxgjoWjHYPO8e52AHuITeejWt+tof/6eJSS9LtnaWX9CoyioBPwHeznwCxc2OuZ+Q7S8TAGyUhIXX4eTNrJaG45+iGFjtL1dpY0wXU1phmea4NuGsH7hSFQqFgx9Im3A3GdYHleGPMYdWeUinAaUeuW2xKbUhaiJvb1N+TxZZcEmnKoD1FgXDtxl1L7XTip1nFfD+pNMCXaHXd4pQAzuSkAQ45ZCQsA4Qr8wtGRsHi4h/nsPMkYGOKT7J/zwQ652qFfa7nrtfP/XO42fHpzzYbj6+84L+bbu1wruv3Wrnbn+dcwHxRA06vgn/jTdrDYsHsdTPgTJO8HRvm7IBTcYBDNgsuKyyDel3h/KKyzbryJgu8TucYYFg4yAyfQbEdgJPeMP6B8xvVg4TNKcCzYV4dYDiwQPu1EiTEecx6SUApAS6O9Q+1HW/CzzGg/Lr583XHROzIC6NzaJtPG8A5SxHLtJBIW37pv/t5T8+tF5rpPW9r2unYmprlYlaoAyn/zPD3tKLgAAjrtRdbMmUdJKC0UcjZeRJ3XRcU7cYSZSf1hfMBnAjA4bzVdcDBwgmtW6q0egkBzrmAIQ0m51KozwZem67NJhc/k2xN74nNwOeiBpxeLZy09uG/w0PhH56zLdamk5IIyVMe7PMwqU8HHFhecWLhrANO3AlVNMBpKJzHpdYQRKTk6XPKXidWaICT6HPmMvK6ba/bsLfjLPiP8EkAxAutNBhElEJJhJKNNNEGARdqqMFmKtDnxmvWXmgkVgsJhAgrjofthLDzlg/XMcBKQGXdujpVsD0jLJzelmzdzZgWyqn969d0o4Xp13YjcDC36Wenq3zg1k2uYYCDMpFSAvxeOKsCdw7AOcVL3HEWW5qlZtfo1cIx16JzqRngTEyqTgyLPdpxDmQsHOwkXMQXu4WTVpg3Cvv0Z+eySNat3N6UhXOdz6+7V1D88X7fnQZgKysrWxwN6PFJ6eGwXgFnMwsn/dCcyxzdOJTN3HbnMhXT5zg9hgPgUH25o0qlamViosSllkfI1upqzy8qaDaTGM76ZrCuzgY4SXvlxN22HmvpYSJ7PIRN4rVXgMMDASDgNxD+eBeLcf/8BuNnwIT20hbT2URwMQyvLZt1QywocaGllQZ/be9a41jLdE9efcBZX9DNLBy/Jt6aZP5sDgsFWx8SOHFJNep1Ww+/7oA/awdZwM/9Rjcnx3uQ6vX5TC3cpqFHb+E4oyax4xMLx1xaaTA9D8DBGvcxnOLkpBoATuJS46TLKHnQLCxedXG71NJrmn5WvMvvbECymXzs1TrtFXA2u/4lZ+H0OimbxXDScYCzLUav13higAPNtGPlXgCcogEOPrLIXGrZeiMBHHombnh1OuuAk1INetNPekQaEistWOwSAWmotrS0ZK0FEFAevPm7FwppKyfIBlZna22NytAlLS8vW/toAwlccLRCpkVXu225PMVCUaVS0bnRsNwSFyiCrNls2ne5Fscj4CzDPWVh9gHn7IDjP/WWKu+NRsNAZHBoSAvz87anxsfH7e/880oNMRrW0CsGPB+sA2SPVqutarWqWq2mYrFo8Rxe/vk707p0FbhzWDhpVy3MOXMdPxHAoU5CYuEUJybV9ICT7KWlxQVjZFLt/GIGnLSM8t6GtCfHhw/OpFhvJh97lWe9As5GZfBMY8msrq6aGEsPioPZcAiQxx9/XJ/85Cf19V//9dqzZ48JES+AvFD3k8B32LxsRgTG3Nxc11/vzT7/EPBdNvKuXbu6goVNz2ZH8HGumZkZ/cVf/IVe8YpXWJdIqzbc6ViRxzvvvNPGhDCanp7Wl770Jb3qVa+y3/25uS++w3k+9alP6dWvfnV3PF6T5/1jH/uYjePGG2/sBgm9QGUcXvClhezZRPlpFk4UWsAVwessnIpjeMUdZ9GsrBng5NuhshZ0N6qXPeQWuG22un3a09pN73By5iP9xuM+FxcXbX1nZ2d19OhR3XDDDTYfzOHCwoLuu+8+E1KPPPKIrrzySgMWhM7I6Kh2Tk7qyJEjGhkZ0Ve+8hXt3LnTBBPfHRgY0P79++2cBw8etLVkTtkTXPeaa69VNghszzz88MO2f/ickjeTO3dqx44dmpqa6sZ5uBvneTwddp9OMZxe1nejheNdZX6vsr9X19b0hc9/XrfccouOHTtmpYnYW2NjY5qcnNSJEydsfVlL1ps18fv+uuuus5/vuusuXXXVVbY3OCfryrpYD5oN8qOXcZ92zKktcDYt3mlL3qVqnrlatL/3mKRWmJalsso7p9SCKIGVFzr34MrykpVbcgy10y0cbz1sDLqnx+6v5WWhF9DII5S2r/u6r7M5QpG69957bc9ff/311sxwba3WtTA5Tzq+ybPEHA8PD9sz6ax+yDTO5clz8id/8if6ru/6Lu3bt88UMic/i1peXlGlUjFZzNqtrKzoE5/4hMk31tMrF6z5hz/8Yb3hDW/Q6OioPb9///d/b3KU65rbOwhsXzB+jv+7v/s7vfSlL7Vn2stqp6y29YlP/JXtp5tuusmmyFvOXn7a35aXl2M/sQyEgSKg0TLvuece/et//a+tKRbH/Nf/+l9t0ACJN62ZDL9JmTDMcQTG/fffr3e84x12s16D9ZuTC3MDHP+DP/iDtiimPSearl88xvGjP/qj+uEf/mG97GUvs+9w83/913+t3//939fb3/52E3Bf+MIX9N73vlc//uM/bpPPRDMOJoXvIOT+83/+z/qt3/otE4QeEDgXx/6n//Sf9PznP19vetObbBKZIO6B8fCz19CeGOCEFsfpAg71qaAHt1oaRIucW1JjYUEVowpHyuWz5gLptNoKWwAOtFcnYG0cW2TieMDhPlkz1vXw4cO2uS6//HL7/cCBA7bJv/zlL2v37t168MEHbU/wN4D62PHjuuLAATv2jjvusPGhnLCXOA/HIZwAIg9gluORy9n6XXbZZXbMAw88YOvL3mPNUHj4HmvKcen5P5Pm1QccR+clxkLbCJ7Phx56yPY1P2OhsCbMLWtEm4BjR4+aMsAasBYocKwr+8ArHXfffbd9xvqyRggjFIfrrr9OA9UBc40Su2NdL+i1VYDjSS2407IZ+5ctuxhOC/p3Lq9W5DKZtgJwvEzzQhxF+NprrzX5BMD8+q//uskbZOav/uqv2hx+z/d8j11/aGjI3pFB5uY0T0NggPGLv/iLOnnypP7jf/yPpmz55xQljmOPHz+u//Jf/ou+/du/XW960xu0tla39eVcXo7yM+sOOP2P//E/9MY3vlGvfOUrDQj5O4oj8pWxspaM9yd/8ie74+Q6nMPH8ZAP4MGv/MqvdPcFY0Z2IL//3b/7d6bUMCa+640TPme/mCu2VqvFfrJ4R9DyIVr/e97zHn3DN3yDXv7yl+t973ufCYR/8S/+hSE0x3mgYpN5zYrvsiEZ3D//5/9cP/ETP2GCh0n3LhuP+L/3e79ng/uWb/mWLrp7K4d3HoL/8B/+g50HocOk8RDwGYvBJHngm5+fN5RmHDfffLMtBtdjbEwsYPS///f/Ng2dsXcD10FgY3zOc56jN7/5zTZJfsG8UGO8XiPvxRTdaOFQZJHSMNCEK5UBFcsVhbjUaAOAf315RdHiiooReRfOwoFQgBpG7bKQZlWAU5KbYDGULQYc7pU5WV1dNQHFOw/H1Vdf7Vxh7bY+//nPa3JiQgvzC1Y9GmWCPVAdG9PV+y7XHbffrqldU/Zw1dZq3fWB7jA+Nq4T0ydsDlgT9kitXjMLBvBCCKIVXn3VVZbZzu+MiYfjxS9+sSkPvbg/+4CzTp0n3wQgYL5RHlEcABNafM/PzZmAu+KKK8Sz4xXDiclJ+wxhCCgBPDzL7Huer/HJSc0cP26aLGvCy8sBr9U+VYBjJAYPOEFGjUJG7SCjfHVAldFxtaF9k1ycAhzL8zI69IVZOC6+6LwgXPz7v//79X3f931mLdx+++36pV/6JZs7fv+3//bfmvx8+ctfZjIRCwdZxL72cTMKiql/AAAgAElEQVRvVaBw/emf/qkpeSjldMplHbxVwfX+4R/+wRQy1ghFwgv/b/zGb7Rnxr+wYAEJPELIuf/5P/+nKXQ848hYFEsvv/Fo4Y1AUcei/Tf/5t/YNZBpjz32mN3Dz//8z5vhwXewbJg7jv9v/+2/GRD903/6T5P5oEuJIxJxnxxjLDX+wI3wwq2CFvObv/mbBjbf+q3fahuLieVvn/vc5wwFMc28xsl3mTAfB+A8DI6J+n//7/+Z4PHCwrtuuCag8M3f/M3m6vIb11NmuXHQnJv7x//4H9sE8lCAuGhbf/iHf2jjAEAwAz/60Y8a+vJQMC4sGT8mNOuf+qmf0rve9S5bHH4HvAAtAAYByTtaNAvOC22AcbExvD/buw7P9UCdDjhts1DCbgynqjZZ+QTR2fy1hhozJ5VvharmHOBRap7v4Ms28OkCTkJb7ZGSeq6xpgEULYWNyOZlkzKHrLsHnS998Ytqt6giHeny/fu7p2ZN9h04oIFy2VwurB1CjDlFg65WKibY2NxsOl7MK9e64Vk3mkuOc5ycmVEunzdtibVjbXnQuD4m/mZkjo331wecxMJJiALMDy5o9vyLXvQizZw8ae5ZgIfXV3/1V5tHA6WMZxRhg3DAisVtyjpPnzhhApM14FlACeCdZwnwsufe4jw+1+Zcu26Tz7fAwjG3fQI4VC2Yi5uKClktrtY0tW+/ykPDVoUclxpK3erKsnOpkfB5gYDDnmTvejnylre8xWQWYMD+/umf/mmz2AkNIPSRm+xr9jeCHKGPzEHGIuf4DPd7u025oFi/8zu/Y5YoVg5riGz59Kc/bc8Cri0fquB83kr6qq/6KgMLvo8MRUlH2QaI+MwriiiWeIne9ra32Vqy5vwOSOJutZjf4KA9q5yL6//Lf/kvTY5ixeGexeuFYoLMYE8xHu8GZJW/4zu+Uy996Vcb8JhrcnFxMfYCFYGAeYVZ+NrXvlbf9E3fZBPgERhBwATgD2TwmIYMJs2g8O41bgak4waZCAQXnxnKJb57wAt32etf/3r7u/cXslgsDguB8OIG2PxYKWheaL8sJuYb52UC0QRuvfVWe1iYJP7G2DgHmgEL/7u/+7u2MfgOi8ZiMAm33XabafO41Tj+j/7ojxJT9U12Ph8Mv3DAIYYTKjKWWkWFUoXizLapPvj+9+rvP/FJFaKOqplAb37Na/Xc5zxX9dVVDbLQBNwjB1gOYxKGWFIZ4AIe7VO+4gGHdywMNhrzgpB69rOfbQBiPuJORw8+9JAKubwFndGE2WRod9lcXnuvuEJHDh40t8rqyooBB+vMnmE90KKykAgSEgSfP3LwoJpxR1fs329CiyZsKDysHXM9PDSkxw4dsnGgDBDn8VTcNFCeYuw9TSoN9LquFsPpToBjDZJ82Ww2lC+XtUJcrljUZz71KQOcw4cOm6BbWl6yZ+5Zz36OThw7puUVum0GttdZ77vuvFMvvvVWl32fCXTPvffosj171Gy1dPzYMQ2NDGtwcEjDI8NGAnHWzakZ+d14Sw83c2pCaypW4+N1/hyWVeoSP32CKHKDOIxVWfDJsbmsPvvgPfqDD37AEj0LlUHd+rKv0be+4U1WMQHAYZ9h4VjScZL06RVeO2eS9Hm2GE467ozM+6Ef+iEDCO+FQUb9o3/0j8xbhEDGMkSwo0DjMWIfo5AjzxD0WKFra6saGho2y8ApaLFKJefe4rsI/O/93u+1c/A3lDK8Rf/sn/2z7rXptPrZz35Ov/zLv2xriGxHjgJEP/IjP2LKJICBcUG4gmM4F7L/ec97nj2zGBLcB2ABRmCx4TZDNj/rWc+y44nvIy847i//8i/N5Y4c5rkn9MGzy7g8MBrg8EUEMGACOBBTwdfHzyCwt344joF98IMftAthTYDKL3zhC+0YTupJAaDq//2//9e2iffXe2HvAQrh/rrXvc4Gz+L6QD5CB6BhIjnHa17zGgMXUJ6bZXG8aenBjIXhJlkE/JK8OI7YDhsL/ySuNiYaNx6TD3ixqMR3eBgBWMaESUw8B23FW0lMqHetpWM6mz1L3sLxgbxmu2VMmCbCtzqgYr6gpaVlve0X367b77hDa6trVhwxGzY1VszrLW96s17z6m9SrtmyDpuEZcnm7lC9mYeNPAIQ6wm8umuFgMpmzdpjrZkXtFnWAMEDqLDZfCxgYscOm6PpmRk993nPM2GFkLr6hhv05dtvN8UAn/Ha6qqKsJ2yWXvIAHQLfELDTejRs3Nzdi027M3Pf77mZmft3FhHvDOPjAltipL5/rWRJpuehl49jf64dE4AhUiZC3MvJuV5+DzMBqrhOtyzW2GxZHkcuY6Ub0fS8qrilTXlrHxMUvHC6QUuVpjch7kskottlTs0uYwBjju1q8zAi+Z2xHByyT393ac+pVtufoHqrZaBEC+eGTRbnrPFhQXV6nV7pvNB1uadZ+UAhI4o0j/cfrs9g9wTz9XYjnENj4+4WnowyoxSTxmdJH/GD85BUY871TJvTjn29G/Gll/DYZmI2tiAB3X9qCKQU7ZYUFjM60//9IP6jff+oeowQVEaGy0NVAf1wq+6VT/24z9m1TtCywHLKZeAi4FrAjLpd7uVDXl4/vnxBCrkAwr0z/7sz1rQHfmF5+QFL3iBgQABfpRr9jaCGSvo137t18ydjIAnZsN38QTwvXe+850WauAzf23+DihhhXohTl1Cnr+f+qmfURSFFo9mTRkfijmeJtYLJRr5xvkAtV/4hV8wNyvA4kMcXAd5igXLM8e5kAd8//3vf7/JCMgjgIiXo5zLyfNY3//9P2AGBvKTvcU1OM93fMd3GGg1GnVlHn/88ZjgPoCDj+9rv/ZrzQ0GIvoAlc9A9rGea665xlxtxHlgLcCUQDizSN684jsguqe0IkDQ7hHgnpzAoPjZB4894QDg4O+YoSA0gMDYmHDG+tznPtfcfT6Y5eNGWDBcH9ca14VVhR+U19/8zd8YqLCgLCQaM6DFGH7gB37AXHuwNZhsXIFYeN/5nd9p3/UxDBbHB9F48Hz8aOPTxGeM3wMOAgGBvTi/oAksRmX03j/6I73zXe9SZWDAgpjNsK18p62RXEZj5UH95I//hJ59zbXqrNYkhJYBTvKwoZWBPk/gtRFwfIyKU8I+44FhszhBkrXfeQH6WKCACIDNz7BSWHvWb/8116i1uipA9r577jUBBQh5V6ftJeYucZ1B+OAB4R8gx0PCvvEgx/eZd3zGG19eiPcqzjYDpqcF4Jj0TfhqSRkiSCcWrI2ca+buO+/SddfeYErAwYcf1sLCvPbvP2DzTpwH4ECgOIJKbIIQQYNg8SQOtGNeuOA4z9DoUJc5iAvYFDHAJ5lUJ4awwHpdodMB5/QtHiuijA/3mZSoAXAEUSJHPbiMHjz0qH727W/TdNhUPXGZtcNQ+XzRipv+4A/9kL77u79bJ6ZnVG80VSmVnCWXKL1erqRjUwabSazFe2i8DOAdTwgKOxYCgtaTBohrEAdBSCOIOYa9zc/EjhkHsurnf/6teuc732FyifPh5gIsfuzHfswUetaG8+LqxoriGUUWsUYobXgkeP6IIaHE+5gJcgiwQzZyLWTazMy0fumXftlc1cht5K0HHcaG3MXyecc7flWtVmjjIGTBGMAJlHrkANcB/JC/YAXGB8YB1hdyFBDFmPi2b/s2mzuTMXNzczHUOMw6XEredOIkCGNvlVhcIcnVQOsl+MTfvKXDpHhaJcgJUPjgvF8YL7z43Qs4roPJiYuO63ENJo7r4pJD+2LQxHs4/8/93M/ZRIOs3tTlWG6YY5kIAMqbumwaxsP3CZaxoB5EvJX0r/7VvzIUxp+N0AOwmDhcfcwHY/LURC+oGTcuKBcsXH91QSbRiPy92hGdWGVYcK2WLeqdd90lyvkur62qVK2qmIkUr66onMnq+779O/Tmb36NCqSmtVrm14094GyDheNzIBA+qMnk33DPAAMAYYIjST71iZ985hM9i/m8VUTw+6QJuyV5gLEa7LypPZR2V/iH2VE/12tZmW89KY+f24wCnaotZ1roeerS/jt+9S5ZCyep9O0sHFcmBgvHcr86MB5zplmP0eCO55qcnGxWxUpFEUmeiYub9UPk8z3nSnNEEs7pmVTeeseVavvCFeHrNkuzcjQpFDc3V8+6UW+Ag5Xv2le4a5lLrFBUFMSKsoHe/Qe/pw//5ce0EMSWe+MKzFK2hyB3Rzc//2a99rXfqlqN2Auxhcjctdyz338GaBsqjrA/IUzhNmJferqvZ+cCCMgQYiso7Si8b3/72/TQQw+bso3SRVgAZRal+a1vfatZPSjJxJSJMyPXsFrm5ub1f/7P/zHZ9e///b/X9PQJ/c7vvLsbI2GcxH3454lQ/A0F258HixO3PeCFwo0CiTsNoOEYFHgUCy+3uQ/WGYUCZRKZiaw31mMUWQwH7xFeJuS/l9PMMLIbGYr3CHkOOOH6w7OBHOdlz/zS0pJtD5874ynJTBBmdTo+4xkHDIILsNn43Afa+S5CCl8fNwTackH/8nRKryFwY3/wB39geTYMlDF46+Czn/2s0ZhZDJgPnBfLA5ohWhmmqgcczxPHZwjwwGwjFsEY+R1fJX9Du+BYzo0m7e8Vtx0uRBabicJliPsN3yZj8wuCJuCp1nz/Z37mZ+z4ja908NQEMIUOk3IxCF6jJD76qNqQATKBvReKJXUaqyrGkarZvF7yvFv0Ez/yI8q1Y7NwjEAQuPI2xqLbYpcavnmv4Xn6OfdlPtwETDxI+L8Z/RwGCgmAiYbr7505Y//wEKDBdTWcxO3q9w5MKgLOaJke9Lzr0udj4ZYjlnU2PdnHMp55pAHr3ZlswaTYaQLOuFicAuDYW3QL8LEJ743wLmmLT2KZdzrKZ50LFYHC91lLYxYm1R44Bto1x/k1OVMczapZ9xzM6Q1wXDfZJIYDnAT0UpICkonzgX7u7W/Tl+6+S4uZWBEMMssnyakddVSvNx2za2pK9VpTuVzeipX6vb2Z68zHH9j3aPF4gTjOM1p9DJz9zt95vpEpuJ8Qzl5+fOQjH9GHPvQhk0WEHP74j//YhDpWCoQs3GwozMw1MZiFhUUjROGmQuZi1fAPwEMx5h9WJ9cnHoTRwPnf+MY3aGxs3JQMPBOAGXLQx1Kxcn77t3/bfkfupZ9ZfsZzBe0abxIv5B7PIsQSrDLo3YDXX/3VX9l4ODdzhBXFWDFckNu4DrkfrsE/xmmJnyA1JhQDZAN6APHvnMwDkp9cv0CgK+YiQsIDAAKdCcQnCYICXghmgvMMCBcLNwYQYAkRZAIVuQ6DZyG5MSYTKi6+RxAaBP2zP/szW1BQmvF5lx2bAfYa18LC8RYJi83CY9r+r//1v+wagBymqXcPsODcHwwSvo/A5bz8g5LNBvXWmbfCGD8Bde55MwvHux+7fny6JSauJEDr3b/7bv35R/7cKt5iKdQadQ2VCsq2mhoslvX9b/lufe2tL9EAHTNhhqUAx2mRPauNp3slEveAxduSGA6JgFZZOOmsidZobQSscvR6JWlnFfCwO6uHFgOsQ77g3t050YigxxetnH1IQmtS7oZvu58pie/yIbgWAqyA/70NCLugLiCGNs55rDo2/98EddKBc9e07dyvp08MJw04rj2EubKSGJRp4hAICnm1k73qWWXsO+bd9Sty6+IqQQdJPyNX6866CdDDKMn6R2u2382Vl8xk0u7arIJk+p1LbbPiO2dan94Ax1tyJijZy8gexlEsqBWF+ugnP6Hf/YPf14lGTcWhITVaTeu35OoRBhYO+J7v+m4tL61g+1gLba9sbXSjpeO1yD6fyIx88UQn5oJzpz04KLfIwa/5mq+xmA7yAA8L5BnSL7BecB0DOPff/xX92q+9w7w3e/deZom5WEO+4gfAgMVBagrKPFYRcpFwBuCF3MZ99Ru/8RsWs2Msnk3INXnhFsOLhAsceYpSjawlzODDGgAdWAB48UKh9mED5gFSBC4+LCZkOG5DrDjkGfKU7yEzCbkgT5kj5gSMwJ2HG95IA1zwv//3/24n9EIfHxwDAKF8bo6/uH9HwAAg/+Sf/BO7qAco/PKgICYjoMF5PE0aFMf9xg0gsAlMEZ/BH8iLQeKqApWZTG4aywarBjBgkrk5NhsLBoJj5nKjCDuQlwn17CiujTaBH5VNwEJ6cOSdSQMIOZ4kK8xhNHdvjfmN6DVyE7gbKur6TekB1yc5+eOoTOvjQMaXz0hf+OIX9Na3/rz1EQnDSKVyUdl2S9HKml58ywv0A9/zvbpi926FjZYC64eDcF4HtycCOGktzrkNUn1wTikhc27B/WQcgRiijYGfT0997QqDFKXWAc65IefpAjh04XTdXdABHBPUBe8d9dcpDFSDjjaNpax3WTr7Sp5Wu9b1jbAuoP7Z4Nqcz5SwxPthY4AO29NGuTDAEa4wgtJhW4VKRUemj+mdv/mb+oeHHlAd9zPuP+vtE2lwaFg/9dM/refddJOataaitnM50sV0M9KA9/Ccafg+b8a79VGi+YdLDblDvIMAP5VOvLsLGURKB4o25CQUZeQlyrev3sBc4gFCLiPPyIVEfkHIwS2HFcI5Yd8iW6ArkyriGWXIPeQodGhi7FgbnAcvDgDG78hPrkO8HiDCo+O9ERzH8WmvBzKcPCJkMzIXJuTAwKDFa7DEIEFgZREXAmh9HBblEyWFsZmFw0RbwDApZcANMFB8fD5xk7/B9iJOgrvJ++/YbI477uIynOuLX/yiTSDgwsD5HsE0rB5ACAQEXTEJsTzQAPBr+pgPvlBuCGACUQEcTDIAkZcX7KD8Zz7zGQtSEZth0bkW2gBo6tl1IC/3gZnLPfFiXF4zwApjotkoLKafKO/a4d0Djd943rLxAcb05z6ptOtai6VWs6WoE1otK/zf9IT/8w//mf7kj//YMr1xV+Rabd10zXX6nre8RTdcdbXCWk2VYllhve7652wh4KRBEncfNZqdZrzugN/oXuhJZiQH+TlLf4d56eW12XeNDo37jYxlK0eS9D9JaMHdiifPMMBJalyaLUGSMAH/TujYaSbkWU/YctilmD+pl8VXNqxJmkSRPpaYzynfxZWOfWEML6fhu+6v/jpJ6ZlObL1Je/Oq9QY4xG4w5byFA+BwZUBnpVbT8I5xff4Ln9fv/vH79dDhw2qS1yJp35VX6ju/67v10pe/3NzAq4urZo1TC5B/FwI4zIl3zROcJx6O3MG9hpKM0oz8wbuChQExCbmFcCbsgFeFQDyfAziQNJA/KL133HG73vWuX7dzIDOxYLySjuuM7+HN4ZnA6gFwABNPvsKKwrVFPiHsNlxpL3rRC/Xoo491ZSjfxcNDvAVZ7AHPEyGQo8hlXoAdHh/GwVz58kbITqweZC+WD/eHDPd5W5yrGwOn0oAHGj95EAGInxDsYbDcAIIVajG+P8ABBONEXCydpwKKAQKYeNwE/kY2BmCDOcjAGAiDRcCD9FgVTIbP1YFr7t1YBPTJboVa+O53v9vQ1OfygND8DvPMB/YZE8eyACwclgtIjy+V6+CbhJHG+JkYTE6uwUQRnMM/C0KnCRNsKM/U88CyEXA8mYB79YFVfuaeIrp2hpR3aFvuQqVcUthuSlGoh+6/X3dQd2luTgd27tLzrrlBk+Pj5kIq5LIKa/XE1eUAxwfGn4iF03WdJQw0C8i3eCQ9b9fTjHrTSzcDkc26OfRKVtq0E4TrAOd8RtY3mZiES7pJO22eaRZO12WVpKaYMPaN9BL36Nnaw26mwW8GOhstIXOrZp271WDG3FvJUUmg3prAIZA7vVmd6bYcZ1ZMXAv0NOAQw8GlZrlfuBBpnZDN6uD0Cd11/wNarK+qPDKiZ9/yfB24+mprm41Ar681lIHeXnTluS4UcLxwBgBQYn18A+UcUCFHBgCCXUbsl9gIsW3iQXg8iIWgDJN0iexiHMhUlHZkL0owQt8DDx4laM5YFSReIr+xcLCq7LmIIlO6ibl4JR4wI04OoHEc50c2cn2OA8iQoyjuPmwAYBLGID2CWA1hF4yIl7zkJWYdYZ1heQGoeKL4B+BhVEChx3XI+dkbXUIQpAHPQkCoYjZhpmFhIOh5+YAv4EKgi+AQyIoAZ0K8gPXlbjDPQFsYDfgsoe0h1Bkc/lOQEFcbgyAmg7XBAL3Q9uQErBFAAPIB5h6xGCaX6zBOAI0b4ngWz5dgwL3H+QEaTEdMW4AG9x9Ag+UEUIH6LDyoDQCS0IoJ681dTxX0bLb0Q2BBVu82SPqCeLBJvzNeGj4RXA8jV22XAHnYZLOHKlO6pt7QwsyMxosV5Ru4QnCJtBWRR4GfvdV07QwSwDHF4AnEcDz7hnHa+lF3LsmP2SoLx7tX03PG/urltdl3MxQuTOIMuEgs1oTryANO8h7E2VSHzDNf7enjUqNEUhJ3QdCS42S11NqKQ9oStJ2Vc4YXmufG12ZHb7Ym3ZwZ4oDeJUV8zq+JXdc6zvTIH7wwC4cYYI54YZjEBHmmsIR5zthzxZxKY6Nqs19yOYvz8Kqt1dVqtFUsuaKlFwI4XhlFprG/cfsDOlggeHpQ3HFZ+djwxz/+cbOCACIEOfPP7+S5oKQTwuD5xOqAUYbcJORA6AALhFgIcpREUgCOODnPMF4gZC5AQpgApq1PQ0H+IdeIk+OdIhEeUEKeAzRYWwAFQMP5kZ2AEZ8jH5G1xHwYA3IUElc6R4g4FAAH+DEfyF1kM4AD0xdw98aMsdQsWBhF5uYCfRk0GaUIR/6O68u7wHC9gdggIRfwiOzpk7wzcF+iHjMMRAXZAQ8Gz2Jg5SD4yeFgkv1iM2CfcMrN4VJj4glusaCAFD5PJpVzkI8DxZhrYq76RClf5JOYD6QGrsOYmRjOC3GAsTAmuOS+wBxmMRYe2gCuPu962qgJerfeRpfaRtBh4xOspX4Tc1O1FtNFs26ycaRSJlBzaVkhFM1mqGI7NkaWa9PMYUkOjpXC6djD7Cih52d9mFbotAfz6VNBuF4jfsQ4YhXNFeWrGJyqE7sruRCwCwOvCwbfl8c5UFJj2jA8a5y1STcUf9ZkcO4aSeC7a74oY6WAjFSAlZPJaIg8KgqsYvhQEZh3A+JzA05arF16eTgb4cABDvcEnZmE2/ramiN8WIl/WJLOwnAkjVNWyabdn9FtKU8CcGtt62OxIOIz62mZlqHP/5K/Y22yrxCglWpV5WrFrAxrIJih7XR6Q2y+d509dK59ndCuDdTcyAEca6dt40keHPI+oNTDJhuqqjAyrAjiBGCs2PbR6vKq1fZDocQteCGA41m65XJJtZpjc5HE/b73vd8UZFxL3sWORYLsBEAoneWJB3huUNJxVfnYMYy2973vvXrrW3/BwgN8hkcII4AQAO4yPDQQDZDXABOgBVBhKeG5QV4yHl9LDcBBsefFdaBcIwc5BhmL1QQ4YdUgb12NuNCKIwNuWEDIUuI0ABQyHQMEeQnwYVz4NBoACnDFwEBGezakAQ6ThsDGXYaWj3sJKwErgM+YMG6KkzFQgl7cBOiHueepwghnzEhQk0QkJhzhzsVIroTKjGnpSypwI2gG3ASL4Ov/2EMQxxY0A3AwF/ku52IhWDisIkxLJp+x47KDFQIPHqAAhT1TzLNHOC9cciaZcxEAA/F9KRw2HuNhA2DmsinIxyFG5d14aW2QMXqaKX/3Vk8adBgDtGfTuNqRBngYKxW1O20FcUc5KkO3I9VJkg1j5a12mnuQPB0Ty8ixYNzVe42teCcH3nwjHljZj1jTsyS81TU2PKRKsaRKvqS43VHGCpd2FAfOP0/uAj1QSsWy9fIJQI1cW62Qz6CwSzksjaitLL2xuUYeZprrc8/9Gc0hiSNYFr+5fhKhgADMhOqEseIgr6BYUdSsKZtL6sfFGQWZgmISORhL2Faj1bLKuAjVneMTqg4NKGw3FFrqf1ZBlO1af2ebJ0+fvrgBJy18/Z5wDDS/D5jnbIZ5zuj4sePKZvMqFUsql4oqFQtm4RSK5FLFFjjH6iFAHlE1JAcQwBbs2PwaqBdK6rQAK+KxKD9tY3iFmZwwIIgTQdMnpAMDka1qAj+T1erKquqrNVdWJ8hqcteUVWyIs45gsK5U+I18Orj0RPgwV+rG9gSuSoRXqACuiGRkLlopqbJzp9oU4Q2ypgDieltZWrKiuj7X7kIAJy0P/M/sO5Rsym1htfA7P+OOIs0CzR95igcHAY+8IXSBleKYt0X98A//qMlZLBWUZo7B1Y8AJwj/3ve+zwT9L/7i260IKN4kvg8I4e7CwvAufSwuQAhr4yUvuVXT0zMm5zkvMs/LcMaPa4+KCSjoKPBYYbxMWa5Wu3F+rDbGRFwdOQo5AqXdy0N+xgr7wAc+YNYQY+f7mfn5+RgXFWYPph0gA4D4xCLeuXEsAwSvNyGZQLJPcUfh6+OF64wYDZOG1QLiERQjcdPT/PygGRCTznlgXHBDTJpvH8BkAWogOCwLkBmrhvgOpXdgeDBOhLzveYMvEcQlwAYzJO328hYK9GruExccyVfeXWgMmyQozb3AKCFmhUbBvXuLZuMG8+4pDzheEPhrm0uNwp1YKqEDnCLU8zhSJgEc+uA0T0yrFFIyZb0AYhdwUuVRzgtwMgADYONIAfi2jx0/IuUzGh4b0WC5pCz5mC183uTSoDU6wLFkPQKqScA3DjuiIGIc14jOqt7CZ16Q2i1lQtpGZF2sKZcX5d98QNpcFQmdtlsGxbemJoEvAHRyGHzWviFbRJI11EHQKatABXXCjDKFvAMv4lrtUO1GW9OHj2hsdFSjk7hLOmrGofIqdCnjZwMcmIOnWlcyt9BFVdombcUmUXdHd17fhSTZN2srWlxYNC1/bGyH7a+I4o8mTJ3lSlInyZExYME6t5qOzQeDiwWj5QCEgw5E4ZyCuC2FNWVLBasBqAL1//Jq1etsH8XthvKlPPX01WFvKGvgwxnn84YAACAASURBVNCa9YZqq2tGqR7bs0dh1DTAWZ/vFPgk9+hv6Vz2jSliZmqduR+Of1aJ67QYaxnAmVIrCBSSj5Pk8QA4uB5RpJFzWwU4KKfIISjDuM5QuLEmcLEhfPHMYOkADrxQtKk8gHxlz+JNwmtD/BtlHJmFNQFQeYGO2wr5xN8ATIACWYosBNRQljkP58MrhYVEfPoFL7hF73nPH1nchTAFYQYUbs7Ld5H/GAt4oTAuMBR8axDvCWN+GTuAB5MNpZ3vp7kA3qrDykG5Z5zIUeuHwwl8cpc3wxB26UC55VckGaf+wlgrvqeDj+MwMby4Cc7pj+W7LCzA5n35lr+RlDgBhT3BwAtavgNa++6RHI9vkWvyGaDlq5ByHT7jxTVY1HSswgtq30mSc3A+n1eUvm/PS2eivAW1GXPKP/YerLyA20gaaEehKzESdrqAg9WDkwILZ9sAB6mKpRJ2zBKhXtbi2pJ2X36ZPbXEhqrlqkTNNmN/RSZ0wwyggwDOGVjFWDdYMoEUxqGiIK9OUBIH4R7sNNeUiUMrixKUSoqzaNaGWOaKoRpBIZ9LSp+sa+iAYSZcs/IipdKgWUzK0AoZX2Lb3IZRC0p0QXE5p7DdMi3d5GNQUGOlptXlJQ2ODqswWFE7Q8+g3NMfcMzt6CjPUqi5meOKoo5Gx3eYEoBiYZnzgUzRaDbWrJBnCwqwEWCyiqmQAXhZqwtXA62TCZQtkocWCdyPw5ra7aYCrNZs0ZQSY8KFbandUBDVHTsNpSRXVCbvSu2z7lQVJzueIq+ZogvmPzWAkzELh344TWRGkFNsdG5caium2Gy1hYM8QAYhCwk5+FgvYQZf0dmHKIizoDj7UjQ+mZTv+HxAX2Hdj9N7nQh1ELf2x/I7oIFS789nAJ3UVfNkLY5DRvkma77hoQ8f8M4xvHwtRXO9J1VAPAkA+e8rXzPutFLu8QKjguOR4TYPuNQ8ZQ1By0l9gpPPIE0Lbu+m8ojmBbGn8vG7Z0b483EsgS3eAQiEvmWdJtnpnhHGu/+un1QfzPO+QQ8cXIeb8iU3fN4NE+WtqHTchZvlHB5kfDlv3y6Xv/vj0+QFT+VNf76ZGZ02pzeSBgAczoNbY7BSVQ5XBy6njLYVcAAIQCRHkmWjodmTJzU8NqzSUMUAx/Ijoo6WZ6ZFlam5hXllCzkVq2UNjw4bk25lYUFRva7mWs1iAQRhC9Vhje+8TNMzsyrABFyZV7VSUq6YtxLwmXxJucKgcqWKDh08aBt7bnZOO8bHVaFddCe2dQvDphQuWaLb7t2XmzsnCGLVVuc1f3JGxQB7paB6I1RpdED5almD4zvUiTLObRZntTgzay7LHXum1MANFND22OnJzwQLJ2zVNTd7XMMjo6oODJplSXyCeJdaTTXWVjUzfUy7du9RgVy1VlsZ/PqPP64OLQWoA1auamVtTdl8QYNjE6oOjKmxuqjaypyWlxe0c/ceKV9SJihqsFrVyaNHFDVXFdeXjRBTGhhReXhMhYEhFSsDBmBYu/OL81peWdHuvXufMsBpYwlVyyrvmFDD4jo5ZyWHkeprxHC2HnC8jLTSUImcQ37QjdMJa+di5+XlCnIxvV+9PEUeIqvMuM/lul4bL2+8XPSeGu/mRz7yc/r6Vi0iMQL8z1wfuet7lvFcAg4+zcU/R8hhL5M9gHoA8uzijXLRH+c9aPY7/XD8iTw7zAfn0+6izVxJDNaXlfEX94jqPzNasDUpcgjIv3T2qrdy0tZGGqgYpP/nAcovqDeBvYD3k+Mts/QC8l3PT/c1kNIWkl8ozuGv7yfMo/WZBJj/u7fMNrVw2GCxuoCDSw3XxnZaOICKtakmmEwib7OpsclxRbCa8jhBpNZqTWszJ9VeOKk5Kk0MVVWslDU6NqzyQEX1uZOqLy1qaWbG+taoPKjC4IgGJvaotrKmKMQ6algchWoJ+UpV2fKARid26/iJacs/2rlz0gBmbWVVk5M7TamZOTGtkyePa3K8pKXFRRULVYvN7N41oUynpcXZaeFti+1Zy6tTLaoyPqode/Yp6jB2YgnEF2NNnzim3Qf2mXuoY+y9py/gOCthPYbTbta0ujKv8fEdQoRRjRslo7G2ppPHj6uYzWhu5oQ1ultrNK1n0cTIsI4dOqQy5WvqTQ0Nj6hpsZ2CStVBZQtFrS6c1OrijOr1VeWKRZUGRrVj114Vs1ktTR9Xu7ai1uqCscMKg6PKD4+pOrFLyhWUSeJtGDu4bq66+pqnDnDQ6qoVlcZ3qIHlRbwJ8kC7rRraN+SdVGsCL1j9+0ay0NmUTf8Z52O/++LAXvjznq6/5hVgroXM8N4g5JcHBJ9+4X/33hfP1uU6HnQ8IKXDBGljIe2J8dfyn/vreEPCK91ervsQQVrx99/xyr8/v8eArmsTxTbxmBng9DKJ/WN6nwEPOLyzMQh2k1jGw02PF/rCADjk2dBiutBsqzlzUsV2pPwG9pmPK6XN1bNp7ulRIpha7ZaVyjn62GMaHRlWrpRTrkShTVdK5uShxzV/+LCunBhTG//8YFUzJ2fMVVYqZBU3a5o/dlRFdTQ4MKhmoaL8wKiqozt14vi0BgcqOvb4IxobHVKrE2lscqdyYxMGNEePHjFBSNyKenLz83NqNZqa3DmpYGBQJx99WLlM3XzNuy6/UrNHjmpq7x4152e0ujincragcmlQsyfmNadI+667TtUdk+h6imOSCQGdjo6fOKHqyJAGd4yrQWUGijmmqOqbzdelHMMxyEkE1OzMCY0NV03IFyol61eTzedMe28sL6nTbGhssIp/VLOLrlp5Nmzr4Fe+oqFKVQ3rVzSkKA5UqJBiUDTX5eLJYxquUJx1TUPj4zp2YlbZfEm7d+0ywFmeO6l8hphbRc0gr8qOXRrdtVcqV6Qs8TaScwMdP35M5fKAKVtYus5jsI0xHLyxvtwUAn6DhdMi6GVu2cj6NtHYcKtdar1LimfekX3A2YY1v1gAx2Iu7ZZVnJ47ccJM+urIgDL5wMVrkALNtuYffUyFJbTVnOJcXiuNmnZdeUCZqKXVY0e1evKEBgt5A81atqTy6E5Vdl9u1lG0tqKF2ROanBjVkaPHVKHD5+i48gNlS3alHTXuToCWgOSeXbutqkKmWNTcsSMq5Ntq1JsqFsoq5BnfoGpzx7Uwc1yZdkfFoKRsrqwGlY1LZU3u26egQDHQvIhrQ2qgi+XQ+KgFuCEgWO7HWXJPWPJLGXCg8JobI5PR7My0RgerypdLLoBPbC4K1arXpHZTRx97RNdefbVWFxa10mpqD+WS1lZNASng6m62NDg8ogJMxCCrQr6gQi7QicMHVcnHKlSLatbqakcZTew/YG7Y2YMPaXVhTuOjY8qVq1psxiqN7dTInn3qEO+BbJLj3DWtAnyNUKNjjnDkPB3+oSOiv066N824h+fxrKSBcwCOxXDI6ep0tLK8bMSdrbZweriFZ+whfcDZhqW/mACH5NG8MlqyQqORJnZPKYzbRo9urq2qUijq5MMHlV2Yt4DzWhiqEUe6Alr52rIWpo+puTCrHQPEfTJa7mQVVEe047IDWqPxWByqUVvR6vysMd+aHWloz2WWvU2jrNljx8ydMj4+puNHj2lqapeREdCsjx0+rLGxisJWpBMnZrXv8ss1PDqotfkTWl44qWImZ6BC7CCuDGgpCnXg+uvVRktVztxqEAseP/K4duycNMDJ5aBrJ/W8koDpZkt8qQKOtRuA1pyUpFmYnbXk4cHREbMwgwL05dCo6h1aht93j6654oBmTpzQ8OSE5S916ms6efSoRoaHjU1WqlTUCCNzuVUqAxoZGtaRh+9T0GmomA80t7CoobFx7T5wlcLVVS0cP6qVhVlNju9QUKhoZrVpLtYdl1+hOF9Qg4RlrONOS0ePHNHo+JQqVccode6jhBpvtMgnH3A2Wjh9wNkGIXiGU/YBZxvm+mIBHKM40w4hm1NtcdFcCJN7dirKQpcOFFHtIOpo7rFDKtZrqjebasI4Kpe174r9jk67uqQTjx1UCeYaFMt6U9Udu3T5Vdfr6OGjmpycUHt53lxgMNzoGT88ManC4IC50PAxDw0O2SzPTE9r/+WXmxZ79MhRKzJZrZa0tlo3LZjui7v3Tmlh+nHNnTyuQpDVYHFQGcClWlUryGjXlVeqGcPiLVlJz2atoccfP6ypy3ZZfxeiO7669dmW9lIFHKwXEvI84NRWVtVcWdP4zkm1IKIUqNAbq1VbMyVg5eS0BvJ5C+CPTu1UtVJRJZ/X0UOHNDI0ZK2lC+WKarjiCgUNQxooDWjm6GMqBqG51GghDlNtYuduZUi+XpzT4w89oJFK2RiJC81YQ1N7NbHPAY5VCA/rKuSzuv8r9+rKa5+lDjlVSeoB64xS4Hj4Ty7ghNl8l6XmLRxPTNoqWvQ2iJSnzSn7gLMNS3mxAI7LQM8oT72rZtNaOJM7MTgyZM3c8rms1hYWVZubV9CoWfKg6J1OHbdKWTtGR8ytNnP4MVXygbWLXo2l4uCIhsendPTwMU3tmtLSiSPKB7FWVtdUHRpWnCsoX65qYWkpyeIOND87q4HqgHbu3au42VKzUVe5WtWJY0dxo2tsfMKaThXy0uhwRZ2oacmm2Tin+ZMLllgalEsamZpSiODKZJRH2M3Oqd5oaNfe3ebCw/KBir2RoZheZiPunlceTla1IKMq7iga6CUtpgvtSPHyStJimryhLW4x7eN5JpNdqJV6fFCTcYlaELrR1MzR45qcmlKcJz5BMU1pbXlRq/NzKpNja3X8QuUGq6aADA8MWIwnZ31yMgqgUnciDYyMGr15damh5fmTKgRtdcJmEnPMaHh41JKWsZDmjh7WQCFnLsxmUFBpZEKl0R0KM4HFAZuLc2rWV7S2tqrh8V0qDQ4ZkYFYnrVP62Yxr7fZ6KXOgLndEqxylQV9jx9yqJK+P0niNJbMxhgOgNO1cJaXjRreB5xtEIJ9C+fJmdQ0JdoH/D0t2id+FqjxFEfKZwNlmi0V2qFaMyeFAMuf2l6nm4x6QaQBK/kSK26TEJmxLPDjx45o3+X7VKqUjRJqpeyhhFMKxQoykoDjBJdl8lkTGjI5E2aU5crwYCPU3QNuCZ/0HMnm6C9hRTYtw3yDR97nX3l2i69A4FITvaabVFRAqpAES9IN10EuWSO40PJMrARIu22VtnfumlKF5lv0qiO20w1KuzXvxgUSkPExHBPjqaCBkQ3yruOobwZnQj6XVS2TUXXPboXFogOcWJY/BeBoZU1ZS1RNqgEk+GCKRypp11dMPs+qRBs27qkcH2jNK0uLVsGDpoPVwQGrLpAn695yv9puPcjbKRXWy9MkhT0djZrEZOaZmphZlbJYj1jHNGAjTbJjVo7xGuPASuhw3qy/IfaLFdAkNujK26ysLFnVjsHhIRWr0LU3i85s/FsvdQbYiq7Cx3ppG3ra5Mx1a3vRWFGBxaROIw1gwVNRQ7GWFhZtm7Pe6cTPNEPtQlhqT46kuTSv0rdwtnjdNgWcTmg1m3hQycMplNGS6Zi4vYDTwQ1mgBGj9ytuRVqYmzXwgDFUgAiQz1opEivAnGiO1MfyD5oPvrvzOLAxKqXXUq0Xm6uGjfZqFElfOXiDPDGAQiNN2iAb0CQFF0+xQJLPrdR+Qqmk8gE/5y1foWMFEmnOVh0Y0Ajxi3rDaeKUwkn6w/hzegMhrUFvJvwti9sE1wbAgSyBhbMBcArksSyvSiurCgxwUgBnXQG2A3BO3bC4z6J2ywgZtC4nh4J6fa4WX1KUztoT0Op544K4c3mL3K1pkJQGYsVpGe7+OXcT1mPOQMcUEF8YNLFWrGhnjKW7aqWTAJ6xHRMKbev0RAfoiTbgUxj83mTdLN/kNMAJ1CapNZWH0zoL4KRzAz1duA84Wysg+4CztfO53iQs0bS6pW18pYEEcMJOaC6N7bRwABz/nAdRrBwaaKtpBR6JrSBSBocGlDOt3sVofO7RxmlxD7cT2SY6up0dnXvEdwe1Io/pUvVnMq0T+ePrxm08DNAjFsDnln+FqygTaK22ZsmEWFM7JnYYyJmQTJLiIgpFQplOnfDpDDiurhpJxR0tLy0ZxTyXzWlosGouUEcPT/KxNusPYcVc12v3UdiGEjeuiKor9um+zzqgbCSAYxE0V0/NKVmRWZi1ek3NlsvtoU0yCZZWw+0SARxTOhJK/dnyELdYbDxjTtcHnC1eav/w+kQpqxadVBrYaOHkqOK7zS41U7sRKGFHWVwH1lcmUqPZVD0RDq12U5kMmmwiWBJASU/Nuja5San5pNVv93grg7N5C+yuxZRcyz/cG6+VTlIzLZO6c9mc9aCHVYVl02yHKpYqbtzGXMu4Bg4b2kw/nQHHtVt2LaBpplaruSrg/HNtoLFgIltz1v5MdkbXojVnGjEyXy068UPaiRJLxfsErTy3Uzj8ehfLJSvVgnVDXTqzrBLj+NyPWm9RnK22cDbGcPqAc+6VutAj+oBzoTN3lu95we0TP33xTuIRAymX2nYDjlUaSHRLdH7fnMvqq9GxMWxbzgY5E/jqfd+UjZrdqTktpwoFbxGlqyyYayYJ4G4GWg7PnOg71RZZd/FszFoGcBCoQZZyIXm1o45V/SUZkbO40JLT1j0h4JnhUnNziaVhrsrEmiEqZlYHMTBr+QwlZEOAcN1etamy3WLKAhZJEitKrJ+uApBMKtWhzbhy5u66JU2dtqSKZ7ZYtJ5OVuqmp9dTCzhpl5rfo32XWk8L1/NBfcDpeap6O9CDjRfS3sIh2A3rqlstukOBxe21cJw+mgiOxKdvIsn6orjWWOs9blxtp/RrM+ujt9S83uaq16Osl44JTBeWJ0bDnRGkdto4vzuhlhFVuE8d5WYWjiNEOA3dvy6lGM66RZIiEbiJ8oV93G0ZYCRuMZ3e4vu0BFnaDWxcmC5bLnUtrMjEqrSzexdp+rtJj6LehXZvgONuy7la/b90I7mul8FIA73FcHy1gY2Egd7H3utufmYf1wecLV7/iwlwHPfLCQkTCN1gPIw0Bzi+MVvSuaYHwNniCev1dJZck7DZTJA5kIEe7QDIwc0zD3Dc2iarnPD9ktlI3JZu/TvWeGwjQ26jkw3MoiFfqtVa6ud18DLFxW0qt79S67gRfHoX2n3A6fVxuFSP6wPOFq/cxQY4tBUwgcQ/oy6tWzh8ZqIaRtUmAeXeBcXpk9gLJ2mjoDrbUjjPTsoms4rEjjXnxWASsXiGWThSlEy2VyK8ReNAIaGzQy3A5bhhkjeusXUItU6htmFOZ41BRPEznnBSkqXpnnvjNXp/xPqA0/tcXZpH9gFni9ftYgMctFVKzHjAMe3T3FPUE4vtn7mnulbC+oRsBjhQZDe+Thda7ghPPT7TFG/qhjnDwVSB7jKdUu6bU4EtaXT9DHKpGUctSYdan/P1gL8HHEeoOB1ATltjW7QkOGOAk/4On9Ewj/0TC+ajf61bWafmNvWyD1I7ridatCkqfZfaFkuuJ+d0fcDZ4nm+GAEHYWCgg4abAhzXlx4LBwoyLK/T1N/T/kRuxqkOlHUCgD84HTM5q9XijJbTtO5NBmJNvtaptV7QJX9Jq9Qubn5OWvTTJYbj82s8OcSBvAccBLNXEACO09f4dGsEi9gDDsd70PFAhFnjCAjZBGXOBjYOcE4nK2y+L/oWzhaLo4vudH3A2eIlORPgUIokaoWqlisqVStWaYB+ONtJi06TBtLWRDr/r2shmDZ76uu0gHIP0HAK6PQwt726XxwxYDMo6uEiXgan9WdzG126pAF/185dum7nnR5RWZ+fnuS+KQB+pjcDgHUw84rFuSsneKfnudaqV0fshVs4vlo0t7i8RKUBd01IA56lliYjPBG38rnu9pn4eR9wtnjVNwUcKg3QiC4FOL7j57YCTpJLcbrhstERtbn763TA2eLJ6vF0nhDQW/JgbyfNPF0Ax0yI3gT1U7KeZ9iDva3SmY+6UJcalcZjqNtxrOXFJVdhows4eZe7lGK/9QHnia7Uqd/vA87WzucplQY4tdGi+4DzhGa5DzhnEbx9wDGA6JkWDeBQP5ASPEsAzukWTr+W2hN6XM/65T7gbPHcXgoWzmkWzxkSMJ8SjXiT9egDztkBZ1NX4yZWz1OynheZhUMttY0WDoBFrThcalvRYnqLRcrT6nR9wNni5ewDzhZPaJeisF5Reiuu8HRyqfUB5zwsHADHCsxSZfvMFk7aytmK/dY/h5uBPuBs8U7YcsDpdBRGkVX03VhG5pxD71G7tNBwr9H7c1506w+wdBsjDZwaq3giGnvW9VVYD48n9cCo/7VV1aIjWhNErkadC78neVBbOEW9huO38JLnd6oe9+D5nfTCSQNm4WwAHCycjaSBPuCc74r0dnwfcHqbp56P2nLAiWOLA/UB59IGHDaQ1Y3riQbe83brJr32/o0n+cg+4DzJE35xX64POFu8PtsBODDcuj1LemQkOfu1N/23b+G4XCIqHm+1hUPbAG+JbU0DtlM3bG8rvMWb/HxO1+MePJ9TcuyFstT6Fs75zvTWHt8HnK2dz21hqfFwedDxw+2Jrtnjw34pAE5S+W3LVitIEiS7GSfbADjmTksAxwRkcrFz5630fpt9wHE05p5Zan2XWu+baxuO7APOFk/qVls4DA/rZrsBZ2N2/hZPyxM63Vaz1NYBdntjOAY2dNv08TdXf3RLX33A6QPOlm6obT5ZH3C2eIK3C3C8S808ZRTq71ApGQFGKRK6zruXF6bu3Zcp8Z/4m/VVg524cs22vCRMCq/5VtDOf9GtP7Muordi4mgxkEuKbbrK1q62G/fjWWnWV0E5EjUde8DFLZJ2xozdBeRdPRsr4WPtlN1IOY5OoQHl9DtStkNfII5LOpz6eYMaS5ti3/46cV3SLjvsocV0NtVi2k6ZtJjuWjiAznlOWS/YdCkATq/33cv9egXMdnSSoEmyZj5f6M7uqe0JMqe1mO6TBs5zI27h4X3A2cLJdLLZNbHym/6JJn6mzwno2INGzxKKWQI0JmQdaPhSI1ZukQ+SsvTpB9ke/m75EoS0Ewe+n0y6W6brtOn9QO6oXoVHL9NqEGMti10LNSsv6eePpmJJrxvGlLfKANynqwfXrd+V3HSme/8uMI947yQFpRkzLjTAxoDHACcWYOJflosB4CR/8OvHdXoGnA2T4y2b9H7omVnX7Wtz9pk0DD5Dd9Ve1mDbjzkPkoTfv+caU3oOPZuMPJquOpWsaycbqM1+qZZV3jGhRiajfgznXLO7vZ/3AWeL53fLASfRtE8JPltb4c668PW5KoklYuUWE+HXCSAAnyoJu7+lgwoGUI4q3AWo5CTrD7jra79VL7NEuoUmsW6cXeOgDWBJVThOTDjrLJoIsW6PHw+ZmUC5dhcyuowwZzP5IqPucwMv34TNa8tecFNhOwF3GrRdKOCkBWP6557ibz3XTe6l+OlWrdgFnGcbACcNLGdqUc4xfcC5gPXa5q/0AWeLJ3i7AAdLo8t2CqjYS5n4pPulN0R8+/mudoy2nz+tuvP6LXvJHThflAcmX6LeMCjpp2KVHz3g9Or8ONfkUnua+3CN4Hx5zq51kYAOn+BCtNbV3e6StJMGdH0TNperkwuTsaUxlrFj7ST/jJ3MXKWLGKfZf97KMjfdhQPOpndvLrse5i8hNZxrBi/6z3u41VPu4XxMaBQsP5cpa7XrUutbOBfd9ugDzhYvyZYDzgYXj2nHQaQY0PFxjqTS83qCofPsZ+zv+LbXXWfrfofEojEpjA8qiQZ4qwdp7FluFu/wjbe8JbQVE+fjR4mrMLGuzBXVtUP4IVBW2eR+kpiSufucrUITNpl1QkwIEHIWnnMr4hMLu1X2ie1gtZjxdgrIptyHiWvULK0n4FI74wz1Ajh28fORvluxHttwju2wcNKu3k2G3AecbVjHLTplH3C2aCLTZv5Wx3A2DtFiN0hM8ynhu06CGlgKmVhh1DZnVT6XU5y4mDJZAvEdqxkFdmRoE2mAlHX9tuiV0MHa4Jywq0Jl+Ju9rDlx8nOPKmtK8wRANnN9uBOun89fweav07GgcGCFFmkyFiiOIiMP2Ln4F3WSXmF0IMtKuUA11W1ackFeOWUVt3HVeWhOzBpPkjgLZeyUGE6Q0Vo2UHX3LoWlksJOrFwsFdptxcur0sqqjDTwBPDhtNhOUlTSZqc7l2eIoqVcg36v9Oq2c7jGvklZXonl4NfA5tq7GM/nefHj7nHLrLcMfQITmVIW+i6181msJ+fYPuBs8Txvl4WTHqaLYfhOjK5BlinscahOJlI2T+yjrU4UijC4a9zYUdQJTVjzv0wHN1VOMe0iw/WYhQlrguf5rLMM7LXeprjX6fICzNOCDehO09g9I87FhYwQgNvMxf2d+wxasTpq5mJlglj5qKNsu60MY0PQBlkpW5CyObNcVI7VikKFbQy0rIJMVgHQk3Q3tY6VLqJz1ihJGnDaQUY1DzjFItO15YBz2ryeh2XQbSaXOskFA45fI9bCk1QIyF8I4CT6xGbwccbxrWsdvW61047rWzgXPHXb/sU+4GzxFD8ZgONjN77nvLWINqZaqDDTViuuKyhIhVKgMKwpjENFChUmgBO2QpVyZZUyZSnMKBcXFEd5ow97CrRRr70FktKge80jYR4ANz8f/uf0dDtWEv8FMB1PzWIycUc506pJnAzNY9bOtxUApq22MvWa1G5JYSS1AR5JpYpUrUhRUyqVpXxJUSerKJNTHGQVdDIJ6ETuHk37PrPq/aQDzgY3mxEdEuF/NsKBu4teTYjNN7tZOMx3QpYwC9IDjv/sAp4TG/d5AGew2ZpcgFuxDzgXsFhP0lf6gLPFE/3kAI6nKjtxY2yuTKS2WurkQ2XKsVabS1pYm9H00mHNL89rYWVeq/UVE06FbEEj1THtGtulieFJTY1cpmI06trVxxllg5yzgpLfXazDv3wO4D4eGgAAIABJREFUz9knjkTVNFXV2GUbhIcDnCQWlQFwss7CoQmWER86ytAiudNWvDqvcHFe9ZMntHb8mNZmphU0m3acsnkVylUVKlVVd+9RYWyHchOT0sCwOuWqwiBngBaYK6yjDNr6UwU4ltJ0us6/UeO3XCTLSXIuLw+SG48zp+oTZA56wMGiYd3MCsaqSRNVeo07JdtinfjRO5Xeas2l2YRm4p6/e60POFss1LbwdH3A2cLJNPm5DXk4p7tb0NJxDTm3WhyQj9NRK9NQK6hpvj6rhw49qEenH9B087BaccsAqRNEKhQKajcjtVfbKqpkgHPNrht13dQLtXNsSrkgp06royJuqpDgumeweRZbb4DTbre7/UV8jOB0wEGY4PtyLkIAp5MJlKUNI4Iv01G7WVN95qQKjz6q6Xvu1vyhx1Ro1FRut1TJEIFyVlErlpqxVKuMqLx3nyavv16D11yjaGxcncFhQQ/nQrlOZO4wJ8ieCgsHy2Xjip7+N+NxJFZOOia4EXAQ0jm7t1NfvbrU/Jpg4QA4rJuvntzrOU65chLQ97RyT0nv6TEzJcOtiY/5XcgY+oDT02w/JQf1AWeLp327AceENxIrV5DasZQvqNmpKcyvKSqv6qFjX9aX7v2CFlbnVc+sqVleVVuhkQzCuG2xHNxVeeWVi4qKGzkVo0FNlvfqxquepRuvvEGVTkX5sKJcu6RMB+DpSHEo5RMmV5Llf7apa7VaBm5mSZxBS0UYhZmO8RW4p04MBTlvHRlzYVv52v9n7z2f5LjTM8EnfZZr30A3vHc0AP3QzIzEMZJCqxlJe9KeNBeKi4lQ3ClOH6UIfTx90Qf9B1LEhT7oFBe7Wkkr7Ygz2hmO5cwQQxIkHEF4NNBAe1O+0l887y+zurq7gG6SRWzsXSUDbFeVlfnLzPd5zfM+bxl4MIWFc2exfOF9uM0WckGMYgw4cYjEb6QZOQOJZiHWbFRtGxXSHIoluAcPYueLL8A5ehS+m4OeKyHyEhiR3v7MdtyWFc43euga0NsajsCIKtIzF5hSs4UIkmiIElXHypwIRpest5Fxp9SmZdWQ6JGwFbXEhBG5MPj+2Idhmwi53jrp8JqilLTrLw+JFlLszSSUuARKmyx1Mrpdww2pMhWtqsWTZ4BwmQIIU5tCIow9gGldwxTihaYb0u+kKPExEpPLQZq7iSTWhfSi8+9cJAnmJeZtq2k87P7rA06PjVoPd9cHnB4u5uOIcOQhjvhkm/IvMkw0zTp8dxUf3v853vnoh6gGq4gNINB8tLQGzRMiRkFGhFgLYOiR9LUQcIwoBy1wYUUuBu0iTh96Gk/vfwbj9h6gasNKCqnhUWCVRQWbCQDrF3JbgKNpIImOxsYk4HAkt2khgQGrWUd880OsvP1DtK5egO1VYAUJHF+DGzGyocENxDBDp6WykcBC0wA8xIgsBzU3B+3gfuz6wmuwDx5BXBxGzHNObJWq6wCZLArrBCC5nj0HnKwJlUtJyQOVLuO587K2AYe0dD2RXiHS28kq5H+EqygJkRiJUOM1ONDCHFyTqcKGkPV4vRPTFQaiEScw2pT27oCTnXsGOPxZnIWMwZbWd9ZHMpsbTtt9xOI8MAKno6IjTFzo0msVIKajYJjwma7VTQF+I4lg8KitSAgZmu4gYm2RwCcYG6rbjgCl6Srd+ohMWx9wemzUeri7PuD0cDEfF+DwUY/CAIabh6fH8J0mrs1dwFsX38Bc/Q7MooaG34RlKW0wFs19RAg0D0HchGlRQkaDHtkwJIKxxevXvAQ7Czvx4rHP4czBl6DVcnCSAkzKz9BDjfjg0/NN6wqPWLvtAI5YcyEqcL9xSsM2gGaAYHYGD37+Y5Qv/BwDrQrsVguuZsHVeay0NiESzSe0IBHJGgcaLMDR4UUBYsNCGTqqxQKso0ew75XXkN97EHAHQEZFHITtkQSPah7sPeBIwqhdQ5LUWazUwCVy3dTvFEHTCCHk6mkQ06w5gJ5HotmIYMFveRiwCdpV6IkHw9LldYwUjIQ6clkN6DMGnPS+kHQam3LlPwNM3vK+iTUDfqyjEekISOLQDbiWDj1qwYQPQ68hIfgYtlDatZhnp2p5bcCR6uKatl+3W7APOD02aj3cXR9weriYjwtwmFKhlxvZOnwrwkzjPr737rcw37oDz1xFqLcQaexZseBGBfGaG6EHzQUiowXovpgu0oa12IIWGczOQA8BN3Sx092FLzzzVewZPIo8BqEFGmxGHiy4JyrV0osIhwQFJCxOB4hNCVugexEwv4rFd89h+p2fYiiqwg5qcBITpmbDDyL4YQjL1mFZjABCaGECnSy7xEQET4yzadgIDBMV08ScaWDwiSdx5Iu/DH18QiKihKEAk1QpIytF0fbd8Nmx1FKQBUFBl6hGGl2Zaooj6Amp7Ix3qDFnIdEDxHqAiI4F61SxC80aRd3PYXahgbnFJYT+Kp47uQc7ChGspA5D2B6MGy1oolXH2EiI813v9l5FONx5ph+XNe8ScJpsPnaGUG4ZuDNXw/3FOuYWV+WYhos2do2XcPTAThT1VdgIJPq0JfKhY8RVSmWJWGeiYGdH+q4POD02YJ/x7vqA0+MFfhw1HBpU3dYRmAFqRh1nr/4MF+69i7q+hHKwAFiB9OIYLQsT9h4Mj+6Al4RYri9hvnwfmuUj0UNhpKnGTx22biJqBSgZJRTjQRwaO4UXT3wRY7ndQEv9XRN6NBMdvYlwJC0SEWUCBLaqTVhlptKmMf2DH0FfnMVYyQS0AG5uGJHuIrEsBEjQ8urQohbsKIQdJDB9Eg2YovNgmWS6Mc2mwUtizPgBFhwbh7/4RYw8/RSQLwKGSjllvIHHllJLrSUNMb39QFJqopEAPQ5gCuAw3WchTlxJGYZMkxkGfMNFLXRwb66JW/cquDm1hKWVBRzYk8O/+8IzmMx7KGoNaGEdGvuSJKpgjKCDlGNJI3bZPhHgyH6ymtIaAsgYjUSTqI1/jzQDgTuE+6sR3rkyh/euLmC+msAwXSSRBxstDBR0PH18L157YhzjRQ124sOOPZiS9oyFtcgoVEQ22k2wWxM++o2fPTZuPdhdH3B6sIidu/gsAaedKqDnZ+oIbQ8zrfv48aUfYN5/gKZRQTOqwIsaSBIaYgfPH3wJ+w8exfzKMqZm7mBq/hZgMbVWF3UByX6IB6zD0UwMOoPIRUXYrQF8/vSv4uDYcThhDgaLQmy2zMhqW6yb53lSeH64wkCmnKMJqSHKMbfkw5pbwuKPf4bye+exp5CD4wBJ3oZnl5DbvR9JqQRYBqJ6Fcu3b6IYhshRTaClGj1D04Oux9BJdJDwAfAtE9fKFZiH9uPor30V+tAgYBZUCi49oY2ctc4IJ2wrDexC6DqfTmmA6TEZJ6EjIEDGiixgMNIKfWhxAJv6baygW4MIEgOJXcJyI8GD5Rau3VvAjXuLqLRiVFshDM3Da8/sxxfPHEQpmMew0YQZNQCTQM4IibUt5SQwWug14Mg6icRCgigm2KSMQ7mvdESahbo9gu/+4hreu1nBgldEbA+jUW/BIWtS84CkhZKb4PMnhvDqUwcwbAVwwiqMhK6FGlXBSNQUgYlUYWMbKhF9wOmxcevB7vqA04NFfNyAIykS24RvVHDx/jm8f/ddVPVVhJYPP2mh1aojpvcYWvjciddgGC5u3J5Cxa9hqTYP3WXHTg2aqRhRlu0I6BQcFzbZa74LxxvE0wdewtMHXkQ+KkL3WMRVOm4bt27RQQY4mcJAN3qrKvwmaCIEcga0oAVt6h5u/eu3UZxbwi6CC0kAro1Fu4CJJ55CU9PQikIM5XOY+uAcRqMExSCB1iT7zkLV9ER0wApC2MwsSc+NgZnAw90kxNO/9TXYuyeh2wPQNMWia0u4dJzYOsDZ7jycbbSMJBqJDpEAThjRSKckQOrFMc2XevCM5iq+BcMewv0FHx/dWsJHdxax0ozQjGK4g0Ws1lYxnIvxKy8ewbOHd6Dkz6OQVGAnnpL+MWwkBJ2UPt9zwOGIDJktIcMgEIi8A39HVQnSrA0EmoNbFQP/6c33sBAOYTUeRCuykLMsGGETcdAQhQxTD7HXreA3v3gaJycLKMQrMEjnl2qdLo6LIwEpkWx7Tbt9wOmxcevB7vqA04NFfOyAw9qDY6EWz+LN82/gXuM2PNdDkHrPUcsTT9lNTDx//CXs338UK5Umpudm8OHNCyiO2FLnqbWqqNZrMG1b/TN0mRljhg7cYBD7Bk/g1SdexxBGoDUTGLTksbdpauUnBRyCDfuHyCrTDQ1GswHv+lV8+C//gqO5PAbJtNIsNC0bq6USRo8fRxVkoQHjpSKu/vQt7LJsDHI9GHwZNqo6abcJomoVru/DpUH3Q7QcGxeXFnD8176E0aefRGwWBXCyDvtuICpw2GPxzojXyBD3H3HIaaBkm1kIEwuR7qAVk69lItBdXLu3jAezVZy/dA+xMYzFcoAdew9As3QsLM8g1nyM50P83pdO48CIjWJUhu2vwCaDjcdOajR7dNIGyodpvX2ylJqSJVoDnAhBFEo0Qn4zoyr+C5DDT66W8Q8/PI9wYDca+oCw5K3Yh5OwlqjBJ+nDMGA3pvGV5w7iy2f2YjBeluoPWWkB2XaGAVdOhWm2PuD02Gw9tt31AafHS/04UmowdPh6gNXkAb7z7j+gbCyiZbGwrEkdAwEJAyHysLB7cDdMs4RCcQS5Ugkf3fwQVlGHXdRQbVUwt7iAiKGGIYRb6FEMBzkUkmEUo3G8dupL2FPYC7NFo05LoSaNbgTZzgiGa7CdCIepJYIkraNN2m+thvKl9/HR976NJ3bsQC5h0TsH38hh0QQGDx+GvXMnzHwefq0mjaC78zmYct6RMNOMgWERG63N3AcqZbheAI2AowG36lWMPncaky89jzg/BN10HzvgcHoCPW89DkHBNwqSsrjfiG00tCKaegF35sq4Ob2M2/dWMLewDDM3gDC2MLZzN8Z27MT0/WksLc3DNDUc3mHif379BIatEANaC1pQg22xv4VAxv4X1j9Ur4uq2W3ePjngMJohfZsMukhEY9VEIxJMmK404WtFfOvdRfzk8jTqVhGh6cDUIwxZEdCsIoGNWmAJ884OV/Di4SH85suHMRTPw9ZaCHUCjimA5OqMnajvp/QDH7b1WWo9Nmo93F0fcHq4mOIRf4ZKA+0HyQRWwlXUrTn888/+b4SlFjwrRLXhCVvL1UzEjQbcRMcT+5+A39KQL4xhZHwHrly/gsKwAzOvYaW6hKnpe2iGTRRGXERhC3EUIGcUUNJGUQpH8fLxX8ahoYMwPBMahT510m17Bzi+5sNKDBieBlSrWD33Nq788Ds4Oj6GAbsESx9AELuosIdoaBDR4CCcoSEUHRO3PziHfcMDsB0TiakjybkwzQHxmlemp5CUl5FrtqRvpxYEuFuvYeDJk9jzyouIh0eh2fm2hMvjinACXhsqWccBtMBDEoXwQw2xO4Krc0388IObuLvsoe67CHwbuk3ZohC79+/GoUMHceniRcw9mEMxX0IcJHjt6V348plB5NFCXgugRaydsflT2vVh6FTLjtJU1GZFguyepcPwsfpwJJKhFBHpjRng+IgkzcaaEdOVFjxtEG+cq+DHF6ewFERwBwr4wueewqm9JQzYCZaXI/zoF7dw9e4iLK2F5w6U8O9fOYTReFZ+DnQdvmZJhJMTwKESeh9wemy2Htvu+oDT46XuCeBktYBO/SqZSaOorWQutbQmlqIH+M8/+n+A0QBNq4lyowxL01G0XYT1OjRfw6E9J3D48ElocLGwuILpB9MYHBmAZrJbPcCNW9fRaDVQHCqiFTbRbNVRcksYtsZR8Ibw6snXsae0B26Sg07Akfk665v+uqbUfF8Mn86UzoYufr4/a9yT7hJDRxx4MFpNlH/2c1x/49s4NjCEUqEIbWAIDU1HqJlwJyZgTo4LHTyqVHDvw8vYOzwIv1mHkbNRDyPsKB0VynO1/AC6v4p8sw6tUpMi9VTDw8jLL2Lii68hGR5FYjClphoqpfu/815Ie1ylD8cwUNc1FCYnEeZcqb0YMp4gQlKpyngCMwplYulWWygD43RpdkwkwuGoiTxmV0N8/+xHuDy1Ck8fQBM5JLYDywpw8NAuHD1+Cj9/50PMzdekbSlv+HC0On79tRN49kAeVuJJ7YaFdhbX5RZiJMU+Jxm//fDelU8W4fADRD5ASBBRQjXySHgaqmZElpwBXy/hexdr+MEvbqJJWIyAkycP4Jmn9mJ0wMH16zN459wNNDzAwjI+f3ofXj+zF3l/Fo7eEjkmwiXrc65hrvUUPWKh+xHOVnfhf7+/9wGnx2vfC8BRDwxpoJlHysI3jRlBh0X7SPov51sz+NbZ/4pWqYGVZAGrzSW4ro5BppyqTZmFY5mD2DW5D5aRw8LiMryWBzfnIIGPMGpgdm4axVIBlluQ9NZSeQljwzswpA+j6A3hl576EnbkJ+Gy0VDEBgg46/twNgIORSe9gIBjKfZVpmicSty0u8Sl69FE4gDNuIJ85KH61i9w9x+/jSOaA4dV4okBNIsEhgGErCENuPD1GJWVZVRmZjFk2QgbDUzu2YVa00cee2Hl8mjG9JgryDXLwPwSGhUP0yEw/pUvY+T1LyIpDUsjolJMSUUjO4v+mUyLoYm0TV3TkN81icjNCbPMjElMiIBKDUm1DivytwU4rFllNRXWcKJYQ2IUEGklLNU03LxXxpWbD3B/pYK56iq+/PpLOHhwL9743lncfhAi0MbgWBZyWMR4oYLfev0pHByypMDOf3YSwNDY1JqObpDufN5HaoR371Jqa3siWEeJ+sdrnw0KV02zOcyHE/jP3zqL2cUEoTmEeuCB5TknBwTNJvTYEkWEkfwKvvblF3FoRwmWvwwjqUIzPKnbWLoDR3eZj1SNwl0EULMj6gNOj41aD3fXB5weLmavUmpbAQ4pz5oVo4xVvHn+u5gNHqCqV7DaWhZJkoFcEV7FAzsFXSMPx85Jz4nvB5KaMOkCa/RGm6hVV6A7OqzBIhpBA9VGFQO5IeTDEva4B/CFJ34ZI/YozNiWlFq3xs9PBzgGEkeDpzXghk003v0A9/7xDewo1+EQXActhENFlMYPo5VooDJcYpswTQOrM3Pwy1U4holde/cg1DTUPRvuQB5RvIqoOgtreRHawgr80MCs4eDA17+G4qsvI3YKwqZ67IAjvSsqMohDHxHn/Wgco+DA1/JoRjaagYF6izURoFDM4/yHV/HT96/CN8dQC1wYnFjqLeHZ4xP4jS+cwpBRhkkdtcSHKZQDDq/LAMd8bIAjLlGqiZelXUPdxko8jPeuzOBn791GJcijpeUQ6xoMU9EKEr8JM27iqy/ux6unj8JoVjFgMWJsApovDhYFSg2yCtkozLpfP8LpseV6PLvrA06P1/lxRDikkcJK0LLqOHvjZ7g0cwG+46HqV2BaNsaGJmDrLpzEhh4wIWHIyAEWkg1DQ71RRb5gw3aASnVZajhNO8b8yjwKhQI030AxGsQTO8/g+QMvoKgNpcrRHPPM/HxvIxxR1zFJ424gunoNd//5DVi37mIgCmGwIXQgD3vXMWgDg/AMDbpjiwCk5keol6vI5wpwBwZk4me5UYed46TPMpozUwju3YdRbiIwcigPjeLwb38dxtNPITFysi6PHXDEYDLiiJBELUQcvcBATyeFWMEFWVm2lkfSokyPgcV6gqmVJuYaAa7cvgu/1YTWqOK1M0/hldP7UDIWBGykcZRiqFK+yUZvm4hT+jIrLr2McDJHI4twRA8ubfhMuzRF1aGauKgEFt69OosLt8qYXibVuSDK1EZcxcSoiWdPTeKlgwXscAyYvoecjKbg1FlVH2KkTLFPobg9nC+g0r1pJN2nRffYuPVgd33A6cEidu7isQCO9ORHiPM+7lVv4ScXv4cKVuHrqm9hfHQSxfwQ8mYeYSOA7/kwTAOmYQhLdml5HmNjQ9D0CKvlZbgDOSy1yphZmEUhV4DmmSiGw/j88S/i0NBRuEkeidCrNBiUSukh4CRs1qQoqBPBiBvQZ+aw/OYPsXr2FxgJfOQQwijl4O86gLBQQCuJURwcQq5QkmbVFhsIecxOjiuC6tID2FoAJ/IRLi6gdu8+onqAupUDDh3Bwa//BqJD+xEnlMJ5/IDD81WAE0qvFBWeZZQ3+43CWATAYzY5hiYK1gim7lfwz989i+LufTjz6kuwCjqqKwvQah52D+zAYC6CbS0IDV6JYCYiiKmGqDHWUX0xTEF9FoAjBj4tfhFrVFqtQ4lC0+GRPp0fQFUfxFTZwps/v4sLHy6IZtrEiIFXnt+NMycHMRrcR5GkFa6RH0p9iw3OkcYR5VnTZ0ZQ6ysN9Nh0PZbd9QGnx8vcO8DRobUHa3XUcJiKoYw/H+Kcj6a5jLcufBcfPbgAvUClmBhj4+MoFAZh6i68eowwYk6fPR9KJDMIWsgXXLiujWq1IrKQoWlgYWFe0uNOkMeYOYlfefbXMKyNw4rY7q8ecGlO3EJLjX50y1dKA11rOGKlVGVH1ITJcrIS6HELZnkV3qVLuPOdf0N+aRGDkS81J/PoYdTjCNV6A6WBQZSGRjjSFH4zgO248n3QaqE5Pw2Q+GAaSGp1VBeWUQ8T1AuDGH35ZYx84fMId4whSSh9n041fYw1HEVNYGoyQszoJmbvCinpTLJRaFUsq4wJorjqg6UI//DGW9j/xEk889KTcFwP8FjvMlFAAVHUApyq7I81GqbbOJBN1aWUXpyKeT47wFHzjNT9wRSh0odLJ5YmlLEx4JsO5jwD5+828dP3F7BaK0o9xjEqOLrfwKvPT+LYqI9c5ENrJTBCA4ZpU3VJptlSbdpI6d3bHZ7XNcIhaYNMSySorJbJq2jP/5HR6iKhowlgZ9/32ET8/3p3fcDp8eXvBeCoQ1KGSW1rgEPGUcxCO5WCjQbCXB3XZz7AT879N7SMMupRFYmdoDRYRK1Bkc+8iG5GscqFM0VBlV6SD4Q8kAB+K4QWOaDCs2Pk4Pp5/NLTX8KTE6fh+EUYMRlH7dLDIweXZViyJeC0Rcw0qQNzXk+S+LD8FpLFRcy9+T3UPryMoVYDduhDH8wBhoGg6UsijFphBgFHphPYAoR+q4W4UYNLBhlpviGlPA2s6AZyx09gx5deB/buQ+C40AxGOOtHsK2TvP+MSAOKnqckd3hdEjHM6ZQCgkNKJuPV5xyZxYqGdy7dwukXnkFpIIGVrMCJ69K3ZIYuYk2Db/uSRqIqtGUwfWqkzgq5aWp8N7eekgY6Aoy1RJ0mqtcy3SabwSP9PzF8w8R8S8O337qCCzfqgDmBONTgmnUU3TJ++bXDeOHkIMygBSPQRMWcKTSCA+8PnoXFSKfNe/iEEY5myLwlrle1TMBR+yHY9AGnx8awy+76gNPjNX4cgKOa6hwEaAKuj3Iwi8u338UHN97GsjcDvcBRBGyasxCbg0pZmp6wxvHBatolc+2maak6RmigEA8jDihxb+PMoWfx2qkvougPwgpcUWFOyK5ih7w88A9/2D824NDX1Dm1U3maIjC5uoxo+g7u/uTHqF+/huEkgtmqIBcnsEMaXUPAh+8LhZIrGv9C5ONgL9OiHL4uM3FWLBP+zh3Y8/nPw33yKSR2Ts2KIXFiw5k8HsBRgpRywoxSY4IMa2Jp0Jd278u5wUAtMBCZObiuBQSrcJIKnLiVypeZiFj3EaOphrpJrUPjiGhyo7OOfHW9ZExBl+0T0aI3DGDLnCQ1moDnpCIcIZxHgdSlWkYRt2brWG6YCCL2GZF95sM2mjhycBRDxSrMyIMZ6TBJq9ZJpuDuFHHd5t26NfP80TWcPuD02OJ9vN31AefjrdeWr348gEMP1pEhV37SRGL5aCQreP/az/HutZ/Cd6qIrCYi20Qjpm/I6gYb5jhrRBk2GjoyfjTNgh25yLeKMDUHB3cdxmtPfx7jxgSsuisyNxJjUYnAYNrm0bIiHwtwaOHTgaDUcpMBwwQejlJo1eHd+AhTP30Lwf17GPOqyDWbyBFwyAyX/hJhVSOKQ6HV6oYF33DQIC5aDlbp/U/uwOTnX0XpqaeA4jASUnB1R4aXsX+kEzofC+AIYmeAk2qOScCTTslkI6V8rwswUjfNdPPwmw24WgKbs2PoQGgJQkk3GTKcjf02Atg0zjq1xzY7BWvRwfrbuFeAQyWDbPSO3AcCOpQtihCEOmKzhFZsITEttQpSc2IkGsOxTUTRkrDsLKbh0kvMSUAgKy+h1CrHaSiF6kdtjyQN9AFnSxv2Wb6gDzg9Xt3HATjKcyVycJ5KOsnTCrASzOPcjZ/h8vS7aGkVlIMKkpwDnUyfxBeqgfKEDeiahYgWKzHhJgUUWwM4sv8ozpx8BqP2DjiNPPLhAPSQnmYi82rYhGf0GHASTc3lIfiRTRUksUi2GGEDaFQR3ryJu2//FMn0Ndi1KgYiHW7AsdQ8b5Y6QkkPcmIo02o1IwfPdBDaOQQjwxj93PMoPHMa4egYvNCE5RnIBSbgMpUnyl/t7fEAThbKqAhHxiZL70qERAat0TEIkcSsJxTgGzFCrgnVvDka209kJoxnJmiaNNhAIVQNngQb/k26uMQvUOk7gXJiey+lbbpEOGv7X0up8drEuockYf9WTqIWn+MTTB+aIKDNeeCIQuq+eTC1EBYdoyQUnT06BQzLdQ6So3eRsMaV9jI95NntA06PjVoPd9cHnB4u5ppXlxZMaTrCEEHMlFaEyA9RyOXhFvKIWOSlvfF82EEIf35BOteth+WopfGTxibtGxT6KZPbtniRgRYgsjx4WgU3HlzGpRvvY74xh5rRQKRJBRohZ8qn3rVBnTKCjZHHSG4cT+1+BkcPHEPOLMKN80BdRw5FgOoCWiKCkzLSmB7mpm2TuD9aG8YTSBE7dUw790BDqwsRQRW4fdY16Mlzpk2jBrTSt7geAAAgAElEQVQ8RPMzWLl8FtWpO/BnF2DVGsgnzLszdmM/ESO4BJGmo+wOQh8cw9Du3dhx6gnYB/YhHh2Fzy5DzYTlE8y4iJEaT93hLK87s8+qhpOFgCnUqamYHdENjwshNDGulgLVOITFoXE++1bUxFWfvzc4oCyBK9MzeZ1U1KekO9NNRjurnz9LwJG16wC0zPESwCNoRkAckSlJB4bOD0VgI8S8v1hnlJoNHQBSHGLoWaOzICVTrbqkf9UDsKH4tuF+FMARqrmOgACcd5Eb3yFK4wFrQlyrOEGtUlFpRl2DafVrOD02hV131wecHq/yp4lwHBHd3HBAGzxJeaZl8maadmGBNjU0IdV3jQC6HWN5dR6z1Qe4OHsRy9VF1L2qqENzngjppsPFIezfuR8Hdx/CwYnDKCYj0rsT+YnUdCIvgc3UUzp+REVGfNY3N0F0k7ZptVrShJrNw+k2nmDdmeo0NSIFmRpHoTrJTBv2l6C5gOaDaVSn7sGbnkEwv4CwSvHHSFJLWt6FPTyMwZNn4IxPYGDHBLTSoAxsYwqHdQBaIbKd1PptnRoUG6r3Vmmg85wzTzz7XfZz9lXGg6dg0fm7jbdsxqaSNW4PKNvGrIR0R58opbbFc9N53Nl5dJ5vdj9sXAMBxpQp1u08P87jSjHbNuDs2NkGnIhrFEZoVmsyxpqzg4w+4Hycpf3Er+0Dzideuu5vfFyAQyRQyRJSPJWhidi1rfvSLBlGLXhooqm3UPdqaIYNeGETls3kjI6c4aJoFaRXxzWLiD1DxCCNxGxLiDCakfNR7utnCjji5dPApmGGSgGpVBDTMqHmQQ8DGJ4v2mXB6iqSak0xvUwdRiEPi82fdgGwbIDEActGTHKBUGEJNkLoVgQDoZw/mvzwmQCOBFVpxNGhldcNWDoBR47lIUX/7HUCoSzSqRdv+87uKeBsAXiPAtBHgWoGRNs+KVYs+4DzcZbrsby2Dzg9XubHAjiSkxc54JT2qsQnY7LQTKak2AAaIIwicBpZYvBvIQJGQKJqQ6aXCTMxBWBIIEjYuU8DzFadSIOl2yl1l0CQ1gI+qwhHahgKcAQV0vJDVobgpzekyTyBFcewGfkQNIJ0Ailpv+x2lEErrAmwKM914O8NMTziNaerJSwxpTGw5dX/NBHOwwDiYcZzY1TQLSp8WESQ3Xeq4TNdiy3PLsMmxXD7eGrR3QFw7ZjT3O92wC8FKQ7Ce9S2ZZS84c19wNnmDfAYX9YHnB4v9n8/wGEhlbDDmlEThkmP3oQWW1IeoUAAZVSC0IdFcIlIMVV/iPwAgakKz6wVIGQeXaXOJILILD/xgOy2DdunTanR0InXLyyrDrpyyhUm4FAtmmAkQEuwYd+J9Noo8OC8FNF9luZWlZcngPFw2YxImyYd+LJPjgL97COch4FDBgjZvdKZQtr4nraR3WaqbKsoodvt/kkjnG7n13kvZMfO69sWSM3Oo+N81oHlFpHcx3lc+4DzcVbr8by2Dzg9XuePBTiMVPxASAPe/ALcLjUcNVFRNarFUSSGlXTSeq0K180j5MPMfoUwhJPPiSCkYEbkiwwN1Z35+lSRBnEcCeAE/FzDlk59LwyRGxyQUcuWaYkhDxoNITwYhg7TtkR6niwokwX+DdmaTwU4KTBEvi8eNvdlmKZ8tuO6MqCMmlsmh6uZJvyWhyA9V64F61EEmma9Ccs00fJ92C5nsQCGZQjA0uun2Gcc+Ih8D45lQ7dIw1WGMKt9KGLD+pPLIpyapqGwQS3aDmMkqxWlFh0HXRsrxdiaJpIwhGbb8BsN2K6LRq0G13HkPK201sXry2MQokkQwHXXBsQxVRaHIXTLQpiuFZUcJLVK8E0jm1azKQ2M/Jl1tHw+n7LWHh71bAQc7pPH1N4eEjHJSrEw32rJMWf1OhGI5fvZXMnJqzwPpriiCE4+D15rvpb/OKgv4GTWfF6EZdvjvtOIS5yKKIIn4y4seY+cr8g0KW21biPCeWh9wOmxcevB7vqA04NF7NzFtgFHxAlj6EEA2w/hzc3DDROYTAepnIuKMHRNFADkAbMsPLh3F6urK2qglqajUqEQZ1HSZ0ePHkWhWMTVqx+iNFAShd0Pzp0X4+vkHDz//HNi0Obm5mCbFiZ2TuLyxctwcxxPkMOh4ydw7cJ53Lt7F0OlIsrlFTHu+WIB+WIRk5OT2Ltr93rAYd2lw4NVUVEixu6hpIGsjkEmUcJ6U4Tbt26JMsDy0hKOHDmCWr2OptfCE088gampOwjrVezfvx9+FOHytas4dOQIRsbGVNN+GOHC++/j8OEjmF1YFWmVVquBvfv2wDINnDv3HnyP4xpCJGGEwYEBoZPvnJyQNTPyebQqFTi23fbEs2sq66+RtKejuHsXAtthAAgz0eBGMcLlVcRVKlt3mYfDtdF1AYqI1zmfx7tnz+KZZ57BvXv3UCmXBWSPHD0qjsD5D84L0NAwi+qDo9QfDh06hAMHDuDSpUvwgwCNeh3lclnWg+s3sXMndu3aJet++/ZtFItFAeuZ+/dx/MQJ1UFPQNpm4yfPfeN7ukVOi4uLuHT5MqqVilynDFzqjQZOnTol2n2/+MUv8BR7oADcvXsXp554AjEBkUAfx7h/9y6uXbuGffv2tbv9CZLDY2O4deMGFhcWJEItr65icHBQAIfAxHtxZGQEbo5K6CpdunHrA06PjVsPdtcHnB4s4mcJOO3ahvTbGJidvocPPjiHkyeOi9d3//4DlEqDaDQaePr0aTFW165dFcN55MhRzMw+wNDwEBYXF7Bv314MlEr44Px5jI+Pw3VyuH37DiYmJlGrNHHyxAlJN1384H2JCFaWlyW6cfMFAbWjR4/BlCmS7PlIawUEmNQzbxvpjwM4miYGa3lxEUuLS2JMM4B97sUXEAYBLl+5hDhuYefOHag1myhXaygUShjbsQO79+zG7MwDPJi+h337DmD63hIK+aKMYCgWXOyanMDN69fQbDQR+gEW5xdw5NARrFZXse/AfjFaluMIaNIIbtw+DeDwWhiuC69Wk6hm9sEDzM7OitYdQZ3K3DTkIyOj2LN3D25cvy5Awt/x68DAgIDOsWPHxBi/99578jMNLp2GiYkJiSzGxsawc+dO+V29Xpd/fN3Nmzdx8OBBAaPxHTs+FeB0Xtvs+6WlJflMOhcEjI8++kjAcWVlBXv37hVQ5d+5xjyGCxcuCFDw3AiEPEZOMCWQSNSiaRJZEZh+6Zd+ScD47Nmz8jp+BteAADs8NCRrYliWRD+S8e1y7fqA02Pj1oPd9QGnB4v4WQKOeMgivqlJtLGwsIDV8gp2ToxjdaUsDzcfRBrZ3Xv2orxaxuzsnHh9pVIe9WYNo6OjmF+Yw5NPPYW7U1O4eeMmTp46ieWVVdy4cQOmaWNyxySef+45GUf8/e//NxSLBdSrTRg2U1k2HLeAM2fOwBS2V1prSdM5KiBbM9bbjXBYG+KgtrNvnxWDX69UBWzoiY+MjsJybHzulVcwvzSP2cVZMWKrq2UcevoMPnr7F9i7dx/iJMbZd36OfCGHkeFh3Ls7h4X5ZRw5vB+7JndiYue4GDXqZrl2DosLyxgbHcP9mft45bVXMLFnj6S7mJLkOvYScNq1GgC1ahVvv/22AAMB48qVKxgeHkaxVMLY6KgAA68FDTS3Wq0mRpo/f/nLX5a0XK1cxvz8PB48eCDRBJ0Gvi+Xy4nD8eabb4oh5nuPHT+OB4xwjh+X9BYrVpKC67JtSql1iXA2Ag7fw8jk/v37aDabcl4ffvghRkdHYNuORDi8Vw8cPIC5mVncmZrCiy+/jIFCAdevX5dzW5ifx91799opQEbEzz7/PD44d06iQG5vvfWWnB8Bh+sm4zM0DU8++aT8naD0sPPqA06PjVsPdtcHnB4s4mcJOKIjnObvacD4cH909Qoc10Sj3sCuyV2YnZlFsVDEzkmmu3RMT91DEIQCSiuri/Iex3Fx/NgxMA1y7/40nn32WUzfn0a1VkOj2cQzp8/AzefQrKzi8sXzcF0HS8ur0Eg8MEyYVg7PPfccHFMpD2+s23xSwGGbI9Not27cxPzMLMbHxjBQLEl3/e59e+WYrl2/jtn5BTx58knMTM/g6ZNP4tb1m3jimWdQWZzHrambGBwuYXLPbrx7/jxyORdHDh9EqUDh0lBSS3Ozc2g1fFSrDUkl3p+ZxulnTmPv/v2KbpyNwe5Sw/lUKTUyr3RdAG9mZkZSQgSJi5cuSQpvz549yBcK8vvLly5JTYOREaMHRgP8+uqrr0ra8drVq/LzwOCg1H947ejhMwXJNNo777wj3xM4uc8PL1/GyZMnJYLLua7UuD4p4HRLqdEBmp+bk4iEkQ3Bh8fFKGQ/AfTaNYlO+HseB89tx44duHPnDnZOTGBwdBRXL11CqVSSKIcREoGK1/v000/Lfcs0IteDIMpz5H02NDQkaUiun9RxpDG0n1LrsSn7THbXB5weL2v3Gk7UVhrI5/LIUWmAys2Ukw9CWF6A1twcXNKVI9WlwQK9eHDpFEVKvNPo3J95gKXFBdiGIaMFGNmsLC1jaHgYu3fvwcpyWYzX1J272L9/H6q1skQ4M/dncPz4CeQLebz//vs4ffo03nv/PRw4sB8fXrmC119/HfVqBc1mAzMP7gs7rclx1G4Bbi6PeqOFQ4ePYHiguKYYkEq7K/Dh0aqHXiIcrwVbirwKoBQgpXUpvk76iIB6y8PU7TuSlmM9atfERLuIPzE5gaWVFfGCc7kSTh0/hcvnL+LJE6dw/ep1nDh+DFqhgNk7NzlgAbliHnceTMNyLIyNjWJ0fAyx18SHlz+ULL9tu1haWpH1WFicw74D+7Bv334RuowCRjiK6bZ+0+DrGlqWidzkJHzbQZCw41+DG7KGs4KkUoPDehzp1h2NukK6cBxh1QWejyDwMX1vGhM7duLq1auSImTajDULRiFXLl9Gq0UZmFg8ekYNq6urkpI6dPQYHkxPY+rObQwMDMrICapWzM7N4rnnn5d6GR0PfmYYBmLcmS7dvXu3fMaRI4fbDMDNYZxiCDLKpHHnJtFeZ90nM+gdkewSaziXLskxHz16RN7LKO3Fl16SzyTg7d6zB3em7uDpp08LMJGEQvBgtFooFHHhwnkBKBJZGDnzXGdmZnH8+DE0Wy2JyJvNlmjDMaJjGpnPwaHDhzEwUJK+ozBVtdhYxmGEQ2chzueQ30mlAR0htdRENDVCg31cTKWyj6vf+NljS9h9d33A6fEydwcc9SBT2kamUxZzStqGkutM5TRaqM3MIq9pMGUwSkdjIFk5SOCHgYzlDeIIywuLaK6UUS5XpHBMr5ceLL1GFo2ZXqFnuWfPXkxP35eUQ71WxwnmzV0HFy9elAdbcu179kjhl0VfGjkCg8zFiRPsYpE8ULI8rAsQ0AYHhsSoSr2DNGx27UtHPIdkKfFNimkyNUYD/iilARVYKNYbDSSPR9h4cSyppGNHjyKXz0tkwHM6fPgwbt28JTUL8ZpPnBAPl6kb3/ckzTQ4NCRfmXqh0SwWCpiampLaAFNYNOAEslt3bsj4Znrm3KQulSmmiP1NgSdOENBADZRgjI2h6dgI2e6jAbYfIFpegUaWGmsQHDXQqQyR9RTpurDrWKtieol1MIIMP4NfeW6ssdy8cUPSRrx2XGTLMmVNCCaHjx6VwjmNOK8dz4NGm+t2+NgxKcDT2NPQM1rg0V+4eFERSQoFqXd0K6yvu/3Ttef1ljRVN6JBRyQRRjFmZ2YkEuHnsj7F+syBgwfl/uA15GffvT+NV155RYgMvDbXr13D4SNH5HoQeBmxSI2J3f+NBpaXl9vpREbk3D9rRNw/ySS79uwWIOMxkpjAdCNYy9kQ5ER6ghZp8YU8chM74HMgHaWZEsV84z0tOnWG1h9P0GM7+LDd9QGnxwv98AgnVoCTV1pqYRyKzIoVxbBbHmozc3CZj04BJ4sHVLSji54WrXm5XhNPd2x4BNPT00I5pXGnZ8tUTaVckbpGtVJFLp+Tr6Q0c0bKsePH4Dqu5NBpjFmojsIIly9fFlA7dvRYm13GfTN37ge+GMHxsXG4bg6l0kC7hpPFAtIYyigni8qEZdUSg8Bjl/4Y/q1trBQwiXYaacyOOgceE40NmUlcR54P0zZksNEo0RBWKhXZ7/LKCvbs3i0pKRpfGiPbcbD/wH4hUszMPJBazcTkJGYePBCtLE4+9XxPDP3knl0IwgCTExNyXAQ5qU1lmpfp9wR/n6aaRntsDL7LCAcwqGEWhohXK4irNTikrDN9li6KXEahrCsVZ7LP6Nnfn56WZSD4T7P+0WjIee0/cACrKyuy/gQR07IEYLgGYnAPHUK9XMbC4qLUmzLqND9H6hlJIpFgqVgUQ86ogSk4stvIMFTqCo++2TOw53Erltpmhc7O3hsCJe8THm9pYECcHl7H2bk5iaz4PR0RAhNrOTxm1p94jclcI5CyDkSQyudyAvqs/xCUeNzZWkzduYPJlPhw984diZx53ZlikwhanJ7N/WGRoaFBcl6pgMLEBJp0CEQlPQOcWgo4pM33tdR6bAq77q4POD1e5a1Sakq8s4CANFodMINQPGUCjs3eCxqFWMnmi/mjdWJfiuchTHthao0GhkdH5EHN8tpZgZpGYGByEq2lJfGcbdsSg0dvjmDHh1wK81QZHhoSBhWjmUazgeHxcawuLgoltby83O6ToMfMOgB7R0gw4P6yyCXTolFpNWVcoyiEH6iJn9nr+DVrAOys90QhIyNlLGh4aWRonOkZ81h5DlwL9uBw4z5pgFlsZ/8GP5evzzrlbQJCEKQ9RFm0wF5WprWYrlI9K0y70SjTyBFoKCqZpZM6WU8Jqc+sExQL0IeGELgOpTUFXAgycbmKoFxBLqIO3oYeHq4Jjzut4/Aro9HiwEC7D4UASkDndeT60CgTmDICw9DIiKw76y8WKcDSJAvpxeH1Z/2D68QtK6wTrLgeBDDul2unItFHd/JngCO9UIwcUi23jfU59cioiXz8DNaU+JlMi3IjYPBeY1RFLTuvWhXnhefHiKWT3kyw4nFnzghZiXSiBii42mQDsyn3It/D6870bmNlFYV8QY4xnT2t1rhzIyGFg1MdC0kxD3d0FE32bLEhTQAnRL2eAY7RB5we28F+hPOYFvTRgBOgwJRaG3A06Gx6ixM0F5dgtJqwKSZIwUr2e2aAk47EleZBilzS+2bjIhsibRuh76mHLzXa/F41NYqfLX0MTNPEkUrt0eDSu8+MCr8K7ZQKBCJvnwjAkEZM40sjyD4Rep8CLKl2G3PhbS38OFMJyCRS1vavXpMCaDrtJbscuqmaVnkMBBAamAycJL+eARWJE0z1pMaV0z15LNI0SZBLe4H4UQQ8er7SjGjIKsrPrIPx716zpZhbbDqVEZuqkVBRbDMxN2VUZQCYZUIrFYFSET5fR2CNEzh8a6MOf7UC2/dgc835thR32H+jWTaSMJBag9QbeI6FIhqrq8gVsshDkyhBNaGSI6ImrLI5l+dvO3QS1PcR96UxErAlzarOLp0Py1qUUNRlyp6cCyNEdZ0ZbT1aXy0DHIk9Uycg+z6LbDojnJgGXBo41TXkPckqmJ+ei0SVaeTK/ZGcUhgYQIs0cQJQEAjoS1pM1xFmdTReT8pL07HhmhgGfK8l5BVpTibgp/dgBsAaB851bHKdTQ0YKABsfi3k4XOkOOcHsXcrilGtV2VSFKN/Njz3J35+9kayH+H0eI27Ak4UiMGO/EjVcPJ5BOz+Z9E9CFDUDASVKuJ6FZrXlHEffHw43VA9HAokRHGAI3ylC5vv52RHFkGTNq2XDY0EIubLA9+D5Zigl87nk8bItGz5PT1SFrJV2ks94DTOTDuxZ8Rr0ZvMtRUOCAQEBOV5K6ARhz6hkVRpCs7Z4d94bGrwFn+/prmVpWiELiC2jwZLpZ6k85zGXNIesVIbCFRHOmeo0DgZNLJZJz1BgOtBSnO6PlkaKwM3tY9AgY508Ecwc66oKBimBd8LVCd+6h3zsxW3ISM3AAGNVs6FWSwgZsqIRj8d/u1wrpDvw6/VoNfrMH1fCY5KBJQqQ9gEnFCpVUtKkesDaKzT8PVsNmWkxJ4d9gOFYTvFJ5Rf9qA0GupapBFQ9jsCSeZoCOhIdBmlTogCb14zucby8Woe0trWTorKr+Te5UVNp69mTMSsu1+9JkNUdd1l7dNoiOcgboWAhC77knuL1y7tmSFQiAATFRao4p0RSjrGBJHAYTGS5Pqk10JAp+VJxC774Gdl9PxUCSETflW3pQbPNmAPDyHmNaeDJleGQ9zUM1VlhIMIpm72AafHdrAf4TymBe0GOJSZ4YMZE3DyBThuDhzJEtO7SmLk+BiwC75ZR1CrivQHHwqLo4JpADpSNWKyMsOwIYWwiWElhmNzGqXTS+1Gd924VJ0U6LbKshgelfijoVYg1MlE2/y5m5vzmN5Kk4di+9YbQHq/mXRLt8a+br9TumwdRX9J/60dV3Zu9HCzFGBHUKKkU2RitTr+wDGhlwowC3kEHPtMQ0q9babhaPqiEOC1q1YQN+qiZEAGG4MJNcpFlerTidJIwljEUzdum84l9e4zIGkfYzauYM36q11lNad0xxv3J+KuAjgbto5eqgx0uAad7++2zhL9iSrG+sKQuowdv0unfm5kkG2quZCIIgSZrbfOu6StLs7oLuGgQdVASoBK8g60YgEJa5EEvkRJM8ko8jBApVGT9/QBZ+s179Ur+hFOr1Yy3c/DASdE7MdCZXVyeZm9GcuI4xgOc+ZRDCMMkHgemC4iwYCer9RzOp5C5WAqRlQXq7XuV+rh3zqN0mnUNtsj9f7MkKzRm7PHnumNLJ2xZmi6qah0A5xYyBCbO8Wz85SxBYq1u62tG4B2podkJ1lkRsBgWi313Nuj0DiuOk1lxQVHpqayFsN5nBEjLklfUpolnaTJCM1vIW7W4TWa0ET8lOui1k1G5xHENCWJs2nm0UPOrD3GQIVs6tCzhe0Yc6Cuz9prNlO7s5RmF7zpuG/TD2gb/XXg0eWCKsr7Qza+OTvGrrfq5gva6Qg96mIL0Sw77vR7ri/BgzcK041MtRo5V8asB4z0OKICuojS8ropwKmmgGP1I5xtPV2f/kV9wPn0a7huDw8HnEAAp5grwM4xpZbItFzWWUyygqIYOtNkBBMajzBCq9GUtNdGj07qO9txBR/hL64ZrrTvp4tFF5uR9suo+kIWKaw3FkyhbQaqzQalG+BkpuNRHvXDDFE3z5tGp9NQZoXv9ReJtG568WuevIhQS4pPkzQVa0s0WoltIjY4a0gNh8tGHki9I41iaO4dI5FoJ2x5iDmzxw/l2jGlRwOZ/bMIZBsZVekadx4j02cqclSbOlcFvuuAp+NN3SOR9g7W0qFd7vlOIKMxXvvMh38e07Ibt3YKrHN4XKYPuMWxsq643W0j4JiuIzU6MhUFbOgUGLoM7GZkGvGa6hYH30r/WwY4TKlZmtMHnO0u/Kd8XR9wPuUCbja0qgs/e4ClEU9SagScSAGOS5YaxzZzYJYGnb04cQKWC9oUXRqzrKAt3lnbMZeP3EgCbafWN53PZrpoZx5/q5Ta+px96qqLSU+PiFFaW3J+zUDKyJkNWzeD2O3zu2tMdkPYzaBGSvhGY5mNPFh3OGmBf63BNhFBz4zGLPuRXiOVYpPjlAFxKiIicUMdZzZlk9TztO4WRDBI/Mg6X9JsIwkIjGhl6mjntiFaaf+p7QRkNPLOCGfrCHf9h7Abf3Nqcd1hdC58VjvJ6lldZtV0u06qP0s5J7JmG1J2vXjcOp2tLF1Jh0BSgVTCSD+b6xxQbZxRKetYiaHqoynglBtVqeFYmg3LtPukgV5cnC320QecHi/yI1NqQYSCmxd15oC1BoINWWeRAhxDU0VzpsGUkGTcocS8lsLKpGU6/F85i7YBzM5JY4m0G+BkNfuNRmv9z+ujgw4joj4tTfNktOa2z9lxLBtM3oYoiu+IsnpGRw3iUcDUucetXpf9vWuERNJGmoXi65j7pz2WwruUsgk+ZDQp4oMMb8v6jFgrEKBJp4kyOlIjSmHwC4veklJLnQ/uX6IcriEBR9WZsm3NWchaM7NhceoV7fNYu8jpGmd7SY38I+5llTZ8eNTZuUYS+akPXouuN0r+qCPb9Imd9T45OqYnt5sPzS7Io57JtAcq++y1uy5LQPKwVeRq6oDPqJPHmZJrDPEe2BsUoSKkgRiW1icN9NgMPnR3fcDp8Up3BxxGOZEwcwq5nDRQqge8E0Ror/ig6yLTkugcfKb+iV9K2nGiQ5fX0DhGUhiQFI94yKpikHXwKK4U6dXbyL0Js+rRPRpqmdo5pEevmuTVt/G5KZuom+H6pJdFefFbbxxUx+qxeMsZdkrkslZvUUZajeQWWjEiGUiaDQxVV4ZUa12o0gJYlCtKaOJ4fVjE5jVU14VfWfXIFM3UCqU1JLl+hCjuk6oHMXSp9G21KeZV56bqXhvXP4vE1u+vGxiv1eTWXkvW4fptS92CtZd3uSSPTP91fFBXZ6Ed4vCZSKkrifDPFGMym/DBdgKJTGPEZArIgEKuDRmLMSr1pjAGGRRxjEWfFr3Vvfbp/94HnE+/husf9jSFsD6ltgY4oqXGwWIdXfdqB7RkCjR0xv1iBZXRUqkJGqHMuKiHKGOJZe9XKX+mMtIn/CGGf+PDnprDbaxElth7tNFSh6Ee7kdtokAg59SbTR1dBrqP3qdQ0jNjxZemhyoOMKNOYXUpp0AAX9Y7BZw2U0zI6wI4pNwSrOguECj4VSJUGZ9NMFLHxQiI/7JtDR9VuktFO+lnCgG7Y+voZVrbgTrn7WzbwmJZk+3U39YTrB/5+d1ug+0d8uYP6bin2wlCrlfKCJToRmXypD9IOYAxEp2pX3VPxgI4CWr1JqKYOm7sre4DznbuoU/7mj7gfNoV3PD+raVOUEwAACAASURBVCKcjYCTpfNVCkPpppFayzwzazoGfycRDA2aYtrITxyT3GmL0vx85jVLlUVLEHVhqXUDnBSqtrEa3dMonW9UefXu4LTuA8jYSo3FNj54y5cIU4lGZUtjpiITwoPQl1MyHwkHahlVc60ae82+J2WsCCAb04xSTaMBE5o7r47EO3L91jJJWYSjPk/8ifULsb4/RtiL63/V/nFj5CJpr+5p043XZJu41JXY2C3S2Hqd1RF0e++niXBUr5O6Y9W6pL0/uqEo0Sm5hcAiz6OkMFXPlzgkQotORH1DRTjUUusDzpYPWA9e0AecHiziuge7W4RD4kCsUmqipeYwwmFCJu3XSA0eDRvrBJRNMaPUMKUjdMWLZtOhGJhE/Opsyzx1yR6kv1RpN2WAN23dGGliyLZKg6l0z6Zt09v42VvtS+3FkFThlgixvaskAJuCxiPeoY7MVhpvHYKdYrzSkdeydqRBE3DSTlzhqfHvqdGX6EyikQyclDtA0JEoJo1OO6Muvl5Pz7d91uJR0IHIIld1hGpva1tWV9l4amsE7PQv3VhviuPW5VbosvZdCR/r37q9q6ves+3P7XLNuoEVe9fEoVKugoolpclUl4ZTQRY+L0b6NyKMLGVKAkmAKIhF0JZZgT7gbO/x6sWr+oDTi1Xs2EfXCCfthg8iBThUAQAp0HwsUoozay1szCPF2OIT1AoQ1FuIPKoUJIgp/UEjmI4EsDsZTNxPqm+m7Lx6FCV90MWebHyIMz9x66XI0n7rX9nVW5X0xaM3FVkoo9+bjeu0dSpPVighIaADcNIDoNEyXUsUGSjVElCImPqQLA3wnJhuSz1sAoeQBOQrJYki6aqnpA3HWbPLn+oG6oqoTVXp6GqnhXlJ/zD1Jp1ZqvbDWElTybnOTa5xKmHU+ftuZbqscXXdDrq8sNu1E0XlDdumXiZRCNjehev2GV3vmS4sus33agJNnp2s9pX1G3PEgCXKDFTK4Dh232SqUz0DirCREj0Sqh9EaBBwYvIJNJhWP8LpzTO4xTNfrVa3d9c8jqP5/8BndAMcqgyoOSWhDBRzcq5IczBlJkX9kOkzer4RwlYTPouZrQB2wka1NFMtgEN2VOovp5RTZcnSnH+mf5Ve0YxGsHFZN5qTdg1AlSzaTYRdC8/ymvV76Joy6QY3GzvQM5b1xgP8lDn/7Zaz2xSLrH6TKjwLfdnUxWhRJZrSNrpjwac2hFCjafTUtbMYsbAe7TURNhvwGi3V+CnXM6UBSHMp4yNFUiDxI4MeVbdT6bqEYCO1Iu5Q4qRNT0RXLsCGte76QHdEv5uWO43KFaU5ixDSHqwsmtt807QrZls9tttLqaWf/ZAUXPYZqk8tTp0UVTeT+hgBOv2e7EJK4ySlHCLq51EySRQkDIF02UMYiygqZZ90AZy+WvRW17EXf+9HOL1YxY59dAMc3twcmEWxRQKOm3cl3SJ5/jCCo+niKYeNOoLyqggLki9ASrMYrixbrUWQznw+dELFFYpBKtaoS3pAwZECDXk400hq3WluSqmp1MNac6cyNt3z7FlKKf2UzqkDWZQgFm+z7MnaeIIUtMTz3ByRbLdonfXctI2RRIyKtbfVRpYfz7qdUhNDl0aFGVtNpx6XA2NwEHaxgID9uJz5ww57CokCcKg8THWI1WXEzZY4ElT7IrdNwQXBI4ta0tqbyBUxbKJIpyX0agXia69VUPXoHqrsHLutQ9ZftNU6ZGoAqs0ojQI6UpwZWGwCjYfIJm35edk9sumFabo201RLgWdzvVExAdWWxuYp7Zw/S2JSetx0xMUcjGIOmu0gpB4fxT+FwEER1D7gbPda9fJ1fcDp5WpmN/uGxs+NgOMI4EQiXcPBXQ5VfWmsKhWYnPiYMq2EaUNvWl4bgI+LGCV29qtcgPJIY2knhGZY4sVlJAP1CKe1gY7z3AQkmVxbu+CqXtzdM1Ue+cMBKf2gtFFQ1R2y/6UhVHYswjFm0mP91g1wNhpV2WPXWlQbnh95ZZm+bBefOw+Ax5TWcXhkDYLHwCDcwQER7uQESaoQIKIkEeT6BZUKonoVOjvl2cAbUz5FqUaoUIhsw0B9z68SNXCkgAVEhC1O11QK0Yrd93CK+sZUmYDERtmJLo2kKk7enCrL6PlK/zILcbcmIYhrs82U2jpH45FXZe3atetk3Xp41lG0VTMVMZzXhUQBrhGdsYDinaUizHwRoWkhMi1Q/5zPF3Xg6jKaI5IppP15OD02hA/ZXR9werzOD4twqMbsRwEINvyXxCGMmNGNBi2I0ORclEoNhZAUTsV6CiXKoC4XddY8GHGIqNVE5Hsi26HpJnTThmG7gEkDpphXpEUrhg7TNOt7OcTwdEjPZ6evgEpZXhoxkcJP55t0LhEVE6i+TGkYGh2lsLzekK1xhzZETamwphovrVzZTvJD9jkUXty0dak/ZCrPna9NNCoQb4OEoIpcbYaaxBdpz4wATgo61OCCm4PJIWZU4KZ4J0EnBmzRUPPgl6uIWlWJJpkCtfh/GkVRK2BE6iOJPYRBA4g99Tfdhabnoet5aLoLaLZSAU8jPok5t9ND1dlE1L6Ymwv14nxsGlKmqN8CWoz35JgVW3IdoLfBaKNjsFnSqNvjtF1GGmLFyBRnJ70/NteO+NeNEQ6vnSINCIkgDa5JGtBcF3axBC3P0RImONCBaVGOsODcIQU4/Xk4PTaDD91dH3B6vNIPTamFIUgacHMunIIrqTFGLBbnuHg+/EoNdr0BJyQriow0xTCTznSCTauGpLyElfv3sLI4By/iqAAXg8PjGJvYC3N4HHALLD4gSpheW6P1bjzF7kV+ztDhWAE1fIseH5tV120EwdCXYWD8O1+r5q9sqOmwGiGpP9ULIY2T7EFhrj0O5SFPWGRn5MbzTz9kbS8deZXsAFJjkhaZlFGSdKHyyrOoULML7VRUO3BJ5Wg6z6WTGZcGFikDTVVTJKtEDS6NtTMdeiEPe3AQoW3BJ4uQMQqvVa2OsFKDnnjQmaZj4JkKeyLkoLsWENfR9JZRb64gbrVgsEgEE5YzALc4BjM3CBgFRAKWqvlTxazr1z+7t9ZfFJ7l9thn3Tr+s0g1o3tLBJVpzHXI2ySRighV/UR9ZizR6UPyl9nFlDqWKtatkZnT0eTtKpCi/OumGq0tL0+RpzvgrC9Icb/yOhnboTToZEaPiK0yyhmAMTgEjx1SpimfxRT3WoTTB5wem8E+4DyuBe1OGlCNn7EfyuRDJ5+TAjI9XTOMxHA15+dRiANoQQuxZiBKUyxa5EFvrSKcm0Ltzofw5u8h9jg22kcSWYhRgDUwgeEDx1E48TQi3W4DDwdahUFTxiFcunBBvLrTzz4rD77XbCI3NIS4XscHH3wgo4l3TOzEtevX5WE/eeqUDP7i9EXxKTUNtXIZH5w7h5dffgWWbYkwpYqGKIyoyxCxCxfO48ChQxjcMSwRlxYbMKhhFbGmFAFBA83yPAKvAsRqTpAh8j5qxDOPUWrXYtPSvnv2I0WM/EyEugWPkZHJYVpMLXLAmAk/0lAYGIMzMM4/tr30TNIkq21lM+NYM3uUAGrKxUCoaTJiWie7cHgEPoehkXobR8jFCaLFFSQrFTgGh+NFbY01necTeUBcRX3lBqqNKSRWFUbLgOsXEIaeKFDnhndAK+yAM7AfsTWKOMohTkzMT99FvVnG9J3bmJiYwM2bN3H8+HEZaHb8xAmRPOJY7WqtgqOnTuDOzRto1Os4deqUGrhmWbh8/jyGR0YwUCrhzp07MuCMG3tOjhw9Kqyu6am7aDYbEl0d3L8fHOfMKagnn3wSLT+bYxPAMTSEtVUEtbKkDw0tQZjOMuJa0QHhpFU1o0Yx+WRKK50Wj1GxDRicy0NPiulhOh0sX1mgk2APjQH5QqqcoWBMtNE6VdE3ZGQf9UzzpREhmzN36OQNj6DFoXympSKcOBLA4XXsRziPyzoC/Qinx2vdlRbNVFi4BjgkDoiaVhwJ4FhBiNb8PHJxACMmF8oQ48oIQA/qaM7fQfnOZRjladjeCpLIR63pQY9sWHoJS5UA+uBOHHrli7B27kFLt2AXhzA1dRff+Zd/Fnbc1NSUnOm+ffvEOOzduxe/8tWvyhTGP/3TP8WXvvQlPJiZwf0H91WvUC6Hr339azh2/LjMrefG+fMffXgFr7z8soyALg0OYu/x4/CWlkSht9Vs4uzZs1hcWcKv/ca/Q6HAMdARHDuPhEaHoj2VBSzcu4Ggtgwt8lG0qNSrJjnyHyePEsQ4t15Sb6yJMI3lteCRTOHkEGkmZ7IJ4AStpnjFUWKiNDaJ0oFjSBxXpkOuDVJbE93M6uEy3G4b154kAcYpGsdKjIy2AYfHmuMxL64iWSnD0YNUjsiUa2tGPrSwjMbyTbQa04BZR6y3oIc+ctxfHKDJMRR6EdbAPgzueRZBNIIoHoLXMvCD734HP/7BGzh8+DD+4A/+AH/xF3+BP/zDP8Tf/u3f4hu///uY3LVLvh8bH8GXvvI6vvWtb2FoaAhHjx6VsdM7Jibwzi9+gZ/8+Mf4/d//fVy8cBFeqyXNjlzfr33ta/B8H99/800sLCzIRNivfvWreOedd+DYDj73yisYHBmVOk3EqBYR6gszWLx7E2bYQpHjw5X4nPyj0eb+qPhMJ4UTWCVSAQU0fZhOHtAtcSyYRo39pgzYi3ULhjuIwcm9yE3uQcKps2mEI1HLRsDhTrdz4TipFgYi3lt9wNnGnf54XtIHnB6v88cFHIMRThCiOTeHXBKJDlebMhv5gFdGZfoKVqfOIx8sYTgfy4jiBCWwgp1UAizNlbHiJxg8fBI7n3kRcWkYUW4A1Uod1fl5MSLVSkVA5eLFixgfH8euXbswNjaGN7//ffz4Rz/CH//xH+Pv//7vMTM7I54pgeZ/+t3fQaVSwd/93d/J62lIzr3zLl588UUBhgcPHuD/+OM/Fo94pVzGj374Qzxz5gzOnTuHJ08/LXN/duycgOvmRYPM8JrwV+awNHUNhldDTkvg0sNNOJ8kEol45uEDil8SNFJpEmFcNSrw/AAm8/GmraZ4mppMSY2DCC0vhlkYgnP0SST5AnQZRa0odGQlZSrP8qtsmuo2rj0Bx2OkRcAZHkGQcyXC2Qg4tk7vnuk4fm4MM6kh9u9ide4iTFRQKBYQcsSxQeBtAGETfqOBpqch0Ecxvu95ROYeJNo4qjXgB9/9N7z/zltyrQggV65cwVNPPSV1h+dfeEFsLteZlF7D0iS64PVkipORzzf/6I+E0DDz4IGkmW7fur3OkDPyOfP88/BqNXkvp4JeuHAB//qvb8BklGzq+J3f/V0cOnQAFmVhwibK07ex+mAKg7aBnA7YiSmTMxmpGJyoGSomZq7I+3Ot8bXWqsJ0czCsHMIohuuYgN+C32zBS7i+FoYm98HZcxgJ+5+yFCvBrA8427hL/8d5SR9wenytPi7gmBEBJxLAcUT4UTWESjtG6CGpL2D19vtYnb6AXLyIsVKCKD+C+wvAztwQcr6Gu9duI7ELaBWGcPzLvwp9ch8aZh5JouPaex/gze99D88//7xEJTRcq6ur4vUykvnLv/xLSaF985vfxF//9V/jc6+8jOXlZdy4eVPAhMb+29/+Nn7rt39bUhDf+dc38I1vfAPlchl/9Vd/hT/5kz8R4OFrGEn95m//NkZHRlCr1PAP//RP+PWvfw279u6BFoewIg8xAefmR3C8Blwtgs0hWXGMIIhgkYJs2mg0mrAsRYaQOfYkKvhVtLwW9FwRfpTAtVmajxA06oIgks3JDSJ/4lnE+SIMSwGO1AKkt2StUZCXPJO02eryc8Jni5GV60qEE+ZzDwUclbZj/ELywCL8+oeoLn2AnOEhnx8DMAzNzQMa5+VUEFZXxCloxjkM734K7vBRtKIBlKsxPrp0CWd/8iMMDg7ixIkTsr4Eep7Hk088IetP8GHu8Z33zuLMmTN49Stfwdzt2/jud7+L/+Ub38C3/+3fMDszI2k2vv5nb/0UL7zwgqQ+T58+jeGRYfzjP/yj/Mx7gX9jVLxjfBdu3bmDl1/5HE6eOgm/tgon8bB09waClTmUjASOkPlMRTSA6mPxgwABe80KBen4l+bMKECzXpGKlOnkpL7iOhYSr6EaY2GilRgY3nMY+m4CjisOTJsF2QecrW7R/6H+3gecHl+u7QKODApLYlhRDCuM4M3Pw+bDy9n27IBnSoKspto8lm+8g8r8JQzbNZSKAbTSLnjaHjiGA63SwuqVa1gqN9DMD+DJX/8tYNd+NKwCWq0QD65cl7w8PVgCzs6dO3H+/HnxnJ977jncuHED//Rf/gv+129+E//XX/81fuXXflUM0E/eegv/2x/975JH/5u/+RsxUKwffHDufZw6eRLFYhFvv/22AA4940uXLgngfP3rX8fug4cQVWr4lzfewMjEOJ7/3AuwTQ1W1IK2soDFax/CbdVhRD7s0UGpZZCmGsaJRDEEHU0z4BZKMG0HQbOOuLmMVhDAyBXR9EMUCznxlP3yqnSN+z6jkEEMnnwBsVOEzpRah9bWWnpNXfDtDbCDjJRusQ7h5iTCiQr5roBjMaUmpIi8FPwNbQ6NynvwK5dgJXW41g6Y7gGE2rB4/5bWQrAyg0p5BZHhorDjEAo7j6MVOIh1F7Gf4Gc//LHU11hLcywbe/ftk5Tln/3Zn+Gjq1fxn/7jf5QO+Rdeek5SWisrK3jllVfwne98B7/3e78nRvvP//zP8X/+xV9g/t40fv6zn+ErX/kKfvKTn+B3/sN/EHLKt/7pn+S6PfvssxgeHsY///N/xRNPPoOrV6/i1VdfwcEDe6E5BrTKEsp3r8Nb/H/Z+w4wuc7q7Pe2adurtGq7WjWrutsYjGNjJ/wkGAhgAoSeRkkCKRDSewGSOA1CeoNQQugGE+wYE/cuF/Vet/dpt/7Pe777zc6uVtpZaWRr5Rk/8u7O3Pnuved897ynn+Owi1k01qeFJqSrUhg8TE5Oor6hXtxz7NTANGUWMrMotlj0kEw3CPib6QQMN48wl0MxALIe0NK9AcayNYgSaTU8Taer1QCnyhLqhV2uBjhVpn+lgCPdiANfajksTvYcHYVDsGFInwXngS8ptMgNoX/ng8gP70K9NYqkMY5E80pkzVUo9g8Dw5NA0UfWjYDWTvTe8kqY7StQSNaDMeJkANx3zz0iEHQm0g033QS3WJRgMsHo05/+ND74wQ/iYx/7GLZs3Sp+9+MnTuC9dMskHHzlK18RgOK9PfHY47jh5S8X4UKt+Y1vfKMIOGrh99xzj8R9li9dhp3P7MDg6AiODZ7E69/0BiQZ5HdzMMaHMLBrJ9LFPNKMwzSkkfdceAyy04XGDCnTkdTuVDoDO5mCl8/BCCYxmc0iUd+EYhChvi6DlAVkR4clSzYIbZipBjRecgWQaZSU8dAPSqmys7sjVFpC4jLTybKQDyM0LV8BL5VEMZ5R4NDFN56FOTEFI8rHjSHpPmRh7gAKU0/CnXwOVjCJdKIDVmIFfJNgyGSKPPzxQYmpeEgh09aNuq5LUCzYGBqZwp3f+g52PbsTK1aswK2vex327t6Nb91xB973vvehd906fPfOOyUBJV2XwrETRwVIPv+5z4kS8fjjj+Ntb3sbCsUiPvHxj0vsh0rDtVdfIy63u+++Gx/80IewfNkyfPnLX5YEArpDX/nKV+KOO76Nt7/t3fjevffiZde/FN2re8BkYhQmMHxwD4ojfcjAQ0MmJZaf6/uSIECFJpFwMJXLob6OFiaViADMbvMmx2DZSZhOUhSK+voMrMBDkYXOkQXXcNC4tBt2z0aJ6ZRn083gk06IW0AMx+ccHNKprQ15duuwakkDVRZ5C1quBjgLItf8B58L4CQIOEwTllQq9ubyAG8c44e3Y/Dg46iLRtCU8lCMUkCmB0kPyPaPIDeex2jew5KNW9F17fVAXQvcRB2KBQ/5kVF858478fKXv1wynag9Xn/DDfjcZz+LV73qVSgGAT79N38jAur222/H6t5ejE+MSwD4wx/5MDqWLsXI0BBa29owPDSEb37t63jzm9+MdCYjLh1mt33pS1/CLbfcgi9+8YuiYa9fuw7f/c530bt2LQbHhrHtsq2or0vB9FjcOobB/XtgETyiAI1trarhYtzFl+o/rR3Gb/iT8QcKM8OfQr7owkzXSRYf+1+lOK9+cgLFgstEKCQaW9Cw8VJEada20BWnujvrtOnyYHO1AccMmenFelwCDtvaMAV6L/ITOxDkB5FKMgOrAb5RRIApEbhJ00bRtZD16tCydDMSLWvhFRw49a3IDg3j7u/eJXEZxs6YIEA6fOADH8D9998vLtJvfetbsBMWli1fite94Q3ITU6KxcrYzpvf+U5MDA7iU5/6lMTutj+1Hd2rVmHjxo04efKk7AMmGHzyk59Ea2srjh8/LokkhUIR7/vp9+OzX/g8bnrFTVi/fh0gCRAFDB3ej9zgCSSDIhpTSSQTKVXbwx5/7CMXF8A4jo2i50rrfwKiW5ySjDE7lZHSpETSUVZPIY9cMUARDlqW9SC5cg1C1paVpdmfK+AEdMlmUki11gBnful1/o+oAU6VaXwugJP0fInhMPaihnmxriOHYOwY+vc8gsLgPtSbefisCrXbkLJSMMMEhkemULBSWHPVdUj1rEVopVGMLAwPDeMbX/4Stm3bhqtf8hI8/eST+P73vy9xAV7n2971LkmX/e8vfAFdXV3Yu3cvVqxaKa6zwaEh3HzLLbjm2mvEv88XXTZ3fP0buO2221QDUtYLuS7cIEAmncbXvvIVHDhwQIQZtVwGnevbWhF6BXERstCVQf6RY0cQZqcA10WSPazY64ouNV+lOKvaHpW5RsAhuNSnbEwVinJfDEBLlhrTyAMPvhfAjyzUtXaifu06RAQoSThQzJ1vtPKZtkClFo4VEXA4cC3FiAbMsAAUT8DLHkR24jC8YBKRFcG0JpGw8pIq7nsWPDQiUdeDuraNCKIWmKgHQlvS2L/69a/iZS97mSRuXHPddeg7fhz33nsvfuAVr4BfLGJgYADNrU1oaW3Cho0bsXvnTrFemIl466234q677kJbWxsOHjyIoaEhGXVBqyifz2Pz5s0CPny/sbFRrK6vf+1reOl1L8XO557DoaPH8Z6f+klJq6a1YhRzmBw4gezQSfhT47CZFs7kjTg+xlgOAYcuWKZfeyHT29lQk33MWPQciYXDVHnbiCTrjfwtskuGk0Hr0lVIdy5FGI8Y0Dw5F8BhNqO2cFJtbSgYJjyLdTi1tOgqi72Kl6sBTsWkquzAcwGclOfCpBuCdTiSWcWx0x5MbwJFZqodfBr+2AlELht0pJGdchFEKdiNHVix+XKkV60B0vWAk4FXDBD4ntR7ZCQNW73y2awkDSxbsUIyjFi7QfdYU3OzfD4xOYH22H1GN1QylRShT9nNY4cHh7Bq5Up5z06nEVoW/MlJVcuQSmFqdFQVhXK+CGMa7GFFYEnYMDhOmini2SlEnovI92UMsAYWqbuRzCR1tXSxqWFa7MJcQGQlpA4nshmgLsI2mNmm5tGEhoNkfbMUaDI2IY1cZJYQWwMpK+dsXgsDnEBlqRkJWF4II8wC3iCKk/sxnj2AIobhhHkkA6YaG/CiNOrb1yDVvBZGajkCvw5OqgmmHyI/Pob+kWF0LV0qlg2FuZVKITs2JrRvam1FIZtFqi6FfG4KtCpyuZykudNi4UvcqIwXJZPwikVkJ6ckPkdetjQ3o66hQd5nPQ7jaIXJSaTrMug/ehR1zS2oY8zK86VmJWFbAjphblJqcZgEIm14VDpayZJk3EbOyxoaFs6yfZNtSoaeSohWnbWpTMl4dZbQJuqRbGwRRYF7rloWjgIcG2B3j7Z2FAxmBNYA52yeg2p9pwY41aJkvM6ZACdwfbEEdB0OYzgpFiDm8vBHRpEUwOF4aRZ+UjPk2Fwflp8D8iOIxk6gePIIJocHUMi7UiDYtrQHKfq/25ZK7KLohSJ4g7wrmilbq4hAj+vXKcyZMkwN2aqvRzg1JQKMGi4LOZm/zPbutF5814WdSIgVQ4HEGnhpLCqdd6XtgBQYMtGBQEEA42f8CabrJlKIPE9a9tsswHM9VREumU0x+Bhsj0MrxpTP2Npft1rhtQpg0OXGNW1HCS6pKmeNjif1OnJuw5LYj3yHbknpCxc38tRVnGfBawIOQTUXxDGctIrhsG1QgjGciSzM8SlYUT4eZcz6KUcVulIoB5OA3w83PIrJ4jGYBR9OgT3vHKQbO2DXd8G3mmDXLYFXNGDzmtmTjanXpDjvneMOpGGoLzEtdlgISMtkEmExDzuVQMC9E/OCMRUKbflJK5RFmPHEUd6LxQ4R5D/5KMWVagy2FG0SoYR/7EvGfDtDLFD+wW7mys1bgLQ6Vz0ZhJVqdHOM63GWGd+lVcUGtewVFwUEJpUxyKJfUQJYb2ZzPhRbzvDzmT3yKnV9nspa7hMWClviUqsBzlls/vPwlRrgVJmocwEO3QvU9NhpQCZ+1mVEa2ThJwEHU1lEY+OwXNUvTerry/qdMbVUGnYGPgK3ICVtrpeD46SQkEwhNn9MSOt1/m6ympoZA9ITTNoAiwAWwU+ftghlVQlOK0P5ndQxkkYsXUPV9FFp1cXOu74vFofUtcR9q0SOU7hTaKnujyVqqh5dsvCMRp88N2toONWUQk6SwOM4i6TRUkhapmSeEQR5jQz+m6oVthq2pU4sIKWqanR7G0W2U8cTnJ11w7OQOh67DRgm6pctKxV+EiQzpNDwOMKRMaTiwXjl7VvYlohFugT9ICzC89kK1BUXo+OkYdqM9yQQWWlxw8nF+148H4fFrAThGDhnKTSKZ6oan/8U5VWhrKZH+daOWaHAoYxPui1ReXsiURiEpOwaoHgrPFdfnubzHGSlJabAvqxn31yXFFtG8RYrTe3U1z5Xhe1vDQAAIABJREFUz86FPaoGfBjiUgMLmelSY41XzcJZGBmrfHQNcKpM0DMBDi2cutMBzug4LK8oDSCV/J/uKSUWBbVSEfrsCj3dlJPpv+xiQIHF49h23aS2T03SVr5qaXVCd4Lrqm7GYhWY4uoSZxMti5KgmNnLShoi8nNaPxRlfGgLBSQzmbgbsiGgpRuCajBSNZdxQ0Vq29TS495rvB66ceiu8TgLSGpmiF0qU03+Sf1NWOrVpupm9LXFFpL61gwOntI5+Rz5S26wvQ39/2cGnHigWiz4eV3sNcaeeSrLN4LPli4WgZ404w2RZ0kg4gGqN5y6n7h2qIwvc92GBnmCuwYRJez1mOW5b74ccMr3msKwacWhVAtTpkzMBVblZ9G99ea7BtlLZcBXOle8WMUNP8/A3xrgnOPmPw9frwFOlYlabcCJ0afkrhJLRdrfqDRnAQ42Hxbrg5qoek9SjEujdcsebnZ3FkAzZXaLuLFiK0U02zKwmy0U9LUYiYTMgOFLMrLi1jTUfsU9xr9j7Vd3nGZcR6+nXHxx92LTESAVyyaOvfB3FgiK3GXgmVq81q61QCp10JeRm9NcPE0vybNlswIcE0XTRN2yZfDYS42xiVMsHAKOPrkGQdqIqlGpEqi8L8CxE9JclT30eX++R5rRJaiyE9lfjh0EGIgvF7zSXyy2NmYDjKazpFxLS5jTjziYDTgzeB7PxTlldlEMDvMBjh6fUH7dc4HHbICZvddqgHO2O/bC/l4NcKrMn/MBOMzekiaZsWA3LIox5QOX84VsnuggYDBaUoFNqdoXwGFH5bjdv6r8prtECUZmGDFuozvyci1puEg3fgwC8nesMUt8hXUNjNVQsLGjdD6vXDpxl2kGpe2EI52x2V9Nx3Q0ELH+h2m+PI6xosDVwtiUDDXeJ9vcKIHEMQiWEsDxrEYlHEU8xcJ4NsKcfYLAXFshIMDHFs6ZAUcPPVbXxn+0LgkcdIuRSeJWZTNTi93CVYW+WKMyCiJuWmrSkvUkM09bbwzCE7AZo6GlOcOKia0PTQUB84j95+aaFho73s5kWWg7UkZIxJb2AiycM4JZGYFPARwpmp0GyRrgVFkwXSDL1QCnyow4H4AjAsdxJEuMtS/Nbc0IObZAhIrovQIUdK0lnKSkF7OgcGoqi9amJvkOW460NjdLWizXkyQB35fizabGRthxx2cCSSGXU+83NUnPNB7Hfl6sIOc61LKZDTXQ34/unh4BMHHbWRbGRkakn1Zja4tkwyUSCelwQAFLq+DE8eOSajs1OalcKqEh5+c5JianxJqxLActzS1S66MSAJiDoGNC0xOuBVBnRJVlCMJZZ6SdHnCmLRyX4wkYY2Iq+BwxnOlRAbzfQJpZTrKuqVhUwG4mYdsZoQkBhbzhyAqPdSu+J2nO7OYsQwoiyPeYFs3jM42NKgmDNS8CXgrEmOZMfnN91kuRV3PN0tFgMNuVNdvC0YJflBwSXxI9TgWrSh6dact15tEzAEe7j2uAUwlJF/UxNcCpMvtOCzg+U3t9ZFJxlhpHTCOSFNlS0oDvSq1K+YvrsVaC/c3Ys4xCpbmtBXZSpZD29HSL4B4YGER/Xz82b9kqnZ5ZmT40MIhkIiFAwdRnZsgRIAgCLPRjk0eut3TJEviuJ61NmBJNYGM9DeszeF4KMxYgrli1CvV1dRgbHZXu06zxYCpu18qV0qk4NzGBo0ePor2zA9lCHocOH5b1Ozs7sbqnB0PDw1I7oqrSE7LGkvZOrFi+QjKptj/5FJZ0LsXo2JgcQ8HpFl2s37AeaRYLCujEMQoC7YzBlLGOz7HNZ5kCPSfgMGkABlzLmselVp6sMG3hsMhy166d6O1dLcsXmK4emljatRRh6OHZ556JPwsxMTEuKc2scWprbpWsLq708EMPCa157+weTQAYGhgQ3pD35OXq1aul3RB5SKCmosBXIpkUMmkrmXvm6JEjogxcfsUV6O/rE57xxVqsJUu7cPjAAQFCgtklmzYhlWScaZr2cvCsJJEqP0ZVWa4Ww6kKGau6SA1wqkrOeJ76rBHTkqV2DoBDAXPy+HHpV8YWM8xyK3guetf0oqG5BSMDA9JFYHh4WCr+KSjYcr6Qy2NqfEKEO91cBB4WBXI2z+j4mPTjYl80Bucnx8ZF4LDT7xOPPirf4T8KJmrZBB+2r+GoAv5jMai2fijM1q9fL4KS2jHX9sMQwyPDAjhct629HXt27xbBSWuov79fhGXCdrCsqwsdnUvw9a99HStXrkIqmZIYFEGO98Q5MJKQFrvRJAOq5FubHcOpsoVTKeCwo3L56GOOOPY86UlGvhFwqDA0NreivrEJHR3tmJoalzYvJ04eQ2trSzxlVXVWWL50BSwWv0YRHnnkEWnASSuH9KS1SwuRfCAPCDy6UzSLOWnFEsz53TVr18rYiFQmI2nuVBBYCMr9cd1114kyI5aMZUln6U2XbMRzzz2H3t5eeZ/XQl6Xx+D0I1MNt1eVH78Zy9UA53xS9+zWrgHO2dHttN+qtoVDrzbdVOwCQDfXShZsAjh+8gQuvfQyNLc0I5FIitXxve/dg//3qleJ4B8eHBSX19jIqLhc2BmY2m/vJZcg9D0RKpzHQouFVgRbxa/p7RVt9qnt28UqoWWjYzMEsQ2bNkn9jrjoPA9HjhzB8uXLxfUmE0J9X8YfsGUK3WqMJRAwKLC6u7tlPVpV/Js/6UqjEG1uakIymcK937sXPT2rBRCZPu56vqxLMGMMpJTaK9SfdrHNnHipij6r9aK9WZGFQ8CZlTFHerBrA2fRtLd3oLm5CYePHhMLZe26NTh2jKAQYGxsBB0dnWIlMhZ3/PgJrFq+CoMDg0JTziGiBUPhz9fK7m5Mjo8LWNCqYbcIAgRpTYWCLkvG4CT2Fg8yU/isxhjQFccWOBxBwc/5nu4QwevctWOH7BV2lti0ebMoCxL702vFNTtnSkyoFv3PZZ0a4JwL9c7Pd2uAU2W6VhtweHkU8Hz4KWCovVLD3b//oHRwbmhsFAHOIP03v/5VvPrVrxZBc+zoUfH9e0WODwOWLF0igrito126DzMG88yzz2Lt2rXiYlm/boOkSTd1dGC0v18sEH6fAo+Cjpr0Nddei3wuJy4c3icFHQGHYMT2+HTbUZD19PTg8NEjkhzA66altGXLFikazeay4lbj+rzuFcuWi+uM/9gbbNmyFfK9zs4lOLD/oFzfkmXLpuuFRHIq95lOHpgJOFVOGlgQ4FAoT4Md6cI5NE8++RSWLV+OzZs249HHHpd745yZAwf2oq4hA9ctoru7B4cPHoHtJJFKprFsWRds25DEjK9/5StYvmIF1q1dK/ynFTk2ruJCHZ2d2Ld3r7jaCEy0Jju6usTqJcC0trdLSjqvRVsp5OWTTz4p4w4IPnSpURlgexxOAB0cGMC1112HvXv2SJPXzVu2lO5qviy1Kj9O57RcDXDOiXzn5cs1wKkyWc8H4LDaPDsxif379onwJgAcOXIMl19xuWjFnusBtoV7774LN9xwg3QH2L93rwAAhQsTCmixUGpk6urQsaRTQOyJJ5+UJpCcCnnzjTdhZGRU1hsZHhJA4veLhaK44iiQXvry60W279rxnHQx3rdvP3pW9wiorO5ZDYrb4cEB1NXVY4IC0S1K0JnZZ5yJ03fihLjVtm7bhsmJSYyOjYols3L1aowNDeHBBx/Cks4lcm1r167D4SNHcNWVV6G+sREO077jVxRbEjOLA8uz1V4IC4cWmMo80y8WjQ739ePpp5/BFVdeiSOHj6Cvrx/XXHMdXLeA8fFRJJMO+gf78ZKXvgyFLBMEJjE6PIbeNT1IZBy4hYKMFWBjzRGhc48oGQQbujtbm1sE5LuWdWHXrt3YsmWzWJzkJTPfOI6C1ySjvG1bvkeXJgHnimuuwcG9e0XhIKBxjhF5/dyzz4mbk27azq4urF+7Vvg4o7amFsOpsuR4cSxXA5wq83lOwGGHAGYWearwM5lOxVX8IZJ+CCOXRzQ6BtNjp4GZSQOiybM9fi4nVgsFPbO9du3eJZ2dmQjAIky6WKiNSjZZfb2kK1tMDmDM5ehRCUZncznUZTLiIjly5LDMV0k4CTz22GPoaGsTPz5dNwQQBrtVyxlLLBHGCWil0G1DV5p+UQhR66als7SrCwcPHBB3TEtbG/pPnkR//wA6OzvQ1tEhhaIUYjqJgSOqSRMCKF1DU9ksLNOSc9Gy4pp0vTGGk0lysBlfZyq00b1VqsfUhbnUZlo4knk3MSFuxmVdy0pAet/99+GySy9DNjslvesYHyNf2an5wP4DEqdbzqF1MXY98MADQvv6hgaVjRjPniHdyLO9O3dJMsjI8DBWrFwpx5TnU4hVonxrAho6q418ZSIHEwfIZwIVLaWh/gGxYvV1OWx1NEeNVvWoXJ2VZltfNQunOnSt5io1wKkmNePqaQ06XJpCh+6uswYcXWcRRRLwlW6/hbwIZwpx9sjS59FBXGl3whHLrI/h+X1fWtczYynV1ITs8LD47ZlCSyCjsCGI0eWSSKelzxZjDyLe4+wkCfCzfiaXk9hMIpORmhCZ2hi73eppbRHoGM+J60X4WTKdliwnZr9l6utFa6flxTodAp7renJf0haFDUbj2h6uNzo0hObGxpnZz1Xm2ZmWWxjgzOp6QOFeKKgBc8WiZI+x99zk8LBkEvJlJ5PKJmI6+tSUTFWVmBj73cX1N7RkCMi6XopIpOlLntH6ZdyO79GCFdgtS1zRgjiMW+GoWidVJyUp8sQi7gEWAkvch93IbenhJt0p2AA0jh9dyIkCNcB5Hh+MszxVDXDOknCn+1rVLZwYcHTxprS3oVBIJiTmwt5ZAgoEGY71ZQFdIK0HpBMwu/fqFihaUDlp9u4C3HxehA4BhH5+6VsWt5jXtTXanuDxPI/MPImbfeqmn1yX3+dL2tP7voAbj9XrShdgFo1yYFfcQJTCjM0q2VVAt+/RGVPMqJKuChzBnUypCagvwOtcAIfJD0JHxxHBTXAg/0gb/k2gl07cpS4L0y2N1KgGdleGdImO4s4OUpNFnunBZ7YjvOS60khV7w/diy8u4NS2IROtNZ9Vn05O+1PtbKRDRDxDiODF6y5vqMo1aoDzAmzCi+iUNcCpMjOrDjh8yGNBogFD2skr8wOgJUPhU5aVJIIhmVTWjVuUJAMtOGj58H2tDQpAESh4fKEgExzLq9SlVQoFPwUgzxW7Vkrfl0ZhBDhLFWnGgo4dpnmd0kgsBh5aTUwI4DXzXKzgj/wQBECuK63y4+uTeIG0uGcLHg6lq3LPmgr5fi6AIy4sWhyTk2LlEOAZg5OxzAQGmQMUwGKdC18xbePma2JBSrCfHbtja0eskPh7AuK0R9iBIC4s5awXdqTgnigVf8agIzOWYrpqf53OPtO99NjlIRF3lyh1myjrWlADnAo3Tu2wOSlQA5wqb4xqA45ov3Q30fVFq4GuKhlRHI8J0Jq/CGbVG00sHlot4qqJOwnHgkr6ncUatXSNjjVw0ZC1FcK1407S0mCFFgmbbbqqBb7BKvcyrVzfM69LukpTYMXXpZoCq6JB+T22cnSHY+mSJg2I2TUgboDJLtd6Jg4D3jxXlflU6XLnAji8brl3xxGQF9dlbPVImyL+Hvc9KwEBycV7p9vLpZXBCZikEXkFmI4Nr1BULYjicQ7achKaks60TuIWReUdB4T+cQsZAY7yrAvdoJWdHnTX8JhIpAFHGtQsnEp3Te2401GgBjhV3hvnlKVW1i36tAyT/vszRwGUjq3ECtBCJm60OSPzKBZIsWSZsz3KnNdVyXnL156xSJzGPKvjcZXZcspyOjZVErqnuYdzARx9UgHb+P5K5y27onKw0W+Lq3SWG/F0uXeV2H6qYescK5T3MNNdpivl5/lm0mnWL7l9Y2VI7+FaDOcFYsgCTlsDnAUQq5JDqw44s4VACTDmuJrZguI0EkpbHTPcanraZrlgqnQoSaUCas71CJ7T9zKXQK6E7gs95pTznAbEzwVwtIDXcZrZIyBK4FJGe50YIIH7ueg1F60r5dMccbDyBBd9vRey24w0K8UOZykpNcBZ6FPw/B9fA5wq07zqgBNfX7lgEDeJmkJ2xpceETD7oFK2U9kH5eAz37pV/bzC8c+nu5dzuZbye9ZacrmwJYXpljzbTgPasqGA1KDD6z1FoJd3Zo5viLWtc+oLs9i+ILrM3jPMWuPcpPJ9IBd4LlQ9/98tVxZ0woV2JeuzSyZebQDb+WfGAs9QA5wFEmy+w88H4GiBVcpo0oOyZl3MQjVTfXwpBlOmKfMzPdtkvns+l8/V/J5pCaeF9Ow1KVjnh9jKr6QcDGSonWFIFtlsGjKxgYJr3uadc7S24dVIZl+cUaZl+SkDFfT4hzimJgI1ZIfsUyX/7OtToDg/ZaQM5zRIUr6mZCxWsF7llD5/R2rgYWyMvKtZOOeP1tVauQY41aJkvM75AByuyWwmphnrhIDZwmMusDmdGNIPqtYKZ1hPs6aNVkKeSoGuXCBMr6tiOOWxpNnHqWB3JVeygGPi2EU5LRhorybgCNjEYwTKtfLZQK7cZ3oDqZ9ClflxRI6txMo53XraQtDgKIkOnN+zCF6apgQbSSGfNTq7ZuFceEysAU6VeXJawCFgzDNimp0GzCieuhkLG50lxroMEQ5Vl7yxgKs0DlBlesWidd5VK5S9865TOkDPdykDWDUtU4GfPh/TjCuycCxaEEohKP+nrVMBEVoyp7mRucC4ErG/ELpUul6lCkTlxK7ukbNpVbNwqkvf87laDXCqTN3zATisQykBjh5WVeXrfuGETJylVuX7mXe50wAOtXsBnFg6s/fBCwU4897DeTrghdsLld1QDXAqo9OFeFQNcKrMlRrgLJSgNcDR7qyFUu58HV8DHI4FV3G9C50W52sPnK91a4BTZcrWAGehBK0BTg1wFrZnahbOwuh1IR1dA5wqc6MGOAslaA1waoCzsD1TA5yF0etCOroGOFXmxrlkqZ0uaeD5iOFUmQwLWO6FAZzypDDtNmHzU93Cf8ExnDnSopkwwCy1GQKygvqpBRDvRXuozlDTbi92s65lqV3426EGOFXmUQ1wFkrQixdwylOiS2nRNcBZ6AaZ8/ga4FSFjM/7IjXAqTLJa4CzUIJe/IBTXndTaW3NQqn4Yju+BjiLk+M1wKky32qAs1CCXtyAo11qJQG5kMKZhZLyRXR8DXAWJ7NrgFNlvtUAZ6EEnQ045eWJ5086Px8xHLa0kSF0ZU0zz1fh7kKpvtiPrwHO4uRgDXCqzLc5AWcBI6bn6jRwtkkDlbQ8UbdPwa6Eu8xTkb+mRbL6Tb1jck6xGkIsL+UiUn/p99jwMjDDUvHkXG1Vpr/BmTGc2TP9b5olnKOjhq/xqiqtlK+Epc8L4LC7xKykgeq71Nhkjq1xNDhP/9R8izklNNav6euYBvVy+pLNgal2hRkBFkf0xG10/PiU9gszhFXtxrjDdi1poJLdfuEcUwOcKvPiQgOcSmwEJcwp+GOxPmejTNbcU67FM+813WLAmYYgBU4EnOl2m7qlSxkw6Qtjl0o5O8cpK9CJRZu0pTTkX+ngqnHrYgIc8uRUxUFRdZpNZGpZZ2gj5vksihKIzMgQsAnifUDAIbjws9AE/BiI9FC2qjFlAQvVAGcBxLqADq0BTpWZsTgBh0KGwimWMGWq7kzAio+Z1Utztu2hbCANOPFiJaGoACu2pxAZqnecAhpKslgoigrOz5RgJCBVs4PnxQI4c1mPYqHOaQ7O764k2e3QBC0cAgtf2sLhn8p65b8o3jNVfoAqXK4GOBUS6gI7rAY4VWbI4gQcI3aVaZE+rf0qMJl2zkRikcwUaOWgREFH8HJEI47A5pcloBApqCwYNW6Anwelj6etJ9V0X47Qvp+IgFO9QdMXC+DQJiSd1atkq8b0VbRX4ENOzuUDK7eDFLg4gSnWDYFFA462cLgWgSg8jYVU5cfptMvVAOf5onR1z1MDnOrSc0anYC7NppveCxjDqcSlpgSVKS4TLbKUxaPtC/MUoaU1aKVN62MVtigtmYJQxFWZY2cacPgJhZaEhMra8ZdBGwhuen0zssSdV63XRQM47CCueSUgHnNQ/y4xOdqUdE0qa3L6pcFmmq7kmRUaCE1DudQMFb8h4BCMdGyHvNPnrRZPFrJODXAWQq0L59ga4FSZF4vRwmGiQGA5nN0LC6EIkigM4saFBkIG9ePJkEbkq3EpYrlECKMQtm3B9VwFNibdYgQbQ/1OAcjwUBBKQ0TTtBAGoXydNZCBYYlUk+iNAFQIy7ZUsJ0nsk14ngcHZmX2zekmZZ4iatUb4iSMO3BXu9MA7+F8Jw2UWzjaGtVD1GwnKQoQYZvJF2boC4AEQn9T+CMAJRNH1U/yi2MWYJlwIzVuwYEBi4Yov0fe0PI0DdgxR043OluTfHYrmmo8cjXAqQYVn/81aoBTZZovRsCh26tomLDEHeaLwDGjECa75cJGaFgIIk4AZSQldstIlpACCIKT5RA4CFShCCOfQCIxoVCkOkWbbVkIfE+QRtY2LUShrYScgJQSmYFEri34tBDF8QZYBDYKST2eoWzY1gyd/UUGOLG3LCaBUgIkaU0sGw7uU/xi1x4qC4pp8WcxYChlQucBRrDMEG7gw3RsmQ8UFF04AeBYFlzXg+HY8MIAjpksdVTW+/5M48ur+ajVAKea1Hz+1qoBTpVpvVgBx7ctAQXDL8KKAtiWIWOOOQLaj5hBZknKtGnGGnFAC0gJMhoiUeDJVFK+Z9oOipYDmR4ZhnHuWQiLbhj5GwgDT6wdg4AjAZ1p559bLMJIJkHo82jkJJKIfB+WQQtJBRZOpzUrt+D8r4vFpabdobxjndAuII8Ijm0pS5JTRwkgMiCOmKN6xgVkjwYa8kImr3K8dREBj7VMRDRDPV8sTHgB7IQjrlCXQGY4NGnnbeVfs3Dm348vliNqgFNlTi9GwBE3ixgrAeyIwoUWTgBYDqIgQkDHvekAlo3ApIuNQilQdTm0eGJQUXEC8avBtZMIxGoJxFqyeZxjwMznYEQhwmJepSOoRLQy/xaIMCoh2knASKYRmsrC4rpnfElK74sLcJTNSWtSRW/ID/nJ+FfA0XHKUhVooQszCGCatFxMEDPCGHykFooKBQLYfl7icj4VBLF8TRzZuRduNoe1mzaK1RMlEgjtlICWBpTTzY6pAU6VhcwiXq4GOFVm3mIEHKUdA4bvwol8FHOTmBwbhW3asJ0UEul6+Rk5DnzRcOkCC0GJRWDSrrjc+DiiIECmtQ2ulSrFA3iMGXoYHezHzqefQujmwRqOwCsiEQe9NZRIkoBlw7cSWNq9GqvWXwIrnUFgpeGHBL9AuehoVs0ei/0iBBwVdXNKxbsEDLofEXkwQl8A3ysW4BYKCPwATtJBXV0DDCeBgGhBSzRWHWj+WJGPYHIE/QN9aGxtQlNrG1D0cGjHLni5PNZsuASRYyK0bOTMJOxkEg4VA7rwlPl0yhNVA5wqC5lFvFwNcKrMvAsJcHRZzfy3GCHyC0h6ReSPH8G+fc9hYGoMOTeAgxS2bNyK5au6YaQz8FONyJomUnYC0VQWSStE4I5jsu8o+vcdkBjN+pddj7BtObyQjVxUQgDByQoj5CYnELpF5b4LQtg0pCy65VQ5exQF8IMAlp2AnUjDTtWJdeVZjCUpYUYNW2p55orjVOJPizskqIjH4k4aUNEYE75hS9yMfzuRB8ubQgJFTPUdx6H9e5DN5pFzQyQdBytWrcDKSzbCM224VhKGnYTNdGjfhxkGKEyM4ulnnsT6db1obm0FXBeDu/dgZGAQhm2jEAbIhhH8ZANaOzrR3bsW6fpGsXYM0xZLieBFSziSWKA4QefZhppxlTGwFsOZ/6m+EI+oAU6VuXJBAU6F98b0Ywsuwr6T2H3/vQjtAB0bepFsaMHQkUEMHutDz+oeLN+2FYFVh2ImBb8YIFnwYHo5HDzwNMaP7kcqVxAQ2HjLLYg6u0HnnABEZMJi0oHnwyKuUAhRCzeUpsx4AQxmUDFNQNXlhNLRwIZh2MyRkhL3cnAoadSz7lHV98z/0q63xQ444tKMIrhmAp7JfLIIyaiIZJDF5IlDOLTrWdSnUmhd0gUjmcL40AAG+/vRvf4StK1dj5zhwIcFOwiR8gNxqeULU3ji8UewYV0vOtpbgUIRA/v2YXxoGCvWr5d06TCZQtGz4CQyaGhpg+kk4dNFZ1J7mO4WwRy56Tqh+fhSVrM1z6E1wJmPlhfm5zXAqTJfFiPgUNijOIG+p7dj6OBBbLz6MqRWr0Tk0zKxsO+hx5CdGseGy7bAWroChWQCNhJIeRH2PPkoDhx+Fpf3dqPeC3Do0CGsf+l1sJatgZFII6QQI+CQznHGFAIfYMYUXWcw4CFEEHkCOgw0OAlHDjVNpvXSSrJhBKzDmY7haIEzm32VlupcLICjK2lo4QTM4kMAJygg4U3h8O5nMdTfh02btiK9tAvwPERuAUd378RUwcUlV14DN5lBaCeRME3YngfDzWNycgRPP7Md69asRueSDrFw+nbtRjFfQPcVlwO2BaTSQIGxvQRgc/iZAY/YZ9kKcGJWCZ8q0QCUalJxN4ka4FRZcD1Py9UAp8qEXoyAYxgeotwgdt13PxJBhA0vuQZBQz0iulqKAYYPHMCu7Y9h61XbkOnuhVtfj9ADMqGFgcMHYSd8tNenMfTsThw7egQbr78eia5uGE5S1dyEBtx8Hobvi8CzAhe2pJOZiCJHpVJLdYeqLpT2KZEJ28kgjGw49U0IE0kRqNV6XSyAo5xVhgT/6Vyz4SLBLLOpETz7xGOob2hGT+8GIJECEiZMv4hcfx92PLsDW664BqnOpcpdGQbIjY2iODyEVD6PY8eOoKOjHQ0NdTA8D5N9/QIH9e1tiJIOXNpSTkZAhrVUDa0daGhrA1NJQlMxpxLjAAAgAElEQVTy4cSdxufBMpj6XsmrBjiVUGkxH1MDnCpzbzECjokiiqNHsOO+B7G8YxmWbt2KqLlJYgJOrohoZAiP3vsdrFqzCku2XAq3qRmBZyLpmZJ9FoVZGPksRnbtxZGDh7HphuthdywFOPaXabWhgdHBQex5djuiQg4JxhgCF95UFh117ZJ+TYHnhz4CBPBCdiCwYTp1SKQasGrdBqRX98C1putwTudSq5SdFwvgSG6agA3TzQM4oQsrzCM3dBI7nnkOvRu2oLF9GayGJsD0EU6MIRwdwY7tz2BZ92p09K5DlGZCho+Txw5j8MABtHsB3GIeVsKW+iib8ZiCq+qtUkmEjoV8FKLAdkNOEmYihaWretC+YhV8JnWwuFfgT5k24hKtOFm9FsOpdA8vxuNqgFNlri1WwPHHj+D+b3wHl225HC3r1sGtq0fkJJEouDAnRvDE976Nru4uLNl0BQr1jTCQQipMwGCNR5STdOeRnXuwf+8+bLv5Rlgd7QiZDUDfSgj4xSKyY8Ow/QJs34VRzGLnM9uxce0mJNJphF4Bhw8fQjKTRlf3agRsS2ynEVlJpJtaEdY3wo9rcM7EssrE1XT69GKP4WjrRtKfmdIeFWD6OWSH+7Bn1150dW9A67LViFJphEYRqcADhoewa/vTaGnvxNJNW+ETsNgFQpQHD2ZhCmExh6nsFBoaG2AGEQaPHcfgQD8uufwyIGFJpocRJFh0JZ0ozGQaZjKFQJQF3StPdQJXDVkr4UzlFo5WOMSCsizY9rQVpdOz6a71uQczGaTa2lAwTUmU4PUx2zE7NSWlAPr7XEOPO2C9l/69yiLiRb1cDXCqzP7FCjjuyGE89K3v4urLr0Z9z2qgvR3Zgos6pt2ePIanHvxfdK1cis4Nl8FrboVh1CFBgeMWEZpFWIU8hnbuxoG9+3DpzT8AQwDHVgWj9J6xt1pQRDLyYfh5+LkJPHjPXbjuB26E3VCHIJ/FjmefQX1TI1Zv3AJYCQShBTc0YTHOwASEOVJuZ7Ov0njBxWLhqL7cTBEniHqwI7os85gcOIE9u/dg9bqtqG9bDru5BZ6fhZPPwhgdwf5du9DY1q4snGRGAUhI92cRMAoY6D+JkwN96OlZjbpkBicPH8Ho8DC2XnkZIkc1WZvqm8D4+BS6enphpzLK0qJ1E6dIKwtHdzCoAU6VRc2iXK4GOFVm2+IEHBeF4aN48q57sGnNerSuX4eosQFwUjDyHjAyhO0Pfx+NrY1YfflLkM80IIxSSJsZiQ37QRZ2IYfBHbuwf98eXHbzDbA6OiVVN2SaLCwpyGQ+muUVAC+LIDuGh+/7Pq6+8UYkG+rhZiex/fHH0NjSgku2bBVXjRuw04CDyLAlDjBz5s7cjHvxAU5c8imYE8AKXdhBAe7kMLY/8QR6ei9Ba+cKWA3NMgrCnBpDMDaK3c89I0DRvHwVAicjPHKYYRZ5mBo8gN0H9iLT2IS1azdI+vrJo8cxfLIPWy/fBqsuKdbBwb2H5XuXXHq5pLBLGbC493TKumpVJABU0XNWs3AqItMiPqgGOFVm3mIEHAM+vPEB7HvwIdSZJnqvuRpBygGcNMxigMmjx/DcU49g47aNaF7Vi2JdA/woRacazCBEaLuwClMY3LkT+/bsxuWv+AE47UtiwGGhqCPtVKzQhxN6MLwsTh7YjWOHDuCq626Ema5DUMjimUcfQXNLM3o20cJxEJkOskVPCk/Z7GC+DDQRV5VJtlJHgsXuUtOiXCcNiJUTFIDiJJ5+7DEkEkls3HYVTDupeqy5eYyfYK3VHmy+4iokWjoROnUq7TzvYWq4DyeP74STTmLl6l6kMg1ibZ7YtRfjQ0PYeMWlCEIXBw/ux0TexboNG5FpbJFaKdOmVaqiNqpjK01b1RG8MrbUAKfK4uiCW64GOFVmyeIEnABGYRKDO3agb/8+rL90MzLdKxCYDtyhSRx49jkUs5O49JrLJDZTtG3kPRsZK4OEtLspCOAM7NyB/QScG29Asn2ZJB2EBv38jjTqDIoFWH4BXm4Mzzx8P1qbm7F+67XKfeYW8PSjD6OxoR5rNm4CEknk3RC79h5A57LlaFvaMT0b5ww8Ux2n539dLC41cagxe530FRswEMAxC5M4cXgfjh48hG2XXYmGxlZ4QSSAs3fHdlgJC+u2Xgo/1YDIqoMVOSiOTeHIgV0w0nms6O2GnUxL/CXhpHBizwHkJyexdGkn+gb7MDg2gp7e9ViyfAX8wIBpJQBDTW0l4EjtTdz9OzR1+sB8fKkBznwUWuyf1wCnyhw8V8CxmOUz68W0Yc7VKa89qVSTr+T2KLTs0EW+7wR2PvmIuFW6162GH0QYPjmCibEs1m/YjNbuVUDKweEjR3CsfwBbtlyKhoYGGGYII/BxbNdu7NmxA9fdfBMSza3SZdpmnQbjN+ztFVLzzuLgrp04ceQYLrv2OqRbO1WrfN/F4/feg/amJvQQcGwHU5M5PPbEdmzYug0ty5dLa3y+AsYapJP1KRGc+L354wUXC+AoCkx3emaGhs0sQKY/jw1h344dcAwLHUuWSPbY0PAgJibHsWrNGnSuXAU3smDaGThmAm6ugGJhAk4mjwQz1PhfYIBt9QJ2KhifQH/fSbieh6WrutGwfLW0yKErjTxkLQ7jbNLBQcBmukleZXrA/HyL7Sfhv+pkoJIGLKcs9TqO9RGAa0kDlUiA5++YGuBUmdbnA3A4b6QccBbiOqrk9mQSpFeAbUcYO3EYR/btRHFqEr7nIZlsQEfnSqxYtwlGplGEyMHdu3BsoA9bLtuGlo4O1WLG8zFw/CSOHz6CSy65BImOVnGvcJgXoziBO4WpyUEcP7AXhXwRSzqXo6t3PfyUI33RbLeInY8+jLRhYlXvGqnhGR8dx7N79mPDtsvQ2NUFw1adC2T+ikieuQRUZVryxQM4Gmx0+oCae8OO32ywOtHfj2OHDiGfz8FOOjCdBNq6lqCta5mySiwHATOZDUv+WaaPwB0AQh/wI7hTOfgFFyODw8iylVEqia5lK1DXtQK+lUHERqBlIyPmGx9RyX6c7xjNe/2smcxSc7jL4pfqpSMNX2uAMx81n9/Pa4BTZXovRsBRoz45OqAI0y8g9PKIvKIMPjOtFBINLTDMFEKf3YMtBJ4rnYSddEq0TBmQZtsIiy7CoodUYyNygYtEMo2IlYG+j75jB7HjuceRTjro7l6NlSt7YabqUbAiJB0TUS6HA88+gxMHDyBpOTATCeS9EHZdAy696ho4DY2Suit6s8ziOZ02/GIDHJU0oF5qjDSbqVphKC5MiuHQ9aSBp8/PEkkkmRBi2cjnC3BSKRUcCw2ZajA5Nojh43vhF9ns0xflwPcD1Dc0YMmyZWhtb4fJThC0apxGNSm2BjhVliIX73I1wKkybxcj4DCo64a+CH4zdGVQV+C74hEx2E3YTCCILKQSaRgFTzpChxbn5IRwEgkBnGQiCb9QgME4gWXCszknxUHgBgI4gwPH4blZdHa2oa6uEYbJ3lsmCibByoDt+wiykxgb6EfgeqI5s/izvrUdja2tUr3OcQfKsDmT6+XFBzh6oJoe703kYAxFRttJ4W2IQAaqWWrKJ4eq0c3JgXji7mTMhQP2QuTGxzB27JDMz0ml00jVZZCor0c6nYGRYINQdhIAbDsBw1fTWnUT1XK+nI8O0fpRrVk4VRZaz+NyNcCpMrEXJ+AYMk7Y5sCtgABAKyJQI6KZOBAw08hC5IfIBAbsFDOeDLhuQbkxmPJs8XOOKuCQNhMFKSI0YJsOLOli7CMI4jkrAQVWncxxccG5OAFMz0WSIQDOa6HktB3pPuxHBvKei7q6etG0ZcAbheZpJn5WVmB48RR+lm9fXdfP98iHkCDuB0jRimHRo1uUTtt6hLeAT9zRWeIuQQiHBY90WYqfzUTIsdT8Lo/jZxxPQXeV7yNjp+Q7NcCpshC5iJerAU6VmbsYAYfgwd5laqS0mhapBI3Ur0sdhcEizjBEUvz9hAi2n2fwni4VnQErDhahKC2giAHpyFRjjg0CmHxZughEhmrMGRkFGWnMSaCckcMu0tJ/jcLOMFX/NEM1R6mm1ny6GA61fglI0z0ldOGYawOuZaFu2TJ4yQRcuYcQrF6JhscRjowhZSp3VvmLw874r/y6q5nsoc+lyiun9X9xsUlKshn/VFYI74nv23GMQ9WLygQidc8EewEq/jRVkoZMBZ122wXkjWFIZT8H6ZVPaj2bR+lseMprlOcstna5VwiitRjO2XDg+f1ODXCqTO/FCDi6/Yh4qiiTRF6pB5pgRBeKJCDBhB3L1LlqYkToxU+9+pzactxHy2AEwZPUZjX/MymfW2ZRBJeaVqkEpzR9jDOv6O4TjV0mearFz0ZIzWbzGQGHYCdguhgBR5yOcVwnhpOYhqW6f8bAYoLIHKKyKhmZ/qqYrQbdSQdqU8J8tGaYcWjzPVEIOE7i3F8L5aeAYmzh6hY0Zg1wzp0Rz8MKNcCpMpEXJ+DQxcR59pQyKr1VabV6UplKKlAvBQtzpblOa9mx9hlxpIBKZTYEcFyEBvtCM5SdYC972IZXsgx0DED6ZMXFgvo8rHZXl8BU2NMxrfw6z8zYiwpwYnDQ2YvqT0VDXXSpMISjAhTYxHkiYtGIEhAzjz9Lifmx1Svp0RGnvMqMvNJWCGSG0bk/QDXAOXcaLpYVaoBTZU4tTsChdSEZAiXAUTUVEnWOXS66/y9Tk88sZQg3SqipGTZSBCjCKbZwGA+KuI4tI43V1Eqeelojj22ZEnfMEgLOY+HI9c7/ulgAR1mhiiNyT2IJKmVBnGiqd2p8DBt8MkFAH6eUDIJMOTCxWacCfH6uXJpEIdo6Yq/GvAiJPlV41QCnCkRcJEvUAKfKjFqUgGPQfURAYTzGVgV80uFXum7KFE66XijEOJ9mRsRghgttJjEJOKaMmeY6HLBGwOF56G93gMgRwBGrhUcxE00E3XTbRxF7Mv0zlprzudRehIBDsCB9KP85TqDkehTLRf1TGWwCIQI40pGBPBaQNxAQmKQBKOAwlV1AiO5UxRdtVSpQ00W3lZVzzveI1QBnPgpdPJ8bExMTkfaD8rYY5GTlLn/yfb6YLuk4DlzXVU6Vsiwh/s6iRH7OjaO/L8V53LBhKAFG/bNYLMr6+jO9Fn/yu7rtOI/huvwufyaTSUm/5Tn0e/r4RCJRul4ew+9yPZ5T5FRcjazvpfwe9H1xLX0P+rgzZ0PNvQnmAhxmCnF9z/eRzqSRZNYQh2WFERKcy5srIBybhOnmYcNT1xzLVxHy7FfGaYwUFOLSogZ6rtql1oMJIrGINwzksgXU1zcIDScmJtDY2IgwIN0DFApFWEyHlapyxWupvwkjmJaJAtOiGfcQWiaQTqWRm8oJ7xyH+8TFZHYSDQ2NyOWLIvBYM0JplsrUIV/IK988kwRsG6lkQopPmXrNhAXtvzmjgKowKq+tAVUcryw23oMkDcR7R+4F0QWZNFBe+6LgWuZyo1jII5NOqziXxGNYNEwaOnA9VxICuM8lucMwVVq762Eqn0O6LiMp70HBRX1dPVw+16kEfEn6YKAeyGWzaG5uloxEplvz2Uwkk3CLxZKMkEJl7nfPQ0trq+LdGV4LBRxtv6nxAaoOyGTjUeGj6nYgsswAvLLxBHnKqnjKrAyck/EEISzLFJlytuMJhAaJREnGaZnD97Uc07K0nAy8b/KCMpHfJ734k3/z/XIZzLV0sgblMDMPczl2hHBUWUIyWUpQKXdNazk7W67y3FyD5+JnvE6+p+Wwlp3lMrxcvvM4Xod0eYhlteIDyyGm5YOW+3ptI5fLRbwx3pA+WF8cD+IFZTIZtbFiopQe0DLgKRe0+gZ4Mp2lQwJSIHEtrsnP6urqhFi84Hw+Lwwn4XguzSx+h+9zfZ5fAw6FYX19vfCPx2gQ0zfNdfR5+DuP0SCkb16fVwOU3gzlx/O6eS2VvuYCnNALBDTcwEeiLo1kOgkzjOAEQNIPEeaKCMamYHk52CgqkJdmlXzIVfZQ6PnyHVsyu0KEzPiqxovAQSCzkzh65IiAzNKlSzE8PIyhoSEsWbJENmZrayt279kj4NDR0YGBgQHZqOQBP2PW1pHDh+X7TU1NaG1pEwFFfo+OjmLDhg04evSorNvW1iZAcujwYTm2q6tL1nn22WdLPOL3uD/IG7bP4Tn1a+EC6lRClVxq5YDDtF8CjqWUlWnAwQWXpVYCHF5nBOEH6bp7924RVlQUSFvy7uDBg8pmFO+YgeGRESxdsgTt7e1IZTIY6O/H8NAQ1qxZgwMHDmBsbByZTB02bdqkZIJlyR7kM7Rnz57SnsgkU8Ij7pP+/n7ZG3yOqVjVZTLC0xUrV86YVTPXll0YP6eTHBTgqLgj94m6QWa4qLMEZiT1YMjUyTycEuDEGXm5qayMPbdYB3aWgKOFK4WvVoop87TM0j+1XCq/fy3MtcLOn9x3Goj4O2WeFuzlSrQUZccze8gXnlvTsRxweD5tKHBfcM10Oi3vUT7yWvl88XeuMT4+Lp9rI0HTWCv3+pr1DCG+r8FJg5cGP33vWoHn9YmFo4Vk+cVolP6bv/kbbNmyBa985StnILEmtBbWPLFoibHFk81m8Z3vfAc33XSTbH6NoLyoe++9V27yuuuuE4LyRQLyVX5DvPnPfe5zsgbbpWiU56Z/4IEHcNttt8kDxQ3/P//zP3jjG98oAo4vTTCej0LwW9/6lhyvCcXr5MPB83/lK1/BsmXL8JKXvGTGw0F68Lq05lPJg3FaC8dXgJOsSyNVBji0cKJcEf74FGxaOJGrksbKLBzROl1fXCKsaFG++eq4MygkqH/2DY2g7/gJEULUeicnJkSIEHwoyEiLvr4+pdGYJianpuT9sfFxrF+3ToTc/v375Sd5T8A5cuSofJ805LEUfJ2dncjlcrLOiRPqfC0tLfL+M888I++TZ9wzWpMjrygMa4AzLa7KhQqzx5577jmsWrVKAIMPPK0QHrNi1SrseOYZHDtxTLL/lixdKnwkUJDOV1xxBU6ePCm84zPA99ra2tHX1y+AQ9DSShf5yvOQVwnHQWtLqwDLyMiI8Irno1JBBYSKiiOWraNieGd4VfJcTX+9AsCJDybg+KYFg8WrZQPYgngAGy0cWl+sPztbwOE9awuD9/Hwww9j48aNIt/KQYE00jJyNujwbz4npCGvg3KJPOS/qakp4ZVW3LV80fz/0pe+JM/GpZdeWrLUZwMOFb477rgDV111FdavXy/PGJ9nKin/9V//hXe9612l5/NrX/sa3vrWt4oc1RaVtrQGBwdFpv/Ij/yIPLf6mtJpXmcWn//8F9Dd3S3yWhsMmj5KIQCMkZGRiIimhbk2lbSV86//+q948MEH8Vd/9VeCfNoFpa0hDUwambVw/u53v4u//Mu/xF//9V+XTDa9KT/96U8LEX/yJ3+yxAReEDeqdpcRCAgkv/iLvyjHEQx4wwQPbvqvfvWr+JVf+RXRoh5//HF8+9vfxk/91E+pje44ojVrq2rv3r34gz/4A3zqU5+Sc/Da+WDxJ8/z8z//83jpS1+KW2+9tQSM2lRcqJCbO4ZDl1ooLop0XRrpZGzhhIBDCydfhBcDTiJUgFM6r7jUAgSeLxqk2kyVZ2Od8UlXzJMKfs8LMDA4KBYIAYBaEwUMz8fNRQDgA0SeaI2FtBMLh7PsfR+PPfaYWCL8Lt1f/G5zcwsKxYIIQJ6La3L9Bx54EL29q8X9wUyp1at78cwzT8u+mJiYxIqVKzA1OQnbccQ1R34ulBdnuveLxcLhQ08AOXbsmDw7hXxenlNxe0URli9fLp8fPnIYjY0NQt9du3bh8ssvF+DfcMkl6Dt5UsCfzwaVjGLREx7xRdAhiPDZ5TPe39eH7p4eOQ/dbp0dHbLOoUOHREjx86aWFlXTZRiiKPI5fF4ARxIcVBiAzxD9EuyibWQU4BRNAx5danQ1cuJndkosHBYtny3gaAWbP8fGxvCnf/qn8qxQudVK0s6dO/GZz3xGPRdlL7GggxD19XX49V//9ZKXhrJp+/btAuQapLQ7a+XKldi6davwmJ+9973vxQ/+4A/iDW94Q8klpgFHn4o8/fjHP45bbrlFDAcqF1xv3759IhN/53d+R66Zf//93/89PvzhDwsAkibcP9qSokL44Q9/BLff/ufCV22JcW/w9w9+8IOiwPzET/zEDMNBY4OsQ8ChVkSrozx2ow/ixRNFeaHckHyf/3gsEZgnu+GGG0BCUACREBQqv/qrvyqbnmjHm+I62uTkw8Hv8aa0W42WCpH25S9/udwgUZ7g8nM/93P45V/+ZUFgMpNE4bmJ2tS+tIXFh4pgw2ujRfb7v//7cj1kCh+w3/u938O//Mu/yEPB9Sk8tevud3/3d7Ft2za86U1vkmuenJwsaXXaB6mBdT4BPhfguPRnB/Rr+8hk0sjEgMOaFpvxmXwR7vgULLeAVEhLL66TiBVDARxfxa9KgFPhhJH5rlcABxGyuQIeeugh0c5IHz4c1K7IA/KWfKK7hi9uTl4LNzI15va2NtmY1JT5HQIUL33f3r0lgKf2zH1G4cQYycT4uAg1aoI8X29vL/73f/9XzkP6UxvjenzoNm3aLLyuKIYz7w2rAy4WwOF+4D4mKPAZIr1IKz6HFFz8nZ6CkZFhARxtWfJ7fKao8VKBI2/JAz6jlmWLS40gQs2ZPOVzxGeWzx9BqKG+XmI/9XV1oghSW9525ZXYsX07VnV3CyDRor3mmmvm5chCLRymcQsPJYuuzKVGsJH6IOUhYLfogC7BdAbJEuBYEtvxY8ChhcPBc7btnFUMp9wdRvo/+uijoELNvf2zP/uz8uyQ/hTWs13zGkz4PBFE+BxQgaPso6L+9NNPC0+nYzY5Oe6d73xnyfKkcCfg0LsjNJljDPvx48fxiU98Aq9//euxbt063H777SITSXfKTT67OnxChZN/87mnHP3N3/zNkoeDvKcs/uM//mPZAwQkgiz3VF1dBu997/tw9dVX433ve1/Ji6FBic8996S41Oieuuuuu0qxEF44H3puRLq9tH+PhNDmHRlNYpBoRFdegDa9aFH8xm/8hvyj+c0b5ndVoCuHL3/5yyLQf+zHfkyYwfe5HolJQKCQ52blTZNQ1BY2b94sn/EGKBi/8Y1viFbA98gYusXe//73C4jxRQGnfYjUMHgtZCI3ANf+u7/7OyE2z3348GEhBh9OHUPiOclI7TfVpi6vmwTW5vJcD0u5i1LiY/RtxxpiA+MShoFMIgGb3WxzOQwcP4GhvgF0NTehI5OW1iI8BmzlwjiZgKOn/PCxhVOF8gclCGILJ5fP42TsauHbg0NDaG5qwpEjR2Tj6Y1PnlAA8SEhzxgwpvDRmrZ2mxG4qRRwv5CfPT09IgwlrhYEMuKAtKYJTgWFP8nHxoYGOffmLVtw4vhx0bxvvPFGWBaz2qZTorUFPq80O80Bix1wym+LQuLEyZMCGFTmKLRGR0bQ3tEhluGe3buxb/8+LF3SKU04+Ww88dhjuOrqq+V5IljxuSQA8XmkK5SJHRSaXFPHSsknPnsrVqwQ/re3tYt1QKt3ZHREtN6nnnpK9svE+AR27NwhngPdfULiATPKTPUWXIh7mAkzMwGHhakmk5Yk8Y5teEKJxfkRMFUoYiyfR1NXF5qXLkHEmIg8k4FY0OwZl3SSAjja7aM1eh2/KKe1/kzHNMSYihNlqOBSTuzYsQOf/OQnRXb+2I+9KfaouKJs0qLRMWQmLniej1QqKY1UtSLMZ4ayyXFsFIvKetAv8oLAxXNQRv/jP/6jyE3SmdfBNehaJbDwOeV+IH/++Z//GTfffLNYIPq++KxSvv7hH/6hKH6U2/Ro/dIv/VLJQ9TR0SmJCXzxnB/60IcEsK644nLs3assJO4/3vfevXtEUaHM5zlITxoqP/qjPyqgSfoYhUIh4kbiS/vdKEz//M//XATExz72sVLAnp8TPLgRdayEhKfg0PEfEoGCnYjOGyFa8mLo9uKLgotEooAnKpNAvLC1a9fKTfMcFDxcg8JNu3ioab35zW+WY6hZU1umFkxm8PoJKgxMk1lci+/p7Dqu99u//duiedBK42e8Pm2pkRnU7InOFIh0H9La4vl0MoXeWFrQkUbSo2pWmq62AHXChATVmNjg+/CKrgwdo9HvGCaGBwbwP3d+Gw/ddz+mJibR2dSIH7npJrzkyiuRNC2kkim44xNwTAM+M8UkrsP/S+332cramd+LYzjssTU0PCwbQ7tWCBrUfAn25DHpRn6Q98xKYhyHm1sne1iOg0cfflg2XDqdKmW6ietmw3rs27cfx48fw1XXXIup8XEBuNbWFumTlkwmcN9994t1xONXrliBqWxWzknetLa2Szdj/aoBjqIEkzXGJ8aFB8wI27tnj2idtDpXrlolz9fhQ4dEmDiWiS3btqFYKMjfVL4omAgyVLr4O58rZn5R0JEXK7q7hVcUFrR6qYDwe5QDWqkjjyjcqFTwXEu7umQ9yg8KXcaYtIttLr6drYXDeKa2cJjdaKVTiCwL2WIefiKBBx94EN/8zv8g63oUPLjuB27Ea9/wehljXvTYBduTsQ0JOwHLVFlqWh7p51oLZ+2m0i407YKjIs3PqIjqLFrKMz4nlFX8nc8UrUtmeep1+H1mx/FZJr8oS0hf7bq22TmBUz/KkgO0DHryySfxT//0T/I9usf4HcpTvsjLd7zjHfjZn30/7rnnXvzDP/yDrEsAo7ubPKJiTprz+1zrFa94hdw7+UU5qhV/Kiu8X8p03oe2cCjXKY95X1QwKOtIh8985j/Q27tGwh+87jvvvBNXXnmlhDp0QoQxOjoa6bgLL1iDAxf9hV/4BdFWqPnzxDSdKYypCdGU4/s6M4Hf5UmYaUQXFQlLAU+LgyjLm+QG1SfWWRX8Pi+cfkRaSSQOL57oS4453UkAACAASURBVCLR9/jTP/3Toj2RAFyTm5nEo2DSVhYJSLOeLoKPfvSjQtAnnngC//mf/ylCi+4BCi4+RAQTCkrtumMsiK4/BsO4JmNGND/pYtMPiN5U/FxvLp3wMPuB0RaOzuDwwxBF15fiylQiifpMGv0n+/AXt9+ORx59WDR+DrVKmQba0mm85fW34bWvfCWMgivxniifLwGO1FSw5kJgqwqv2MJhPQYtEvKCgEGakc78m+5G8kQJI+UaJR3IK7oxqYDoLDMmHDAI29nZIUKIPCTN165fD7dQEL5SKaC7jIoB9ww3Pvmh42rUuElDPrAEPfJ19ep1qs2K7qM1TyB6PspcTBZOwS2KYsBEj+aWFnk2yBfxOFgWdu/aJSDT1KiykfjiMdr9Rl5SqNC6zOZyIjSocfO5JbjwOSfduT/It3JvhihWHGNQLApfKbDIV13+kK6rk+zKagIOnwGpOyoDHCOVgo8IpIWVTuJfP/sZfOPuu5GnKzsypCefnUrj8quuwod+6RfR0tKMXJauQg+pREbciNp60T/LlUwB9yAouel1yYbW5DVdNcBoTwmtAsaXdbiCx2uPEZ0VtHB0WIAyh3Ef8kJ7BnSphgYq7YYjoPHZoayjB+CHfuiHRPB/9KO/gltu+UER8rRsKPfIRyrVr3vd6yT8wbWp9BNAtPtVu/u4BvnM/cEwBM/L556xHT6H9DjQG8E1aAkRwLh/eL+U8YwNUl7reNaqVd14z3veXSpNMaampiKeRKc/c8E/+qM/wurVq8UXR4GuBSoZ8f3vf1+sDwLOa17zGllYpyuTCAQOaj+8EVpJFBp8nwElHcvRDOV5KdSYCUcLhOfkubgeBRxjR0Ro+kIZ8OLxDP5TAJLIOhipifXNb35TiEWzjwSgcKMLgASn25AMpWAk0Xl9BFcyja65V73qVaKNkaHvfve7hTnM1tBxIA0iWpDxuxpQygGnPIajrR2a0QxmeoUi0qkUUgkH//Hv/y6uxanCFIrUYhK2zDCpsyw02kn89oc/is09vbBdD4bvPS+AozPy9IOm0yYbGYBmWmw+X2qYKBZeHCdgxpLW/MTVmk7B99ySdqYzBnWyBtfn2pL2zLqDXK6UNaUTPUh3ndmosgkzNcCZA0W53xiPKK9VY52XNOKMY5UEkbaWFuFJeZmCADxdT6x1issWmHXGyaBktN4POs2Xpy+5Rhg7ilNiyV/VCFQJU2rb5JkObBPczzfgSM+/hA3PAPYeOYTf/sM/wFgUosDxDIYlMVTTTkgx6wc+8H687rWvwfDQgMQeOCLQ5gymOP6hrRpVEkYrSv3U+1G72UkP/k6akH4nThzHsWPHS6BOzwBlEDV90oU8YoYtlSgq4pSt2hNCecXYDBUFKlyMBWkPDM+t6c5z0pNDK4Tvve9978db3/oWiX2TX0wiuPXWV+Otb/3xUtbb5z//efzHf/yHyLPbbnujWLCUt/Q+vfrVry4F+PX2YsYvFRgaDuQhlYz/+7//E7DhvVAWE2j4k9aVrhn6mZ/5GZHLvA/iAr1jdMnS4uI+Jf2MsbGxiDfEh59A8bd/+7eCaDxYgr90ucS54TTfeAytBp6EASTePDVdohxT6ij0me3FNOS/+Iu/EPcMCUhC0EWl19LJArwZuryIpkR3XQPD877tbW+Tm+VF0+Lid3gc19P+UhKZ56fVRWC77LLL8Fu/9VtyPVyDBKGl82u/9msCeLSyNBCQmPw+EZkASpcatQsC3Gtf+1qJTek4EB86nSjB8/F79913X6nWRzNrLsBhDQ5NdpeFk4zfpFO4445v4pmdO2CnHEmV5oz4xro6+FNZNNoJvOWHX4M3/fCr0eQk+ZSLJsYYzvmycFgAyXRnPl3lbkSdu0+hpAsi+ZBpeuiNRJrypTafj0JBCRzSST/AXFe/l2BmZBjCjIPRYi2y7st1ka6vRyGbFf5J7KjoSsFpzaV2KuKQRizupN1LV2d58S2ti8nxceEJrU7uPc0P8oI81KBA/pGvXM9OZaRzt84qTTJBIJeTvS7eEOk4EUn6vBSXxsDDNcqLsPl9FmTyG9UEnCC2cLhuyaVG0mRSkoH2F5/+JO76v3vR77lINTUL4BgmlctA9tfGSzbgDT/6oyjkczKywTKZMKAUHB0H0b+Xu9RIMwp6avikk05jFprZtsSV//u//1tkCK0BemMomAWQAZFllGNvectbJD5MUOYaVIJ1/Ih/M4X5C1/4gshCWoyMmWn3HHnAmAjDEQwt0Cigwky5p5Vtusje8573yDUyLEEj4JFHHhFPBOUnrVbGbijP+eL5ec3cP+QlPROUxX/0R38s8RuuQzowpk+ZT0OC59OWDfcU7+Xtb38H3vGOt8v1cQ16p3guyn3tKhQLR7syaGaRaDSneAAvojw9lr/TrUWhTcuEMZQPfOADsqFJHAIOUVMHqXhT/JsWBoX6D//wD5cATMdX6HMk4DCrjD5kXjyBhVlztKRIALrJ+CIo0OLhTbzsZS+bUSPDz5n4QDcBicrr4Uu708gUrsf37777bgFOjcxEbRKQWgfv8Z577pFNRQAi8BB4y4UwH0x+n4kHBDnNEG0ZlIOPBBcBJOizNS3kqW22tuKp7dtR9FxkiwVpA0/hm+KAq1wODXYCN155NX7xp38G9Rzhy4QD1imVNbTUJvZ8rqNKPmd9hhYIcp9sSx/HB2R2SlwEqTVA3/Olw4C8H3d3li+wuSMrllmdHwWwHfqv1TRQZuixewCPkXPEabPstSbeMQE8CgZDXDTaglSdgfmx8mlra/Lij+HE/eXK5nnOzUs1RkDGBpTFE5l9RVBIMlPTD5QVEws+8oK/61A0jyXdVTDbgscuAnruUKxd83hxC5UViHNddmeQfSAjD9hZRBUCciAfFQURWLJ/4rY6s25i+pqnR2Wfcc+qHkeinFgG+25Isx6Ejg2P+lLSxh/f/md4ZPuTGPA9mBlm63HvJaR1E6+5tbkFq3uYSZeDI12m1bDAUpxGmTRKUZo18I+CntaE9qpooBBLMy4QpzylW54upuuvv15uh0BCRZ1urI985CMihyjAaXn85m/+BhobmyQ9mrEzggSBm8cy+YAKMIFLg592t1HxZtkIjQMCBL9HeUwrg9YGQYCxOoZBKNfoKqcso4X38Y9/QkDsNa+5Vc6p750/6cWiK44yUyeMkKe0eug9oiFB4KUHiqCnFAsTtKSYlECXK7GDVhqxhDTgNfF3SYsm0fiAs3aGwXT60+l35AWROAQfvk/E5sl4ETz23//938WPp1MfNeJT8yd40TWns9S4DutyuJZsmdgHz3VpefDm6PvVcRECFJGa9TbUCGgx0c1F1xiRlVaPLmCiiUrgor+U10y/pq6j4U++T2Qmw0lQ5sQT3bkOCal/J+hILUOhINdBYNXxHl2YSibyHLqTwVwgU27liCbpuwiksNVQSO+6+LM/+zPceed3kKDLMg72Le3sxHBfH3q6uvCmV/8IXnPzzbBdH04YSacB9VJdgKuVM6DWjESjLc8VUqmlnHkz3UlY3+uM7jF88AkUZZck7XjM4JROwrML3yS7iPqvbhCpUavMlJFIFadKSgRMJUrMjplVAqqzj7nQYzhCe87YiZlSniIys3sPAXn6UwK0xDZY81B+0+WbprRACXLKcsemBX95Q0/hvWpWULom+XasBJ3CA6UdxHtItZguv+6SMI+VCHULlYGOblDK+1Qtehh8thClkxgeH8W9D92PT/3zPyDr2BjN59Ha2oF8kR4CUyaXvubWW/Hud71L9ZxjDVpARWlmDEfHtcsFMUFbyxXt+dHxl/JnnoDz9re/XcDg5S8n4Kg4CDV+urDoAdI1bbQ+mD3GrFgNTDx3sVjA3Xf/r8i9P/mTPxHhzXPwWMoUfp+AxYwxyhJ6eCi3aPEwHk23FpVtgg0tF1pXjPNQKScAUKHnvTE8we9pK5Xr6uLh22//M0xN5QUIKScpq1mzSAwgRnz2s5+VZDDtQiVA8jhd+Mr1ufbKlSvwlre8VYEmAUe3m9EarDaHGOdgOjGFOYv6ePGsZZG0y9FR8elp60N/lxf+ve99T8CIFg4tIh5H9xhvTltT2h/K45n5whob7Z67//778cUvflHOzcQFghotDrpXmBVBC4o3QyuD7jJqHLxWrkWkZ2ZEuSuQyMy1CJg651wLLQIjr5f3yGP0d/WG05ZNyQcZp0Byc5TnvJfHeLTbUGs9UkMT6kFcBjra2/HgAw8IAJ84fiJujGjAzeXQnMng0o0b8Bsf+QgS9IdTi5NeaucXcHTH5vK0VXGxxK01S4JeCut080ZVCyEWnpY4em7NaXq9iZCKlQ3+kEk4cf80EZLUlGMX0bQQU7UWL6Y6HBHVsYQ+HdgokFc90aKQYxtUcF4NKJulk2jAOaXXnE79U+CjDAi1sh4RoZmru0yfAi5loMO9L24pmcpH/rIN06lpzyVBTpkfN2uNe4xXpD/opAENq5FtqblNCRuThSx+70/+BI/t240okRQL2WejUsNGU2uLuJiuvfZaHD96VK7TTjCjUllw+rkuB5rS77GyQ9mgvSP6frU80XLnttveJJYL4zg8nnKTAEEZwzCDcmmG+NKX/kvcXbr4UvVG88VqoNeHyVJvf/vb8NWvfk08M6yLYZyH36e3h/KPLi7KcMptWlZUzBmvZsH+v/3bvwlIUMlmUhSV6qamRjz22OPieaLMpDyltfLjP/7jItv53FPe0pDgvROEqIDz+mk48Hy68FMr4DRQCIz8HpOtXvWq/ycTenU7tFKSBetwSGgCgQ7+0zSjGccL50VS0NOyoMCmW4oE1P4+nUqodwkvjujJrAgCDk04BpBo4jEIpdMrtY+UYEMrhtWtTBogWtIlxuw4Cn8CDhMO6N6imUdG6I1BYtOaIqHon+R1akuEwKM3CgN1jOtQEyDq0zrRrSSYhEBE5nkJZrSOeG86XqNTxbmx9O9a09egyb81yGjBrP+WjcVGgYWcuAAYlGWQnZ0D7vjmN3HnHd/Cgb37pZYlyRz6jk6888ffig3d3dKEMRwfF987XRlxxF7/qOjBrOQgVd8TC5wy2VACkti1IPEdPr2xVlouWLRQ1NqndCaeJWdKTiKFOqpHtMNhbPGYYp6HgEOBGV+4bpPPyaEvJsCR4QJxrKKch+UWj/YuSUvX2KIh8EhHilOM4Nk2aLl1UwbtKve+9IY0DY9fs2a1zW1lz+I5eRswB2FWFr+2cMQQ0uMp5rjqufavrMWx5mUWDrsJePkc7HRS4jj7jxzCP3zus3h6927YiTRyXoB1Gzfi9be9CS+9/np5JvlsMr1fgY0q/Cx/tsvjN3xfxqjHTWt1EkFJESuzvCmEGSinTKOAp2XAxCi6lZiYRGCgK54uMco/tsNhobzULMWNYynrWPT+p3/6CenCQXlC+cksMIIJ8fzXfu3XJQGB36VcZThBx58pu6m08x5pFdG6YiyF18NEBt6rzhimfKTCT9lOOahjtDxGJ3Lp1lW8JoIjFXdiBsMg/Mlro0eIYMj2NywOFRda3MBZJ7XIeAKdDUHi8QNaGDTVaDoxXsITE0Tob6S/kD5EDTR0V1FA01zSGRvMDGPyAb/PkzKdmoBDwpAZOq2YazBtlkWbvAmCBAGDATd+j/5BpizTTKT1w4CbDrTxXERoXjtvni8NAPybmoDuF0UNgtoCmUUmsxiJbjpaNtQSCEY0SXl9DOYx+06nfOtWPrLhYj+2JqJ+GMqtG/17OeCwpU3eUwWP9ax6dhzUpVOYHB1Hdmwcu557Dn3HT6J3+XJsXt2LYi6LzvY2BLms8rtLhgv7AUw/tXFD3ErwZN5j1ACuacAR0UT3CYUY3SIUYrFhEvKBYPGaZN4pDVuSDRSGKJERt7+fJWNKTf5KdGPAOXa9SUwnnofDOILMaBHXnOq7YHHMQSy1XgwuNdURfFp6z3BHlSwRRUlD+KPGSquu2nRzzkybJ+3K94/SBk4FHeFfPI1NwL7MehE7s+xr5I2cv9yaorIgCSQGDNuUuhjGdcrX0UJdtow0udbXUZmvWI9jiGeRiptPkk0aG6ThLWwT2UIeo/kp7D54GGPZHNqXrcC6LVvgZOrRyJTofA5TU5Ny/ZLYYDkzWvDwuZ+dtUalT2fs6drD2W5irsf36DZjmIBKM3/Sy0JhrGt1KJtoTVDZpUyi64nWg7Z+6K6iHKXSToFOGUqvEeUlZRk9TLSWaNFQnlH2EcgoZ2lhMNbE7/BFhZ/ymEDF9Ql+fE8niVDe8pliqIAGAmUXww0EG8bNKZd5DbweAgllPf+mMUJX4P9n702Y3Liyc8EvVyyFWlkLWSQlStQutbrV7m67bc9r2z0xE/Mn5v2C5x/4PGFPRI/t6H6WWmqtFEVKorgXa8WO3Ca+c+5NJFBAAcUCi1qQUkUVgcRF3nszz3eW75xDY4SARvlMuUnFnkSHf/7n/yFgbskFosAy8dMyV7hQRD8iHQU+tX2LdkwQIoCQj22TPvk5LgjjNGRFWIYZTTnGZTgxWh5cJL5PK8WOl7Of4lg2w1LoLCWak+aCMfbCjeDGWBOQ10miAc1AIjxBkovMGBAPWjqM8XAhCGYEKZqNJDkwKYm/ORavURfmnyXgRkYI3YZ0/9EPyoOIn7sJTGFSy0opSvKiST0cw2Hmc5TozVqrLkhPeZ/0YVIx4wTdRgtHu7sopRnKZPoEvkQsEmpsgY+s15MS8doUTdsTjO65ORFbRp4wADhWgBhKKP0RLEnPsvYMDjc7BE5eC51hxh1mrBmlu7MVsVpMtOh4sF0zc2iMWDQBZo3FuCH70bsS3A5DLVioQOMic7U52E8ZcCxoy/3FauHUTKNYtG3eT7SUu2RbRbEwrnTtVTvg/ljLRxUgHU0VTDINGUyn1t7PqBUyhnSCMJamAR07nrrVTG8keqmkv474zpjKpe40yfInkcCVlgeMmzCRUcgfgimWXcaPFWOH0wMO5yExHI5Fsoqp6u6HgebiBD5isilJqPADLF3alsYfaVBCxNwhVhpo1LUKvh9KOw1r4XA6XJ+iW80+OOquVOYu19aCkk0L4G/KHYIC2VpUbGnhUAZRblKuUsbRw2LjQfTUMEWCAXm+T+uH8R/KSLquKAf5Q0Cw4QmGExjXoZCn/KXnhyBAwGHcmfKLoMbXbT4jwYEJm1TkLQiQVEC3G8Hl7t3vQFcgZS3nx/Wg1UJri14oAhM9RHQTUoYSTAlc9EhR9lJWc22Yi0k5ymugVWXlJddaEj8tVZVxGvoauWhW6+eic4HouiKK8X1b/4pxD1oFjKEQUa0FQF8jgckiHYU7L4YTK3LZuYkU8jTnLF2PC8QffgdNRJpwTGLiBC3zjEhLa4uWDBeRZAAuBkGNLAl+novN2lwESr5GU5bz4us8l9/JxWN8SDPjtQYcad0cmzRuIri96WSxhsyKUZp2EWw4PzHbTSkN/k2XGpM52TLZ540dx8iiBPWdXVQzoJSwKrQyjqTNYpaKZRRHjAHxidZ60doEejZHEXDEJ24AhBrd4f6BzIF7yxyisKy9VqhB84fXJkLHJmQSjJBqbxm3L1j4fnENrWsic1MpMdJutmR/VlbWhEjBUiXSAMywoHzpHqqr8lOycGyMwubVUGrzb1vcttdpi0VBxYv7o1aOqblnQEcYa6wZFmopKhGyodLXWT5FmhJx/0hvZv6OtAHh3ac5PlQ0LEuNigd74UgLB1cFvuTZGPeWtDGIeqIskIW5z1pbqYMLaxdQXVgQMJD8ExvHGyAdTAc41j0n32kBx+QCFW025uQI4AQhquvriOjK9gJRZqgAkknFiYamrE3RpabKU//+FatsxOPGcyTB1tQfZMCdIMCgOuUMhTNlmLWYLPvSfsbmK/Fa1tcvoNlsiWuflgTlEmPgdIPRO8N/kzLN7yDYkEFLEgLXk7KR7jnKLVo+zDW07DHKX8ZXCIC/+93vRAYScPg9lNO0eugRIkiQBMDrpXHA54yVQP71X/9NQNSGOSibbVsKfoZkAX7esow5N5ITaKXREKActS48oUWTwUAwIJIx6MMEIbrS+IU2Y5aDEhS4kDS7CBy0GlgEjmDCC7SoSFcVg/EEI/LJOT4tJyKi3UTLMOPE6ZYjQnJCjMdwMjyPpibNUTLWyKxgBVWCCBGUm0A/Ja+TKEtrh75QmntktxEEaWLa3ATrAuQYnCv/ze/iddOctUmkvAF4zdxY+j6J0NaFOCzopgUcKdwpPuME1WpZBIPDnhn0Q7MHRhSjsfNEAYfApnqooX8q4AhVVZ60ZwA4yiVSE9s2rUszeSBtMU4+2CIoSDWlm8QAsAgoCzgmX8ulquuaGA2rA1A4MQbFv3M7R5osICJ92vPBnkHNehMHewe4sL6O2soqMo9WjisaqSetqn9agNN3eanFQiuRFQNoDfK5kaoXvofl5UXzvrLTJGBv3aD8qJSWcQE/QNTtCCD5oS/090yovNpSWrR3ASeVri7ja1LSjx1fNfGR9ypdeA7dnj7PZ8sMbQyr94QLtxRKXI6fo6VU3znA/t4+Lm5fklpu7JfDe0KUh6cAnDyOZRQasXBGAA7bEySsDs2K4xubAjhswMaqA/QYNOpHsk70KFimrgCLqUk2DeBYYKKQpbxizJkJkawTSXlKWUKZQplJQc1nqG9JsUq7BuSp7FL+0SqgpcKxyGjd2tqA6/ryPj9Ly4aeIz6btKIog+jtoYuNYEFwoTJN9521LDgWvVNMS/mnf/pHfPTRXyREQrlLpf2///f/GxcvXpIxGPynQs/Pcx4EOhtvt94jjkuvFOUorTFaVTQI7DVaNyOtNuYlUR7T0qML0dnd3c1optFkoiVA9oYt0GkDPRyAi8DYDoU6v5D/5gAEEdvXhufxs+Rxk5PNxSf42InbatFcZFsVlZ/h69xcggMR2wp/mpF0tTEBk8DAeAsXnEBAwOEGFoN4tJZo7RBpaVZaqh8XTCqVOo5kytLqIVjRjORr/D4+vJaZxr+Zi8NgGsGOn7VEhVFutOHXijEdrmEcsxEdtcUY5WoFlXJIRy9YbtCL1MJp7OwYC4d9hRRsaMXY+SWRukSU9DpbC6fYQdFqwyzmeVQ/Eu2HFQUkWZaasQepDhC1OyZO0O82acwPZGmMFJG4A2klFUkpOUNNmsw5iCVQ68DLmO/toX5Qx54Ipyso1RYQiX/DFVfRTxFwxO1oSBt0ZfJvPnt8Dq5eYYV2j6LdCDECDf1hhl9iPitWqOMJ4DA+KMoXEzjF/amWO+uKcb/ks+xCy9gGu7lmqVgqZVq2BBACTImWVCoxJsmxoRuPMT1aPtIBNoET+mrlsDGZW0a71RZrp7a0KO0LGLS3/AT7W/d3lB3Rf8IsNVtesfkyVMOEfFI4aN04GRLfRRyUUNnYQBSE6FG5Edd4iubR2QHHWvb8ZloY9AJRSbZ1yPgaBTuBgB4hWh3WHWerPkjeUqkkMo6WCfeHP9YNJ2WH2Hk3TUUmsUcY4zZ0t3FM5urwXMZPaE1QHtsabJZ+TdlJ0gJDCgQCWjcEFMp7jk2wsN4nXjP75BBMmUtEOWtjV5adRxlP2U7jhMYC71OpPmJqwnEsSyBjziblrRT8JWmAk+OF8wuItrY+mTUX7eQl6OM4MjnL0iDAUKjajGUKa5utykXne5wMwcReLF8rWgc2bmObFtmJ8xyapbYJlN0sqTpqXDjyYBhmB8+3vkxel22fYIHOgpsFS1sugv+218ZxOV+b9MoYFBfO1jR6GsBJYrZjJt8/khbTlUooDy8fEZ8uil4fcMKEGqfmLejTz1pVKQg4VAdd0SdnDzhMf2OraD7vjAc8fPQQK2urWF5ZEfcDNcgsjuBEbCMNcbWxhE21XBH3iOv5QuumX5yAGLUb6PW05fTS8rLEgWhJ2nuMWep03cTVqrjRPE45cZC02XNnF14Q4gKDrBybwkTYVz8tC8fGVmgLSAzMuDIl2a7TFaHmBS5cH1J2iC5o5njRYiT7ivfx5vqGunPYkyaDnMPCqrwP4x6tVY6b4uBgX84rByGaTw6lD1FtZVmtFWFzdSSO12m2xS0sVQZKgXxPt96Q/VuoVCUWKp+jUkUrhs9qj89lhMP6kVQXZ1xHrKuChSPe4ikBx7O5SZQBknBaAJwCXpGOHfueAE11YxM9P8gBh88UC+bSWgsDbZP8NC41fs66rmyw3Sqo1oXMcfke5YgFAivjLAHJgo6VVbZigy0vZNm9lKOUibZYJ12jdMNxc+lBsQWQbWFhq3Sz8keppGXK7LXwHDtvW6HCyjeew73c2toUecBxLIGKz7CVkTQcOCbf41y4Fjz4flEe0zXH65QW07bQnj2JX2YFuTUxJUBpfJUcvEgX5vl8jxfPhbEUazsuL9AudNFk5ees0LcBOLvA9rtswL74236/NXnFP22sFG6EBTMLmBZtLanB/tsCK+ddLPlhCQ38bVsy2DIfTwc42mKaLoZKtYpSmbkBCXPn4dNF0YvRfLwD9ioNJCZCF4eEziWew4cjjvi3Wjiqv04XwzlZX7SzyVMqxTXDDHFqZNdeuiZAI7RlAlGnjYMHd5H2Ity/excrTICtlLFxcRPVlWU8vHMHCTs/pgkCJ5WS9XyfbYYPDw6lWkKn1RaXHEHMYTvxhWVce/lVNiiR2EAQlNFtdfBkbw9b25elvwndakzas9rvTyGGo0mJ2j46f2ZoiUSxdmLd2lLKKc8JmUCboHV0hP3dHQQ+g9meuN+2trbhsdeLxGX42R2UKzVUa4tIop645BqHe7h75xusLS9iaaGG3Ud7CEtlLK4uo7a6Ivv95MEjKTy7S0uc7b+XFlFdWUXj4AA79+/BjWNssSDowQG6WYbli5ewemkbrs9KA2otHR4c4ODoCJevXjVJoUWXWk6sLz5ix/5WFp1hQxoKvbj/DKVZYlEmPpR6QMJ7jX26CDhhgJ7D2BMrJiRoHtXhMjguLjW1Kp7GpVYkwkFDIAAAIABJREFUDNh4p3UrWZebeAgKcrXoBbFxHRvntO5/K495TZb1apV+K/uslWTnbN1fVskXC9mUorJsZF6jjSlZQLIAx5gegYvn8LDeKf5tZbKV9ZSJlKn8t4312+uxcyl+t3iQaOEM72rRd2knaBfI/i5SBosCoBhYP41gsEhv/ad2c+yk7bjF8U+6M0d9t7WEiqyzoqU06jP2+6adS3GdeH3qUmOv8hhJxBhODawjxvpXfF58Zi93e2g9UpdaIOVi+EQp4FgLhzcBOcKuo6VjFJBOPixFedJ5Al9OJvW2kl6EdqMpD+Ply9smoAwkWYw2LVUqHvUGHt69i63NTXj0sZU8eItVHD16KKw7J4rQODoAGUONXhdr6xfguy527z9E1Onh0vYl7NWPsLi+jv04xJUXXxbfPxt6kW3Em3Zn54n0cyHgOX4g2fQKOj8N0oDM1jbcM0mdIpLTTGKi9L3TXUlqcuxkCBkz6zbx6N63uHxxU9bp69tf48q1lxHWluVeypIebt3+Bq12jHJlCYsLNWysrwJxGw9u38BC6CDu9XDUSbG2sYHyQlVUm6Pdfezdf4j1pRU0Wk1UFmsI2D9qdUPumTtffIK408D66ir2Gw1U1jYRrKzjwgsvIXZY15xaNSui03J+ZHqtlPIQlTwz3NtxVQvG3MBWTgld2/OUMZbTsk1vHM9VwCGTi/1laCmaGGRLLJxEQLHYgM0q26eJ4QwrosPyoggwxXPHyTMrX+25o84bJZPGyani91sZO42stsA5CiMsONv1Kp5TBNiB+U4DOJavPfyw2w2xkymCQq5lGFSfJPRmDTijNsiCS9ECGgUoRbB71oDjRRH87wHgSIJfmsB3Pew+3hHRfuHCmqqSrG+WxqgfHSLa3UXSaqN5eCSJqYsrNXSyCBuXNgSkWJrHp0/a5GG0oi42L11Er9VB+/BI4gNLayvYPzqUAO7qC6+jtLAIP2DNr1hcc9yfe/cfYJXMJvZWp0b6EyttUwQcuV9NQic12O++vSNdNek+o0spY1wNCZJ2A3e/uYWlBa3W3en00E0yXHnpOhZILOi08GTvAI5Xhh9UJPekXPIRtQ5x9+sbWKmVBISeHDTpE8Hq5gbKbEWxf4io3kLo+jisH2Jz+xJ2D4+wsrYBL02w9+geFkIFloNGA2mpiuVLV1G7ck2s8yyJhL5NS+u7u3exIazQah5r0hI47rHk0Glkhn0+bYmZ8wacYVAapxBNq7DaOQ8DzqS1sO8/DeCcdG2TrnuUITCsdD8V4IxayHEIOclqGGdJFC2P01g401o9xesqovPw3IrXN2nBh2+E01o43xfAkcox9NOSfbizI8FgST41hRkdzwEpuNHREXbu3sNCqYRyKUQvjXBhe1N88u1GA+16HfUnu1gMQnmtFfWwvLosrRmSdk8sKLoUK6sr+ObuXbzyy9+CzkVx3RHwArpke6IJr11YR7VCwKHD6KdVS20U4Ih7hCWdvrsrgENBzXwXFkpF3EOneYgs6iCLuiBTkFr7vUc7uPbKq7LmWa+DnZ091JZWUV1cQ0amWa+Dw72HeHTva1y5uI6FpSXc+PwWVjfWsba5gYAdWG9/g+5hAyu1RbEk2nGPtDABnCcP7qO+twPfSVEKPCxdWMeX39zBO7/+LbzFVWQsPpsqvZ9WOruJXnnhKgJWQTdhudzCmVaqmvOKwv77BDijpjHOwhk35acFnJO+u6hoD4/P96aVo8Vxhq01+95Yi24aC2eUWTd8gePMu2lNwfOwcEZd8zAITTOvk56LHyzgOCrMyHJiReudxzt44eplpUDT/Sf5pimePHyAXp2VENiBM8FXt25i64XLWLmwIqyfr2/ewvUrL0jTuHq7iRIT/6oVtOoN1PcOhM3EuE5QreDxwSGuvPY2lldoSTkS52Jr4HqjiaOjOra2Lkouj1yDRLx+OqQBYSJaIWAKYdoeNbs7T7C5talVKBjXyRj3S/Do3ncIxVIlKSeROMy9B49w/ZVXUS6HSKMe9p7so1StoVJbgROUpPVN3Gvh3u0bqFVDIX1EPbYoqMCvlqTu3+HuPpbLVTAd+c53d+CVQly6ehVeWJV74M6Nz9BpHGGblmycYLfexPbLr2JhdZ3RfCGb0H3caLaFenv5yhVhzVlKtAWc6eKN/afv+wI40+LkaZTXUYAwjStuWgtn2DIbBzjj5PowJgwbH+OuY2wMZ9pFLJ43TqCPsgJG+QSthXMSCJwGwEZ97zgULy7QNL7NceszC8ARsoBDejQLMpKOrNrhs4zh0KlBfzwr4nIO3925g4tbm6gxWznqicCgy+vWzRsoU9CZbHfWQgsXylhaW5YA4tHjJ/BYnaDeQFApA4ESBJYXaqhUa9i9ew/1ZhOJC1x95Tru3n2MF1+6LmCnFVocATtaNRub2rWSIPRTqxbNON5wORvec91OF0em5fPy0pKAMdslk63kZrGUk0l7XTx5eB8Hh4dCuti6eAkHu7voMtGRlqIXoBuRxJLiypVtoVbvPL6Pq1cvimXrOSG+/u4OFpaXJPOd7tOjnV1xh1ZrC9i4dBFubRFpJ8LOg/voNI+wsrSIVqshbrNybQkHjQ42Ll9FQBZjryuqwv7BoewrmZ8ZadqmrI0EkZmjdbzG54li6PsKOGOF7RSJ46OU+9PI4nHeo6LFMcoNeJI8Gye/i3JyWK6OA7CRgHOaCc7PHVyBswBOhaQBYakVSAMMuD5jwOEMVKNSJg1vHlIiD/b3cOnSRZQXFhA1G0KV7XbbwpMLGKMhELCXT9yDF/pa4iRKcsGReIwvsOqwyR7qRmLhSJaR70rhzriToBRWtAoBs7XbHRwwPrC6goXaoilZb0IYPyELZ6B8kan8YN3MUbcnxAFmni8uLYlSQheakyWIeh2kSSzJjAR60p4JSlx3aQOhtT0ZUVeuI0u0eEC7VUd1kd0vSU9mfyZWHAjk5o7bXalYTmo2adJsBSDKUOohbrfB4V0mgcaR5mssLCJlxijdaeRcpgmODg5wVG9g8+JFlMoVATspW5QTBRRwTmPlfB8AZy7/TrcCc8A53XpNPPuHCjhafisxOTWu9KgnSYAdI7e3tlApl5Qq6TFJUyv1SsMtCgyPbh06vfQ9JrJSKLFKcFoAHJ+0buO3l+Kc/Gw3FaICwYZutIODQ6yaZFPWt8pLoBR6pZzGNTHWR25Ljpn6XxZ0CaJSGcEAr5R3YQMtz8PC9jYixq2ERJGCHK5s9xDp3gHK7F0zRFW3qQQD1vPUWrzWy5PPakllWXGbEkC6/sHeviTmSskn0qNZv06qPPCftAxJEU4lyZL5Ji71GOk9xPpp/ZpgpAVTaXDcDH4pRNJSMgL3TijHKffb1aRSaukBi6sSxGxdNU1W1us1SaesP+Gxi6uDRv1QKPKrqxdQYv4PS/PQ8hF2pN2hOeBMFC4/ghPmgDPjTfyhAg5bIGixGcojFbjMPicRgLkXW+sXJIeIgohAIEVEuxHiqAu/xgwiZqgnmnUu7pJMgIiuMwopqbcl1QJ0wVmLgGKKdaxajSbq9YYkhpFCXTPBaenJwkQ1U0j0pxTDKeZZiSZvS9S4riRbci92Hj/G0cGh5L7RTVXjPjDjO+7B9Vi405FkY2IQ696RsKFFVE2XVebH2B4woS8sRaEmt00ttCxGwlpjjicWLQsTEYCl2bnjoOSVRVFgfo9UF7DgLbEnD51WVxLKozjC0tIiFpeWNdmXNdvoQrUdbGVyrtwjcwtnxgLpezbcHHBmvCE/VMBhqR3xqZtOn1LRlxWrGdORvJpDSeiVgo0JtWWtEMzz6TojeEhGfJKBloy086VSbFsOEHcisuB8IQL00hTdNMJiTStVMD9JqlGUWEWCgNVPBNQW1IUeOXk5+6ffvO97x88BwDH1vVgTzSYDMtbGZM5uq41ep4Nmq6XNDQ3QsIwSx0iSSPZREqulWoFpJyA8eBa/VOWC4ET3m9wHSSZlYdhXhmhF68ZhUi7LwjABmK5XukmZWSkQQUVFGwxKol8cocQKzB4rgIeoLtUQmMZiUn3A9SSZdw44T3///lA/OQecGe/cSMBJYvGrM/FzwSZ+isuGxTs18bPNxM8UktdwUgxHhPGMEz9lCcSXTyGgpS+UuMEAsqf1tkzJdmq4IqzFHyJiRkqYsOcP3T0+BViXrXjV/0/AEXcVQUMoUVosUrNePcTUwJl7Y9w1ktQqgEUtmRV7bdfRfpmtiS61KdxWPxzAUTeVFO+UEk4U/Frpg+vNkjZkq6l6YP8zsThx82mDM/28NhDTuXtKgzU9I0gIkUx7iRex0V6ie8fYUJoJXZ7fIY3LWDrAccEK3uxaKZaNeNwIiJ7WW+N3MR5J6jXhiJVIQpY/0fiQuOx4Y5i+R9rmYG7hzFgcfe+GmwPOjLdkHOCwFDxjG9TkJWhqKw0QcDo9dB7tgKQBXywNU2XA1FST0jasucaKyba0zQwrDZxmCSYKe4MLLMY58RBho6SC4nGM8TLg6z+50oCM9GMBnKE91nbSg6t6GiE9jgXWT95TBCCoSH08ifcYYoHpKGpLxxCUXOnANnhBI2m04j7rn1dsIVC8Tabau0LjuDlpYOIT9r07YQ44M96SaQGHpW1yC+dHBjhcUtWHh4TjMC3UVIyepNdq6Z3+WCeB3lRCy1hcov1/b0kDlqk4AMV9T6N5eRaAI23UCusrLEJhvpkGeqbVgY3RyD1Oa3zELg/vjZagHVQqBvqMDnUUnawsFNqhF/rVPK/EzxmLjx/9cHPAmfEW/9gB5yzLNToHStluJx15V2Nz2kQr60dh4eSzPtH6m7x65uNTuKvs/kgXTuPCswnZx3LspMnbdBaOtLceY+EU66dNpyzMAecsz+Dz/uwccGa8A3PA0QWdxqMmDhwJXk+2hIqesomAM8Wefv9jOKcAnCkAVp1lxw+7lgPJzqZAqn3NxteKn5YYG2Nyk1xqDNfNAWeKO/KnccoccGa8zz92wJmm3pI2T5hOCmrLhckxnAFhdwJLbbpvVRLD99ul9nwAR76V1amFtKEtlm3CaXHvpSmouNxOjuGIBTbU52buUpux0PkBDTcHnBlv1o8dcKZZLhFaU5Sat8LoeLRnmm8Zoa33vUcTB/j+A87EKcgJuobTnTvLs06zx7RwisA0B5xZ7sQPa6w54Mx4v+aAYxpWT0FSU5facQvnLFsy2i44PuIccM6yytPvsUANGR/zGM7ZFvxH8uk54Mx4I+eAows6rdKt1s2U6DTFXs0BZ/QiyX5MuczTWkzT7LG1YuekgSlu3p/AKXPAmfEmzwGnv6CT5JsKrCkBZwqWVV7ufoo9/alZONYFNmlpTuuim7THqn3MWWqT1v2n8v4ccGa8098nwFGX1XQTnEpwTGm52LEmjTlrwLFZ69PM2F6bJNobd4+UfzHFOy0zi+SH6LkU75xmFtPHcJ6FhTNpf/um7mjAsZaw5ELZ6U68X63m0Sc18KPH83AcqWYQPeMW09Pt0vwsuwJzwJnxvfAsACeOEiQsiillgKUTmqlGMJuLn1artUJrkkyYdjy9+uMWzjRMuLPMXLR9aWtsrsAADgtcCuBIQUrWQHCkptisAWeW8zvdWp9l1c7y2clW7ACRoPBVJyb5suyOqb7AUjpSC87srfwWwHEQhSEqm5voBT66LJXEhn5xjNZRXbqRun4g3VFZ2qeofAz3jZkKYM+yTD+Bz84BZ8abPAcco61O4QJ7XoDD72XplhMBx7YnmAPODJ6QZwQ4J1UaIEtyDjgz2LvZDjEHnNmup2rO5odDs8hizMKdQ7XUTlPa5odo4dj+LZOX9/wtnDngTN6V2Z4xB5zZrucPd7Q54Mx47+aAM7dw7C01rgHb3KV2/KF7Kpfa3MKZsfR69sPNAWfGazwHnDngzAFn+KGaWzgzFjM/2OHmgDPjrZs14LALJ9sTsF0M+8RY0gDbARePs9QXU3EwOd//dCVrpk376AujkzT/aec3rfUwKl+H/WWGP39W0gDLwhTvCTaYmPYap7k1v2+kgVH7pD2cJh/jcqiKLmpbascG9F1aOa6rvXzMYa+BHWfnpIHJ636eZ8wBZ8ar/SwAh6Xg05SN0Qg4FDEsnDi7C59WaKlA6Afb7RUMC1Bh85iS9pOusiiMpgWVk8YcJcxHjlvoIGrHK7KUcivlDKSB4r1A4JHGdlMA+6Q1K74/7d6dZszZnzvdzXpS0u6oem7ca1LZ+Zu06DngzH7nZj3iHHBmvKKzBhxJpMlYQJGg0y9QNmzhcBpPqzkLhLHc/IS1GGfh2L4pOQARb9gJcoq1ZRdK2kICCgXm2BQfHXnKNIBjc2+G6d1WeBUHPouFY8cpWjnPwsKZFtyfdk3P+rlpLJxxMRx7T4y2nPrWYvEenFs4Z92xZ/f5OeDMeG2fCeBI/g3lscnDcciESwauXIT7UIOzaac2rUUyLg/nLBaOmmpTQNMJFaInznPEuhTzcOznh4GTr58VcHLhZ5iL7KJJN9DMDk0qmtlwZx5o5Nwmx3BO+t5hl5pd0+J9N9BewazH3KV25t2c+QBzwJnxkj4TwBE3GgUzW/7SIiD6xMeufJTcYaf76Y4p3B40sKYUbtNWOMgTP7Wd5PhaBjTxpgGmUQJv1GtTzuMsgGMtm34LZxsnmxwvkz3jNRawSSyz4maaraV1euwwJxbfmX5Pprtj8qvJB9bsfz30N+1mR+7dMxx5moGO6bgnA/bcwjnDWj/jj84BZ8YL/MwBRyoNsP1w38LJm52ZP8Q7pY19xSM3DDoihIzAlZ4mQ+Xj8yWxgaI83qFjDh+jQIiv5aLHgskxIW9jUmZEl6MXPfm2u6MDJzPNvozrTYXxKMFTEHhDw6sAtOJQ12bScRbAGbkuIjH7JUvlGqzpaN5TSS2NnkVu2+2RtZGGZuaqzeeKhTGL87H3hQn7wR3jNh2wGLimZm1teR+5RwTw+wd3NwUD9bbqBe9Hew5dXUZB0rtQaSmFeToGTOV+Ogn8888UrCTHrM2YzZsDzqS7+vm9PwecGa/98wIcfi9lwoCbAdlk3dKCAeND9hiQ40V3yOiw7jjAyYc70YXURwVqrjngyDXY7xsDOKP2TpqCWVTRIl25ACp0IpXinc8ZcARf8mvQdbbylQLZEdBRY8GG78TWHdoGZtQPH8MxERl9aiKHsU6sG1BK/QwvFq/VM9fL6yTgWCWIkSrug4nPyf4X4o+KqGa2BviH+icNrMsA6MhETqzqNwecGQu1GQ43B5wZLqY8Rs+g0oCquEZjHGHh5KK5IBRsjalx2qN9KG3cYqAldMHikXHsm311fOKqMenRUlctIUA7RA4fRcCx71mJ2rdH8o5udo7jtGLbhdICKa0zK7gLYkqu5BkDzrhFKn5t0bgpvu5mrrRmtoCjlbDVwhGrNT85QzpEkTcYpZ81541zQoklKmukJ9INaKnGw7GT46Bm95OaThEELOC4ovKohaPj92HVWsB9pUJBtW8J5baqXaT8dhi0to5d1zyGM/H5fF4nzAFnxiv/vABHn2bjDjFuCvU+jXaBDbhRqCH7fS3UOnz6zdGM+nkKwImiSCirOaAZwTYScIxAUutsGGzMJxLS9FSCKoCNCuk4gKHJChmB49FqGrEGJ0cB+leZSLVoBz3Pw8L2NqJSiJ7rIElTVHktu4dI9w5QdtXJNPEw25G3UhDrpb9H1rDzCDipKUY5FI+RnRoAnMGG3rlNOkU9Ows4Fmws/djSjIvvHxPsA/dDQTnI4zZKCFG86O+rtdyG3bNJTiCxCpZp0Gfds/lXnKwpzC2ciXfhczthDjgzXvpzARwnRWZiOEXBY7XILEnU0kozU2V6aJJ9hVMAIaOwLKl7JAeZjE4RdYmolWPGEE128tHtdiU3gj9FDfq4lmwCwTnJruAvku80/45jmY+8YqzIYu6FjmtEvqO5GWJRGXdTLqKs0TBg0o2fD51EswQcK3eJJdToCTZ6KZm4ytTVx7+59iMSJkcpEHI/6BwGxL61hCw4j0NZo6jQKrVEh4CVk40rbfT+8bqtVZPbIuYibAynr0A4cq5xvfHvY5jBFgYeUmPJ013HJGe5+0wcUtduMorOAWfy8/m8zpgDzoxX/nwAhw87RaH6v8VlJFog/6F/UwNP4hgOH1rjMumXW1c3CpNJxWJwgUQStR2wzLvn+XBdH1miuvIw4BQthnG5PwScUZn7xwHHQkWBA2BdYBQukjAZI4mjvnvI1NCybQSs8GIFaLL4NGCNvLeNBOkLcSTaA64Itsl2zswBR/DaETcYl1fdYSJe4dKKi1P9LRR4a1lay7WwegRSAi9/eXRbZXADv28fZhk8zjs3pYhmo292a8UQbAg6/HcYhvL3KKp4H9roSjNoZhBP1p4/GSsspMp6z3pAFiFLY9NdiMBGlqUy2PQOc+B4ZcANkLkB0owKkIcs82SXBIynfFbngDPlQj2H0+aAM+NFPz/AUe1S2D5SisCyhDKkMYVGKu9lscZShhPjeJ3s/cKDgjoWY8bVRlZOAEcSMjVu1KceqNto5oDD2L643Mxm8A/Oh2VhEvYCoo1BV5paV3aNKRT5t9XMxVqTQLYRTWLlOPCDwKCaAo8y+KYTXwnc2Vo4OeBojk/qqk6PKEJAkGl3Ee8dAhT8qboPKZJFs+fftNocB3T1iYVXqQCLNbhhABB4OD8uX8ZxVZwrCo23DJ4ecIr2VP9Bkn1yUtlPx02BpIEsaqMXNZGkHaH0E3CYHMyL9Vwfvl+CH9SQOSG8cAFOWEWSekgzX5SmOeDMWFA9p+HmgDPjhT9XwClaNWmCNIlFMPM3H3qBE1JhLYVYLIakb0oIJVqtIfieuDQINK64U3yAPwUBLlr0CMAZFSPp9XpTWTjGX2KC4UaAWcCJE7FsmOTK75VeWzbAnWWI4hg+ha6NXYkLjdpxYVMJth6tPBcOG3SJtUMBPK2F8ywAxzUWjlKKaYm43QhottH47gF279yDF0UQeyVVV5tYM/zbuAnjNIEXBHDXVlF75RWU11YAn+5RR9x0VCIY/Bf7wQLOmHv96QDHRGdy16Rxn4lFEyuJgD9JB1m8izRuIorbjIbBJQiR0SYgKiYaAB8uqkiyEH5lGW51FRlCAR2+T4t0MHY1/sGdWzgzFmozHG4OODNczKL2bW/6WfTDOcZSE7//kBstVeFMC4SgQ3da0u3AiXqIo0gErVgDjIXQbjFuplK5hKBcUSFNwPF8OB61ZQ/wSwo47JKotsWMAafgJzGxC6vJExjZldG6CIFYNWZxBZq6ZOZva8HR0vHCitgvFLjqQtTIgZxjunlK4qDN65mw/zO3cET4u0jcTICB++WxxlqSIb6/g8effYnW413UsgwVXnmSalxH4nF0RakbLaYV4TnorCyj8rN3sHHtRSDknjngDjM+xD32MpNkegIl+mkAR8NOOT3BrGKmYae0R/8gsqSLbvcITvchkLUAh2CTwPMUcHLgT11kBJZYAccJF+FV1pAFNaROCaCVYyBnGir7HHBmLNRmONwccGa4mOcHOClSuixsUqfEbRIkUQ9IY3i+j6TbxsGTJ7jz1S10ux24nrrVUnG9GfBwXVzauohL21fh+KEASx9wfCAsq0vNVPudpYWj+jAFlAKhUn3VPUigkaTDlNo/r5UA0nerxVFPgPPr27cRRTEWaovY2NxEuVKBHxAkec1059D6oXeKloEDzyegmhjDqID8iHvhmQAOYdsqDZxdHMN1fHRufo3773+ESifGYprC73Y0iG/diWLtOFr3jvNKM+xWSvB/+TNceectoFqSeE7CPSaomhbMCli656OOpwEcO47EiPKqAiwqS+uqA9eNEHWP0Go8woLbANAVwBEKhqNuUm3j7cJzA3huiLQbCuDETglOaQV+ZR1uuIQsKzG6mBMIJj2yc8CZtELP7/054Mx47c/DpZbRHeFQ46dmSM1XXWlOEgGMd/BhTiJ88fGnWFvZxMrqMuBlSLIeXCejq1+EetTq4Ls7d/DmL/4KqRPAZazD8SRoS5cawQd+KFaOWgk5D2xg1Ua51DpRDyHL/RcC84N5FSYXUABH4w1yJAnibjcHHwEhikqfNcgyxJ0mkMT48pO/IOp2sb6xiXqzg8N6C2+89Q4WFhc0tuHQHajgkpEqTdHGifNHhPG0LjVntjEcIQNwQolYqalUHXDhRhk6t7/Fkz/+F9YaLXjtjlgpTScGaiFKi1X0Wh0kR20EnRSVyIUXA0eLIfzf/gzL772LdHERcZIiEEJYjDSgMeXBSz04HIxjDR9DlQVokU9DGsjotnNiAUBeP+v8JakDN2Dl5g6izkMk7QeImo/hZz04PD9lbNF0v6Wb1FDWaXGWwhI8p4RuL9b4jVNFWL2IcOEKgCVkMd29fr8CwwnP7RxwZizUZjjcHHBmuJjnZuEQcFxl+aR0xVBDpistTeCkPThxD1Gnhc8/+QwvXnkZK+sXgJKnrg4p+mmYbK02vvj0c7z21tvwqktwGMeRmI0n8RvXD8TyofDWXIrpAIfndiON4eSFKgsx69wtIp4tBRzLhxsEHGr01PA1SC4B6KiDu7dvorG/i3fefptUNES9BA8e7Qql9sWXrylQOq4wnQR0XDLXFDE5RzGbaLVNUURz5iy1AuDQrZQI8LnwIqBz62vs/sefcKHeRNZuopFGKG8sY/HFS2K9RI0W9m59i2injloawOsB+2UHi7/7FVZ//UvEy8vSM0kAJ+4hDTIkrgc/8RVw5J4Zc9DlmqZyL50WcJikSmdrTPDxM/heB93GN0g79+HFh+h1WjKugj4BSckbBBy2X4+iLljUtBSUlc5RqqKbhAgqF1Eqb8Px14G0JPuoJXbmeTgzFlvnNtwccGa81Odh4QhgUL3NgDiie8JYOHSnIYGbRIg7LXz6l4/xwpUXsbKyjHajjk6zDs/TZMza6goY2P/s8y/w3q//BimtAI/AokwvAo7j+3C9kloCQ2KIAAAgAElEQVQ9at6MTG4ctnBOAzipaLmJxpToUUtSJD1r4SjgyOERXHtA3MWXH3+IhXKIF158QQWQ4+HBwx0cHBzhzV+8BwjgeEglcVIBRw5X4zgMrutrz4EWXQQcupaEQqzWSvvL23jyn3/C2lEdWbeFo7SNpe0N1F59UenHaYbm13dx77NbCCMXATy0ahWs/8PfCOB0a4ti9YaJkkPSIC0ADqdL2O4La/VW9teA7jsCA49JtGgx0hwTXzIEjISuUT+B4zbQPrwFp/cAJaeNbruDOE5QKpUEZMQdmND1yz1KFIwYjyMN2/PhV2po9zy4wQaC0jbCykUAZaVbm2oLeeLRiOd3buHMWKjNcLg54MxwMc/NwqFD3o1FOMfSDTTRHJwkgi9CIEHW6+Czjz7C9sWLqJUreHjvLnYfPRIK7vLqGq6+8or4+//88cd479e/EQHtWgtHtH+y1PhaSVwZBBwNtg+2RbBzLi7j6QBH84jUweUoDbrXMy61PuCohcK4ToR7Nz9H83APr71yXanAaYb79+/DC0q4+NJrAEkPnIPN5aC1IzVhtFGXE6oF9LwAR/gZwhYsAE6UoX1TAefCUQNJ5wiHaRMLG2tYefGyJOam3RiPP7+Jwwe7qCBEGqdoL1Rx6X//b1j5za/QrVTA3jNBxIB8htSnhePCpzsqdZCdYOFYMsa0gCP7TmtEXJ5anojuMvi0kPbRProNL36IkttGr0NQSVFdWEBmACYI2V0ViONIAIdsw6jXkThiqbaMThwgTpdRql5BuXoJcBhPNBXFxxWbNTdhDjguO366iMIQlc1N9AIfXbpYPU9cyq2juuwDLXlffvw8X8v2RhqsTThjYfETHG4OODPe9HOzcNxIGEu0cCTpk8JYgs8xvCRG2uvi848/wvbWFlaWFhHVG3jy8CF6nS4uXb6C0toaUsfFB598ip//8peSVa50aFozGsMhtHgCOMEzBRwCpiQpEnBIhY4GAUd0cFolaQR022gf7uGrG5+iXPKxtrIMJpnef/AAr735NpY2ryi7Tvz9Su0Wl5xp7kZQ9UK6CYcZVqNvhGfhUhMRTaUAieyBWDiM4XxlXGq0cDp11NMGYj9DuFhFqRQi68XYvfsQ6KaohhV0uxHai0vY+sf/DSt/82t0y2V4XgCf9wRSpB4tHAM4vE2848pCcdY28XMaC0dJ0QScvoeLgON4BJAd9JpfI8wewUvqSJNA9qhSrQrZg3R2/k3lgq/zKJXLiLotdOMY1aVVRCij3VtAtfYCSgvbyNJQmJS0iiZR2vuA484BZ8by7azDzQHnrCs49PlzBZwkRRRpZrjnKGUZSVdCFHGzjhuffoztzQ0s12p48O23ePLoEXwvwObFS9i4ehVx5uKLr27j1TffgB8G8ELmsLgCMDG9dkEIx+MPLQa62hhr6Sdfjls6yqBeHOUxHBEAY2I4UuJlCHDSqCfCiJAgLDWphB3BpXbcbWP34X08fngXcdxB6HvodLuyBptbW9h64bq4ZJiP4/llsooFNAk4EsZguR0hRzwfwBEGnTDytLpyDjh0qd24haP/9QGqj3cQxi1kXoRW3EFPSCAxnF6Cshsg6SaIE1YqcFFfrGHrn/4BK3+tFg4rRBBwxMKxgCMxHBoho3ooqYtNGYzTu9TU2nALJdI4TgIGo5LoMdqHXwngBFkTceyg14uwsLiIqEdqdN81RquZTEPG+9K4i24Uobq8hnYcoJssYnH5ZXjBBTjegqH28x5kIu84dyiTZfXOJFlkbuHMWMCdcbg54JxxAYc/ft6AQ1eFuqSOA87NTz/BpfU1rKysCIlg78kTtNptvPjyq3CrC+jV2/jyq9t47Z234ZVL8KhFG8CJkuzcAGfYpUZLjZqwrXMgFQfinrjabn/1JZqNQ1y6tIXNzQvqzckS1I8O8eDRI3SjDC+9/AqWNy8xlV+Ah+5B0fnln77Qxm3d4knbP2sLR2NkCjj8IWgwk54xnM6NWzgk4DzaQTlqwvNixCzrQ/dbFCFtd8EUFhIDepmLngMc1Baw8fvnATgq0MWllrc+p5swAtJ9NPa/hBc9QNlry/W3mk3UlpclRsMcr6TZFhctW4yTrEALm5ZtlMTwK4to9lzAX8fC0jV44TocryZ7RnYc1+uko2/h+HPAmXSDn/P7c8CZ8YKfJ+AwdtGP4bCyAOM4fQvn5icf4/L6Opa2L0p8h2whHkFYEsslanTw9VdfC0stq5bhhEEOOLRwhKX2zC2c46QBWjj0sUsRS8m2T0UY0Uo7ODzA9VdeRrVWhSNutkTdbVkqQu3ON19LPOGV19+EF5SlPleWMtFS6dBkqXkB3W3Px8IpAk5u4aQu/MRBh/GZP/0Z1cePUe424bmRWpWM0UUx4lYHbszadx56rou2A+wtVJ8L4Gj+qhYREgac6aeUORGc7Ajtg1tIW9+hGpIw0ESr1cDC4rKARq/TEXYla/blxV2pVDDviszGoIIjetqCTSytvASXLDV/QZUExhEn9PWZA86MhdoMh5sDzgwXU8z48+qH40byACpLje6n5BjgfPXJJ1itLKC0UBJadOKk4uqScjbtHuJWhMPH+/j5r36DbKkGpxSqf5wuNSZLngPgjKJFJ92uAo6p5EYB09rfxxeff4Y3334bIa2xSkkC0PTpk/1M1pMUjCQ775OPcenSFWxevAJ4JXETZozl+K5YNwSdYsLiSbfAzC0coWuzGGXBpWYB57ObOPjTB1h49BilbgOuw4KXDL4kCOIEabsHN2XpGhdtjz8EnAo2//H8LRzJw/FopTnwTOlrdcfytQbixh1ER98gdOvodvdQbxwiDEsIfHVnJjFrrWlhToJOTLJIN0ZYKsGv1hChAq98EZXFFwBvDfCqhnEoTXvmFs6M5dZ5DTcHnBmv9LkBDgPANGgYZBdhawGnJ7mNUaOOL//yFyz6IcKFElpJV2LoAfu5dHsSDwhiB839Q7z5V79BtlCFI8UwyUYLEDPOwFwcsXCU1aVFLzUPQv3kYzLXJYajfnnSnU+K4dAtwwB37pE3LDUK2mIM595Xt9BoNMQak/gEqxlHPQ0ic76SP5Kg7CT45uaX6HRivPTq68KyE9Yaad68Hqk28DwBh+tBwFFXKGnhKFo4f3wf1QePUeo14XhdpFEEJ00REJ+6tB4cJI6Dtueg5WbYqy1g6x/+Eau/+RWiijIKPRHmJAmk4rLTxM/ZxnAkaTUHHFZ1Zh4PKz7TIm0AvR10D76BE+0KiSCOu0J8CDxNBnYDLbyaUbEIAiQ9Uvl72p4g5L24iqB6GX71MuAtA05J7zm20rDMuDHP7tzCmbFQm+Fwc8CZ4WKem4VDYcIkeinoyKKdDCprUieDy0Hgod1o4N6tLxF0u9jY2hT3Ex9qKfkipeA97D18hLgX4aX3folU6qcFhhJAK4dgQzo0BTqzvPmFKijtPMctHWFpKsCRXA7bOsDQnRjXiMnAs3XUWDE6xVeffYZyUMLLpHPT58/Av1yL5gdJcUsmkKYJnuw8xr37D/DaG2+gtLikeR5suRBwTkz8dOGkphLBhP2ftYWjX5epGypzELOZW5aCBXnaX3yF+r//F2rf7aDUPQDcppb8Ifrb6tFc2yxFByliz8H+0hou/P7/xIX33gXKAUDiB+uv2XUxlGUtJDSe0n560oBp3iPFQQ3FXICAFnQbQAPd5i6ODu6iFu7DY9FOwQsFDFFceL9yDwkiBN44Q490aCzDKV9CuPgCvMqmFPGU+5blnOQOVWafHnn9inwnFXBIA5+TBmYs3s483BxwzryEgwOci4VTDD9kBJyegk4ai8BlcietnoMH9/Do1i102i2hUAcUuNJUC/DpisoyvHjtJSxe2kYs1aEZBaKFwzhHqGX+SduVmmSasJeXmhnX4tnYPb04mWzh5IBjWEtGCLHOFpMAtSJCKn839valgOXqxoZo/QQOAR6TuKhCRtsWt1pNNJtNrG1sSgkbsaKY8CqJrATQ5wc4jMnwkG6eJrYUI2FWDZpf3sKT/+9PWLj7BLVOA0iOZM5uQkuAFhFlcoaY8jbw0E0TPKzWsPF//F+4/Fe/AKoBUp9sM7IWacXJN5kbdPaAo0uvjk81dg3gsG6a20XcraPVeIyodQuBGyNwMgRUWmjHsGqE7FkqrRT0Tx9pVkHirsKvbsNfvAK4LODJ4p0KOFqK1QJc8UEo1HSz5ZDmgDNj6Xb24eaAc/Y1HBjhXABnQI6wbwqTQNXfL8l37EvPRHpSUOmqYCKlsSRIfY0SAwYMyrOfCunVBBjTPItxDi9kjIRPOQth0jevrQxsW+BR9dPsQigtejrAkVpiHF+ElbqZxGrLLRxSomP4VPJ7kfS2IQAJ0EjujrEZxMIxMWUpUEorzgWJwEISYBKrARul89p+P+NvAL2i2Xb8TDlHB/ASgp62E4gpgLME3Xv3cPDhZ+h99S38w32UWbCUay6VA7itmVSJTqhQ0CBwgO7GBi7+/vdYffVlIHRBchfXkyJarSi1TGVtR7TAtvv4NBbOIOCImanUaDLVGGNMO0h6h2iSQBCzBh4JLTFCut3I0pPkW9Zg4x7TJVeGHy7BK6/ALV+AV1pD5rL6t8xGXKmDD9sccGYsvp75cHPAmfESnzvgUJAwIdIEl6VjIy0d5uUQUMRQ0MrLYqIw34KUYwMgBCA274oEVKj9MxufgXW6rDS5L3d72erUhhwxbulODzgKG9rcTWNE7OmjZUy0kkIgMQLtSCnFOU2C+6CFYwPKmYANBRmvna40rRytPXGUlmyp0f1ZjAJRxktIX+h5Hha2txExBkY3WJqiSjfV7iHSvQOU6RYaIdCH1yhm7AMZgtSFy5L8pmQQBXXWaCB5tIPDr75G48EDqfhNGSvJlYn2uJG9CAMBmyAMsfjiC7jwi18Ai1UkPrvNsJaZB4+kD+nE1meA2wZ2xWs6G+BIUMVYODn0SwUFca1J3g/LER0gau+j3dhDFNFq64oSwQrQcHif0ZUboLawgVJ1GW65BpBd6DDhmEQWkgu0nZxJYtJSPwNMw7mFM2NR9kyGmwPOjJf1/ADHSFwBHBIIjE9cWvcSX+hey9T/L4aKPqz07/MVut3E9cLSH7QY6G4zpT3kXLrX5KOGimpsiVm71Gjh2Iol2gtH3WRChBDA0TgVYgUa9vYhrVt65cjlGUFn2IGSRMpGZJLMqFWuOS8F237BzjzuUNj/8wCcSCpEA0HCXjUETtuhM4bLPet0kTWaCri+bRGtFo7EJaRemS+WEUkS/sIiUK6IlZRVWN5f4zcEHBoShaqrecfU2QKOdakZN5cYOrwXCTiMzxAs2eWTBIgGet19RL2G7jNbDrhluF4VrlNGWFmGw/YSUmKJS8OyRdo/yJX2BFbRoBU1B5wZi65zGW4OODNe5vMCHGnAZmIWRhoVYh6xaMPa7VNrjVl44nTlGq3iKzXSiEDqNpPqzkIQsH55o0iadbJejbO41OS6DNCI4LR7YNooi12VA0kq1oTDmI7gDy0e7QfTDyMVzpf4ADt8qsuNQktcacZdyJmLVae9MI2FoaAlPXiGjtlbOFrxIGApfynkWXB5iRBW0NVgugH8HDgM6EibbN0X3gYUxWngIuGPECdoQTmQxpo6sbH1lc9k4ZhSoKQ3D5abkVIKBu14H3Ii7AJKYksbSLtak09aSLA4LFtgKGlFYm7G/UdbUIu66r1of+fdROcWzoyl17Mfbg44M17j8wGcvKOWufpcsuRsLaUim8gIKzCbxLrc2jGfFIBxHIQh8yP6xXjVeBhXPkRBa9wxyaVWBBypFq0oqAaL+VuDxKYLMQGHwo3AaatHF748p8EKkKqQIshI/xtWupa6neoaVDabVAHT77JzNOX5nzXg2KR8uru0DpktIqpiVmWrVnu21iT3UdhqvHwTMLfGpyoAKTKCDQkDnH+igKPvGbekRrWObdnTAo6BPIN62rpb66sVD6vWhOpupKuNlo/8EHC0tXRGUoCpSM7rz8HKKADWWZZjmLSvnls4MxZd5zLcHHBmvMzPB3AKKjA7SRaeeuZG2JbMReEiQtcG3hnEpoXTF/k51XgsqMwAcCTEYJpw5d/DuJNpVWBfs2QAYTSZLPN+wFoBRK04XQfOyzPuM4l55LZgTnkw3VILgDMmLjVrC0fnpLExtUANsFvlgK5OsVxi+LY7KxdKk1BG1BATrjoSzxGaNNfITTMhWVjAUSgzFsLQhp4JcOx9JtajDjxgjOXrzn5EEoHJezGJm1SY4epS5I8yKPX+Zb6RFHM1ygZjkjYHLL9N5xbOjKXXsx9uDjgzXuPnATiq7Q4+6n0LxLjGjEAQTb8AFkX2GofRwooq1yT5cowhMwsLh/KCbCv9rr6FI0BoYhYCPmr2HLvuAcvG0qIpmAqFOSlqSYKQsIIoxboQdNxIHtOE/Z814BhPqHT6FHkpuSmGUSa5Ix4SluDJImF0iUVmrTDLJDaSXUSyJqggcYFEekkrWcSXwXV2xnYyzLzBCT894OTDF8rSsausNszL19WwHvSXcb3R+mL/G5eMvQSpVM1gJ1oXqU5ESB2e46v7lInBbixVDOa06BkLrHMebg44M17wkwAnjRIsVGsIyxUN7jpsHxLB6/TQebSDCvNjRKu1+QZF14FlA5mcFW1Sn2uVxhdlNESTnMkwqwT/NfiuuTQmXmEsnPzfIpm0qrMKISbjWS35+CKdBDg829KiRUstustEyVVQsIAjYt9Uk+a5rsQEDM1ZCjxS82Vcw4CSsVroJiwenFoiDD39jElxldgUAU3iWgaMioBTHHd4pkXAqW1vo2dZalmKKq9x9wDp/iFKIuhPLrkiOG62VtNwdC+8HHDUBZh6rCbQQ8Yfc0HF8mGq/evhp6wkoFYRGXASgpOm4EXAYSuE2Vo4MhcLagV2ckR6vvoq9d50UvgBq0Zwc1jDzkOamD1lQzi22SCNWvo4kUFJq8aHm4XwyFKTLeNzEMNldQ0pmaBkCz2Kv/v3tnz3cB5O6Ev6KUGdpIzmvB/OjKXf5OHmgDN5jU51xijAYQVcCsIsSlCt1FCqVCSfgoKBgON3I3QePkaJmqm4EPiAWdChJl5kApk2AeUQvUYDYaUijC66Hpif4ge+MrnKZfTaHfjs/WLAhNdGymyr1ZJ8Fv478H0tdSO9b3xthlUuS3ViTSBN4JVK/XiCXQ1rJQ251uz8bcl56yY5ZlkZBVnyXHo9ofjWj45QW1zUfB8mOKapNMWydGh2oYxYNTlNUWYzLzLVfF8SQTl3djCVvjFS7zORMTUfx0On04FPS4BjBoGMz3ll/Cz/tpbd0G7zGlLPQzcDFq9eRVQuSQ0ztkYO2aHysA7nsKF/n+BmzId1XcTdSKpzM07TarVRWVhA3G4jKFeksGVpoSaJvPzhnKpLNSQ9QwQxQMwk3jhi/yMqEZ58N+8zIg7fY18hHmToiaVK1+WEope2Hw73kN05E1YsMC7PkfE8WedUaOc8uMbSGoM9bRZq6LQ7CMsh2r02AuZBSe00zbviPet7vsScNL+GZApDDvACeGmGqKfKQ6/XRWWhgiTuSX0/5SAOH/34VG75ui56notOGKCytYmY94rEi1ypRn5UP0LKOnVBKG075g3YTiXqnurkOeA81bKN/9BJgCMWTqWmIGEsHC+K4PcidFk/a0rA4cOZIJZGYt1WC/U6W0d7+O6771Cr1XDhwgW0Oh2sLC9LBeXHjx9jY3MThwcHkoHf7fVQW1jAlStXBPxufPoZDg8PxSqgsFhdXZVxrly9qg8hs/ptsmVx6iMEbB9wTD8c45cfBhw7DCnZjx8+lI6dFHLr6+s4OjqSt6vVKq688AJ2d9g++gDXrl+XcxdrNSwuLaHdaqFUreL2zZtYXtZGbDs7OzJOu93Gyy+/jOW1NSkL880330ibBh7f3b2LN15/XdaMxSJZLp/AI/ryEFGCigE7RLZTYPHKFUTlEB3fRZxECCmQBXDqCJJUacgTDgpoAjvXiWB+/949+X3tlVfw1RdfyN5x3lJkFMCdO3dw6fJlmWObibwAti5exNrqqlhun378MRYWFrC8tCx7Wy6Xsba+jrJRNIoVGU6ySkd1/OS1nkQcERYgySi0Sl0X9+7dw97entyPL167hkcPH6JaqQgovfb66wL0VIaoNHz99dfY3t5GpVKRe5Bj7O/v42h/H/VGQ0gfvW5XQGxpaQlvvfOO3IMkghxLAC2seXGOtHAEcEoBypubSAjE8IWhyPv8sH6EBAo4rPE2B5xJd+/Z358DztnXcGCEcwEcF+hFXdFkd3d3RcjyYefDywefYEGhS8Dgbz74PChgG/W69MR54YUXRFC1u118+P4Holn3okgENQGHQu/dd98V7ZuHAE7RChijzZ8acOIYO48f49tvvxUBRO1zZ+exAA9NldW1NXz88ccitF555RUBVQpozpUC4q233sKjR49EiHGuXAeC09qFC7j24otYXl/HnVu38OTJE5k/fx4+eICV1VUBqe3Ll2UdtKCncT0WdlQat/kEnAy1K1cQl0roMECfqoXjHdaB3MKZfDMJ8JIkbMrzfPrpp+i029jY2MDt27cFJF+4dk008E8+/lj2ktfJa/zzn/+May+9hIVqVUr83Ll9Wz5zaeui7DvXhQVOOdaLL76oQEBKuGzgYAzMXqkAiiGTDTdgE+vFKAwjZ2ZYf3Ke58n1cjyuNe8hgjwP7uXPfvYzURJYA4+tzj/68EMsLi4KQF69ehULtRqa7Tb2dnakJNKXX34pChHvU86jsryMqNmUSuGj2pzrFPuIL38TtOaAM/mmPMcz5oAz48U+D8BhPCNKe+IeYxJg/fBQHm4KGbqd/vCHP+DXv/619JDng0vNnxrxvfv38WRnRwQThfu1a9dE6/zz+x+I9UNNkhrl1taWnEPAocCzWi6FssZ5TDC6EFOxy3hawKE2/MUXXwhorK2tCSAQRK9evSIuHQodCjAKra+++kqu8aWXXhIt+rPPPsPf/u3fCsBQIBO0KLw4HoUZQXN5ZQX/77/9G/7mt7+V6/7q1i21ZAAR7uwSytdd42YboPhJoZZMLZwMWNi+jKhUQk8AJxlwqQVprDTnKQ6JKWUZDvb38fnnn+O1116T9abgfvjwoYDoIef3ySfyGud7+fJlmf/1t9+Gw/YNWYb/+Pd/F6CtVqriErx+/bq4S7kWm5ub/ZiXBOOTPiFk1DUaa4WaPw+6I4u16kZ9RFnXZtKeh48//FC+n3Mj4BD8uU9c43feflsqetNtSkuMFs7bb7+tybxxLHtPi+nLGzdkzgRizplz4Vhvv/OONm7rdeEJG2/0MWDFzQFnirvxfE+ZA86M1/tcAIcqqe8gjSOpEvDFZ5+JO0IeWuMWIsi899574p6g24YPL4XS3v6+CAX+m9olXSC3b90WAUzhTuCiRk1N+ee/+IWcI0F4WyzTrFfxwS66XU4LOIzh0Lq6deuWaOaMWTze2RG3Ga0YAgeFD//m9xBwaNnUlpbw0Z//jF/96ld48OCBuF/anY5cLwGKQMm/aeV9+sknIrQ5L1oEPLgGb775pozHQ6oRjEr8JMfB89HOMtQEcEJ0GdQ3gOMdNuAc1IXsMTq2MHiDcX20koJaI7Rarr/6qnw394z7SEFM4Xvvu+/QaDbxxptvolQu45O//EWsvHK1Ktd7uLsr4PrOW2+L25Rrx0PcoVeu5GQRKiV5OaPh+90mOz0F4JBVwuA7AZQgceOLL+QaeE/x+wmQBBPuA9faxuk4TyoYl7e3peEaY3i03LiHdK1evnIFH7z/vsyV+845/uY3v0FYLkvsxx1DnRy2cDjvuYUzYwF3xuHmgHPGBRz++LSAI6UUkxgLdIUcHqH7eBcLDKzyAZ5AGiA6RElXrBM5PA83P/9cfPtf376Nn//85/KgUwjQPUGh9tLLL+OLzz8X64ECgO/99V//tQin//yP/xQBL4QB3xfBR1fKz999V7wttJoEVOhSm6L5FdeAmvewT3zUUjdaLXz4wQei2V+6dEmEDIUnfwgmvE5qyrTIrKXzySefiACje+2dd96RmA8/T23a/jAWQu345++9h1s3b0r8hp/nvOg2tIB07a230Hj8WKyhnBJeuFBSlGNSeIMSKptbaHseosATwGFLMLLUsH/EAvpT1VLjgna6HYTVKpIows0bN7C7tyfrbxWBq6+9hsNHD/HnD/4sApdAfGl7W/aPrinGd2jdcj5//OMf4btKivjFL34hsThaNxe3L6sZJ1W3C1m04wBHTk3kHqDVQbKJjdtZkBz+KBl87NUjFhuAzz/5RPade/HGG2/go48+kvG4FwQMn/EykjuiCP/2r/8q86JVRkWJCg2tbLo7X7p+XQCHSsLKhQv49C9/kbnxupQYd7zNAq9tGHBIPU/CAN1ygPDCOmKpqcckVLX4DuqHSAxpYB7DmbEgHDPcHHBmvM6nARz2fanyYSXg7OyhKs2ySCGdxFJjRro+6IwFkBhA19nP3n0Xn3/2mQjhZquFZqMhrqgPPvhAHnq6MvgQE3AotOnmoIb55Rc3cHFrC3fv3pWYBl0pBKbXX39dXE3SJGsat4wtm5NloukSqIoxgFFB624co3F0JHGmixcviuC8efOmCCMriL795htxy3A+7Ph5uL8vFsBfPvoIv/uHf8Cdb78VIUdriC41Bto5BxIC2D/ns08/xaaJkVAYE3wIqgeHh3jl+nVh9NECoBA/JlQZeCaryQtQu3gRbV8Bh0BYIetr7wCZAI7t1XLyDUWhTuuEHS65rtT0CZgEWlpfDK7T7Ul36ONHj2QNad1cWF8XggAVB+4fX6eA/ubrr/H6a6+LwO5EEXbu35d50y0qhAjJaTKFW0fF3Qo1gmwMh8pF7lKzcbsRnyXjzyuXEbXb8BxH7q8vbtzAxvq67COtZSEFlEr49W9/KzEyrvNRvY6bjNFcvYqjw0PZDypLdLdxHxzXEwgAACAASURBVGnx/fsf/oDX33hD9pzrQyVKFQKtJjHuyBlqYra6iHwP3VKAYH0dqVTTYAO4OeDMWOxNPdwccKZequlOnBZwyFKjhVPmsPUGek/2UE5ZUcpoyifQoklVipOeCBm6L767c0dcQ4zhMCZgBQddSHSd3bhxQ97nudSiqc3zIf67v/s70Uif7DwR4UUCQRgE4nqjoKBbhKSBiK8boTzKCiiuTNGlJpZRoSr1yBV0HOzt7opwIsDwuja2tvDg3j3Rjum7p2bPaxYG3vq6gCznxPMJUnTd0JKjMOdrnCP/TcFMwUsw5lrYIDY1Zc6D7Kh3yX6iIBxDjY5p0bCVNwFn6yLaoYeEIEziAj/3ZB/Z3iFKEsCZnIdDazTudmUpGMegRUJgr1Sr+F9/+pMIXwpuzouWHQ9aarQWadGtb6yjUq4IQNH9RnC+sn05j7PxszwYn+L8tPhpKqSISdbpAGmAlHFjvciAIwDHdqbh27yP6A5jPM1aGwQdghf3gNe/tb0tIMtzCa5vvvWWfAffo2uYYEQLlTGb999/XwgDSnVXAJVDwjfTtZi2LrVW4KG0sYGMc5IMpTngTCfNZn/WHHBmvKanARzmR0j+RrONaHdf+taHUjz5ZAuHOT1uyRehR9YZH+oaWV1xLFpua39fhC+FsxQ7oTD1PAlSU3hR693f28P61avoHR1h78kulhYXBVSEPUUXErVXzxPtmoKAltDEwHPBwiHLSvJgCtTZUUvtVCroEOzabY2nMHifJKLZSjB5YwOtel2EDmmuvCb+mxYKrQBSzJv1OqqLi2geHOTVlEUXphVSqci5mvyZigAjGFEzZ+4LmVOMIfjVqvQPGqYBR2xPwETBIESVgMPSM9KKmxZOinRnX9oTTAs4FLZcZ17HkSE7MCbD9W41GgKWiysrYm3R8qsuLcGl+41zbrOTplK3SYaghUGAZrFOzsH2tOFaCSOsUB9uHOBYi8DSonnf8GBFbsnfMZUpRtKjC5W6uVfcQ4IH94Q0c7oKeS3CAuSacyzjtiMwLq+uyncxdmPvM3sdBGIqGQRNZdJlwtxjntlJgDPKwumEPkI27uO+zQFnxhLvdMPNAed06zXx7LGAk8RIY5uHU1YdTXrVx3BbHUR7B/DohhIljvkPmvip1YOLiZ9SxhKO74jbgsKKgooChYmN/H76+G3fGGlWZlxFInQNW8nGWcQCYZsCqRDtwKlWEdfrA+4lvpeXzZqwAnb+FKAUPlbbHfcxupakqZqh1vL6eO2MIfDa+d0UrFag2pwgxgMYPyCYCki6LoJSScah66bb6QjgUcvleTzHjskxaLWx66lXqWryp+kRVOQ/cc5MiU1YGqdUQnVzC02ucYk9XDJU2KNmdx/p7gFC6YczOrZQnLthIMt18qCVKoVVTZ8fApL0+zFlhjgvghN/071J64iAxeuX8xiniGJ1C3JvDe1a3FeSt6JjjVMWioDDvwkc/C7meHFNJGRi8myG91AqNxijQ84xVib3TECclmCBAt4vU6rurqTXE0VG2GfcD/7NPbX3grgCqSgkUgpIknV9qY194l0o9yDnzO9gDIeAs76OhPlPUqFaxzw4OtIYjh/IzzwPZ6J4O/MJc8A58xIODjAKcPgQM8icxIm4TsqVsmZ9ZxnCzIEXJ2gdHCFrHKKSxVqikQ+XFBkzTcWKpTxcxnCOU0OHYyQi3KY4TwWSJvkVf4aXxpQ005dHVZIuul0mZLVbSSWFG4e+aFSsxyYY2gC2Vk8ZsQaF4LEdhxbN8bkYMLdrLBYRGWSugJiINNdDDB+x56O0toy0VkWXnik2qcuAUgKErR7S/TqiTh0ey7MY65CB/Dx+IiVebBdmlsCZ4qYzhVWPnTns2pJi0EMCWFpO2ArOBXfYBMLHFFf1VKeM3M8RLjoCVk67N3lDw5/VsqeFmyav8aMtx2NW7qA17DjocA0rZYRLi8gqZXSE4k7QoUstQ/3wSGq1hYEnCpYFHFsayba54P0wnoj9VEvyk/3QHHBmvPWjAIeuAOaUsBxKZaEqsQVaFSzaSMHF6r6sGJA1D+F3m/Ieiy+yXAnbC0sdZ6saW+E14gkY9WCPBIYRc2YpGAEb/jcCpOQjtgKxEfRW6OcCb0CIjCqGPwTOpkrwcfk79Ir5Z3F+4zLgNTl1ME9o9BbTErLtELSUv1w+WxpQM+a/haFWkgZn4UoNvZK2cObrrANQThz4nRhpo42oeQgn6WqXHekeoULKJnrm+oIoENMgTr9K2MD1n9Ay4jiqmkrZJndqum+d8QMh983xbx5IIrZfmfejMEVVef+PKDkkLbdF4dBftto07/U000oOjAk1WUlieQnlpUXEvosOTxYrh7XUMjSo5BnAYRmnsYAzqeLCM1iyH+uQc8CZ8c5OBBxj4VAgSdNcJkRnzKmJkbXriBv7iDtdlDxfinDQDQdaH6OK8060DGyl5ZMnqfJIteQ8yXOMYMvL6evJucvF4JEGqW0h/QkSzgqKaSwcWh62YvSJ5VZGTHUkEIu7UouTslad6M3S6VQLYdI5RndcUqrAX6jBX6igzUIorEbts3YZEGQugjhD1u0hbhwibTXEdRVIbTN1Y+VJsua6FNQnHwNJlQWBPOqzo5ZZz7Nnm5L/03zx5Es79Rm6d4PHqDrddmXsvSiFO0coP/l5RcDh8K40KZf7UhzS1QUEi4sSr+tw7+gaFhcjSzX1AccPPOkSOwecU2/tqT8wB5xTL9kk4W36sxitTtxpBQuHgVBaOLQKtEu7NM4VpdyNu4iaB+g0W0y00W7xmQPfPLAiWJgOQ7AyvVTs1UytvUo1++MCYBBf9EkWgVk47PcXgUme80L5k1xQGg3/pNUad815OZbCh6XltKlkbXvhjGLM2dgI18kKJgLJcfw0bhJbpZpMtDSVygKxKYvilkK4i4twqyx948r7sv5m/aTRG6NsjL902khbTbSbLSnSyv1hwUpvaO8KhuqJN9JIwBkFpkP5J/YULeqp7bvlVrT9j2Z8v08z3HBV73GfyfezYBHZOFHxM1QIzCOjv6V7uHY7lVwxGjKlEOW1C0hZ5BQZerRSApLXuSSMZWaoHxxJzMgLPbj+CS61uYUzzTZPdc4ccKZapulPGhfDsZRTCzgEIQEbCkMjGp00gpv0kEYx4m4PaS+WgHAu+I1njdozG2wdO4ZfMy6riecpgvRPK7SgHgc4Is7zjwxq0jLcNJWT5cRRa3v8RW0PV9TUHQHy4YM5LrYdjgUckhAGl0arUVs/pbUG6PdnHMEtBVKV2Alp4ZSQeoFYmtwrMq3sIX1qqFUz3hZ34cUR4k4PUadL3jqcJNW4UME6NX626W+owpm2jcPwh8e6FwutKJ7qC2f0oVHXN8rqpDsst//MMg/bg7KPQ1YPXyPYkERRJhXcdZRxySoGtm2biWnJHrPtOi2cwyNkLMBamgPOjLZ64jBzwJm4RKc7YTxpIBUBScCpCKPIsJQKAszJmPQZC1lAXG7yJClrx2pyttgi3594jAjIK7ZMJhyMGts+2DaoascaFxSexoNjwTans9LSG0V0kLYNBhpOEKS2F4so92LZaEXj4UPdNmpvSM8eA7ricmEMh9UcSMWVNtUu3BTwqEDz+kxAn73CSCBgb5ssobKQiLXKc+3eSe+fAuCMIkmM28fRrsDjZz/tfo67F0aqAKeJHU28MUefMC25QHv99A9RHQT7tRmdHI6DSNoR2GbY9t5xpTJD3I3RqjfElewErEmolPthhqClaZ/WjfuUS/Cj/9gccGa8xSMBh/1wEgUcVvotl9SlZh+MPPgpBr922bSEAht4lnwWeZD0Y8fJSmMAaISgGH54xmnOo0Gn7xSyrq3x5w2+c8xvz/iVdTkVJjTy4R7oQKYwQY342JELHLO8AiYnm4Pab4jYrt01JYaTpeJac1xfBJkAjsTbDHoQaKRFNqS9s1wLW04YEog4diwpwXzE7t80QJzfG5Puz3GW5LQAMaUleh4CdxrSizwbRhnLiRgFJUqfP1UlJGYjz408RbKS0vTQ9dHr9KRCB11qTuiJy3QOOJNutrO/Pwecs6/hoLY1ROdkDIfstJiWigGcigGcXKum4LLuL+YzGJ87hRsfMO1UabhXbIhlNLqBL6ZQHBIyPC+PacxonpLncUK1aCNnFRSHJOuxmIuZ56TxxEIYrkw9Yr78Ts7XwsuxzxTWgI2/MhIAhA2ozDKX3VGF6UTgMe2oBfx1HwRMCtgle2aAJ6OVQwXbWqYi3FTjtvul083Eav2hHc8NcIYWivfC8D6IHjYCYFnrzaodFnC4j6RA9zpdNJu0cDJ4tHDmgHMut+QccGa8zKMsHO34mUo8pkaXWgFwKLAoqER4qQ5m8nCUTCCtkSlE1dQxv/sB8WEbYoTKf+ylUZrktAJFguQS4zFqpGEFHfuSUW67EZZG0Uc/jQtp8DqPWy6WEKFj2ZjPsE2RIRJ6gBFe4gazG6DBdgKPVidQi3M41iTXrf9rqq4AlKvAZHxo5grUYrLMdgGtoYiS/HPUa9PdnMNLPWK4sQNNawhNe39Md8WjzxrtUjt+Ltd3VMHo/p7ortgVzWHHvEDAYfUJBRylUZN0MLdwzrJ70312DjjTrdPUZ50WcBgD6AOOBB4khkNmGn9b4a6JiHyIVERLnMc8QGpJFFxdQzGDgYs3hIDhCR0XKMelrOat0CrQT/flpr7QF5mayzMkQscxBHJLqC9wBkVFUbhMFnwnlXa0syYTLVG/v3FfqitM2x/zoAePblAl2LL9cT95M0+OzQHLkbwdns34EwWizfjnIhBsGO/hb827Glp9sYqVPzVKUE66+Y7D7hguxoiBRn3WnlaEabvuJ50/6TpHvV/8jlGMtGOqggHu4nXI82B6NYlyZrwMyiHUQ5UGVZJ4brfXEcDhd7LNulRXmMdwnmYLT/WZOeCcarkmnzw1acCU8KDVIr1msgwdsXQ8LKUeyl4gAMMm8YnX15DVYcTEQyAkSYvPkJ+i42hQvZS5cFLW/1KriecdixkMa9i2WIjR2NXrrY+0whuBz4hCh1TpQYCRJmW5sNRPMIdINXytfGXPMKMZ1xTFuYaA9YfJp0Uk4xgKAKM08ZHhh1EBkmPzLbj7TJxFXJe22gKvhBapuEMTdYO5xvJhFQLTCdPm1CgQh5rDE6SAHyPIUgQpyxKwaZ2LzAciEwDymF8ly+lwe+EQbFLm7KgqIXGHQvw7v+vGmC5nAZw+yJk9NcmWuWJhBhdihdkou692qYvfn/9dsOiO1+AuPEcFvWYk4IxwE48HPW3brT+a2Kv3rv2E/hbA6fZyl9occCbLtVmdMQecWa2kGWdaWnSuhRFwTB4La3Z5QYhKTKyhmkxhnSF2Nd6gVGQRyyKBK12Rksj8DJFUb3ERamAh16iLRV1yAUGhUnhqbaDcPvtSy81kLCiDS0wrPTKDchZ2ZFANzFuY4mc8BjVMHEcsuNxhOJjhT16XpotolWzpV28FhIxhxNXx1KGpd24aV11xMHGpkaFmBFcUxXk9Mb4u9doK+8a/Q7cE13cR+ylSh0zDFH4EOD0XDmNDoYu2R/BSiE1lbi7cLIXPH663KOCaCc8ll7UYOk47l5MWqWgt5nE02TPdI8n1EmRU9ND7xJF7SwS3sXgHrtLcZH0RXxT4/atRS5JzthUZtL7a8DHZoh38BPfG/iQx/+631rbPmQIOXWpN2dc54Ez9KJ35xDngnHkJBwc4DeAIRJiHjJ/z/QAlVljOwUsJA1J4UWqr6cPfc110XAdVWjqxFvmE3y/pAkcbVRF7io/wgPI/JMtsMp2GH9SKya0bCzik+wqKDJlNufVj3sxrjRRYdebLtRipsWKMALMXmQOOmacKuvyDM96p48NxD0YJuE6nJwKKmehFwLHAxD0sByG8gKwoBVeBbCEdUqEQHQBRFiNjpW/StV32ZdG5CfTwdX6ABAYKYznnuLk2S8AZB2ZMf9UKDMYVxWuSKs2FmnDGndi/WcdsD+d9LELVt7pzl5fcElr9oXicFnBUQVKQ6XUjZYeygG1BQZgDzjN/lMZ+wRxwZrz20wLOMHtMWgF4ITyWwvchXSZVEBmfv+F6kn7bdh00mDdAl1maYiGm+8bUAZPiklquJXeDmDmeBDiWw6uWisYUKPhy60bKvxgXnhGS+dLlFkofcLRcjB7WFaNwaYSNZbpZd5ko0VqWxB4amjpfwMm/u3AdUZQI4BSFvRWE/M29o56gZAGtRkwhy7prMS0FZCghgZ9EIF1BLBfX5ytIMsncURAShmIMTywbFv887oyaNeDksZkBWrohW1jdIN/HQYK5jZble2q2v3ifcSa8l4URKO9bH52eJf80NfxY4uksgDP86ThW1xqZolaZ4O854MxY6J1iuDngnGKxpjn1tIBjHwT2DQldX57AyHcQOa60KvDpwUqByAeaDtBKItSRYN9N0EaMRSfAVaeEjVTrdyVeJqU8AkPhZQ+ZAQFu/zFg4dhIi0oMyS8R2a8F5YWVTQBxMrA/TD8eo5+z0RrrFlNJQmeeyYFxCvXVcvBTB5yEhOR7NGdCytEXDCgjlsYSDqbZk9OeM2zpcP69XqR9dWzJGEPFJVCE7CTpaU67m7IwqyMWTcclvEQI0EIlagKNBtBrIvPYMqIMBDVk4TJSfwGxGyAlRVthSLiKjnO8yvVp53Ka8y2YWayVguY5AmgkjtdHYOTrPROfKwJO0WJRBcPQzk00Lx9O3JY6oqKMp/fcEOScxsIZVaUuSbTlAq0cq+TNAec0d8Vsz50DzmzXM2fI2IdX8nDiOO/CaUvbFC0caVoVhiYJMkVHQiYuytT4uspw2gmBL6M67uw+xrcPvkM3SHHkRNhYXsXfbL2Mt4ML8Hs9lNk4CzGqqSs+9sxzc+1O+ssYggIfTutqYByIMl+ARGJElPvs08L+Kq4wrpIoge9zLGr6Gkj3aGKl1NqFGKzmD4Pf7INDzV1KLjPxgcEofgcD6FqPTP1NDoTdQG2eJAmfDbJEpInWa9s0nJRgOuPtGzscNWUGmrmXRdDhvgUh63Wxcw4tzhCgkuDSwmnBdY+Azn1k9+9g/7PP0W4eIKEm4Zaw9cJrWHjxZ8DiNhJvCZFb0gTSNELoUoHQSgm5jmD60lgmlnXH8hz20WEbBkto4GdsrInXzPcImLxexi7YPVUtDI1VSb8dVlhgySXeDOKSZX053jMO0iRCIBpNVwklbLfB0zzG4LTVuWbpq1kke2362Tik57EILd/mdNjxlPeIWHCmS44XIpP915iPEjIGk3tPAz7WeuIYtHSshWot0nkM57yenMHvmQPOjNf9tBYOHwACjnShNAkGLXkMPZRYrzICjkrAv7d38a/ffoFv7t9D2m6iWnHwBF1EaYq316/i99ffxZtLl7DgOFiCh2qSYffBQ/zxw/elZS87Q75y/Toa9YYUD339tdfVtdDp4P/5l/+Jt996AxcvXcL7H34oY77y2qu4sLqKMpuYcY0oaOMukv376DbrYDsDgodvsuxZ2kUByPDo3BIysrBcrXmmHURdROxXEngKUmLZhKy0iHBlHd7KBSQpK/qy97xSWqVFg1zA8XjGjLfuxOGoKbMRGgU7DxuAFss09NGTql0OAqGj8XK5Do+Qdr/BwTcf4MF//Sfa39wBTbrYB+pHDSyubOOln/83rP389wguXEcvXEHCStO0CHs9KeJKMPiXf/kX/P3f/710RBXFxDRV+8Mf/iDtqXkt3N+PPvoIb731lrSpZktmtmvmNXPtP/jgA1y/fl3G4DXzfuPn2KqbgMRxG42GBNBZ/cELA7z5ztvwQ4JYDwHn0zpC+8kj+FFHsCPJHEQEEsNC5LgCfL4vyc7cX3HL0q9I4KIe4akdwtp0jk8/ZAA3KCG4sAGntoqUBItZAQ51G4LmHHDO81E58bvmgPP/t/cmUHZc5bnoV9MZe2611JJakzXbloRsYzzi2XjEA5DAXblJLg94WeFCsnKT9bJykwBZXLLuSzDJTULyHoQhQO4DjDEYD9h4xJY8IiNrsuZ56LlPn7mmt76/ardKrZZ0Wn1OS3bqaPXq1jl1du36d9X/7X/6/jovxZQAh7xd8FCUtGcdCRtgItoWv4pvbX8N6w/sRGuyGVcvXoSe1gR25frxdv8R9B3rx7x0Oz5+1QexMJlFN9Nu8yX88tln8eef+++YN38+Nm3ahN/+z78t1sqCBQtw5+13iGKiIvrKAw9g4cIF+NBHPoy/+uIXpXvkzO5Z+JP/9kfomd0NkynBVLaDRzG4YR3K+WHplkl6nmQyAZc8Ynyw3aBfPVVKIt0ifydMS1ojp9MpqVGpsBMkSTE9ByXbRoXup2QWc5ZeiPZlFwJGGi7dSxo7zgTxjzAxus4rNbnhzgQ4DgJLz/SsIAPQJW3KIfRt/QX2v/Usint34oLOLrR2dqLs2hg6egT9vSMoGh1Yce2HMffqe+GkZ6HkB1l7Gze8gYcf/JGAw89//nOsXbsWra2t6O7uxsc//nEBjC9+8Yu4+uqr0d/fD4IPfwhMF110ET7xiU/I5wQbrsOePXswe/bssc3HVVddhRtvvBG///u/j5UrV8qmh8cFpLI6Nm7ZjP/11X/E7DmzkE4aMJ0yhg/sxJGtm6AXcmhiwzIkxA0oFpbjoGpXxdWWbWpCoViQZoNMA7DJvsBFdG3p8plMJVEslaCZSdlcmKkm9CxdAWvhCiFKnSh7TrYctVaphksrxnQMOJO70Rt8dAw4dRbwlAAndGWUQmp9wwX6fA+PHduPH+zfhIFSGTctWoPbFyxAj+7goFfCiwO78cK2TXBKNj64+ircOHMJ5nspNOnAwQMH8b/+/gG8+eYGzO3pwW0f+AC++53vyi530YKF+MxnPoO///u/x3XXXYc333wT+w8dRL5cxkWrLsYbr7+OL3zuz3Hx8mVkpgRKBYzs2wF722tAtYxsU1ZaOItXzHGQbm5CfmQE5UoZzc2t8I0ENOkL4yM3OAzT0NHUlIXjOUg0ZaXOZXR0RBpl5R2gY8FStK1YA99qhmelBXDEkpAu9Oe/heP71TDZgq5RAPYQnIFN2L7uQfgje9GeNJEyU8iVbWlzMCNpwM0XsX3fAPzOlbjs7k8isWANXCMlNCt7du/GupdewtatW3HHHXeIG+yHP/whPvaxj+Hyyy/HY489hu9973uyebjiiivw7LPPYsOGDbjkkktkPe+55x5885vfFAuHVtLAwICsO9uSE3jmzp2LZcuW4dvf/raM+cQTT4TWm4bbbr0N3/j2t/DpP/wMFi9ZiJTuAvkBDO7ahoHtm9Di2WhPpWAlmmC7HgwrqNQvMdW4UkZTcxNsz0U6nUbFcTE0lENTJo2kqcOzK0hlMyiXyijZHopVT7qq9iy/CMlla+GaybHMTeXyU49oDDh1VlbnYLgYcOos9CkDjgdUzCCOQhf4ft/F1ze/jl8Wj8Evevjdi67DzS3NaCn1otiWwevVIXzrlWdR0jRclO3GJ9dcj8VIQ686ePPXb+Jfv/5VHD58WHbK9993H44eOYoVK1bgsZ89ii984Qv4x3/8R3G9dHTOQCqbxUixgNbWFuzZsxt/+Wf/F+bO7IJvl6T+ZnTnFhR3vAo4FVEw2WwTCqWSgE5LaytGcqMCJG3tHbBSTTDNBMqjeRRGc1JXlEhaKFcraGpuhm9oAjgolVBygLb5S9F64SVApgOeTisnKFl9pwAOvAr9RHD1lKQz65V+DO96ETvX/RhdGRtdM7vQOzCC5lnzUanYqBzahdlNGfT15rH1qIPL7/kU2lZcAT/Vikq1gsefeAIvrluPLVu2YNGiRWKBrFu3DnfddRduvvlm+ZvWKQGHn/X29mJoaEiUNYHkU5/6FDo6OvDTn/4UjzzyCJ588kn85V/+pRzb1dWF2267DQcOHMDXvvY13HnnnQJsdLWOjuaxePFSfP+HP8B//9yfY9EF85A2HOiFIQxs2YDR3W+jzasgbRhwUlmUGf8xDVipJAqlInTGtFIJ6WxLQ69YKKI8UkLatJBOGPDsMtLNzXCrDnLFCgq2h6pviIWbWn453EQmyNibgJw1Bpw6K6tzMFwMOHUW+mQAh8fy4VJJA2PZQfR9MzPNBXZ5Dv7h9V/idXdIcmz/j/feguuTKTT370NpVhu2ez7+ad2j4oZrq5r4gxvvx4XIoNPxsfnXm/HP3/wqNm/ZLPGbD3zgA3jttddw++2348EHH8QXPv95bNq8Gdu3bUfSSqK5rQ2PPPY40k1Z6YD4Wx/9DVx5+Vp4pVHopobczreQ37YOhmcLgLW2tiGXG4VhMsPKF0XK3XRbeycSTR2SzVQtFFAplYNaIrrmdF2sIUaWR4YG4ZfLqMJAy7wL0HTRpUCqBX4iK7laDCAH+WuqkGPiOpk6L+GEw/G6VAwnSBrQxV2VSjGGkwhdaB4qRlZYihOVXoxuexI7f/m/0ZUF2noWwmvtQceSNQAsjG79NYY3v4WR3gEcHHGw9No7ccENH4SW6mDJKJ57/pfYsm27tLPgWtFyIfDwfqEFs337djz66KMCFgSOl19+WdxtR44cEZcaAWfbtm0S/+G8n3/+eVx88cUCKGvWrMHv/d7v4eDBg/i7v/s73HHH7fj+93+AbDYLyzDxoQ/ei3///v/G73/201i15iJoTgFaaQR9m99A5eAetLgVNKWS8NNNKDusbg2SDArFIpLpFBKpJJLNLWLxVfN5VEtl+LaDJN1wbM+dycIT8swiSq6Liu9j9rKLYK68Gq6ZPl6bNuZGk1y3yLrUGM8LMzEZN6ywR1HIG87nrVqpSsyK6f+WlRDi1pjapvFPUgw4dZbxVAAnYBZgJboJzSGXF7BPA/6fDa/gmYH90pv97rVX4/p0BrPdAkatFH7t5vDDN55H3/AoelIt+MS1t2O5n8Kskoc9W7fh//7nr2Dnrp2yE6Yrhm4XutL+5V/+BZ/7bOoMZwAAIABJREFU3Ofw1a9+FU2ZLF5+cR3+62f/AHv2H5ImZLv37Ma8ubPwif/y29CcIjS3gpED21Hatl6SBwg46XQGw8MjcBxP6ofS6awEaBlfaGpqg55Iojw6KgFtKmlmRlUqZaRTaZiWiRwbYDkOCh7Q2rMQLRdfAqRbgESTdAWi/1+4x6S+JUCdye5y67W8JwMOCzsZw0rKD2M2nGJJy8DVNaSrfRjd8jiOvfEw9HIfui5Yjn1FHatuvBd6Fdj7wnMw+vpQGBrB3sECLr/nP6Fz1ZXw0jNQtg288Mv1WP/KegwPD+ONN94Yi7MwGYBgwXjO5z//ebF4GJ9jnGfJkiUCPhdccAH+4i/+QpIIvvOd7who8efpp5/BlVdeJfEdutQIOF//+tfx4Q9/WCwhAtLBfftw4QVL8O3v/hu+9Df/EwsW9SCR1KCVcji26Q0UD+5Gk1NGezaNqm5iVJS2LzKgImf2F9c5mU7LJqNULKJENxo/ZwJb1ZX19xwbuUJeUvh9y0Dn4uXQV1wF18hEsgDDrqUnZOudUPVzxuXl3Bib4ryUi05l7AWA44cJFGYMOGeU5tQPiAFn6jI8YYSpAI4EVkkdw/iFr0sm6SEfeGT/Afx49xYYbTOwuGsBVjensbQ9iSPVIt4aPIztRw8gNzCIG1ZcjNvmrcBiGGh1HRzZtQffe+hH+PmTTwrgLF26VNxrn/3sZ/EP//AP+Ou//mt86Utfwkc+/CF842tfw6zuudi174BYKHPmzMHs7i585N67kUjq0OwS+ndvQ2Hba9KVlH765uZmOHbApCbZz6YpFg7Bh7QiDCLL7lHTUCqVkJTGcy7S2azwxxVyOeQLBRRdoHPhErSuXA1Y2TELR2pZxwAn2K6ev4BTBWueyr4JTfeRsvvhHf0VNj3+DbQZo5g1exZcKw093YFUtgPV/fugjZawZft+jCbasfbOjyK77DIg2QnfS2Db9u34l6/9syQL7Ny5Uyychx9+WNxp9913n7i//vRP/1TAglYrAYexmV27duH666/HH/7hH8par1+/XpIJCAiHDnHt/wBf/vID+MpXHhB5/u3f/q0ADZMPGHP59je+gfZsE/Ye2I8/+tM/wbLlSxj2B0ojkjCQO7ATWbeK9kxKLOEqsxfDdVEp1rRiVTfWRDKJfLUkySOwHTHbW1rbpC13vpBHvlISUtNZS5bDXH4lPDMAnOAVpoWHiQnBezHg1FllTetwMeDUWdxTAhyZixu2ITDg+BoGAbw5WsG//2oDBqwMOmfNR9q10ZlyMOpWMFDKoVTIwRscwO9cdyNWpJswy7fR5jnY8Nob+Ld//yGOHD0q7pijR4+KsuKOuVgs4s/+7M/wwAMPSOryhjdewx/9tz/B8pUX4bU3Nohy++hv/iZuufF66LoPtzAKe6QP/VveQDE3LLtCy+KuMEx1DrOcHLsKKplyqSQ1JQmmexOIwvoVScc1jDGesjIr+K00uhcvQ9uipfCtDHyLLjXW7ASlG7Rwjhcl1uhOqfO6nsnCYbM21UvHgA3TywGj+3HsV7/Akc0vIuGMoDVjYnQ4D0tLIm0mpBxl/1AV8y+/GYuuuRt++yJUbGb1efja17+Gzu52AZbvfve7+Ju/+RsBdMZc7r33XgGJL3/5y7jpppuwefNmkSfda9xIEHg+/elPS+yGMSBmoe3btw87d+7Gl7/8t3jqqV+IG5CxvD/+4z+WdGlaTByjyNRoDXjp5Zfxr//2LSxYtACm7kOzixjYvxt9u7YDhRwScJFMBUkjoekg8TsFPnTjieWTSgmgcEfCzEv2AkpKG3BdEgtK1QqMpIU5S1fCWrAKnpEcS6cOxg1OoFi8J5seH1s4dX4QpjhcDDhTFOD4r08NcFh96cHXWe1Pu8FAwdcwrAGv9Y3iR69txJGqh1RzGgN9+5FtyqCzrRmVvj7c+p41uHHhQnRpGjJuCRnfxehIDrbHdNeg8I+uhZkzZ2Lv3r3o7OwcY9btaG9FIT+CbFMzShUHQyM5ySKa19Mjfr2UaUAnl1ZxFN5IHwrDg5K66zi2EFYyLZoccPSHu1J/EVTmE5DoYmPNDnniCE6KWFHIWwg8VFJmAk0zZ8NqbguytMz0Ow5wmL4ubQl88t6xOLICVEfh5Y7g8K+eRf/2V2DmjyEJT6zCXKGKApKYsfwyLLr2bjT3rIKX6oLnJYTOKJ8bRXNns7jFKDNuGAgKdA3RRcnaqv3790vmmaSfJxKypkx/pjVDC5WZbfyb33nrrU0S45k/f77cD4w99fcPSKLBjBkz5DbmepQKBVnvXfv2YdlFF0K3aGlXkWUqe3EU+WNHoJVLkjjCzEPBhJAuxjBMlMulMc45FssyZc+Xgl9f4kO0bHxp+xCwMXDzkcymkejsgp9slzTpwMKJ8OgJae3ZsbfGgFNnBTfF4WLAmaIA6w44fIAJOJKn5kpxXcHRkDMsbMsX8erBo9jTdwSFwjAsw8Ci7m6sntuDCzs6MUPT0MqdpEe+LkeqvasVT5R9sEsMKtIVCaWqVPc8GwZ3sawYF9JiHabBOhj23Al51YTfhpkMZfiOHRBLstDBCpSJakIwRist/DgkghPa45BZQDEMKGbgCKWOlYCnWXA1AlNK4jdBHc5k97R1XtBwuDNZOFLrKS7AKjRW60q5PeDkR6AX+zG8+w3k923E0b07JO053d6F5rkLMXfNVdBnLoNtdMDxk1I4akgxJQlZDVkvgoZiF+AaKgaBKD+YWl/+5rpGj+HfgbszYE9m8obQyoRAoQBLGAd4Hdz0sKCXNSyMm0lBr8OqG+i0VKWdtrSiDbnvxoJsoRQUbxIbAAVN7Hg5AiT8SNhMOQHeH2EfBl6XnpAOqlIwGrrTAuq1MJZzlktLayvKhRfHcM5SkHX4Wgw4dRBidIipWDj0fSv+yoARzQ6YQsgHpSVQMEwcATDiEUz4zLrCpdYKHU0u0MLCQ3lAPXhsacD0XPZiCRtSCXVJSG9z4mUzWiKqJeyTHPRLDh581dkzGDeou6mG7Lv0kAR0OSEFtPAki4IISSyj5xF9Eyq6QEHyyKByP+hmysy0CN3JSZxqdV6sSQx3JsAhiw83CMzgC9yiBlw9KIzUnSIMewjIHwGq+cBPmLDgp7KwE62wzTZ4WhMMJCQ3jySfAX+nKQChQIQKW61lFGDGc7+dKPOQjS5gyTxB/lHg4d+ywk6QTSjUNmyfHa4sN0BBK4WwY6nwrJ3cbelEPrZgHN6H8lK8neEEx+j81Me+kBqFXrrg/jvO9Xn2rtQYcCZxozf40Bhw6izgqQAOg85BtXqg3H3dFjeVtCR2DSHVHDGAsmgbJs8asKimfCDpajB4ALU4XeWKoip0eajLDChmxrMQ030XUJQcZ2ucODgrtFgEmbBW4nh/zSgbaLBDnegV2fsGykWsgcBHH6YFTPjds1c39VngMwEOwZ879kBFsyuBIT+S2k1Lwrehu6xnqoIpiNJUTxijyR+WFoofSoyAo/sBWwPJO6O8aQpwar0iZQ0pcAoMzhBYvIALbxx5c2CohitB1nFlgzIex82HbAeECVyDO7ZmkRlFmFejxADj112dRb0fMOodb/ynkgMCAKMsar3qk4+LAefsZVfvb8aAU2eJTgVwWL/BxyvaybNCN4bvI8Gn3/PgWIFKM9gnR4g2PfF0Wb4etC6m6WPowokp4KXa7YZPrKr9GX/ZQYtj9YqqhyhjcMjuG4KYamEw5vQKm8QFwHV6wYZZzuKyiyqTwMMSaW0QDjO53KQ6LyoB5KQ6nHFp0QQcse9C1mvxHnLHHihM/uURpD3yytmAQWuRzksj2DaQXVvcTjQhHPFWsc+EFEFOoG2VJTHeulHHRj8fW1WxWo/TvVjktAvXSf2ObhO4DQliiUFfpsAiDVqbS2HmRPOKrJdwsE7gEj3x7jq+VkHjP/UKvhkDTv3v5XM5Ygw4dZb+VABHiJPhIWEHPaVJPFwKNYB0AeUmmj4NaUscWDIO4zzcGVJPBX4daKYBJquK7z7sqEgfvmISVsooeuknKjWOI+pmDDvG8EP5WELVQPc8i+bkvKG2UK6zE9qKhjEkdcxYPME8Tlwzvt9YMIvgdb4Djs/mar4GJ2x+J+4njQzSjF/4cLUEKpqyYnhFXLUq4NgwPAs6kkGXNs2HawaZiqH4T2qJcBxAgu6jCnSi4MT3FEs0j+HfhmGNHRvEhoJmf0ECSNDFVAhkBTsJNiQgDXvghPdhwOGsMsdONjtOBsBID5wolkywKRFC2DBhICD+nMACO4vnNbZwzkJoDfpKDDh1FuxUAEcCpnSp0G/lc0cMVDQf5aoNO5eTfjcEjlKpiEwiharroLWzDSO5nARF6ciiYmGRn26awl3m2S5GRobR0dEp9CfZTEaq/TMszPN96evu2A4MknHSc+cGGW0tLc0YzY+KghLqectCW2srcsM5UXLNzS1hMV1YY5NMyfvZbEBNMjoaHMfsKT7wKkGhrb1dxqMyYZp2tqVVstmkr4wVZCgJI0Fk90yMG++gmwg067yUIdApFxTbE1REvnyRwp9upoAtOsjQE4Ac6+fD3jgOivkR+V6F7PzpZgwPDYvrqHvWDKRTiaBexdNQypfQ1NQiNDFVUgeZpiRuUEaUDc9DJgC1caBs+/r6ZGwlZ7pKmYWoZNfX24eOzg6pgSIjBLPUPGmzUJG0eNIRFQuFoM+NYUoKdjqdRD6Xl+MMy5DC0+7Zs4KeSGEvoDHAiXQej2LJicYtN0OnMXfHMCu0ZsYAZwo+tHE3guplpO4Z3m9sNREzDTTiiTn9mDHg1FnmUwEcpZSjO1iOx0py1lHw4adCscjAXC6Lm4dFfq+88oqQMvKHCpFprlSCZBZ4e9vb2LJ1ixR+UkERjAgArErnca+++qq8R6oUHsPvsVKc9ChC6Ll/v3zOdFqOH9C5pIKajWJReNj4m5Xrigr/sssuE64vzp3gxfRcFomSQPLWW29FKp3G66+9JjUiS5cvw8jIiJzz/e9//5gL6XQFntMFNrL7pyVJYyNsT6C6R6pMMAGcpHW8k2XkfqJiP3TokNDOkNeMKciUL9fwPe95j/xNOXJdSUPDVgOz58yRteW4uVxeqGnUfcH14fe4BpQpCzq5blxHWixcp1tuuUVYwPk5661Yr0P2Aa7T9ddfh1KpLHMiw/TChQuxe/duASBS4tx0042iiFlIyjmyPodFp7yPMpn0mPtNjBNazic3JA2tkuMAc7qEhsC6qh+wnOpRrladGrLU9JhpoM66cKLhYsCps5DrDThULlQqrBqnImHdBRX8rK6gnobK/cc//rHUXZCqhAqefwcK5noBDf7Nug0qGio+7poJOOydQhCh4nv88cel1oNsBCzUtKtVUTY8B8keqdAGBwelqJDKkHPhDpGKii/uvFmpzvPMmzcPL730krzHY/h/UrJs3LgRpMXne6yIp9LLkmU6n8eqVavkOCpX7tRPFbtQyq7Oy3bK4aYCOAQTsjgTULguBGqCMpXspZdeOgZCtDwJFpQrr5uyoqyfeOJJOYZyZX0NKWsIOgsWzMe+ffsFGAhiBHOuIwGE69rT0yNgzrVT9Vc8hmvLWh4SeRI4uYlYvXq1bGZ4ny1efAHK5QB8CEQ8nvfUDTdcf0IkRmWxnapFUXRDEAPOdN2p74zzxIBT53VqBOBwh0rgIJBQYfFnTvdsKQB8z9q1eObpp2WXS+VDRcXdKRXXlVdeKYqKip7KgxYOv0uL4n3ve5/sYLkTJjBQCVHpUbkReDgeiw55LN/jeAQIFhfStUNwoGIiGPI3KfK5U+b77R0deOnFF0XZqfkSRKhwOScqMSpZcQnZVVGCBDCOy3lyPmPum9MEzOu8dBMONxXA4b1AK4TKnWtI2VAOlAnBntfIjQTX8dprrxXQoDVL+ZOnjtxnXHMeQ3cYXzyGPW8IYhybsuJ6c20IcARuAtJLL60TmXK9eE6Ou3rNajRlm/D000/L2nNO/M17i+DD83LzwfuF43NN+dktt9x8QnpyhHlmQpnFgDMdd+Y78xwx4NR53eoNOJweLQ0qFOV7p+JeOH+BuKgue+97sXfPHvmb4KEsCh6zeMkS7Ni+XUCDypyAxM+ptMidxV0v3VuMqZBNmCB07NgxmJYlO+mdO3bITpnj0q1Ctw+/wx04lZyaFxUox6bCuubaa8UlRGVIS4wKjBYWrSSCFnf2tLDoqqPC3b13j4AMd9j8zbFVu+MgnnNyevU7xaXGteOa0cqhFUHAIfjQEqH7jPLk9XF9aPlRjjt27JBjVq1ejVdfeU1kzzWgZcvvEcSvuupKjIzkhD+N68RNhrImyfzMJA6CCVsOBPG0QP7kY6MVxd43fJ9uU8qYYMRxeAznyU0KwYptDjgOXW10xUlXWmkprVxqE7vDYsCps1J5Fw0XA06dF3MiwOHOU/3QWuBPNLtItSeIKlf10PI47jKVUqFCZqB5ZtdMUQzkyaKrjDtS/lC5cFdM1xa5smil8MX3uZPmeByLrjjuhqncSC/y6M9+Jj1SlFXCOfE73O0y6MwdOYGCCorzpwXEeVEBqUp1zp/zIdjxM86VwEI+rVxoKbHLJMejhfP6669jwaKFotwIdDwHrR3lTlNWzvglOpeAw3WMZvsRUBMJMjmcHBhnF8z86KjIgrKnQudaEbzpmnzrrbdERgQZWi1U9gRprgEBgHUz5EmjRchrpouUm4V0Jo2ElZC1VazP/M0NANeVCR9BLOZVrFq1WvrmcDORy42gra1dzsfYHYlA6X7j37R+OCYzxTju7NlzJK5GMLr6mquxb+8+2WTwPdkISL/o0z88ap1Ol9Y9nTEcVZfEe5v3Pe9vzlG1JYha1tFNj2JtqLOq+A85XAw4dV720wGOoikROvuQu4oPwUSAo6bFB4MPPRUd3R+0VEj5vmvnLtkREzSYNMCHhq4tPhz0+9MSocVBl5eKe3BuVO7K788dLufCsRlzCYLDmbHjubNmrIVWEceiEuR7dL9Q0XJsnou7eBU7otKkEqPFxWsTi8k0RZFyjnTTsP3wWxvfkh1/z/x5Apz8nEkDnIvy+0fdaryuc/FiNhpfZL9WSRmqeJbzpBwoQ2kJM879R5Al2FDmdB9yQ0BZ0XJgrEXdA7QGCeIEJbJDE8zz+QK2bN0qmWoM/NMqUbE5xnK4BgQSzokATwXJDQFlyHnwniB4X33NVXjy50+Ja40WFUGLsR9aWIryhkBFlx6zGrn5+NUbvxIg5D1EK4p/81oJWql0KsjYJh+atDY9u9d0AA1T7ykXlaXGmSog4XNFyzKa4RcDztmt5WS+FQPOZKRVw7GnAhxVC0HlwJ+oUlWAo4Bh/GnoTuMxtFoIMoV8QSwGjjNz1iz0HjsmSia6E+P/qXCUC02xC/A9KikqdoIXlSUfPp6DipGKT41FACOQEIQ4X5VRRfcOd7r8Ho8lyCxkczBNGwuKE1zVbl1lUFFTkeSTgMd5CL+X74nbhsqNu3QFLKeybmpYgvoeEuIclZdq10xZKGuU8lEWzngbh9c9NDgo7NkD/f0CxHSRUY5cO3Y+ZXCE4MyxCV5cE/5m8F64zdigz7KkdxABiTJjPIcypMJULki+T0BT8TaeZ0bXDCFhpSxpaRLIuJZcf66haRpC4EkQ7OmZG1AZ6RoGBwZl3ZtbmsWy4TpzY9HewZT2IG2e9ULCp3eWr+mxUoNCV9YYqXtegQ7vMz4blLFyFcaAc5aLOYmvxYAzCWHVcujpLBxVI0Nlo1xqaperbvqJzqEUOx8OlUpL5l0qCrqrqLT4d+BfD+IenIdy/Th8qKjcQ1obRbVI15wwNof8aqpQkHOIKn4qTtViQBRgWESqAE6di+dWSpLHq0gzx1VzUe4LutVEcena2ByU5RB1Laqd8PQoqAmkL4ATgDnloNZNyZiyYAHliUwNx8cR2RmGyI/gkyGgWNaYzJW8or8pF2FaDkv1fS9oPCe1PiFFAzcKLMmUfkSknQktZbJzC+OBF1hfsjakR9JZo+UKYJApmvcCrSe5h0JG6agbiQBoke8tPHewfoE1znGEh02YJc7uNR0WjuKO49x5PbwPOX91fxNw1Htcoxhwzm4tJ/OtGHAmI60ajp0IcPgeb2wqWaWwFYgoS4c3+0QBcnVKxXBLJcIHqFwsiSJTDwmPU0CgduBUYspfrZQ5j+MYVIR86FXMRilGpUgVEHIs7pYJkrRCVKFhoACDborqxYeayou/udPmZ+p6eQzHCbp+Bt0XxZ2RSsruky/u7lUflaiozxnYhHU4qp20AhwlGwXU0uOHRKnjdvxcY8qNlh6vTclDxYHU2kU3H1GAqpQDeVI+PJbn4bHKFcbfqlCXAKPGoyXE86q1VvckFWxbW6u4mChndc+p+0XdpwQyaepssJFaELPieGr+wfXrsN3ja6/Wq9a1Ot29XsNjVuMh3AAF8lKbIrUp4/2r1lN1K40Bp0axTuGwGHCmILyJvjoR4FDxKCVDpU3lEz1uvFWixg0JRKTvDLtoSkW4cGsF9PMKtBTQ8HsqBqJ2twrQlIWhfkeBRT180e9wLL5PcFC7Qv5fkgxYKxNaMPw7Sm+vXGFqbtF4B8e0EomAZoXM1Z6DsltBgqzKpPIJmYVJaZkkYzI5Vsh6LYJIwvMNwEqiwpbW0ouFRJeKfysglAy4yyax81Zxl5BpP1C+xpiSstnmwdORQEKsCc2nPMhCYyDvQjqaZmwPrlFFVa9A81wkq6TwD9o5OJ4DI5kBqQaEScJKo1CooqmF7ilXmpAlM2SNqAgFTtJKwanS8jRRqQayV3JXsqUrjAAjsjUNid2rLDLlIlKKX36zP1GlGlg2riftvZmZyOvk8co6Um495T5VVohKDOFc1P1EoOO5a3mR8icgilO8SBp8Lvbx7m1Co0SyUlurwtHL8n/TY7sGcsyFtDsaC2xJGspxQrJZmcCJrj1FbMB5Kzmpa+H9qkCbLsmA8sc4YfOmnkeVvBJ1VddyvfExp5ZADDh1vjtOBTjKrUTfOQFHuaxOd/oxj0XIhza2i2SLglwOpIlhgSYfGGbc0Hrgbpp1MKO5nFgZte446ywGOW8U1NRDS3AKuoVa4pKpahXojg6/YqDEZjwJF0l7FKnSCJwj+5EvDCHb043EjCXwkIGXyEpLajNJvjlyxREEZM8tXMbs4DJGQnaGi5ooTqR2w6KESYGCKnRYcEZ0JBIazIQNPz8AZJoxZKVB+q8ZhTIcbwi+NgLTqcDbuw9aqQTfq4AYqXkaNM8EmpuhzZgHrXkWkMjCgQUtnYFDxmzNk9YwhpYIePSEdDWqVCe+GMpZLBVDk8QGZUUqYFCbkPHAr+5TteNXGyKlbOt3P3AXQSGwdTotooCoyPfYR4mKXodu8Fod+K6FqjUCWx+ETk7BahoJNDNDQdpgeH4Ghp6BZ7jwOd4Y2CjAiRJ+TnwFyjLnp0zkGJNfWHCsYp1xllr97oDoSDHg1FmujQCc6OPE6fKRpcKWOAgtBttG1bYlMM1gPAFNKRqJk5yDFx9YtXtW4ErZqN2kuGcsHRW/iqRvyU7WZeO5yiCMYj8OPPUz7F73HLzyMDqXLMbye38P6XkrYetJVI0EDJPs2S4MaQZGCRnwYECfIuDITpjuQsYsDB0VNw/P1uDkdZRtBp/74JRHYLa2AjNmIpOwMKNSBo5sR+7N9RjZtg3D+3YAhSFY7Iqp+fDYSM0HUlYKXvcSzLr+djStWAWvYzbQ1Aan6iLhScsx+KQtYnyELrIaMvOC3na+pESzQJSp8HPmzhlzhSnXldrhR2NiCpSUEm7M5mQ84IT9C3xTQEdj4z+y0rpVGG4VmtGPam4XqgPHUD5WhlfUke7sQNO8eUDXPFTRIpbQ8fBR1FKKAeccPOqTOmUMOJMS15kPbhTgRJ0GDPhSiRNsCDr8/9O/+IXU11B53H777ZIGy+wmzz3zLvnMV3V2RygFFqSmVqUQkbUozKxi5pbtVAFLg+FoQMWBntCwZ9NLaMkfxf4nfgzr4C60oIoBAE33fgaLb7wPeqoJZZjQmCAhrRto4ejwNDMAHF94smua8EkWDl2GZFFOpST1nLvvqj2MXN8oNm88gMNDg7D9UTSnDQyWSsibOlYvW4gbFs1F+bWfY/8vHoF59BgSKMEySmh1bCRdB9WEhoqpwSq66HOaUZx/MWZdfwu6br4b1WQHTD0Lsxo0vfMtHYVEAHgpyqXGFzMKydnGWMudd94p2Vl0nyn3WLDxCLq6KpdS4HIKAupBHEo/IbBe46nPZEdGLJzQ+vS5dmQv16Cxp4ZG1uwSLIzAOfgKjmx+FrkdW4AhB4abRMVKovXiVZh9zS1A90ro+gyAFmNs4dRniaZxlBhw6izs6QAc7hEJMiqg/+ijj0qNBuskqHiee+453HTTTfKeir/U+TLPOFzUpUOlxroQpk9/8IMflHRgiSGQoVoDLNFDPnyviP4jbyPZvwv7HnsI/vbNyNpF2CwGveOTWHLL/TDSraj4hrAbQ8Am7DcTAo7BzjMn9PY59VTHAw5rUAjQau7lcglbNr2KI/uOYNWFV6Fr8Rw4mg/DqcBIpjBQGsWuX7+IZdURDDz7Q5i7N6KHGXzVEfh+Hk0am+k5cHQfjmUg4Ziw0YRDRjP6uhdh1e9+FqnFl0KzOqA5BAQNnqWhxFCF6yNZA+CIdcJGBxVSHpEx4jmpteG6E0hYN0NrScUuopmEjNkpGSgrR1mlZ1zgmg9QFg5bDxwHHNDCYUsNw4Om29DcPPyjG3Hope9DO7IB6ZFDaNbS0EoGjo6W0ZtuQ+v7bsKCmz4Ks3UFXARJESc2rogtnJqX5RwdGANOnQXfCMBhgF188MpNpesSqxkkn9YLLwhFCQtAua1lTIe+6WeefRaXrF0rBYbnyq0m6iDkC2MBIcGGGVdMnGAsS1KBGbCt+kLHf7T3AMxEGe3+KPY+/jCGf/0G9PwwUnNmY9Zd/wXtyy/kEhRwAAAgAElEQVSBn2qWdtv8HlxaM0FOlUvA0UwYAkJnZ+FEU5OpsDdtegvb396Am264FR2dPRgu2zATPpJMkS7bSDWl4Q3tQfWVJ7Hn4a+jNXcQWd+BWS0imwQqVYKqDpduNYIk2277HirpLHaZXei69WNYcNvH4Dd1w9aoQLnjZ/KELwCssz/FGV5i6VqmyNK2HSnU5L2gCFJVwF9ZM9H6Ib5HqiFawyqLq/7ZY1HACVK2pe+PHzZ/01nLVYFWGYKz9Tnse/7bmFndjWzxCLSiDb/M2FwWR5wM+juXYem9n0Tr2tth60GB8smdkoKSgFO94hjOme6oxn4eA06d5VtvwOF4rNtQtPhisWiaUJ6QGoZkmCyYZIIAFYhKYWahH+npWSR4xZVXohpmm0mx5TS42VSGG+e0fv16mR8LS2l93XHHHQKgpEoB60iqPorlKvYNHMb+3j2487rLMPTrDUDfUbRl07BmzYTRNR/IdsAzM6j6QQo5M9R0aWTGDqfMbTPCJILastTGWzhq96/k+NRTT2LlxRdg4bwLoCOLnF2BbefBZnhpLSXxh2ThEI7+7N8w+vJP0KHn0NbRDAwOwSvk4TWnYLa3of/YELSKjuaublh6EQPHDmOweQESaz6Axfd/Au6sRSgm0wKcJjPVnCDfji2ca3kp64Xzfuyxx7BkyWLMmz9fikUVjZK6NqWMuWF5++23he2Bm5JoHEfFeWo595mPkdTDMENNuXfDpAGCj2ZDMyrwir0YePEhVDY9hhmV7ciUjwStIQo+KsMaiujEIasH8+//P9F6w0dgm9mQ2eHEzqBn4tuJAefMK9bII2LAqbN06w04fEDo5lHefGYvkS5l3/790huFNCfRoDzjNuVSSWptGNMhbQqry0ldwveolBoTHD5ZkAQ2WjQPPfSQ8LQRIEnPw8p6/pDkc97cuTi09zASqSwuuuJyvLhxPS5cMg/u0aNIOw7WXnM1bKbIMh3cSElml+0FqeHMUAsAB3CY4qsZorBP2/ArMs1TAQ5jYwcPHBCgvPn2G5FJZlApeXjhtZfgVPMw8g7SRhM62ttxyUWz0fuj/xe5lx4OAGd2J9xjfXBzOWiz2mF0dWLg4AD8nI+22T3QzRIGjx1Ar9WN1Oqbseze34W7YDkKZkJaNifFlRb04XFqqORX4BDE9Ew8+8xzAsZXXHmFWMTc7DPbji63wBJiSjkZqyt47rnnha6IVDsqW0sVENfvsQiaCQZRfmV5MkMtAFPPLwN6Gaj0o2/9T+Fv/TlmlN6GWWDLBECv6HAHddhaNw4l5mHOvZ9E8/vvgW1mxgDnuEFz5r6wMeDUb2XPZqQYcM5Gaqf5TiMARxgBQtbkYqmEDRs24ILFi4WqhGzPDHBzJ0s3CpWJpBxLD3ptjICTTMOM6ah05Tpf9oTD0Zoiv9dPfvIT3H///XjhhReEpJJWDl05wyNDWP/KOvzOx34Hzz33EjrnzcOIW4LmlDCvpQW9+w/ihjtvR0nXkHBYLMrW2RY8WjjwQ8AJ4gLHAYe67ewsHAXEnDf53V5+5RXcc/99MGg5GTre2rkJvl8Ecg46Wudg5py5SLh9GH7mQQz+5BuYOXoUCUsDinmkkyYKjPU0Z1EterDcJDQtgarlYzSVwH6jHTPefw+W3vlRuJ1zUWWNCWi10ZUmzrWaqokUaKpNBzcj5K8jMWe02JcLpKxbWsv8YQ8kAtO8nnlSS8X7RtVP1e/+iAJOuC7iTmOhbAA4ulmF5gyivOdlHPr5NzC7uANWfj8cXxPL0CikkPc7cax9KRb8p/+KzLJrYOsBBdNEMZzTzT0GnPqt7NmMFAPO2UhtGgFHqvETCaGJkXbEYQ0OO2pe+/73Swo0HyJmq6XZWjrkM1NuFhI8MlV62fLl8n3FnVbny55wOM6BTMfPPf8c7rzjTjC5ge40JjZwXrfefiv0lA6/5ODZX/wSd95zL154fT1gl7GovRNDvX24gl0o0wnoDms4mI2WAJkyqZRN34HBGhYBHMZKaOGEm+kaLnC8haPAmDInt9wvfvE0bvnAbejsaEelUMbrW19FvtiHJqMJLa1zMX/FSiT9QSR3v4793/kKMns2Im1XYVgujKSPaqGEplRC0qmtRAaJkoaCn8ZhsxW5eUuw/Dc/juyF74Wf7JA6nSDbToMd0sbQWqvlFbVyVP+ju+66SwDEtAzYVWes0FgVkpKL7ZFHHsHdd9+FlpbWWk5zlseMB5zAxUbAkTCcV4JmlKEhBwxvwdBz/x/Su9YhMbIfwmNQteCMmiikZsO66jZkb/0IjOwKAMcBR7W/Pjmec/KUY8A5y2Ws09diwKmTINUw9bZw1M6UWV109bistxkcxM8efRT33HOPFH/SDeJUbRRLRQGfWd3dKOTz8vdTTz4p1hDrMzSyAoSUJnW+7JOGUy4aus7IdHzdddcJSSdf7MtCSvze/l6sXL0SCd1CW3M7Wtra8ODDD2HtmlUY7e0DHA9r3vdeeKkkQp4FSF9jpg+zTkXSoh0pIPXpehQLYeqAw7lTprTE5vbMxwULL5CiTDMNlOxRGJ6BZLodLt149gjMoYMYevp7GF7/BPz+PqRNBynDgVkqImOaKPkeXCsBveKjgC70peei85rrcMH9H0U10wXdaIFpM5AOeIaPouWJByrh1pYWfTzmoknbBzbT+8hHPiIbFVV8y5oiMjwHnG+aJJYQcH7jN38D6VRawEnF9uodw3E12mtcneC6wJXzSRTK1O0KDL0KzR2G6e0C3v4lSi/+BGbvdoBWrWMhX0lBn/8etN71n1Fd9B74mAPoWfgasxwN5mHADL12XP+gLkuDN8ZScfz2VNfGNZ6o8JPsCzSc4sLPxmiIGHDqLNdGAI5SO3Sr8YEZHBrC4088IYDDugtyZz311FNjBJO33nqr1LuQuuOZZ56RPjMXXnRRUCAa1lzU+bInHI5zpauGLjX2aWHSAIPaN9xwA7pnz8bL69djcGQIl15yqSQ+sHhx46a3JN7ErpQrL7xwDCg1xmbCs5w2C6k2o0BGmiiGE6UAYiEl2zbQDUhLsqW1RaxEph9TIdGiHB4awvPPPoO1Mzw0D+3Cvg1vwDlyAKnCMJJ2RRRtlWVGtFKZ2NG1HLNWXY9ZV1wFvWcBbLMFmpuAbkv9PVzDRtkkrY8Gy1G1JicrzKjASYNDQk3OnZbuD37wAwEcZf2qawqy8AJlzBT1F198UY6j1TueiaBe9wd1vy0JHk7gAmWSGoIED/rUNM9BgunS9iDQ9xJKW55Hcct6ZAd2IlXNw6/4GNJbMdy2FJmLb0b3lXfAb1kIP9WOim/CNZNi/Zu+B4uZnAI4zGzT4QgjwYk3RBRMFeDQDS10TZHW5jHg1OsOOHGcGHDqLNfpAJzevj786KGH8Fu/9Vuyi2VTLyro++67T5pn0Q9PpU4FQz89rRt205QEhJCXqs6XPeFwStGxbw776BAIqRBplVFx071TrlZEMTK7TogqqxVJdnjt9ddx0803C0gJoaWo4ODVKMBRhY+KJYEKiP2A6H6ilZhOsReMJgDPOVJhEdSZVnzZqvlIeXmUjx5C6eBe+CMDML2qpAFzh+8YJqzmFqQ6FiDVvQTo6kLJTML2k+C/BNltSGejuyhbQTaXOYGFM5H1oWlBASdfXHtaOMxOZPo574FkKiks0craYZO1Xbt2y3foelMp0YrmphbapdrvH0IuGSDICsHkF18483iFknBJl5pXgJ/bj77X/h3D29ahtXAUHaU+WAUbvgMUXAuH3TaMpOZh0ZV3YMY1HwZmzIftm/ASaRmPqfBSBCxnUKwTJ/PqxYBT+8o14sgYcOos1ekAnGO9vXjwRz8SwKGSZoo0lToD8+wiyRgJg8a0ZpilxmSB1atXizJSjMN1vuyThuOjrnje+JB///vfFytGda1k5hz538gWreqEmNFWKBXx00cekaSCJUuXjhWuTifgqBRiFQej3GgpMn2Y4MMGZpQpU4oJ5hKM1zykkiYSLDytlgCXDNiKZNIADPaQYWZWAr6RQNnUUeF7no6kqyPtSAQdvu7DNgPCUn2CGM6pAEdZk5Tl3r17pWkf56pqiyhbgjcBn7LnRoWbEtXrqFHZi8y206QGiQScQR2OUBgJd1wZhpYHqgPo2/ISBt/4PtC/GzPpkswPwCo4IOtNsUhZdWKo2gK7ZR5m3fUptK29BnqqGV4ihaqkVwdZcFKTRVcnDHFJisUTecWA0+gn//Tjx4BTZ/lPB+AMDQ+LUmYyAN06hw8dEsVBwKGioRuIipDKhdbP1VdfPeZSG+9GqvPlnzAcZaEKDwkuBD+6pzo6OyUlWjLsyiUBTdUuYf0rL8tO/L3vvVyYCMSiYe8W+tYbbOGopAHVdoC/henb8/CvX/+6ADg7ZVKezApkCjrnxLmbiTRc4UPzkTCYIegKEwJjJiT49HWyPpvwdA0Vn242VzpmGlJ34yEpVNnsMaOhagS9ZowJ6lfHA04QBKd7MKClUVQ2TOkm4LADKO8TYfROJmBXbbE2uUm5++67xQridxoVwyEO6L4u8RuW6DIpgoWwvk7AKcJ0h4D8IWxd9yi0A+uQcUZgOWX4hRGYFRtaVYNnp2BXMyhVEihorbAvvQ2rP/hRpNq74NFKlFUI2LlpFLIImD+sZ4oBp5FP+OTHjgFn8jI77TfqDTiiYMI0XxXDYUO1/QcOyE6WGzjTMMC0Z8ZtuJNlz3qmSHMXy+JKtodWr+kq/JSkAabZhj1xeH4FKpyXuNDY+ZQOkEgTONsNXD+8RrZAkM/YEmEaXGoCkKY5Zplxzjw/3WZ0VSoZK3+/CrLz/5aWgOfQSGHxiCdlJq4f9CMiJxtbx8jnJoPZkB0+YCOh+UgQkaRxGlkGDAEcRnSMGlxqgTUWUNcol6ByqxHkP/ShD0mcb6zPkAa8ve1tqTGiO42uNwW0jajPCpK7gxYSwV8GXMko9JHQqzCqg3BzB7Bnw/NIDO6A6ZZQKZfgk0WCvKyODq/EQJAF3U0gV9FQXLwGl935IaTaumCDTfxCmiOCmibOOymaZVyHaeaxhVNnJTeF4WLAmYLwJvpqvQGH55AwLzt5hk3PpFujZY11a6QlIx0gI62PFd28fF8LumryVV///KmFF00/jbYp4PvR5nOGRRLHoPe88HiRrp4Fi1IUGPR8IeAabH/cYAtHySZqBXIuzFhT70WPUVcvjfBcRsMJNkGSlMvgPH9kw8DNNz8PWK19qbwniHJvHvb9kStmrMeQtGjNM2BMkDSg6qvUugZzCKiP1Ev1tRnrdWOZ0DXKNGiYx5bY+dECmpqzkjKtAF+5EOtKbyMZhExwZgsCAo4pLkWXsvAcJFFCwsnBL/VDq+YAj8EsHSBXHpeeyQUuhWrBL1WhmUk4mWYY7TPBbzu+BYPycjxY0iJJk/odWpIaEUuA/fgrdqnVWeFNcrgYcCYpsDMd3gjA4ZNKsFGgIbt/prGGrZujmVUq0ybKCKz889NBaaPkEy06HJ+ooJS3uK7YDCxMIOBxQUZr0E2UgCPqVLKZGp+lpuaulLpSvDIv6U8TFNOqVxRUTZ8JAjY8sjGT+47XwMpG2doH7Ad0L5muIWASxHeoEGnZsDmbL5aPI2Sc1JPc0Z+cpTZ+DoF8ON7xeaneS9F5km2A7jQ2TWMCAV/RjqPq/+o6z3Sf1/q5ZIlZ7HVjh3hMzjtGuoI5GwQdrQqNoFQtS7M1ZhP4RtBmWyPwuGxhYIgVKNefDHjzKi7HsGDSbcc26iKCMCWalp+kRceAU+taTcdxMeDUWcqNAByCDX9YR8MXFSCtHL5UB86AxPF4C+ITlE3Yxz0KBnW+7JOGU4pR7byVlRO1wgRUmCRLN5ZtB64fJ2h9LQ3IIpYdA+qNtnAUgCjXksrqU8ATBR1aEWLZhNx0psmguCfOI6bkekLnwh9ZsdCt5IubTA/jNfyEMRt6zrwwkC7ONAEnxTd25pUa3zZHXYeVYHsKT4heW1qapSso2aMJPLyWRNIC21grYk9xg4ZdPc981tqOIOA4tOY8m+kSYvQ5bLhnJODpCfjiTmTygAvTSgrA0Bhkjx9aOioGqBG4WM9EgDJ1VBkXkyJgE5pLuTowWQ3MmBmtHNZr0TU5rpQptnBqW7dGHRUDTp0lW2/AUTGcEwDH9yVWo3zzvARl/SjrQf5PZRa2t1ZtChRA1fmyJwScqAJT9T9KiUu6bjIJxwtaHPMl6c+WKUAjSj60dKQZ2jTEcAJrIah1ElAP2y+PzS2s0yBTtcSVwvbaPJ5xNNGUMlNuDKKWUBDQponjaeR+YwEkXWsMbjOewZhOUIfDpmusJyHcHmfQOy7eqFWlQF2lRStLki4zWgdMfxYrwjCCZn1hzxsF/tIEL3RlqvbijbgvNDJml4uw/ErAfed40BJpAQWffY10smjY0nzOcdjFVYNlmCIyApTnVERmjluVrEYmSDAm5uoJuJ4O6TbOAlJpdcCkAbrUggxAAnf0FQNOI1a49jFjwKldVjUdWW/A4UnHGKNCRUg+NXKUsZU04wtUHB0dHaLAWRsyPDw8FnNQbhMmD7DeZSKXTE0XNsmDlBzUDpVFlMoiUGnHnBPToJlNxUwqJkF0zZwZkIxaprwnwEPXGnV2OIfTBbfH1fmddtbjM/aUbAjKBEgmCyheOjVHXgNbefO7rMWhrPma0TEDmVRWfhgvkQxoNecgB0AuwNVtuBKc4Bt0DQXt4ghVdBCRzsZQgDPBxag4i1hHvi/JIb29/WNxOq4364I4v2Qygb6+/rG203yPMg3APoFisSSp6UzgYMIJNzBqIzA+G26Sy3/i4Y6Hkb5DqAwfQ9rwYNtVZFo6YGRbkBGmjBL6+/vQ3tmG/v4BtGRb0dzUGrjQHBulfA6uU0GxOIpWtrXwTCSyrUg2tSBfLMJzqhgZPIZE2kQik4aeycJMt8Aio3cMOFNaunp/OQacOku0EYCj+uFQ8RJgduzciV27d4tSZForlcPs2bODPiiFAjZv2iTFiaQ5Ye0IlQx/K3dJXZXJqeTH9N5KRcCDlDaKIZo7baUsV65cifkLFwjfGivfqfw4V+UavPzyy2XO44PYjQIcAUL2uqkyHgOZNwGGSp31TSyeJWEqgZLWxMMPP4yenp4xLjvW5lx80cVBgkfYw0g2DDpdorScIokQY3IbT19zeqqE4y6mwHJhi4GjR3vFbSbp2aaJ9vb2sPCzCS+//IrcIwQV3juUL/9/8cUXS70WW1jwO2rDwr9Zs6XulWjCx2QfFXGf0jVayuPwzi0YPLIXi+d1Y8/uPZi/eDk8I4m2rpk4fPgQ9uzcjpVL5mH7zh2YOXchyq6GRctWSGfYo3t2Y7TvKKq5QXR3dcGxmpBp60K2rQ273t4KeBVo/DF1lH0Nrd3zMXfxSmhGMkT6Ey1E9b+YaWCyKzr142PAmboMTxihUYAju+8wc4tKRlk5tFq4KyV9DVs3U6E/+OCD8n/u0Gn1sOBPNWKbrrRoUbRhLKb32DFRbgRIAg/nSL63hQsWoLNrxhg7ApUiXYUsqKQCJR2Oyr6LgmSjAEe5yDh3zpEgSIAhOzcBhvNnszummduOg29985vSIoKf8frYKoLKWprKhe425aKLZrmdbv6nux35PRVvUfLYsWMn9u7dJ/cALS8CR2Dd0PWkiSVMmfN7BH9aajzujjvvwLGjx0T2TI3mtbEwl5YOx4puTs7WKpb5shapPIKDWzfi8O6tWDB3Jg4fOozO2T1obu9CZ/ds7Nq+nYnMGB04gua2drR1z8Wmt3dh9drLpP5q4MhhlIcH4OSG0N7cDL1lBsx0M9q6u3Fw906YmoPccB8yTRm4RgLtcxehdfZ8eHpG4mnRV+xSq7PCm+RwMeBMUmBnOrwRgCPp0CElDR+YzVu2YO++fbLTppJmszX2sW9pbRXSTtLcsOBv27ZtYvlQebLnieLMOluFd6ZrH/85d9Qs7tyxfbvMhYqNVgxftMBowXTNminASMVIWn0qbloSBBy2zCag8hVN+20U4KjzcN4s7OScCIBktuacaPGwU+kVV1wh18HumlTQBBUex+sj0AtLsxlk3yngVb+nmgWmLCdJuPA8cUPu3Llb3GEK3Gjh8EUApGzJQkEwocz5w3uI9wcBlfcOZU3XIDclvF94TcrKnEqqdAA4DnR7GIN7t2P/js1Y2DML+dE8qjDQ1tWNztlzseXXb8IuF5A0fPTMXwBbM3HgSD8WLFuJluYW9O/dDa1UQGmgH+XCqABO+6w56Fi0CF6xiHKuH71HDggzdlvXLGRnz4eWbIGjZyWbLQacyT65jTs+Bpw6y7begEPlILtadukMlQwBh4pCOMlcVxQjKWNoNeRGRsT9Q6XDna30zEmlpGhRuVymC3DEpaLrAiJkPOBcqQCpmDdu3CitCto7O0QhEhTpWuOLc+exVOzR3j5qqRoFOAQIFn4S3On/2v722zIPUv5zTpw7AZDKmjJnXIpAw/UhmPOHwK7cXuNbe4/PgjubW08BgEoQoFx3794r51RzoSwJHlx7ypbv04Lhi+8TaK699hocPHhIgIb3Cd2GdA/y+nivqLlPhfJGAAcOnMIxHNz+FvoP7sHyJYtALsCjA8O48tobYCWS2Pjmr5BNkxHcRfecHgwXKth78AhWv+dSJFMZHNy2FRkNKA/1o1QYhZ9uQVfPfHTMXwinkMdg72Hs2bkNra1NyLZ3Yu7SC6GlW+DqTTHgnM1N1sDvxIBTZ+HWG3BEuYb1H0EHR1/oa/oGBmQXTSW3detW6ahJlxp33vw/f9P1Q8VInz3jO8o1Ml3Fn1RyBDtaYQQYAp4KyNOKIE3MvAXzpVUB4zkEUb6oBGlhEHDG14rw80YBjqrUJzBwzlTMBBo2NaMrjcqdn9Eyo4zVcZwjr4fgxNgI5c3r5LVPJOupAL4CLXHR6Tr6evvkfshksgIYHJuWWMAwsVBYpPk550JgIdhTvmvWrJF7hD8EGyZAsPsnAYc/Su4q+/Fs5iwbDrjQtQJyRw/i4J5t6GxpRm//AKqeJm6xZStXYPObG4RusymTxuJlK5C3Xaxf9yquv+EmFHJ5DPcexez2dlRHhlEu5jFYqohLbtbCCzDU1wunWsLbW36N2d0zMZDLY8mFq9HePQ+unpb2BbGFU2clN4XhYsCZgvAm+mq9AYfnUAwD/E2l1tffLz1xqBioENgsjMqbfGoMhFJ50IVCpcFdOV0mVDTKpTYtSQMhMPBc3GFzTvyb8SS2V+iaMUOUeiqTlrgC50clzbnScuDunK4d9ap3DCeaoaaUeNQy4dw4FypqypTzo7XA35wX58yYCK0frgPBir8JNip+MpGSnopLTWJiYREqLRACOsGCqcQEc56bLjMCyvz58wW0WWtz7GivfM7/E4zoauPfqnaLx/NauWFRBK/1eyyY4l3BsUN7YbhltDU3QbeSKFYcAZ2OjnaMDg/B0n0YuoF0UzMOH+tD1QPmzOlBuVCEX7XRls1Aq1Yw3N+LfMVG15we6Mk0jvX2CeB41SJSSQtV10O2fQZau2ZLjY7KbZzono+TBuq3yrWOFANOrZKq8bh6A44oxjCGQQuHiq3KepVIjEC5gVSNDTN7WCcicwlMgrF6i6m4SGoUgRwW3Ykrq0S5gRQzAufn+kEVP5U0XUGqaVj0O+MZrhtl4ahzKoZlVbtEZa2YE8SlRdcmK9sTicBqDAtwlQsxCpLjFd1UAUd9X8VrRNaspXGCQmAV2+HfqqCW7AIsAFVsA/wuP4uuh0oUmMwa13IsCz9JUmqXixLct9gIjiSlRhKebkr9TZIlY54jxZ5karDZ1yaRgu24woqQNFncSUYClttUhVnBM0zoyQxs15OUaYuFozpgk70imYGrW/DJVBBOMgacWlar8cfEgFNnGdcbcEShhD9jAeNwpyuFkWGZefSBUiSZVOJROhvOLcoKXOdLP2E4tXvmm4pqhQqaipoKOxF2mGRBPt1RKv1ZMTUrYFTyrLeFo0BRjatATLnHeH5l8QhvXbk8xmotsQmDhZvBb2UJcUwFpqdyRU0FcJRLNArm3FA4tnvCfFRBpwIcBU60iHhPUN68D8SaSVjCPKDAVWXB1evekPmxeyktGBZ9+g4835CiT6G38VyYYKtwB1XHRbopi4rjokz6Hd2AZVrCRmCQiJNAxGfB9+D4hhSPSkmw5kFzyrBYYOq4whTtGVbA2BBsuU6gJFLXFls49Vrl2seJAad2WdV0ZCMAR8grWcnu+0HmU1jnIQ9zhIdMKTylvJXFoyrmo26kmi5mCgdFA+T8OxofoVKmJSN0+hpE+VEZquPUaRX4KEWr3q+HhRNV3qc7n1gtZBhgXVG1OgYy0WwxtQbR+SlZT2ThTEGsY8ozCsRBjkPQXVVtMpS8UyluOjxxa/K+oNwVIEU57izhtAu6ho6ve5rqfKn2GaMhvY1Qz+hWYN34OgxaQC5z1pyAAIghS97rtODJkSZkr7ZYRj6ZEcjIwM6lpMYxkyi7PizWOXEMsjh4PmymQhuJsY1aDDhTXcH6fT8GnPrJUkaqN+CI4g6VgHKtyY67SteCLm4d7lhFkYT8XpyDCtgr95AKXjdCoZxOhKpwMEqpQ/BUXGSq541UuCe4+y6Li4jHKMARypuQ7VrJ+FTnrJVpYCLAiVoOKlaidvyUuShqujgjnVM5jrIkOCelrE9lyUwlfqa+q4BCzbdSsZHJZlCtVMcsWH5mmDpKxfJYmnaQpUi5kvYmAH01VrR1hErnrtejEfDD0b1F6pmgI6ft0c1rwrErSJk6fLcKzbIClyBZs0MSV1IfsRZHuBjoxiSbuLhhyUFniTVEtuikocGplOWaYSZgkz4nkjAQu9TqtZpTGycGnKnJ76Rv1xtwZHd2AjNXQINy+nr0Ol9UPNx5LoETixvPv8kG8aUop8L4+5cwRCLTM9/XisT15GNljBPONP7JOdG1FrvUpv9OiQGnzjKPAQi2QOgAAAYQSURBVKfOAo2Hq0EC5zPg1L49ktYUdX3FgFNXcdZhsBhw6iDE6BAx4NRZoPFwNUggBpyJhRQDTg03z7QeEgNOncUdA06dBRoPV4MEYsCJAaeG2+Q8OCQGnDovQgw4dRZoPFwNEogBJwacGm6T8+CQGHAasAjM/FFZTsy04o+qRSH5IyvSa6GXURlXcdJAAxbpXTVkDDgx4LwzbugYcBqwTjHgNECo8ZCnkUAMODHgvDMekBhwGrBOMeA0QKiRIcezAzT2bOfX6BPX8ZwMOKcrjp3eK4qz1KZX3uf32WLAacD6xIDTAKGGQ0bZEs4fpdq4661t5BhwYguntjvlXB8VA04DVqBugMO5hZVwk2tE3ICLOsdDRpkBFOj8RwScia/5fAecyI18mvsorsM5xw/ZNJw+BpwGCJlKgYkC6jf/ViDE9r61Jg1Ep3ZSTdyZS7IbcGX1H1JxkkXbGvMspP8vlctwhI7FPKkHzlQoYup/FeduRLZLYg2/cL6FbOJsnxCVD/+2EqSRcc/dRM94ZjIN1HpTn1xfc8bhIxayOjbKNKDIWqMtwdXfUc65Ws8TH3cKm3N0dLTWVY5lWKMEGgE4409d87NZ45zP9WGK442cXmzp/MADD0ivGfJ9sacP+9KMf9WS6Xeur6vR5w+Axgw4yryADXzt2rX40pe+JO2wFWv3+W8NxoDT6HvlfBg/tnAasAox4NQuVLUzV7tIEpH+1V/9Ff7pn/5JrETbIWFm0OmUL8WWRVdjbOUoOQcuNfa9oczYfO273/kuLrnkEiE9lR5K1epYC4LaV2c6j4wBZzqlfa7OFQNOAyQfA07tQo0CjlKMDz/8MP7Hl/4HhgaHRGFWqhXZvcevCSQgvlZdYn2e74kleOkll+IrX/mKtIxWrRNiCyeQXXSTErvUpv+JigGnATKPAWdyQlV0/wQXKkj+9Pb2SmOzifzosWUzXr6BBchYFy2czs5OaeVNq5H/Z6+bE7maJ7c+03N0bOFMj5zP7VliwGmA/KOAQ+Wpkgb4PpMGMpnMcRdR6Coac47oNWQc0Z3UgHmfiyFV62bpg8KOjmEnzfFzOf936NMjvYnkwN4w6n3VjycAGksAW7FenN9AXX/AUTIZ3y1WyYSxQeVq5HvK/ag2OXHSQP3v6Rhw6i/Tsey08VlqCnBUllpUeUy2mPHdkjSgXGqKg041bGvAsrwrhjwZNNgQ7vgmRckx2qSNF67Sys9fIdQfcMYDTVQOlA8Bh0kqBGZpWBe2FVdp9zHg1P9uiQGn/jId21EqwFFWDv/f3NwsadEqbXq8X1lNZyIwik713QI4tYo/tnBOlyShj8UmxncqVfI9v60bgYK6p0VPdM9Eu6bmcjlx3yrLRv2OAafWp3Lyx8WAM3mZnfEb6qHngdEaHP6dTqflJwo0alc6vqBxIpeAfPFd5FJTu07+Vq6O8185nvEWaNgBJytRDbq0YA5e0Xtm/Kbl/Abt+gPO+FqkqIz4LI6OjgrgKAtH1TGpezG2cOp/G8eAU2eZKvBQD7cCH97YTPnlzc0fmvLKylFFoVHAUeOcanrvFguH10w5yMOta/Bc9qI/OUJ1fivLOt9EpxnuVFxq0RiOSsIYTwN0fsuw/oCj3IiUQxRMlCXDZ5B/RwFHyVcdH5Xl9K3yu/dMMeDUeW3VQz0R8ERdawqIVLB8/PFRwIl3/HVepHfdcEFa9Dv6JXuMWi/i5A3JREXAKoFiPHuA8i4wqy/qRouCjPruO1qm5+HkY8Cp86JEASfq4uD7qifORGATfW88wJzfO9M6CzAe7iwkcD63JziLyzmLr5zKKo7GY9Sw6r0onc14N1oMOGexCDV8JQacGoQ02UMmsnJUAoFynykwmgh8lAtAnTcGnMmuwH+048+eW+zdIqnTJQhEXYvRlOeom009c9Hf7xbZnE/XEQNOg1ZjohhMtB4nyig9HoTUAzIeeBo01XjYd7wEYgtnIsCJWinRsgMFNOOtmKhLLXZjN+ahiAGnMXI9qbBTxWqiGWwKlKJWjvIvq9/xjd+gBXpXDRsDTq3LGU0giILQ+FTo+LmrVaKTO+7/B4IxXVoARNRMAAAAAElFTkSuQmCC;" vertex="1" parent="1">
          <mxGeometry x="370" y="420" width="412" height="520" as="geometry" />
        </mxCell>
        <mxCell id="0MRZYaeRPUGzEPdsHiaZ-4" value="" style="rounded=0;whiteSpace=wrap;html=1;dashed=1;fontSize=18;shadow=1;sketch=0;glass=1;imageHeight=24;arcSize=4;fillColor=#FAE5C7;strokeColor=#0F8B8D;fontColor=#143642;" vertex="1" parent="1">
          <mxGeometry x="330" y="10" width="470" height="380" as="geometry" />
        </mxCell>
        <mxCell id="0MRZYaeRPUGzEPdsHiaZ-24" value="" style="group;sketch=1;rounded=0;fontColor=#143642;" vertex="1" connectable="0" parent="1">
          <mxGeometry x="612" y="27.674418604651162" width="131.6" height="335.8139534883721" as="geometry" />
        </mxCell>
        <mxCell id="0MRZYaeRPUGzEPdsHiaZ-10" value="" style="rounded=0;whiteSpace=wrap;html=1;dashed=1;fillColor=none;sketch=1;strokeColor=#0F8B8D;fontColor=#143642;" vertex="1" parent="0MRZYaeRPUGzEPdsHiaZ-24">
          <mxGeometry y="35.348837209302324" width="131.6" height="300.4651162790698" as="geometry" />
        </mxCell>
        <mxCell id="0MRZYaeRPUGzEPdsHiaZ-11" value="&lt;span style=&quot;font-size: 18px;&quot;&gt;&lt;b&gt;框架&lt;br&gt;&lt;/b&gt;&lt;/span&gt;" style="text;html=1;strokeColor=none;fillColor=none;align=center;verticalAlign=middle;whiteSpace=wrap;rounded=0;dashed=1;sketch=1;fontColor=#143642;" vertex="1" parent="0MRZYaeRPUGzEPdsHiaZ-24">
          <mxGeometry x="37.6" width="56.4" height="26.511627906976745" as="geometry" />
        </mxCell>
        <mxCell id="0MRZYaeRPUGzEPdsHiaZ-18" value="&lt;font style=&quot;font-size: 16px;&quot;&gt;模块 A&lt;/font&gt;" style="ellipse;whiteSpace=wrap;html=1;aspect=fixed;rounded=0;shadow=0;glass=0;sketch=1;fontSize=12;fillColor=none;strokeColor=#0F8B8D;fontColor=#143642;" vertex="1" parent="0MRZYaeRPUGzEPdsHiaZ-24">
          <mxGeometry x="28.2" y="70.69767441860465" width="75.6" height="75.6" as="geometry" />
        </mxCell>
        <mxCell id="0MRZYaeRPUGzEPdsHiaZ-19" value="&lt;font style=&quot;font-size: 16px;&quot;&gt;模块 B&lt;/font&gt;" style="ellipse;whiteSpace=wrap;html=1;aspect=fixed;rounded=0;shadow=0;glass=0;sketch=1;fontSize=12;fillColor=none;strokeColor=#0F8B8D;fontColor=#143642;" vertex="1" parent="0MRZYaeRPUGzEPdsHiaZ-24">
          <mxGeometry x="28.2" y="220.93023255813955" width="75.6" height="75.6" as="geometry" />
        </mxCell>
        <mxCell id="0MRZYaeRPUGzEPdsHiaZ-25" value="" style="group;sketch=1;rounded=0;fontColor=#143642;" vertex="1" connectable="0" parent="1">
          <mxGeometry x="386.4" y="27.674418604651162" width="131.6" height="335.8139534883721" as="geometry" />
        </mxCell>
        <mxCell id="0MRZYaeRPUGzEPdsHiaZ-1" value="" style="rounded=0;whiteSpace=wrap;html=1;dashed=1;fillColor=none;sketch=1;strokeColor=#0F8B8D;fontColor=#143642;" vertex="1" parent="0MRZYaeRPUGzEPdsHiaZ-25">
          <mxGeometry y="35.348837209302324" width="131.6" height="300.4651162790698" as="geometry" />
        </mxCell>
        <mxCell id="0MRZYaeRPUGzEPdsHiaZ-3" value="&lt;b&gt;&lt;font style=&quot;font-size: 18px;&quot;&gt;组件库&lt;/font&gt;&lt;/b&gt;" style="text;html=1;strokeColor=none;fillColor=none;align=center;verticalAlign=middle;whiteSpace=wrap;rounded=0;dashed=1;sketch=1;fontColor=#143642;" vertex="1" parent="0MRZYaeRPUGzEPdsHiaZ-25">
          <mxGeometry x="37.6" width="56.4" height="26.511627906976745" as="geometry" />
        </mxCell>
        <mxCell id="0MRZYaeRPUGzEPdsHiaZ-5" value="&lt;font style=&quot;font-size: 12px;&quot;&gt;组件a&lt;/font&gt;" style="rounded=0;whiteSpace=wrap;html=1;shadow=0;glass=0;sketch=1;fontSize=18;fillColor=none;strokeColor=#0F8B8D;fontColor=#143642;" vertex="1" parent="0MRZYaeRPUGzEPdsHiaZ-25">
          <mxGeometry x="18.8" y="53.02325581395349" width="94" height="26.511627906976745" as="geometry" />
        </mxCell>
        <mxCell id="0MRZYaeRPUGzEPdsHiaZ-6" value="&lt;font style=&quot;font-size: 12px;&quot;&gt;组件b&lt;/font&gt;" style="rounded=0;whiteSpace=wrap;html=1;shadow=0;glass=0;sketch=1;fontSize=18;fillColor=none;strokeColor=#0F8B8D;fontColor=#143642;" vertex="1" parent="0MRZYaeRPUGzEPdsHiaZ-25">
          <mxGeometry x="18.8" y="108.69767441860465" width="94" height="26.511627906976745" as="geometry" />
        </mxCell>
        <mxCell id="0MRZYaeRPUGzEPdsHiaZ-7" value="&lt;font style=&quot;font-size: 12px;&quot;&gt;组件c&lt;/font&gt;" style="rounded=0;whiteSpace=wrap;html=1;shadow=0;glass=0;sketch=1;fontSize=18;fillColor=none;strokeColor=#0F8B8D;fontColor=#143642;" vertex="1" parent="0MRZYaeRPUGzEPdsHiaZ-25">
          <mxGeometry x="18.8" y="163.48837209302326" width="94" height="26.511627906976745" as="geometry" />
        </mxCell>
        <mxCell id="0MRZYaeRPUGzEPdsHiaZ-8" value="&lt;font style=&quot;font-size: 12px;&quot;&gt;组件d&lt;/font&gt;" style="rounded=0;whiteSpace=wrap;html=1;shadow=0;glass=0;sketch=1;fontSize=18;fillColor=none;strokeColor=#0F8B8D;fontColor=#143642;" vertex="1" parent="0MRZYaeRPUGzEPdsHiaZ-25">
          <mxGeometry x="18.8" y="219.1627906976744" width="94" height="26.511627906976745" as="geometry" />
        </mxCell>
        <mxCell id="0MRZYaeRPUGzEPdsHiaZ-9" value="&lt;font style=&quot;font-size: 12px;&quot;&gt;组件e&lt;/font&gt;" style="rounded=0;whiteSpace=wrap;html=1;shadow=0;glass=0;sketch=1;fontSize=18;fillColor=none;strokeColor=#0F8B8D;fontColor=#143642;" vertex="1" parent="0MRZYaeRPUGzEPdsHiaZ-25">
          <mxGeometry x="18.8" y="273.95348837209303" width="94" height="26.511627906976745" as="geometry" />
        </mxCell>
        <mxCell id="0MRZYaeRPUGzEPdsHiaZ-20" style="rounded=0;orthogonalLoop=1;jettySize=auto;html=1;exitX=1;exitY=0.5;exitDx=0;exitDy=0;fontSize=16;sketch=1;labelBackgroundColor=#DAD2D8;strokeColor=#A8201A;fontColor=#143642;" edge="1" parent="1" source="0MRZYaeRPUGzEPdsHiaZ-5" target="0MRZYaeRPUGzEPdsHiaZ-18">
          <mxGeometry relative="1" as="geometry" />
        </mxCell>
        <mxCell id="0MRZYaeRPUGzEPdsHiaZ-21" style="edgeStyle=none;rounded=0;orthogonalLoop=1;jettySize=auto;html=1;exitX=1;exitY=0.5;exitDx=0;exitDy=0;fontSize=16;sketch=1;labelBackgroundColor=#DAD2D8;strokeColor=#A8201A;fontColor=#143642;" edge="1" parent="1" source="0MRZYaeRPUGzEPdsHiaZ-6" target="0MRZYaeRPUGzEPdsHiaZ-18">
          <mxGeometry relative="1" as="geometry" />
        </mxCell>
        <mxCell id="0MRZYaeRPUGzEPdsHiaZ-22" style="edgeStyle=none;rounded=0;orthogonalLoop=1;jettySize=auto;html=1;exitX=1;exitY=0.5;exitDx=0;exitDy=0;fontSize=16;sketch=1;labelBackgroundColor=#DAD2D8;strokeColor=#A8201A;fontColor=#143642;" edge="1" parent="1" source="0MRZYaeRPUGzEPdsHiaZ-7" target="0MRZYaeRPUGzEPdsHiaZ-18">
          <mxGeometry relative="1" as="geometry" />
        </mxCell>
        <mxCell id="0MRZYaeRPUGzEPdsHiaZ-23" style="edgeStyle=none;rounded=0;orthogonalLoop=1;jettySize=auto;html=1;exitX=1;exitY=0.5;exitDx=0;exitDy=0;fontSize=16;sketch=1;labelBackgroundColor=#DAD2D8;strokeColor=#A8201A;fontColor=#143642;" edge="1" parent="1" source="0MRZYaeRPUGzEPdsHiaZ-6" target="0MRZYaeRPUGzEPdsHiaZ-19">
          <mxGeometry relative="1" as="geometry" />
        </mxCell>
        <mxCell id="0MRZYaeRPUGzEPdsHiaZ-26" style="edgeStyle=none;rounded=0;orthogonalLoop=1;jettySize=auto;html=1;exitX=1;exitY=0.5;exitDx=0;exitDy=0;fontSize=16;sketch=1;labelBackgroundColor=#DAD2D8;strokeColor=#A8201A;fontColor=#143642;" edge="1" parent="1" source="0MRZYaeRPUGzEPdsHiaZ-8" target="0MRZYaeRPUGzEPdsHiaZ-19">
          <mxGeometry relative="1" as="geometry" />
        </mxCell>
        <mxCell id="0MRZYaeRPUGzEPdsHiaZ-27" style="edgeStyle=none;rounded=0;orthogonalLoop=1;jettySize=auto;html=1;exitX=1;exitY=0.5;exitDx=0;exitDy=0;fontSize=16;sketch=1;labelBackgroundColor=#DAD2D8;strokeColor=#A8201A;fontColor=#143642;" edge="1" parent="1" source="0MRZYaeRPUGzEPdsHiaZ-9" target="0MRZYaeRPUGzEPdsHiaZ-19">
          <mxGeometry relative="1" as="geometry" />
        </mxCell>
        <mxCell id="0MRZYaeRPUGzEPdsHiaZ-34" value="" style="group" vertex="1" connectable="0" parent="1">
          <mxGeometry x="10.000000000000028" y="20" width="300" height="360" as="geometry" />
        </mxCell>
        <mxCell id="0MRZYaeRPUGzEPdsHiaZ-35" value="" style="group" vertex="1" connectable="0" parent="0MRZYaeRPUGzEPdsHiaZ-34">
          <mxGeometry width="300" height="360" as="geometry" />
        </mxCell>
        <mxCell id="0MRZYaeRPUGzEPdsHiaZ-30" value="&lt;h1&gt;&lt;font style=&quot;font-size: 18px;&quot;&gt;一、什么是组件和模块&lt;/font&gt;&lt;/h1&gt;&lt;p&gt;&lt;b&gt;组件：&lt;/b&gt;把重复的代码提取出来合并成为一个个组件，组件最重要的就是重用（复用），位于框架最底层，其他功能都依赖于组件，可供不同功能使用，独立性强。&lt;/p&gt;&lt;p&gt;&lt;b&gt;模块：&lt;/b&gt;分属同一功能/业务的代码进行隔离（分装）成独立的模块，可以独立运行，以页面、功能或其他不同粒度划分程度不同的模块，位于业务框架层，模块间通过接口调用，目的是降低模块间的耦合，由之前的主应用与模块耦合，变为主应用与接口耦合，接口与模块耦合。&lt;/p&gt;" style="text;html=1;strokeColor=none;fillColor=none;spacing=5;spacingTop=-20;whiteSpace=wrap;overflow=hidden;rounded=0;sketch=0;fontSize=12;fontColor=#143642;" vertex="1" parent="0MRZYaeRPUGzEPdsHiaZ-35">
          <mxGeometry width="300" height="200" as="geometry" />
        </mxCell>
        <mxCell id="0MRZYaeRPUGzEPdsHiaZ-31" value="&lt;h1&gt;&lt;span style=&quot;font-size: 18px;&quot;&gt;二、组件和模块的区别&lt;/span&gt;&lt;br&gt;&lt;/h1&gt;&lt;p&gt;&lt;b&gt;组件：&lt;/b&gt;就像一个个小的单位，多个组件可以组合成组件库，方便调用和复用，组件间也可以嵌套，小组件组合成大组件。&lt;/p&gt;&lt;p&gt;&lt;b&gt;模块：&lt;/b&gt;就像是独立的功能和项目（如淘宝：注册、登录、购物、直播...），可以调用组件来组成模块，多个模块可以组合成业务框架。&lt;br&gt;&lt;/p&gt;" style="text;html=1;strokeColor=none;fillColor=none;spacing=5;spacingTop=-20;whiteSpace=wrap;overflow=hidden;rounded=0;sketch=0;fontSize=12;fontColor=#143642;" vertex="1" parent="0MRZYaeRPUGzEPdsHiaZ-35">
          <mxGeometry y="200" width="300" height="160" as="geometry" />
        </mxCell>
      </root>
    </mxGraphModel>
  </diagram>
</mxfile>
